<?xml version="1.0" encoding="utf-8"?>
<!-- Generator: Adobe Illustrator 21.0.0, SVG Export Plug-In . SVG Version: 6.00 Build 0)  -->
<svg version="1.1" xmlns="http://www.w3.org/2000/svg" xmlns:xlink="http://www.w3.org/1999/xlink" x="0px" y="0px"
	 viewBox="0 0 710 508" style="enable-background:new 0 0 710 508;" xml:space="preserve">
<style type="text/css">
	.st0{fill:#2D2935;}
	.st1{fill:#70627F;}
	.st2{fill:#8E7EA8;}
	.st3{fill:#3F394C;}
	.st4{fill:#FFFFFF;}
	.st5{fill:#39B54A;}
	.st6{fill:none;stroke:#5E7AA2;stroke-miterlimit:10;}
	.st7{font-size:22px;}
	.st8{fill:#3BB54A;}
	.st9{fill:#F1F2F2;}
	.st10{fill:#50475E;}
	.st11{fill:#BEB6CE;}
	.st12{fill:none;stroke:url(#SVGID_1_);stroke-width:8;stroke-miterlimit:10;}
	.st13{fill:url(#SVGID_2_);}
	.st14{font-size:12px;}
</style>
<g id="Layer_37">
</g>
<g id="Background_x5F_Panel_x5F_L">
	<rect class="st0" width="520" height="508"/>
</g>
<g id="Bottom_x5F_Panel_x5F_L">
	<rect x="520" y="100" transform="matrix(-1 -1.224647e-16 1.224647e-16 -1 1230.0873 608)" class="st1" width="190" height="408"/>
</g>
<g id="Top_x5F_Panel_x5F_L">
	<rect x="520" transform="matrix(-1 -1.224647e-16 1.224647e-16 -1 1230.0873 100)" class="st2" width="190" height="100"/>
</g>
<g id="Test_x5F_Element3">
	<path class="st3" d="M327.3,337.5H189.8c-11.7,0-21.3-9.5-21.3-21.3V178.8c0-11.7,9.5-21.3,21.3-21.3h137.5
		c11.7,0,21.3,9.5,21.3,21.3v137.5C348.5,328,339,337.5,327.3,337.5z"/>
	<circle class="st2" cx="190" cy="441.9" r="21.4"/>
	<g>
		<g>
			<path class="st4" d="M192.7,435.9c-0.5,0.1-1,0.2-1.4,0.3c-0.4,0.2-0.8,0.4-1.1,0.7c-0.3,0.3-0.6,0.8-0.8,1.3
				c-0.2,0.5-0.4,1.2-0.5,2c0.3-0.1,0.5-0.2,0.8-0.3c0.3-0.1,0.5-0.1,0.7-0.1c1,0,1.7,0.4,2.2,1.1c0.5,0.8,0.8,1.8,0.8,3.1
				c0,1.4-0.2,2.5-0.8,3.3s-1.3,1.2-2.4,1.2c-0.5,0-1-0.1-1.4-0.3c-0.4-0.2-0.8-0.6-1-1c-0.3-0.5-0.5-1.1-0.6-1.9
				c-0.1-0.8-0.2-1.8-0.2-2.9c0-1,0.1-2,0.3-2.9c0.2-0.9,0.5-1.8,0.9-2.5c0.4-0.7,1-1.3,1.7-1.8c0.7-0.5,1.6-0.7,2.6-0.8
				L192.7,435.9z M189.9,441.3c-0.2,0-0.4,0-0.6,0.1c-0.2,0.1-0.4,0.2-0.6,0.3c0,0.2,0,0.3,0,0.5c0,0.2,0,0.3,0,0.5
				c0,0.6,0,1.2,0,1.8c0,0.6,0.1,1,0.2,1.5c0.1,0.4,0.3,0.8,0.5,1c0.2,0.2,0.5,0.4,0.8,0.4c0.5,0,0.9-0.3,1.1-0.8
				c0.2-0.6,0.3-1.3,0.3-2.2c0-1-0.1-1.7-0.4-2.2C191,441.5,190.5,441.3,189.9,441.3z"/>
		</g>
	</g>
	<circle class="st2" cx="243.7" cy="442.3" r="21.4"/>
	<g>
		<g>
			<path class="st4" d="M241.7,448.8c0-0.6,0.1-1.3,0.2-2.1s0.3-1.5,0.4-2.2s0.4-1.5,0.6-2.3c0.2-0.8,0.4-1.5,0.7-2.2
				c0.2-0.7,0.5-1.3,0.7-1.9c0.2-0.6,0.5-1.1,0.7-1.6h-4.7V435h6.7v1.3c-0.3,0.5-0.7,1.2-1.1,2.1c-0.4,0.9-0.8,1.9-1.1,3
				c-0.3,1.1-0.6,2.3-0.9,3.6c-0.3,1.3-0.4,2.5-0.5,3.8H241.7z"/>
		</g>
	</g>
	<circle class="st2" cx="297.5" cy="441.4" r="21.4"/>
	<g>
		<g>
			<path class="st4" d="M300.6,437.2c0,0.8-0.2,1.5-0.6,2.1c-0.4,0.6-0.8,1.2-1.3,1.6c0.6,0.4,1,0.9,1.5,1.5
				c0.4,0.6,0.6,1.3,0.6,2.1c0,0.6-0.1,1.2-0.3,1.6c-0.2,0.5-0.4,0.9-0.8,1.2s-0.7,0.5-1.1,0.7s-0.8,0.2-1.2,0.2
				c-0.5,0-0.9-0.1-1.4-0.3c-0.4-0.2-0.8-0.4-1.1-0.7c-0.3-0.3-0.5-0.7-0.7-1.1c-0.2-0.4-0.2-0.9-0.2-1.4c0-0.8,0.2-1.6,0.6-2.2
				c0.4-0.6,0.9-1.2,1.5-1.7c-0.5-0.4-0.9-0.9-1.2-1.5c-0.3-0.6-0.5-1.3-0.5-2.1c0-0.6,0.1-1.1,0.3-1.5c0.2-0.4,0.4-0.8,0.7-1.1
				s0.6-0.5,1-0.6c0.4-0.1,0.8-0.2,1.1-0.2c0.4,0,0.7,0.1,1.1,0.2c0.4,0.1,0.7,0.3,1,0.6c0.3,0.3,0.5,0.6,0.7,1
				C300.6,436,300.6,436.6,300.6,437.2z M299.1,444.6c0-0.3-0.1-0.7-0.2-1c-0.1-0.3-0.3-0.6-0.5-0.8s-0.4-0.5-0.6-0.7
				c-0.2-0.2-0.5-0.4-0.7-0.6c-0.4,0.4-0.7,0.8-1,1.3c-0.3,0.5-0.4,1.1-0.4,1.8s0.1,1.3,0.4,1.7c0.3,0.4,0.7,0.6,1.2,0.6
				c0.4,0,0.8-0.2,1.2-0.6C299,445.9,299.1,445.4,299.1,444.6z M296.1,437c0,0.4,0,0.8,0.1,1.1c0.1,0.3,0.2,0.6,0.3,0.9
				c0.1,0.2,0.3,0.5,0.5,0.7c0.2,0.2,0.4,0.4,0.7,0.6c0.4-0.4,0.7-0.8,0.9-1.2c0.2-0.4,0.4-1,0.4-1.7c0-0.8-0.1-1.4-0.4-1.7
				c-0.3-0.3-0.6-0.5-1-0.5c-0.1,0-0.3,0-0.5,0.1c-0.2,0.1-0.3,0.2-0.5,0.3c-0.1,0.1-0.3,0.3-0.4,0.6
				C296.2,436.3,296.1,436.6,296.1,437z"/>
		</g>
	</g>
	<circle class="st2" cx="351.2" cy="441" r="21.4"/>
	<g>
		<g>
			<path class="st4" d="M348.7,446.1c0.5-0.1,1-0.2,1.4-0.3s0.8-0.4,1.1-0.7c0.3-0.3,0.6-0.7,0.9-1.3s0.4-1.2,0.5-2
				c-0.5,0.2-1,0.3-1.5,0.3c-1,0-1.7-0.4-2.2-1.1c-0.5-0.8-0.8-1.8-0.8-3.1c0-1.4,0.2-2.5,0.8-3.3s1.3-1.2,2.4-1.2
				c0.5,0,1,0.1,1.4,0.3c0.4,0.2,0.8,0.6,1,1c0.3,0.5,0.5,1.1,0.6,1.9c0.1,0.8,0.2,1.8,0.2,2.9c0,1-0.1,2-0.3,2.9
				c-0.2,0.9-0.5,1.8-1,2.5c-0.4,0.7-1,1.3-1.7,1.8c-0.7,0.5-1.6,0.7-2.7,0.8L348.7,446.1z M351.5,440.7c0.4,0,0.8-0.1,1.2-0.4
				c0-0.2,0-0.3,0-0.5c0-0.2,0-0.3,0-0.5c0-0.6,0-1.2,0-1.8c0-0.6-0.1-1-0.2-1.5c-0.1-0.4-0.3-0.8-0.5-1s-0.5-0.4-0.8-0.4
				c-0.5,0-0.9,0.3-1.1,0.8c-0.2,0.6-0.3,1.3-0.3,2.2c0,1,0.1,1.7,0.4,2.2C350.5,440.5,351,440.7,351.5,440.7z"/>
		</g>
	</g>
	<circle class="st2" cx="190.4" cy="384.7" r="21.4"/>
	<g>
		<g>
			<path class="st4" d="M187.5,380.1c0.3-0.1,0.5-0.3,0.8-0.5c0.3-0.2,0.5-0.4,0.8-0.7c0.3-0.2,0.5-0.5,0.7-0.8
				c0.2-0.3,0.4-0.5,0.6-0.8h1.3v13.9h-1.7v-11.1c-0.2,0.2-0.5,0.5-0.8,0.7c-0.3,0.2-0.6,0.4-0.9,0.6L187.5,380.1z"/>
		</g>
	</g>
	<circle class="st2" cx="243.4" cy="384.7" r="21.4"/>
	<g>
		<g>
			<path class="st4" d="M239.9,378.2c0.8-0.8,1.7-1.2,2.9-1.2c1.1,0,1.9,0.3,2.5,0.9c0.6,0.6,0.9,1.5,0.9,2.6c0,0.6-0.1,1.1-0.3,1.6
				c-0.2,0.5-0.4,1-0.7,1.5c-0.3,0.5-0.6,0.9-0.9,1.4c-0.3,0.5-0.7,0.9-1,1.4c-0.3,0.5-0.6,1-0.8,1.5c-0.2,0.5-0.4,1.1-0.4,1.7h4.4
				v1.6h-6.2v-0.4c0-0.9,0.1-1.7,0.3-2.4c0.2-0.7,0.5-1.3,0.8-1.9s0.6-1.1,1-1.6c0.4-0.5,0.7-0.9,1-1.4s0.6-0.9,0.8-1.4
				c0.2-0.5,0.3-1,0.3-1.6c0-0.7-0.1-1.2-0.4-1.5c-0.3-0.3-0.7-0.5-1.3-0.5c-0.4,0-0.7,0.1-1.1,0.2c-0.3,0.2-0.6,0.4-0.8,0.6
				L239.9,378.2z"/>
		</g>
	</g>
	<circle class="st2" cx="296.4" cy="384.6" r="21.4"/>
	<g>
		<g>
			<path class="st4" d="M297.2,383.9c0.7,0.2,1.2,0.7,1.5,1.3c0.4,0.6,0.6,1.4,0.6,2.4c0,1.3-0.3,2.3-0.9,3
				c-0.6,0.7-1.6,1.1-2.8,1.1c-0.5,0-1-0.1-1.4-0.2c-0.5-0.1-0.9-0.3-1.2-0.6l0.5-1.4c0.3,0.2,0.6,0.3,1,0.5s0.7,0.2,1.1,0.2
				c0.7,0,1.2-0.2,1.6-0.6c0.4-0.4,0.6-1.1,0.6-2s-0.2-1.6-0.6-2.1s-1.1-0.7-2-0.7h-0.5v-1.5h0.4c0.8,0,1.4-0.2,1.8-0.6
				c0.4-0.4,0.6-1,0.6-1.8c0-0.7-0.2-1.3-0.5-1.6c-0.3-0.4-0.7-0.5-1.2-0.5c-0.3,0-0.7,0.1-1,0.2c-0.3,0.1-0.6,0.3-0.8,0.5l-0.7-1.3
				c0.3-0.3,0.8-0.6,1.2-0.7c0.5-0.2,0.9-0.2,1.4-0.2c1,0,1.8,0.3,2.4,1c0.6,0.7,0.8,1.5,0.8,2.6c0,0.8-0.1,1.4-0.4,1.9
				C298.2,383.2,297.7,383.6,297.2,383.9z"/>
		</g>
	</g>
	<circle class="st2" cx="349.3" cy="384.6" r="21.4"/>
	<g>
		<g>
			<path class="st4" d="M345.9,386.7c0.2-0.8,0.5-1.7,0.9-2.6c0.4-0.9,0.8-1.8,1.2-2.7c0.4-0.9,0.8-1.6,1.1-2.3
				c0.4-0.7,0.7-1.2,0.9-1.6h1.8v9.1h1.4v1.4h-1.4v3.4h-1.6V388h-4.3V386.7z M350.2,386.6v-6.8c-0.2,0.4-0.4,0.9-0.7,1.4
				c-0.3,0.5-0.5,1.1-0.8,1.7c-0.3,0.6-0.5,1.2-0.8,1.8c-0.2,0.6-0.4,1.2-0.6,1.8H350.2z"/>
		</g>
	</g>
	<circle class="st2" cx="403.4" cy="384.6" r="21.4"/>
	<g>
		<g>
			<path class="st4" d="M402.9,379c-0.1,1-0.1,1.8-0.1,2.4c0,0.6-0.1,1.1-0.1,1.5c1.3,0.2,2.2,0.6,2.8,1.4c0.6,0.7,0.9,1.7,0.9,3
				c0,0.7-0.1,1.3-0.3,1.9c-0.2,0.5-0.5,1-0.8,1.4c-0.4,0.4-0.8,0.7-1.2,0.8c-0.5,0.2-1,0.3-1.6,0.3c-0.4,0-0.8-0.1-1.2-0.2
				c-0.4-0.1-0.8-0.3-1.1-0.5l0.5-1.4c0.6,0.3,1.2,0.5,1.8,0.5c0.6,0,1.2-0.2,1.6-0.7c0.4-0.5,0.7-1.2,0.7-2.1
				c0-1.1-0.3-1.8-0.9-2.3c-0.6-0.5-1.5-0.7-2.7-0.8c0.1-0.7,0.1-1.3,0.2-1.8c0-0.6,0.1-1.1,0.1-1.6c0-0.5,0-1.1,0.1-1.6
				s0-1.1,0-1.7h4.7v1.5H402.9z"/>
		</g>
	</g>
	<circle class="st2" cx="137.8" cy="384.4" r="21.4"/>
	<g>
		<g>
			<path class="st4" d="M134.6,384c0-1.4,0.1-2.5,0.2-3.4c0.1-0.9,0.3-1.7,0.6-2.2s0.6-1,1-1.2c0.4-0.2,0.9-0.4,1.5-0.4
				c0.6,0,1.1,0.1,1.5,0.4c0.4,0.2,0.8,0.6,1,1.2s0.5,1.3,0.6,2.2c0.1,0.9,0.2,2.1,0.2,3.4s-0.1,2.5-0.2,3.4s-0.3,1.7-0.6,2.2
				c-0.3,0.6-0.6,1-1,1.2c-0.4,0.2-0.9,0.4-1.5,0.4c-0.6,0-1.1-0.1-1.5-0.4s-0.7-0.7-1-1.2c-0.3-0.6-0.5-1.3-0.6-2.2
				C134.6,386.5,134.6,385.4,134.6,384z M139.3,384c0-1.1,0-2-0.1-2.7c-0.1-0.7-0.1-1.3-0.2-1.8c-0.1-0.4-0.3-0.8-0.5-0.9
				c-0.2-0.2-0.4-0.3-0.7-0.3s-0.5,0.1-0.7,0.3c-0.2,0.2-0.3,0.5-0.5,0.9s-0.2,1-0.2,1.8c-0.1,0.7-0.1,1.6-0.1,2.7s0,2,0.1,2.7
				c0.1,0.7,0.1,1.3,0.2,1.8s0.3,0.8,0.5,0.9c0.2,0.2,0.4,0.3,0.7,0.3s0.5-0.1,0.7-0.3c0.2-0.2,0.3-0.5,0.5-0.9
				c0.1-0.4,0.2-1,0.2-1.8C139.2,386,139.3,385.1,139.3,384z"/>
		</g>
	</g>
</g>
<g id="Test_x5F_Element1">
	<path class="st5" d="M268.2,242.9c5.8,2.1,10.4,5.8,13.6,11.1c3.2,5.3,4.8,12.2,4.8,20.6c0,11.2-2.7,20.1-8.1,26.5
		c-5.4,6.5-13.6,9.7-24.6,9.7c-4.3,0-8.5-0.6-12.6-1.9c-4.1-1.3-7.6-3-10.7-5.1l4-12.3c2.7,1.6,5.5,3,8.5,4.2c3,1.2,6.1,1.8,9.4,1.8
		c6,0,10.6-1.8,13.9-5.5c3.3-3.7,5-9.5,5-17.6s-1.8-14.1-5.5-18.2c-3.7-4.1-9.5-6.1-17.6-6.1h-4.6v-12.8h3.9c7,0,12.2-1.9,15.6-5.6
		c3.4-3.7,5.1-8.9,5.1-15.6c0-6.3-1.3-11-4-14.1c-2.7-3.1-6.2-4.6-10.7-4.6c-3,0-5.9,0.6-8.7,1.8c-2.7,1.2-5.1,2.6-7.1,4.4l-6-11
		c3-2.8,6.6-4.9,10.8-6.3c4.1-1.4,8.3-2.1,12.3-2.1c9.1,0,16.1,2.9,21,8.6c4.9,5.7,7.4,13.3,7.4,22.8c0,6.7-1.3,12.3-3.9,16.9
		C276.6,237,272.9,240.5,268.2,242.9z"/>
</g>
<g id="Test_x5F_Element2">
	<g>
		<g>
			<path class="st5" d="M214.9,124.4c0.4-1.2,0.8-2.5,1.4-3.9c0.6-1.4,1.1-2.7,1.7-4c0.6-1.3,1.2-2.4,1.7-3.5s1-1.8,1.3-2.4h2.7
				v13.6h2v2.1h-2v5.1h-2.4v-5.1h-6.5V124.4z M221.3,124.2V114c-0.3,0.6-0.6,1.3-1,2.1c-0.4,0.8-0.8,1.6-1.2,2.5
				c-0.4,0.9-0.8,1.8-1.1,2.7s-0.7,1.8-0.9,2.7H221.3z"/>
			<path class="st4" d="M248,120.9c0,1.9-0.2,3.6-0.6,4.9s-1,2.4-1.8,3.3c-0.8,0.8-1.7,1.5-2.8,1.8c-1.1,0.4-2.3,0.6-3.6,0.6
				c-1.4,0-2.8-0.2-4.3-0.5v-20.2c0.8-0.2,1.5-0.3,2.2-0.4s1.4-0.1,2.1-0.1c1.4,0,2.6,0.2,3.7,0.6c1.1,0.4,2,1,2.8,1.8
				c0.8,0.8,1.4,1.9,1.8,3.3C247.8,117.4,248,119,248,120.9z M245.1,120.9c0-1.5-0.1-2.7-0.3-3.8c-0.2-1-0.6-1.9-1-2.6
				c-0.5-0.7-1.1-1.1-1.8-1.4c-0.8-0.3-1.6-0.4-2.7-0.4c-0.3,0-0.6,0-0.8,0c-0.3,0-0.6,0.1-0.9,0.1V129c0.3,0,0.6,0.1,0.9,0.1
				c0.3,0,0.5,0,0.8,0c1.1,0,2-0.1,2.7-0.5c0.7-0.3,1.3-0.8,1.8-1.4s0.8-1.5,1-2.5C245,123.7,245.1,122.4,245.1,120.9z"/>
			<path class="st4" d="M252.2,110.6h2.7v20.8h-2.7V110.6z"/>
			<path class="st4" d="M259,120.9c0-2,0.2-3.6,0.5-5c0.4-1.4,0.9-2.5,1.5-3.4c0.7-0.9,1.5-1.5,2.4-1.9c0.9-0.4,2-0.6,3.2-0.6
				c0.9,0,1.7,0.1,2.5,0.4c0.7,0.3,1.3,0.5,1.8,0.9l-0.8,2.2c-0.5-0.3-1-0.6-1.5-0.8s-1.2-0.3-1.9-0.3c-1.7,0-3,0.7-3.8,2.1
				c-0.8,1.4-1.1,3.5-1.1,6.4c0,1.5,0.1,2.8,0.3,3.9c0.2,1.1,0.6,2,1,2.6c0.4,0.7,0.9,1.2,1.5,1.5c0.6,0.3,1.3,0.5,2,0.5
				c0.6,0,1.2-0.1,1.6-0.2v-8.1h2.7v9.8c-0.5,0.3-1.2,0.5-2,0.7s-1.6,0.3-2.5,0.3c-1.1,0-2.1-0.2-3-0.6c-0.9-0.4-1.7-1.1-2.4-2
				c-0.7-0.9-1.2-2-1.6-3.4C259.2,124.5,259,122.8,259,120.9z"/>
			<path class="st4" d="M275.7,110.6h2.7v20.8h-2.7V110.6z"/>
			<path class="st4" d="M293.2,110.6v2.3h-4.6v18.5h-2.7v-18.5h-4.6v-2.3H293.2z"/>
			<path class="st4" d="M298.8,129.5c1.1,0,1.9-0.3,2.5-0.9c0.6-0.6,0.9-1.4,0.9-2.4c0-0.5-0.1-1-0.3-1.4c-0.2-0.4-0.4-0.8-0.7-1.1
				c-0.3-0.3-0.6-0.6-1-0.9c-0.4-0.3-0.8-0.6-1.2-0.8c-0.5-0.3-0.9-0.7-1.4-1c-0.5-0.4-1-0.8-1.4-1.3c-0.4-0.5-0.7-1-1-1.7
				c-0.3-0.6-0.4-1.4-0.4-2.2c0-0.8,0.1-1.6,0.4-2.3c0.3-0.7,0.7-1.3,1.2-1.7c0.5-0.5,1.1-0.8,1.8-1.1c0.7-0.3,1.5-0.4,2.3-0.4
				c0.8,0,1.5,0.1,2.2,0.3c0.7,0.2,1.2,0.4,1.7,0.7l-0.8,2.1c-0.4-0.3-0.9-0.5-1.4-0.6s-1-0.2-1.5-0.2c-1,0-1.8,0.3-2.4,0.8
				s-0.9,1.3-0.9,2.3c0,0.6,0.1,1.1,0.3,1.5c0.2,0.4,0.4,0.8,0.8,1.1c0.3,0.3,0.7,0.6,1.1,0.9c0.4,0.3,0.8,0.6,1.3,0.9
				s0.9,0.6,1.4,1c0.5,0.4,0.9,0.8,1.3,1.2c0.4,0.5,0.7,1,1,1.6c0.2,0.6,0.4,1.4,0.4,2.2c0,0.8-0.1,1.5-0.4,2.2
				c-0.2,0.7-0.6,1.3-1.1,1.8c-0.5,0.5-1.2,1-1.9,1.3c-0.8,0.3-1.7,0.5-2.7,0.5c-1,0-1.8-0.1-2.5-0.3s-1.4-0.5-1.9-0.9l0.8-2.2
				c0.5,0.3,1.1,0.6,1.6,0.8C297.4,129.4,298,129.5,298.8,129.5z"/>
		</g>
	</g>
</g>
<g id="Test_name">
	<circle class="st1" cx="592.4" cy="51.3" r="23.8"/>
	<g>
		<g>
			<path class="st4" d="M632.4,42.7c0,1.2-0.1,2.3-0.4,3.1c-0.3,0.9-0.6,1.5-1.1,2.1c-0.5,0.5-1.1,0.9-1.8,1.2
				c-0.7,0.2-1.5,0.4-2.3,0.4c-0.9,0-1.8-0.1-2.7-0.3V36.3c0.5-0.1,1-0.2,1.4-0.2c0.5-0.1,0.9-0.1,1.3-0.1c0.9,0,1.6,0.1,2.3,0.4
				c0.7,0.2,1.3,0.6,1.8,1.2c0.5,0.5,0.9,1.2,1.1,2.1C632.3,40.4,632.4,41.5,632.4,42.7z M630.6,42.7c0-0.9-0.1-1.7-0.2-2.4
				c-0.1-0.7-0.4-1.2-0.6-1.6c-0.3-0.4-0.7-0.7-1.1-0.9c-0.5-0.2-1-0.3-1.7-0.3c-0.2,0-0.4,0-0.5,0s-0.4,0-0.6,0.1v10.3
				c0.2,0,0.4,0,0.6,0.1s0.3,0,0.5,0c0.7,0,1.2-0.1,1.7-0.3s0.9-0.5,1.2-0.9c0.3-0.4,0.5-0.9,0.7-1.6
				C630.5,44.4,630.6,43.6,630.6,42.7z"/>
			<path class="st4" d="M635,36.1h1.7v13.2H635V36.1z"/>
			<path class="st4" d="M639.4,42.7c0-1.2,0.1-2.3,0.3-3.2c0.2-0.9,0.6-1.6,1-2.1c0.4-0.6,0.9-1,1.5-1.2s1.3-0.4,2-0.4
				c0.6,0,1.1,0.1,1.6,0.2c0.5,0.2,0.8,0.3,1.1,0.5l-0.5,1.4c-0.3-0.2-0.6-0.4-1-0.5c-0.3-0.1-0.7-0.2-1.2-0.2
				c-1.1,0-1.9,0.4-2.4,1.3s-0.7,2.2-0.7,4c0,1,0.1,1.8,0.2,2.5c0.1,0.7,0.4,1.2,0.6,1.7c0.3,0.4,0.6,0.7,1,1s0.8,0.3,1.3,0.3
				c0.4,0,0.7,0,1-0.1v-5.1h1.7V49c-0.3,0.2-0.8,0.3-1.3,0.4c-0.5,0.1-1,0.2-1.6,0.2c-0.7,0-1.3-0.1-1.9-0.4
				c-0.6-0.3-1.1-0.7-1.5-1.3c-0.4-0.6-0.8-1.3-1-2.1S639.4,43.9,639.4,42.7z"/>
			<path class="st4" d="M649.9,36.1h1.7v13.2h-1.7V36.1z"/>
			<path class="st4" d="M661.1,36.1v1.5h-2.9v11.7h-1.7V37.6h-2.9v-1.5H661.1z"/>
			<path class="st4" d="M625.7,63.6c0.7,0,1.2-0.2,1.6-0.6s0.6-0.9,0.6-1.5c0-0.3-0.1-0.6-0.2-0.9c-0.1-0.3-0.3-0.5-0.4-0.7
				s-0.4-0.4-0.6-0.6c-0.2-0.2-0.5-0.4-0.7-0.5c-0.3-0.2-0.6-0.4-0.9-0.6s-0.6-0.5-0.9-0.8c-0.3-0.3-0.5-0.7-0.6-1.1
				c-0.2-0.4-0.2-0.9-0.2-1.4c0-0.5,0.1-1,0.3-1.4s0.4-0.8,0.8-1.1c0.3-0.3,0.7-0.5,1.2-0.7c0.5-0.2,0.9-0.2,1.5-0.2
				c0.5,0,1,0.1,1.4,0.2c0.4,0.1,0.8,0.3,1.1,0.5l-0.5,1.3c-0.3-0.2-0.6-0.3-0.9-0.4c-0.3-0.1-0.6-0.1-1-0.1c-0.6,0-1.1,0.2-1.5,0.5
				c-0.4,0.3-0.6,0.8-0.6,1.5c0,0.4,0.1,0.7,0.2,0.9s0.3,0.5,0.5,0.7c0.2,0.2,0.4,0.4,0.7,0.6c0.3,0.2,0.5,0.4,0.8,0.6
				c0.3,0.2,0.6,0.4,0.9,0.6c0.3,0.2,0.6,0.5,0.8,0.8c0.2,0.3,0.4,0.6,0.6,1c0.2,0.4,0.2,0.9,0.2,1.4c0,0.5-0.1,1-0.2,1.4
				c-0.2,0.4-0.4,0.8-0.7,1.2c-0.3,0.3-0.7,0.6-1.2,0.8c-0.5,0.2-1.1,0.3-1.7,0.3c-0.6,0-1.1-0.1-1.6-0.2c-0.5-0.1-0.9-0.3-1.2-0.6
				l0.5-1.4c0.3,0.2,0.7,0.4,1,0.5C624.9,63.5,625.3,63.6,625.7,63.6z"/>
			<path class="st4" d="M631.7,51.8c0.9-0.2,1.8-0.3,2.6-0.3c0.7,0,1.3,0.1,1.8,0.2c0.5,0.2,1,0.4,1.4,0.7c0.4,0.3,0.7,0.8,0.9,1.3
				c0.2,0.5,0.3,1.2,0.3,1.9c0,0.8-0.1,1.4-0.3,1.9c-0.2,0.5-0.5,1-0.9,1.3s-0.9,0.6-1.4,0.7c-0.6,0.2-1.2,0.2-1.8,0.2h-0.8v4.9
				h-1.7V51.8z M633.4,58.4h0.7c0.4,0,0.8,0,1.2-0.1c0.3-0.1,0.6-0.2,0.9-0.5c0.2-0.2,0.4-0.5,0.6-0.8c0.1-0.3,0.2-0.8,0.2-1.3
				c0-0.5-0.1-0.9-0.2-1.3c-0.1-0.3-0.3-0.6-0.5-0.8s-0.5-0.4-0.8-0.4c-0.3-0.1-0.7-0.1-1-0.1c-0.3,0-0.6,0-0.9,0.1V58.4z"/>
			<path class="st4" d="M644.3,51.6c0.3,0.9,0.6,1.9,0.9,2.9c0.3,1,0.6,2,0.9,3c0.3,1.1,0.6,2.2,0.9,3.4c0.3,1.2,0.6,2.5,0.9,3.9
				h-1.7c-0.1-0.6-0.2-1.1-0.3-1.7c-0.1-0.6-0.2-1.1-0.3-1.7h-4.2c-0.1,0.6-0.2,1.1-0.3,1.7s-0.2,1.1-0.3,1.7H639
				c0.3-1.4,0.6-2.7,0.9-3.9c0.3-1.2,0.6-2.3,0.9-3.4c0.3-1.1,0.6-2.1,0.9-3s0.6-1.9,0.9-2.9H644.3z M643.4,53.5
				c-0.3,1.1-0.6,2.1-0.9,3.2c-0.3,1.1-0.6,2.2-0.8,3.3h3.4c-0.3-1.1-0.5-2.2-0.8-3.3C644,55.6,643.7,54.6,643.4,53.5z"/>
			<path class="st4" d="M656.3,64.7c-0.3-0.7-0.6-1.6-1-2.4c-0.4-0.9-0.8-1.7-1.2-2.6c-0.4-0.9-0.9-1.8-1.3-2.6s-0.9-1.7-1.3-2.4
				v10.1h-1.6V51.6h1.4c0.5,0.8,0.9,1.6,1.4,2.4c0.4,0.8,0.9,1.6,1.3,2.4c0.4,0.8,0.8,1.6,1.2,2.4c0.4,0.8,0.7,1.5,1,2.2v-9.4h1.6
				v13.2H656.3z"/>
		</g>
	</g>
	<g>
		<text transform="matrix(1 0 0 1 581.711 57.9184)" class="st4 st6 st7">ds</text>
	</g>
</g>
<g id="Instruction_Icon">
</g>
<g id="Quit_Icon">
	<path class="st2" d="M477.9,21c0,0.3-0.1,0.5-0.3,0.7l-1.3,1.3c-0.2,0.2-0.4,0.3-0.7,0.3s-0.5-0.1-0.7-0.3l-2.9-2.9l-2.9,2.9
		c-0.2,0.2-0.4,0.3-0.7,0.3s-0.5-0.1-0.7-0.3l-1.3-1.3c-0.2-0.2-0.3-0.4-0.3-0.7c0-0.3,0.1-0.5,0.3-0.7l2.9-2.9l-2.9-2.9
		c-0.2-0.2-0.3-0.4-0.3-0.7c0-0.3,0.1-0.5,0.3-0.7l1.3-1.3c0.2-0.2,0.4-0.3,0.7-0.3s0.5,0.1,0.7,0.3l2.9,2.9l2.9-2.9
		c0.2-0.2,0.4-0.3,0.7-0.3s0.5,0.1,0.7,0.3l1.3,1.3c0.2,0.2,0.3,0.4,0.3,0.7c0,0.3-0.1,0.5-0.3,0.7l-2.9,2.9l2.9,2.9
		C477.8,20.5,477.9,20.7,477.9,21z"/>
</g>
<g id="Audio_Controls">
	<g id="Layer_23">
		<rect x="495.1" y="31.8" class="st1" width="4" height="80"/>
	</g>
	<g id="Layer_19">
		<rect x="495.1" y="75.7" class="st8" width="4" height="36.2"/>
	</g>
	<g id="Layer_18">
		<path class="st2" d="M499.9,11.9v10.7c0,0.2-0.1,0.3-0.2,0.4s-0.3,0.2-0.4,0.2c-0.2,0-0.3-0.1-0.4-0.2l-3.3-3.3h-2.6
			c-0.2,0-0.3-0.1-0.4-0.2c-0.1-0.1-0.2-0.3-0.2-0.4v-3.8c0-0.2,0.1-0.3,0.2-0.4c0.1-0.1,0.3-0.2,0.4-0.2h2.6l3.3-3.3
			c0.1-0.1,0.3-0.2,0.4-0.2c0.2,0,0.3,0.1,0.4,0.2C499.8,11.6,499.9,11.7,499.9,11.9z M503.2,15.8c0.3,0.4,0.4,0.9,0.4,1.4
			c0,0.5-0.1,1-0.4,1.4c-0.3,0.4-0.6,0.7-1.1,0.9c-0.1,0-0.1,0-0.2,0c-0.2,0-0.3-0.1-0.4-0.2c-0.1-0.1-0.2-0.3-0.2-0.4
			c0-0.1,0-0.3,0.1-0.3c0.1-0.1,0.2-0.2,0.3-0.2c0.1-0.1,0.2-0.1,0.3-0.2c0.1-0.1,0.2-0.2,0.3-0.3c0.1-0.2,0.1-0.3,0.1-0.6
			c0-0.2,0-0.4-0.1-0.6c-0.1-0.2-0.2-0.3-0.3-0.3c-0.1-0.1-0.2-0.2-0.3-0.2c-0.1-0.1-0.2-0.2-0.3-0.2c-0.1-0.1-0.1-0.2-0.1-0.3
			c0-0.2,0.1-0.3,0.2-0.4c0.1-0.1,0.3-0.2,0.4-0.2c0.1,0,0.2,0,0.2,0C502.6,15.1,503,15.4,503.2,15.8z"/>
	</g>
	<g id="Layer_21">
		<circle class="st9" cx="497.1" cy="74.7" r="4.2"/>
	</g>
</g>
<g id="Score">
	<circle class="st10" cx="614.6" cy="400.1" r="72.5"/>
	<g id="ScoreNum">
		<g>
			<g>
				<path class="st11" d="M595.7,372.1c0.6,0,1.2-0.2,1.5-0.5c0.4-0.4,0.5-0.8,0.5-1.5c0-0.3-0.1-0.6-0.2-0.9
					c-0.1-0.3-0.2-0.5-0.4-0.7s-0.4-0.4-0.6-0.6c-0.2-0.2-0.5-0.3-0.7-0.5c-0.3-0.2-0.6-0.4-0.9-0.6c-0.3-0.2-0.6-0.5-0.8-0.8
					c-0.2-0.3-0.4-0.6-0.6-1c-0.2-0.4-0.2-0.8-0.2-1.4c0-0.5,0.1-1,0.3-1.4c0.2-0.4,0.4-0.8,0.7-1c0.3-0.3,0.7-0.5,1.1-0.7
					c0.4-0.2,0.9-0.2,1.4-0.2c0.5,0,0.9,0.1,1.3,0.2s0.8,0.3,1,0.4l-0.5,1.3c-0.3-0.2-0.5-0.3-0.8-0.4c-0.3-0.1-0.6-0.1-0.9-0.1
					c-0.6,0-1.1,0.2-1.4,0.5c-0.4,0.3-0.5,0.8-0.5,1.4c0,0.3,0.1,0.6,0.2,0.9c0.1,0.3,0.3,0.5,0.4,0.7c0.2,0.2,0.4,0.4,0.6,0.6
					c0.2,0.2,0.5,0.3,0.8,0.5s0.6,0.4,0.8,0.6c0.3,0.2,0.5,0.5,0.8,0.7c0.2,0.3,0.4,0.6,0.6,1s0.2,0.8,0.2,1.3
					c0,0.5-0.1,0.9-0.2,1.3c-0.1,0.4-0.4,0.8-0.7,1.1c-0.3,0.3-0.7,0.6-1.2,0.8c-0.5,0.2-1,0.3-1.6,0.3c-0.6,0-1.1-0.1-1.5-0.2
					s-0.8-0.3-1.2-0.5l0.5-1.3c0.3,0.2,0.6,0.3,1,0.5S595.2,372.1,595.7,372.1z"/>
				<path class="st11" d="M605.5,373.5c-1.5,0-2.6-0.5-3.4-1.6s-1.2-2.8-1.2-5.1c0-1.2,0.1-2.1,0.3-3c0.2-0.8,0.5-1.5,0.9-2
					s0.9-0.9,1.4-1.1c0.5-0.2,1.1-0.3,1.8-0.3c0.5,0,1,0.1,1.5,0.2c0.5,0.1,0.8,0.3,1.1,0.5l-0.5,1.3c-0.3-0.2-0.6-0.3-0.9-0.5
					s-0.7-0.2-1.1-0.2c-1,0-1.7,0.4-2.1,1.2c-0.4,0.8-0.6,2-0.6,3.7c0,1.7,0.2,3,0.7,3.9s1.2,1.4,2.2,1.4c0.5,0,0.9-0.1,1.2-0.2
					c0.3-0.1,0.6-0.3,0.9-0.5l0.4,1.3c-0.3,0.2-0.6,0.4-1.1,0.6C606.6,373.4,606.1,373.5,605.5,373.5z"/>
				<path class="st11" d="M618.1,367c0,1-0.1,1.9-0.3,2.7c-0.2,0.8-0.4,1.5-0.8,2.1c-0.4,0.6-0.8,1-1.4,1.3c-0.6,0.3-1.2,0.5-2,0.5
					s-1.4-0.2-2-0.5c-0.6-0.3-1-0.8-1.4-1.3c-0.4-0.6-0.6-1.3-0.8-2.1c-0.2-0.8-0.3-1.7-0.3-2.7c0-1,0.1-1.9,0.3-2.7
					c0.2-0.8,0.5-1.5,0.8-2.1c0.4-0.6,0.8-1,1.4-1.3c0.6-0.3,1.2-0.5,2-0.5s1.4,0.2,2,0.5c0.6,0.3,1,0.8,1.4,1.3
					c0.4,0.6,0.6,1.3,0.8,2.1C618.1,365.1,618.1,366,618.1,367z M616.4,367c0-0.8,0-1.4-0.1-2.1s-0.3-1.2-0.5-1.6
					c-0.2-0.5-0.5-0.8-0.8-1.1s-0.8-0.4-1.2-0.4s-0.9,0.1-1.3,0.4s-0.6,0.6-0.8,1.1c-0.2,0.5-0.4,1-0.5,1.6
					c-0.1,0.6-0.2,1.3-0.2,2.1c0,0.8,0.1,1.4,0.2,2.1c0.1,0.6,0.3,1.2,0.5,1.6c0.2,0.4,0.5,0.8,0.8,1c0.3,0.2,0.8,0.4,1.3,0.4
					s0.9-0.1,1.2-0.4c0.3-0.2,0.6-0.6,0.8-1c0.2-0.4,0.4-1,0.5-1.6S616.4,367.7,616.4,367z"/>
				<path class="st11" d="M620.7,360.9c0.8-0.2,1.7-0.3,2.4-0.3c0.6,0,1.2,0.1,1.7,0.2c0.5,0.1,0.9,0.4,1.3,0.7
					c0.4,0.3,0.6,0.7,0.8,1.2c0.2,0.5,0.3,1.1,0.3,1.8c0,0.9-0.2,1.6-0.5,2.1c-0.3,0.5-0.8,0.9-1.3,1.2c0.1,0.2,0.3,0.6,0.6,1
					c0.2,0.4,0.4,0.9,0.7,1.4s0.5,1,0.7,1.5s0.4,1,0.6,1.5h-1.6c-0.1-0.4-0.3-0.8-0.5-1.2c-0.2-0.5-0.4-0.9-0.6-1.4
					s-0.4-0.9-0.6-1.3s-0.4-0.8-0.6-1.1c-0.2,0-0.4,0-0.6,0.1c-0.2,0-0.4,0-0.6,0h-0.4v4.9h-1.6V360.9z M622.2,367h0.7
					c0.8,0,1.5-0.2,1.9-0.6s0.7-1,0.7-2c0-0.5-0.1-0.9-0.2-1.2c-0.1-0.3-0.3-0.6-0.5-0.8c-0.2-0.2-0.5-0.3-0.8-0.4
					c-0.3-0.1-0.6-0.1-1-0.1c-0.3,0-0.6,0-0.9,0.1V367z"/>
				<path class="st11" d="M629.9,373.2v-12.5h5.6v1.4h-4v3.9h3.6v1.3h-3.6v4.5h4.3v1.4H629.9z"/>
			</g>
		</g>
		<g>
			<path class="st4" d="M596.7,413.6c0-4.1,0.1-7.5,0.4-10.3c0.3-2.8,0.7-5,1.4-6.7c0.6-1.7,1.4-2.9,2.4-3.6c1-0.7,2.1-1.1,3.5-1.1
				c1.4,0,2.5,0.4,3.5,1.1c1,0.7,1.8,1.9,2.4,3.6c0.6,1.7,1.1,3.9,1.4,6.7c0.3,2.8,0.4,6.2,0.4,10.3s-0.1,7.5-0.4,10.3
				c-0.3,2.8-0.7,5-1.4,6.7s-1.4,2.9-2.4,3.6c-1,0.7-2.1,1.1-3.5,1.1c-1.4,0-2.6-0.4-3.5-1.1c-1-0.7-1.8-2-2.4-3.6
				c-0.6-1.7-1.1-3.9-1.4-6.7C596.8,421.2,596.7,417.7,596.7,413.6z M607.9,413.6c0-3.3-0.1-6-0.2-8.2c-0.1-2.2-0.3-4-0.6-5.3
				c-0.3-1.3-0.6-2.3-1.1-2.8c-0.4-0.6-1-0.8-1.6-0.8c-0.6,0-1.2,0.3-1.6,0.8c-0.4,0.6-0.8,1.5-1.1,2.8c-0.3,1.3-0.5,3.1-0.6,5.3
				c-0.1,2.2-0.2,4.9-0.2,8.2c0,3.3,0.1,6,0.2,8.2c0.1,2.2,0.3,4,0.6,5.3c0.3,1.3,0.6,2.3,1.1,2.8c0.4,0.6,1,0.8,1.6,0.8
				c0.6,0,1.2-0.3,1.6-0.8c0.4-0.6,0.8-1.5,1.1-2.8c0.3-1.3,0.5-3.1,0.6-5.3C607.8,419.7,607.9,416.9,607.9,413.6z"/>
			<path class="st4" d="M626.8,412.1c1.6,0.7,2.8,2,3.7,3.8c0.9,1.8,1.3,4.2,1.3,7.1c0,3.8-0.7,6.9-2.2,9.1
				c-1.5,2.2-3.7,3.3-6.7,3.3c-1.2,0-2.3-0.2-3.4-0.7c-1.1-0.4-2.1-1-2.9-1.7l1.1-4.2c0.7,0.6,1.5,1,2.3,1.4
				c0.8,0.4,1.7,0.6,2.5,0.6c1.6,0,2.9-0.6,3.8-1.9s1.4-3.3,1.4-6c0-2.8-0.5-4.8-1.5-6.2c-1-1.4-2.6-2.1-4.8-2.1h-1.2v-4.4h1
				c1.9,0,3.3-0.6,4.2-1.9s1.4-3.1,1.4-5.3c0-2.2-0.4-3.8-1.1-4.8c-0.7-1.1-1.7-1.6-2.9-1.6c-0.8,0-1.6,0.2-2.3,0.6
				c-0.7,0.4-1.4,0.9-1.9,1.5l-1.6-3.8c0.8-1,1.8-1.7,2.9-2.2c1.1-0.5,2.2-0.7,3.3-0.7c2.5,0,4.4,1,5.7,2.9s2,4.6,2,7.8
				c0,2.3-0.4,4.2-1.1,5.8S628.1,411.3,626.8,412.1z"/>
		</g>
	</g>
</g>
<g id="LevelMeter">
	<g id="MeterBack">
		<circle class="st0" cx="614.5" cy="211.2" r="72.5"/>
		<path class="st10" d="M668.9,259.4c-13.3,15-32.7,24.4-54.4,24.4c-19.7,0-37.7-7.9-50.8-20.7C566.5,260.5,670.6,257.4,668.9,259.4
			z"/>
		<polyline class="st0" points="664.1,267.5 643.6,245.2 653.9,235.2 673.7,254.9 		"/>
		<ellipse transform="matrix(0.7071 -0.7071 0.7071 0.7071 10.7142 549.5729)" class="st0" cx="668.8" cy="261.9" rx="8" ry="8"/>
		<polyline class="st0" points="566.3,267.5 586.8,245.2 576.5,235.2 556.6,254.9 		"/>
		<ellipse transform="matrix(0.7071 -0.7071 0.7071 0.7071 -21.2443 472.4182)" class="st0" cx="559.6" cy="261.9" rx="8" ry="8"/>
	</g>
	<g id="Meter_x5F_Ring">
		<linearGradient id="SVGID_1_" gradientUnits="userSpaceOnUse" x1="545.5224" y1="197.3867" x2="683.5224" y2="197.3867">
			<stop  offset="8.004897e-02" style="stop-color:#39B54A"/>
			<stop  offset="0.3967" style="stop-color:#F48270"/>
			<stop  offset="0.7246" style="stop-color:#F5841F"/>
			<stop  offset="0.9481" style="stop-color:#ED174B"/>
		</linearGradient>
		<path class="st12" d="M562.6,250.2c-8.2-10.9-13.1-24.4-13.1-39.1c0-35.9,29.1-65,65-65s65,29.1,65,65c0,14.1-4.5,27.1-12.1,37.8"
			/>
	</g>
	<g id="Ellipse_x5F_Meter">
		<radialGradient id="SVGID_2_" cx="614.5224" cy="211.135" r="65" gradientUnits="userSpaceOnUse">
			<stop  offset="0.5456" style="stop-color:#70627F"/>
			<stop  offset="1" style="stop-color:#5A4E66"/>
		</radialGradient>
		<circle class="st13" cx="614.5" cy="211.1" r="65"/>
	</g>
	<g id="Level_Txt">
	</g>
	<g id="Level_No.">
		<g>
			<path class="st4" d="M596.6,224.1c0-4.1,0.1-7.5,0.4-10.3c0.3-2.8,0.7-5,1.4-6.7c0.6-1.7,1.4-2.9,2.4-3.6c1-0.7,2.1-1.1,3.5-1.1
				c1.4,0,2.5,0.4,3.5,1.1c1,0.7,1.8,2,2.4,3.6c0.6,1.7,1.1,3.9,1.4,6.7c0.3,2.8,0.4,6.2,0.4,10.3c0,4.1-0.1,7.5-0.4,10.3
				c-0.3,2.8-0.7,5-1.4,6.7c-0.6,1.7-1.4,2.9-2.4,3.6s-2.1,1.1-3.5,1.1c-1.4,0-2.6-0.4-3.5-1.1c-1-0.7-1.8-2-2.4-3.6
				c-0.6-1.7-1.1-3.9-1.4-6.7C596.7,231.6,596.6,228.2,596.6,224.1z M607.8,224.1c0-3.3-0.1-6-0.2-8.2c-0.1-2.2-0.3-4-0.6-5.3
				c-0.3-1.3-0.6-2.3-1.1-2.8c-0.4-0.6-1-0.8-1.6-0.8c-0.6,0-1.2,0.3-1.6,0.8c-0.4,0.6-0.8,1.5-1.1,2.8c-0.3,1.3-0.5,3.1-0.6,5.3
				c-0.1,2.2-0.2,4.9-0.2,8.2c0,3.3,0.1,6,0.2,8.2c0.1,2.2,0.3,4,0.6,5.3c0.3,1.3,0.6,2.3,1.1,2.8c0.4,0.6,1,0.8,1.6,0.8
				c0.6,0,1.2-0.3,1.6-0.8c0.4-0.6,0.8-1.5,1.1-2.8c0.3-1.3,0.5-3.1,0.6-5.3C607.7,230.1,607.8,227.4,607.8,224.1z"/>
			<path class="st4" d="M618.6,240.7c1.2-0.2,2.3-0.5,3.3-0.9c1-0.5,1.9-1.2,2.7-2.1c0.8-1,1.5-2.2,2-3.8c0.6-1.6,1-3.6,1.2-6
				c-1.2,0.6-2.4,1-3.5,1c-2.3,0-4.1-1.1-5.3-3.4c-1.3-2.3-1.9-5.4-1.9-9.3c0-4.2,0.6-7.6,1.8-10c1.2-2.4,3.1-3.7,5.6-3.7
				c1.3,0,2.4,0.3,3.4,1c1,0.6,1.8,1.7,2.4,3.1c0.6,1.5,1.1,3.4,1.5,5.8c0.3,2.4,0.5,5.3,0.5,8.7c0,3-0.2,6-0.7,8.8
				c-0.5,2.8-1.2,5.4-2.3,7.6c-1,2.2-2.4,4-4.1,5.4c-1.7,1.4-3.8,2.1-6.3,2.2L618.6,240.7z M625.5,224.6c0.9,0,1.9-0.4,2.8-1.1
				c0-0.5,0-1,0-1.5c0-0.5,0-1,0-1.6c0-1.8,0-3.6-0.1-5.2c-0.1-1.7-0.2-3.1-0.5-4.4c-0.3-1.3-0.6-2.3-1.1-3c-0.5-0.7-1.1-1.1-2-1.1
				c-1.2,0-2.1,0.8-2.6,2.5c-0.5,1.7-0.7,3.9-0.7,6.6c0,3,0.3,5.2,1,6.6C623,223.9,624.1,224.6,625.5,224.6z"/>
		</g>
		<g>
			<path class="st11" d="M600.9,182v1.4h-5.6v-12.5h1.6V182H600.9z"/>
			<path class="st11" d="M602.8,183.4v-12.5h5.6v1.4h-4v3.9h3.6v1.3h-3.6v4.5h4.3v1.4H602.8z"/>
			<path class="st11" d="M613.1,183.4c-0.3-0.9-0.5-1.8-0.8-2.7s-0.5-1.9-0.8-2.9c-0.3-1-0.5-2.1-0.8-3.2c-0.3-1.1-0.5-2.3-0.8-3.7
				h1.7c0.2,0.9,0.3,1.9,0.5,2.8c0.2,0.9,0.4,1.8,0.6,2.7c0.2,0.9,0.4,1.8,0.7,2.6c0.2,0.8,0.4,1.6,0.7,2.4c0.2-0.8,0.4-1.6,0.7-2.4
				c0.2-0.8,0.4-1.7,0.7-2.6c0.2-0.9,0.4-1.8,0.6-2.7c0.2-0.9,0.4-1.9,0.5-2.8h1.6c-0.3,1.3-0.5,2.5-0.8,3.7s-0.5,2.2-0.8,3.2
				c-0.3,1-0.5,2-0.8,2.9c-0.3,0.9-0.5,1.8-0.8,2.7H613.1z"/>
			<path class="st11" d="M620,183.4v-12.5h5.6v1.4h-4v3.9h3.6v1.3h-3.6v4.5h4.3v1.4H620z"/>
			<path class="st11" d="M633.7,182v1.4h-5.6v-12.5h1.6V182H633.7z"/>
		</g>
	</g>
</g>
<g id="LevelMeter_copy">
	<g id="MeterBack_copy">
	</g>
	<g id="Meter_x5F_Ring_copy">
	</g>
	<g id="Ellipse_x5F_Meter_copy">
	</g>
	<g id="Level_Txt_copy">
	</g>
	<g id="Level_No._copy">
	</g>
</g>
<g id="Lifeline">
	<g id="Panel_x5F_Bar">
		<path class="st1" d="M146.3,15.4H21.9c-4.3,0-7.9,3.5-7.9,7.9v0c0,4.3,3.5,7.9,7.9,7.9h124.3V15.4z"/>
	</g>
	<g id="Layer_29">
		<circle class="st1" cx="88.6" cy="24.2" r="12.7"/>
	</g>
	<circle class="st1" cx="119.5" cy="23.3" r="12.7"/>
	<circle class="st1" cx="150.4" cy="23.7" r="12.7"/>
	<path class="st8" d="M88.6,30.7c-0.1,0-0.3-0.1-0.4-0.2l-5.2-5c-0.1,0-0.1-0.1-0.2-0.2s-0.3-0.3-0.5-0.5c-0.2-0.3-0.4-0.5-0.6-0.8
		c-0.2-0.3-0.3-0.6-0.4-1c-0.1-0.4-0.2-0.8-0.2-1.2c0-1.2,0.4-2.2,1.1-2.9s1.7-1,2.9-1c0.3,0,0.7,0.1,1.1,0.2c0.4,0.1,0.7,0.3,1,0.5
		s0.6,0.4,0.8,0.6s0.4,0.4,0.6,0.6c0.2-0.2,0.4-0.4,0.6-0.6s0.5-0.4,0.8-0.6s0.6-0.4,1-0.5c0.4-0.1,0.7-0.2,1.1-0.2
		c1.2,0,2.2,0.3,2.9,1c0.7,0.7,1.1,1.7,1.1,2.9c0,1.2-0.6,2.5-1.9,3.8l-5.2,5C88.9,30.6,88.8,30.7,88.6,30.7z"/>
	<g>
		<path class="st8" d="M119.1,30.2l-5.2-5c-0.1-0.1-1.9-1.7-1.9-3.8c0-2.5,1.5-3.9,4-3.9c1.5,0,2.8,1.2,3.5,1.8
			c0.7-0.7,2-1.8,3.5-1.8c2.5,0,4,1.5,4,3.9c0,2-1.8,3.7-1.9,3.8l-5.2,5c-0.1,0.1-0.2,0.2-0.4,0.2S119.2,30.3,119.1,30.2z"/>
	</g>
</g>
<g id="HeartGreen">
	<g>
		<path class="st0" d="M150,31.1l-5.2-5c-0.1-0.1-1.9-1.7-1.9-3.8c0-2.5,1.5-3.9,4-3.9c1.5,0,2.8,1.2,3.5,1.8c0.7-0.7,2-1.8,3.5-1.8
			c2.5,0,4,1.5,4,3.9c0,2-1.8,3.7-1.9,3.8l-5.2,5c-0.1,0.1-0.2,0.2-0.4,0.2S150.1,31.2,150,31.1z"/>
	</g>
</g>
<g id="LifeLIne_x5F_Txt">
	<text transform="matrix(1 0 0 1 20.1575 27.1977)" class="st4 st6 st14">lifeline</text>
</g>
<g id="Layer_30">
</g>
</svg>
