<?xml version="1.0" encoding="utf-8"?>
<!-- Generator: Adobe Illustrator 19.2.1, SVG Export Plug-In . SVG Version: 6.00 Build 0)  -->
<svg version="1.1" id="Layer_1" xmlns="http://www.w3.org/2000/svg" xmlns:xlink="http://www.w3.org/1999/xlink" x="0px" y="0px"
	 viewBox="0 0 710 508" style="enable-background:new 0 0 710 508;" xml:space="preserve">
<style type="text/css">
	.st0{fill:none;}
	.st1{fill:#233347;}
	.st2{fill:#5E7AA2;}
	.st3{fill:#7A9FCC;}
	.st4{fill:#ED1C24;}
	.st5{fill:#009EFF;}
	.st6{fill:none;stroke:#5E7AA2;stroke-miterlimit:10;}
	.st7{fill:#FFFFFF;}
	.st8{fill:#3E5A7D;}
	.st9{enable-background:new    ;}
	.st10{fill:#C2DBF2;}
	.st11{fill:#F1F2F2;}
	.st12{fill:url(#SVGID_1_);}
	.st13{clip-path:url(#SVGID_3_);fill:url(#SVGID_4_);}
</style>
<g>
	<line class="st0" x1="921" y1="-345.3" x2="-234.5" y2="-345.3"/>
</g>
<g>
	<rect class="st1" width="520" height="508"/>
	<rect x="520" y="100" class="st2" width="190" height="408"/>
	<rect x="520.4" class="st3" width="190" height="100"/>
	<g>
		<path class="st4" d="M229.7,137.7c2-0.5,3.9-0.7,5.8-0.7c1.5,0,2.8,0.2,4,0.5s2.2,0.9,3.1,1.6c0.9,0.7,1.5,1.7,2,2.9
			s0.7,2.6,0.7,4.2c0,2.1-0.4,3.7-1.2,5s-1.8,2.2-3.2,2.9c0.3,0.6,0.8,1.3,1.3,2.3s1.1,2.1,1.6,3.2c0.6,1.2,1.1,2.4,1.6,3.7
			s1,2.5,1.3,3.6h-3.9c-0.3-0.9-0.7-1.8-1.2-2.9c-0.5-1.1-1-2.2-1.5-3.2s-1-2.1-1.5-3.1s-1-1.8-1.4-2.5c-0.5,0.1-0.9,0.1-1.4,0.1
			s-1,0-1.5,0h-1.1v11.5h-3.8v-29.1H229.7z M233.5,152.2h1.6c2,0,3.5-0.4,4.5-1.3c1.1-0.9,1.6-2.4,1.6-4.6c0-1.1-0.1-2-0.4-2.8
			c-0.3-0.8-0.7-1.4-1.2-1.8c-0.5-0.4-1.1-0.8-1.8-1s-1.5-0.3-2.3-0.3c-0.7,0-1.4,0-2.1,0.1L233.5,152.2L233.5,152.2z"/>
		<path class="st4" d="M251.7,166.9v-29.6H265v3.3h-9.4v9.2h8.5v3.2h-8.5v10.6h10.1v3.3H251.7z"/>
		<path class="st4" d="M289.8,152c0,2.8-0.3,5.1-0.9,7s-1.4,3.5-2.5,4.7s-2.4,2.1-4,2.6s-3.3,0.8-5.2,0.8c-1.9,0-4-0.3-6.2-0.8
			v-28.7c1.1-0.2,2.1-0.4,3.2-0.6c1-0.1,2-0.2,2.9-0.2c1.9,0,3.7,0.3,5.2,0.8c1.6,0.5,2.9,1.4,4,2.6c1.1,1.2,1.9,2.8,2.5,4.7
			C289.5,146.9,289.8,149.3,289.8,152z M285.7,152c0-2.1-0.2-3.9-0.5-5.4s-0.8-2.7-1.5-3.6c-0.7-0.9-1.5-1.6-2.6-2.1
			c-1.1-0.4-2.3-0.6-3.8-0.6c-0.4,0-0.8,0-1.2,0c-0.4,0-0.8,0.1-1.2,0.1v23.1c0.4,0.1,0.8,0.1,1.2,0.1c0.4,0,0.8,0,1.2,0
			c1.5,0,2.8-0.2,3.8-0.6c1.1-0.4,1.9-1.1,2.6-2s1.2-2.1,1.5-3.6C285.6,156,285.7,154.2,285.7,152z"/>
	</g>
</g>
<g>
	<g>
		<path class="st4" d="M330.5,283.3c2-0.5,3.9-0.7,5.8-0.7c1.5,0,2.8,0.2,4,0.5s2.2,0.9,3.1,1.6s1.5,1.7,2,2.9
			c0.5,1.2,0.7,2.6,0.7,4.2c0,2.1-0.4,3.7-1.2,5c-0.8,1.3-1.8,2.2-3.2,2.9c0.3,0.6,0.8,1.3,1.3,2.3s1.1,2.1,1.6,3.2
			c0.6,1.2,1.1,2.4,1.6,3.7c0.5,1.3,1,2.5,1.3,3.6h-3.9c-0.3-0.9-0.7-1.8-1.2-2.9s-1-2.2-1.5-3.2s-1-2.1-1.5-3.1s-1-1.8-1.4-2.5
			c-0.5,0.1-0.9,0.1-1.4,0.1s-1,0-1.5,0H334v11.5h-3.8v-29.1H330.5z M334.2,297.7h1.6c2,0,3.5-0.4,4.5-1.3c1.1-0.9,1.6-2.4,1.6-4.6
			c0-1.1-0.1-2-0.4-2.8s-0.7-1.4-1.2-1.8s-1.1-0.8-1.8-1c-0.7-0.2-1.5-0.3-2.3-0.3c-0.7,0-1.4,0-2.1,0.1L334.2,297.7L334.2,297.7z"
			/>
		<path class="st4" d="M352.4,312.5v-29.6h13.3v3.3h-9.4v9.2h8.5v3.2h-8.5v10.6h10.1v3.3H352.4z"/>
		<path class="st4" d="M390.6,297.6c0,2.8-0.3,5.1-0.9,7s-1.4,3.5-2.5,4.7s-2.4,2.1-4,2.6s-3.3,0.8-5.2,0.8c-1.9,0-4-0.3-6.2-0.8
			v-28.7c1.1-0.2,2.1-0.4,3.2-0.6c1-0.1,2-0.2,2.9-0.2c1.9,0,3.7,0.3,5.2,0.8c1.6,0.5,2.9,1.4,4,2.6s1.9,2.8,2.5,4.7
			C390.3,292.5,390.6,294.9,390.6,297.6z M386.5,297.6c0-2.1-0.2-3.9-0.5-5.4s-0.8-2.7-1.5-3.6s-1.5-1.6-2.6-2.1
			c-1.1-0.4-2.3-0.6-3.8-0.6c-0.4,0-0.8,0-1.2,0c-0.4,0-0.8,0.1-1.2,0.1v23.1c0.4,0.1,0.8,0.1,1.2,0.1c0.4,0,0.8,0,1.2,0
			c1.5,0,2.8-0.2,3.8-0.6c1.1-0.4,1.9-1.1,2.6-2s1.2-2.1,1.5-3.6C386.3,301.6,386.5,299.8,386.5,297.6z"/>
	</g>
</g>
<g>
	<g>
		<path class="st5" d="M120.3,283.1c1-0.2,2-0.4,3.1-0.5c1-0.1,2.1-0.2,3.1-0.2c1.3,0,2.5,0.1,3.7,0.4c1.2,0.2,2.2,0.7,3.1,1.2
			c0.9,0.6,1.6,1.4,2.1,2.3c0.5,1,0.8,2.1,0.8,3.6c0,1.8-0.4,3.2-1.1,4.3c-0.7,1.1-1.7,2-2.9,2.5c1.5,0.6,2.7,1.4,3.6,2.6
			c0.9,1.2,1.4,2.8,1.4,4.8c0,1.5-0.2,2.8-0.7,3.9s-1.2,1.9-2.1,2.6c-0.9,0.7-2,1.2-3.3,1.5s-2.7,0.4-4.2,0.4c-1,0-2-0.1-3.1-0.2
			s-2.2-0.3-3.4-0.5v-28.7L120.3,283.1L120.3,283.1z M124.1,295.3h2.7c3.5,0,5.3-1.6,5.3-4.8c0-1-0.1-1.8-0.4-2.5
			c-0.3-0.6-0.7-1.1-1.2-1.5s-1-0.6-1.7-0.7c-0.6-0.1-1.3-0.2-2-0.2c-0.4,0-0.9,0-1.3,0s-0.9,0.1-1.3,0.1L124.1,295.3L124.1,295.3z
			 M124.1,298.4v10.7c0.5,0.1,1.1,0.2,1.6,0.2c0.5,0.1,1,0.1,1.6,0.1c0.8,0,1.6-0.1,2.3-0.3c0.7-0.2,1.3-0.5,1.9-0.9
			c0.5-0.4,0.9-0.9,1.2-1.6s0.4-1.6,0.4-2.6c0-1.8-0.5-3.1-1.4-4.1c-1-1-2.4-1.5-4.5-1.5L124.1,298.4L124.1,298.4z"/>
		<path class="st5" d="M155.8,309v3.3h-13.2v-29.6h3.8V309H155.8z"/>
		<path class="st5" d="M168.4,313c-2.8,0-4.8-0.8-6.2-2.4s-2.1-4-2.1-7.4v-20.5h3.8v20.1c0,2.3,0.3,3.9,1,5.1
			c0.7,1.1,1.8,1.7,3.5,1.7c1.8,0,3-0.6,3.6-1.7c0.6-1.2,1-2.8,1-5v-20.1h3.8v20.5c0,3.3-0.7,5.8-2.1,7.4
			C173.4,312.2,171.2,313,168.4,313z"/>
		<path class="st5" d="M183.8,312.3v-29.6h13.3v3.3h-9.4v9.2h8.5v3.2h-8.5V309h10.1v3.3H183.8z"/>
	</g>
	<g>
		<g>
			<path class="st6" d="M202.6,348.5h-87.5c-11.7,0-21.3-9.5-21.3-21.3v-57.5c0-11.7,9.5-21.3,21.3-21.3h87.5
				c11.7,0,21.3,9.5,21.3,21.3v57.5C223.9,339,214.4,348.5,202.6,348.5z"/>
		</g>
	</g>
</g>
<g>
	<g>
		<path class="st2" d="M603,50c0,13.1-10.6,23.8-23.8,23.8c-13.1,0-23.8-10.6-23.8-23.8c0-13.1,10.6-23.8,23.8-23.8
			C592.3,26.2,603,36.9,603,50"/>
	</g>
</g>
<g>
	<g>
		<path class="st7" d="M619.2,42.2c0,1.2-0.1,2.3-0.4,3.1c-0.3,0.9-0.6,1.5-1.1,2.1c-0.5,0.5-1.1,0.9-1.8,1.2
			c-0.7,0.2-1.5,0.4-2.3,0.4c-0.9,0-1.8-0.1-2.7-0.3V35.8c0.5-0.1,1-0.2,1.4-0.2c0.5-0.1,0.9-0.1,1.3-0.1c0.9,0,1.6,0.1,2.3,0.4
			c0.7,0.2,1.3,0.6,1.8,1.2c0.5,0.5,0.9,1.2,1.1,2.1C619,39.9,619.2,40.9,619.2,42.2z M617.3,42.2c0-0.9-0.1-1.7-0.2-2.4
			c-0.1-0.7-0.4-1.2-0.6-1.6c-0.3-0.4-0.7-0.7-1.1-0.9c-0.5-0.2-1-0.3-1.7-0.3c-0.2,0-0.4,0-0.5,0s-0.4,0-0.6,0.1v10.3
			c0.2,0,0.4,0,0.6,0.1s0.3,0,0.5,0c0.7,0,1.2-0.1,1.7-0.3s0.9-0.5,1.2-0.9s0.5-0.9,0.7-1.6C617.3,43.9,617.3,43.1,617.3,42.2z"/>
		<path class="st7" d="M630.6,42.2c0,1-0.1,2-0.3,2.8s-0.5,1.6-0.9,2.2c-0.4,0.6-0.9,1.1-1.5,1.4c-0.6,0.3-1.3,0.5-2.1,0.5
			s-1.5-0.2-2.1-0.5s-1.1-0.8-1.5-1.4c-0.4-0.6-0.7-1.3-0.9-2.2c-0.2-0.8-0.3-1.8-0.3-2.8s0.1-2,0.3-2.8s0.5-1.6,0.9-2.2
			c0.4-0.6,0.9-1.1,1.5-1.4s1.3-0.5,2.1-0.5s1.5,0.2,2.1,0.5s1.1,0.8,1.5,1.4c0.4,0.6,0.7,1.3,0.9,2.2
			C630.5,40.2,630.6,41.1,630.6,42.2z M628.8,42.2c0-0.8-0.1-1.5-0.2-2.2s-0.3-1.2-0.5-1.7s-0.5-0.8-0.9-1.1s-0.8-0.4-1.3-0.4
			s-1,0.1-1.3,0.4c-0.4,0.3-0.7,0.6-0.9,1.1s-0.4,1-0.5,1.7s-0.2,1.4-0.2,2.2s0.1,1.5,0.2,2.2c0.1,0.7,0.3,1.2,0.5,1.7
			s0.5,0.8,0.9,1.1s0.8,0.4,1.3,0.4s1-0.1,1.3-0.4c0.4-0.3,0.7-0.6,0.9-1.1s0.4-1,0.5-1.7C628.8,43.7,628.8,43,628.8,42.2z"/>
		<path class="st7" d="M636.9,49c-1.2,0-2.2-0.3-2.8-1s-0.9-1.8-0.9-3.3v-9.1h1.7v8.9c0,1,0.1,1.8,0.4,2.3s0.8,0.8,1.6,0.8
			s1.3-0.3,1.6-0.8s0.4-1.3,0.4-2.2v-8.9h1.7v9.1c0,1.5-0.3,2.6-1,3.3C639.1,48.7,638.1,49,636.9,49z"/>
		<path class="st7" d="M643.7,35.8c0.4-0.1,0.9-0.2,1.4-0.2c0.5-0.1,0.9-0.1,1.4-0.1c0.6,0,1.1,0.1,1.6,0.2c0.5,0.1,1,0.3,1.4,0.6
			s0.7,0.6,0.9,1s0.4,1,0.4,1.6c0,0.8-0.2,1.4-0.5,1.9s-0.8,0.9-1.3,1.1c0.6,0.3,1.2,0.6,1.6,1.2s0.6,1.2,0.6,2.1
			c0,0.7-0.1,1.3-0.3,1.7s-0.5,0.9-0.9,1.1c-0.4,0.3-0.9,0.5-1.5,0.6s-1.2,0.2-1.9,0.2c-0.4,0-0.9,0-1.4-0.1s-1-0.1-1.5-0.2V35.8z
			 M645.4,41.2h1.2c1.6,0,2.4-0.7,2.4-2.1c0-0.4-0.1-0.8-0.2-1.1c-0.1-0.3-0.3-0.5-0.5-0.7s-0.5-0.3-0.8-0.3s-0.6-0.1-0.9-0.1
			c-0.2,0-0.4,0-0.6,0s-0.4,0-0.6,0.1L645.4,41.2L645.4,41.2z M645.4,42.6v4.8c0.2,0,0.5,0.1,0.7,0.1s0.5,0,0.7,0c0.4,0,0.7,0,1-0.1
			s0.6-0.2,0.8-0.4s0.4-0.4,0.6-0.7c0.1-0.3,0.2-0.7,0.2-1.1c0-0.8-0.2-1.4-0.6-1.8c-0.4-0.4-1.1-0.7-2-0.7L645.4,42.6L645.4,42.6z"
			/>
		<path class="st7" d="M659.5,47.3v1.5h-5.9V35.6h1.7v11.7H659.5z"/>
		<path class="st7" d="M661.5,48.7V35.6h5.9V37h-4.2v4.1h3.8v1.4h-3.8v4.7h4.5v1.5H661.5z"/>
	</g>
	<g>
		<path class="st7" d="M617.1,51v1.5h-2.9v11.7h-1.7V52.5h-2.9V51H617.1z"/>
		<path class="st7" d="M618.9,51.2c0.9-0.2,1.7-0.3,2.6-0.3c0.7,0,1.3,0.1,1.8,0.2c0.5,0.2,1,0.4,1.4,0.7s0.7,0.8,0.9,1.3
			s0.3,1.1,0.3,1.9c0,0.9-0.2,1.6-0.5,2.2s-0.8,1-1.4,1.3c0.2,0.3,0.3,0.6,0.6,1s0.5,0.9,0.7,1.4s0.5,1.1,0.7,1.6
			c0.2,0.6,0.4,1.1,0.6,1.6h-1.7c-0.1-0.4-0.3-0.8-0.5-1.3s-0.4-1-0.7-1.4c-0.2-0.5-0.5-0.9-0.7-1.4c-0.2-0.4-0.4-0.8-0.6-1.1
			c-0.2,0-0.4,0-0.6,0.1c-0.2,0-0.4,0-0.6,0h-0.5v5.1H619L618.9,51.2L618.9,51.2z M620.6,57.7h0.7c0.9,0,1.5-0.2,2-0.6
			c0.5-0.4,0.7-1.1,0.7-2.1c0-0.5-0.1-0.9-0.2-1.2c-0.1-0.3-0.3-0.6-0.5-0.8s-0.5-0.3-0.8-0.4c-0.3-0.1-0.7-0.1-1-0.1
			s-0.6,0-0.9,0.1V57.7z"/>
		<path class="st7" d="M637.5,57.6c0,1-0.1,2-0.3,2.8s-0.5,1.6-0.9,2.2c-0.4,0.6-0.9,1.1-1.5,1.4s-1.3,0.5-2.1,0.5s-1.5-0.2-2.1-0.5
			s-1.1-0.8-1.5-1.4c-0.4-0.6-0.7-1.3-0.9-2.2c-0.2-0.8-0.3-1.8-0.3-2.8s0.1-2,0.3-2.8s0.5-1.6,0.9-2.2c0.4-0.6,0.9-1.1,1.5-1.4
			s1.3-0.5,2.1-0.5s1.5,0.2,2.1,0.5s1.1,0.8,1.5,1.4c0.4,0.6,0.7,1.3,0.9,2.2C637.5,55.7,637.5,56.6,637.5,57.6z M635.7,57.6
			c0-0.8-0.1-1.5-0.2-2.2s-0.3-1.2-0.5-1.7s-0.5-0.8-0.9-1.1s-0.8-0.4-1.3-0.4s-1,0.1-1.3,0.4c-0.4,0.3-0.7,0.6-0.9,1.1
			s-0.4,1-0.5,1.7s-0.2,1.4-0.2,2.2s0.1,1.5,0.2,2.2c0.1,0.7,0.3,1.2,0.5,1.7s0.5,0.8,0.9,1.1s0.8,0.4,1.3,0.4s1-0.1,1.3-0.4
			c0.4-0.3,0.7-0.6,0.9-1.1s0.4-1,0.5-1.7C635.7,59.2,635.7,58.4,635.7,57.6z"/>
		<path class="st7" d="M643.8,64.5c-1.2,0-2.2-0.3-2.8-1c-0.6-0.7-0.9-1.8-0.9-3.3V51h1.7v9c0,1,0.1,1.8,0.4,2.3s0.8,0.8,1.6,0.8
			s1.3-0.3,1.6-0.8s0.4-1.3,0.4-2.2V51h1.7v9.1c0,1.5-0.3,2.6-1,3.3C646,64.1,645,64.5,643.8,64.5z"/>
		<path class="st7" d="M650.6,51.2c0.4-0.1,0.9-0.2,1.4-0.2c0.5-0.1,0.9-0.1,1.4-0.1c0.6,0,1.1,0.1,1.6,0.2c0.5,0.1,1,0.3,1.4,0.6
			s0.7,0.6,0.9,1s0.4,1,0.4,1.6c0,0.8-0.2,1.4-0.5,1.9s-0.8,0.9-1.3,1.1c0.6,0.3,1.2,0.6,1.6,1.2s0.6,1.2,0.6,2.1
			c0,0.7-0.1,1.3-0.3,1.7s-0.5,0.9-0.9,1.1c-0.4,0.3-0.9,0.5-1.5,0.6c-0.6,0.1-1.2,0.2-1.9,0.2c-0.4,0-0.9,0-1.4-0.1s-1-0.1-1.5-0.2
			V51.2z M652.3,56.7h1.2c1.6,0,2.4-0.7,2.4-2.1c0-0.4-0.1-0.8-0.2-1.1c-0.1-0.3-0.3-0.5-0.5-0.7s-0.5-0.3-0.8-0.3s-0.6-0.1-0.9-0.1
			c-0.2,0-0.4,0-0.6,0s-0.4,0-0.6,0.1L652.3,56.7L652.3,56.7z M652.3,58v4.8c0.2,0,0.5,0.1,0.7,0.1s0.5,0,0.7,0c0.4,0,0.7,0,1-0.1
			s0.6-0.2,0.8-0.4s0.4-0.4,0.6-0.7c0.1-0.3,0.2-0.7,0.2-1.1c0-0.8-0.2-1.4-0.6-1.8c-0.4-0.4-1.1-0.7-2-0.7L652.3,58L652.3,58z"/>
		<path class="st7" d="M666.4,62.8v1.5h-5.9V51h1.7v11.7L666.4,62.8L666.4,62.8z"/>
		<path class="st7" d="M668.5,64.2V51h5.9v1.5h-4.2v4.1h3.8V58h-3.8v4.7h4.5v1.5H668.5z"/>
	</g>
	<g>
		<path class="st7" d="M580,49c0,1.4-0.2,2.6-0.5,3.6s-0.7,1.8-1.3,2.4c-0.6,0.6-1.2,1.1-2,1.3c-0.8,0.3-1.7,0.4-2.7,0.4
			s-2.1-0.1-3.2-0.4V41.6c0.6-0.1,1.1-0.2,1.6-0.3s1-0.1,1.5-0.1c1,0,1.9,0.1,2.7,0.4c0.8,0.3,1.5,0.7,2,1.3c0.6,0.6,1,1.4,1.3,2.4
			C579.8,46.4,580,47.6,580,49z M577.9,49c0-1.1-0.1-2-0.2-2.8c-0.2-0.8-0.4-1.4-0.7-1.9s-0.8-0.8-1.3-1.1c-0.6-0.2-1.2-0.3-2-0.3
			c-0.2,0-0.4,0-0.6,0c-0.2,0-0.4,0-0.6,0.1v12c0.2,0,0.4,0.1,0.6,0.1c0.2,0,0.4,0,0.6,0c0.8,0,1.4-0.1,2-0.3c0.5-0.2,1-0.6,1.3-1
			s0.6-1.1,0.8-1.9C577.8,51.1,577.9,50.1,577.9,49z"/>
		<path class="st7" d="M589.6,41.4v1.7h-3.4v13.6h-2V43.1h-3.4v-1.7C580.8,41.4,589.6,41.4,589.6,41.4z"/>
	</g>
</g>
<path class="st2" d="M499.9,11.9v10.7c0,0.2-0.1,0.3-0.2,0.4s-0.3,0.2-0.4,0.2c-0.2,0-0.3-0.1-0.4-0.2l-3.3-3.3H493
	c-0.2,0-0.3-0.1-0.4-0.2s-0.2-0.3-0.2-0.4v-3.8c0-0.2,0.1-0.3,0.2-0.4c0.1-0.1,0.3-0.2,0.4-0.2h2.6l3.3-3.3c0.1-0.1,0.3-0.2,0.4-0.2
	c0.2,0,0.3,0.1,0.4,0.2C499.8,11.6,499.9,11.7,499.9,11.9 M503.2,15.8c0.3,0.4,0.4,0.9,0.4,1.4s-0.1,1-0.4,1.4s-0.6,0.7-1.1,0.9
	c-0.1,0-0.1,0.1-0.2,0.1c-0.2,0-0.3-0.1-0.4-0.2s-0.2-0.3-0.2-0.4s0-0.3,0.1-0.3c0.1-0.1,0.2-0.2,0.3-0.2c0.1-0.1,0.2-0.1,0.3-0.2
	c0.1-0.1,0.2-0.2,0.3-0.3c0.1-0.2,0.1-0.3,0.1-0.6c0-0.2,0-0.4-0.1-0.6c-0.1-0.1-0.2-0.3-0.3-0.3c-0.1-0.1-0.2-0.2-0.3-0.2
	c-0.1-0.1-0.2-0.1-0.3-0.2c-0.1-0.1-0.1-0.2-0.1-0.3c0-0.2,0.1-0.3,0.2-0.4c0.1-0.1,0.3-0.2,0.4-0.2s0.2,0,0.2,0
	C502.6,15.1,503,15.4,503.2,15.8"/>
<rect x="-521.3" y="-916" class="st0" width="1400" height="959"/>
<rect x="-244.3" y="-718" class="st0" width="1" height="100"/>
<g>
	<g>
		<path class="st6" d="M402.6,349.5h-87.5c-11.7,0-21.3-9.5-21.3-21.3v-57.5c0-11.7,9.5-21.3,21.3-21.3h87.5
			c11.7,0,21.3,9.5,21.3,21.3v57.5C423.9,340,414.4,349.5,402.6,349.5z"/>
	</g>
</g>
<path class="st8" d="M687.1,400.1c0,40-32.5,72.5-72.5,72.5s-72.5-32.5-72.5-72.5s32.5-72.5,72.5-72.5
	C654.7,327.6,687.1,360,687.1,400.1"/>
<g class="st9">
	<path class="st10" d="M593.7,372.1c0.6,0,1.1-0.2,1.5-0.5c0.4-0.4,0.5-0.8,0.5-1.5c0-0.3-0.1-0.6-0.2-0.9c-0.1-0.3-0.2-0.5-0.4-0.7
		s-0.4-0.4-0.6-0.6c-0.2-0.2-0.5-0.3-0.7-0.5c-0.3-0.2-0.6-0.4-0.9-0.6c-0.3-0.2-0.6-0.5-0.8-0.8s-0.4-0.6-0.6-1
		c-0.2-0.4-0.2-0.8-0.2-1.4c0-0.5,0.1-1,0.3-1.4s0.4-0.8,0.7-1c0.3-0.3,0.7-0.5,1.1-0.7c0.4-0.2,0.9-0.2,1.4-0.2s0.9,0.1,1.3,0.2
		c0.4,0.1,0.8,0.3,1,0.4l-0.5,1.3c-0.3-0.2-0.5-0.3-0.8-0.4s-0.6-0.1-0.9-0.1c-0.6,0-1.1,0.2-1.4,0.5c-0.4,0.3-0.5,0.8-0.5,1.4
		c0,0.3,0.1,0.6,0.2,0.9s0.3,0.5,0.5,0.7s0.4,0.4,0.6,0.6c0.2,0.2,0.5,0.3,0.8,0.5s0.6,0.4,0.8,0.6c0.3,0.2,0.5,0.5,0.8,0.7
		c0.2,0.3,0.4,0.6,0.6,1c0.2,0.4,0.2,0.8,0.2,1.3s-0.1,0.9-0.2,1.3c-0.1,0.4-0.4,0.8-0.7,1.1c-0.3,0.3-0.7,0.6-1.2,0.8
		c-0.5,0.2-1,0.3-1.6,0.3s-1.1-0.1-1.5-0.2s-0.8-0.3-1.2-0.5l0.5-1.3c0.3,0.2,0.6,0.3,1,0.5C592.9,372,593.3,372.1,593.7,372.1z"/>
</g>
<g class="st9">
	<path class="st10" d="M606.5,368.8l1.4,0.4c-0.3,1.4-0.8,2.5-1.6,3.2c-0.7,0.7-1.7,1.1-2.7,1.1c-1.1,0-2-0.3-2.7-0.8
		c-0.7-0.6-1.2-1.4-1.6-2.5c-0.4-1.1-0.5-2.2-0.5-3.5c0-1.3,0.2-2.5,0.6-3.5c0.4-1,1-1.8,1.8-2.3c0.8-0.5,1.6-0.8,2.5-0.8
		c1,0,1.9,0.3,2.6,1c0.7,0.7,1.2,1.6,1.5,2.8l-1.3,0.4c-0.2-0.9-0.6-1.6-1-2c-0.5-0.4-1-0.6-1.7-0.6c-0.8,0-1.5,0.2-2,0.7
		c-0.5,0.5-0.9,1.1-1.1,1.9c-0.2,0.8-0.3,1.6-0.3,2.5c0,1.1,0.1,2.1,0.4,2.9c0.3,0.8,0.7,1.4,1.2,1.8c0.5,0.4,1.1,0.6,1.8,0.6
		c0.8,0,1.4-0.3,1.9-0.8S606.3,369.9,606.5,368.8z"/>
</g>
<g class="st9">
	<path class="st10" d="M618.1,366.9c0,1-0.1,1.9-0.3,2.7c-0.2,0.8-0.4,1.5-0.8,2.1c-0.4,0.6-0.8,1-1.4,1.3c-0.6,0.3-1.2,0.5-2,0.5
		s-1.4-0.2-2-0.5s-1-0.8-1.4-1.3c-0.4-0.6-0.6-1.3-0.8-2.1c-0.2-0.8-0.3-1.7-0.3-2.7s0.1-1.9,0.3-2.7s0.5-1.5,0.8-2.1
		c0.4-0.6,0.8-1,1.4-1.3c0.6-0.3,1.2-0.5,2-0.5s1.4,0.2,2,0.5s1,0.8,1.4,1.3c0.4,0.6,0.6,1.3,0.8,2.1S618.1,365.9,618.1,366.9z
		 M616.4,366.9c0-0.8,0-1.4-0.1-2.1c-0.1-0.6-0.3-1.2-0.5-1.6s-0.5-0.8-0.8-1.1s-0.8-0.4-1.3-0.4s-0.9,0.1-1.3,0.4s-0.6,0.6-0.8,1.1
		s-0.4,1-0.5,1.6s-0.2,1.3-0.2,2.1s0.1,1.4,0.2,2.1c0.1,0.6,0.3,1.2,0.5,1.6s0.5,0.8,0.8,1s0.8,0.4,1.3,0.4s0.9-0.1,1.3-0.4
		s0.6-0.6,0.8-1s0.4-1,0.5-1.6C616.3,368.3,616.4,367.6,616.4,366.9z"/>
	<path class="st10" d="M620.6,360.8c0.8-0.2,1.6-0.3,2.4-0.3c0.6,0,1.2,0.1,1.7,0.2s0.9,0.4,1.3,0.7c0.4,0.3,0.6,0.7,0.8,1.2
		s0.3,1.1,0.3,1.8c0,0.9-0.2,1.6-0.5,2.1s-0.8,0.9-1.3,1.2c0.1,0.2,0.3,0.6,0.5,1s0.5,0.9,0.7,1.4s0.5,1,0.7,1.5s0.4,1,0.6,1.5h-1.6
		c-0.1-0.4-0.3-0.8-0.5-1.2c-0.2-0.5-0.4-0.9-0.6-1.4c-0.2-0.4-0.4-0.9-0.6-1.3s-0.4-0.8-0.6-1.1c-0.2,0-0.4,0-0.6,0.1
		c-0.2,0-0.4,0-0.6,0h-0.5v4.9h-1.6L620.6,360.8L620.6,360.8z M622.2,366.9h0.7c0.8,0,1.5-0.2,1.9-0.6s0.7-1,0.7-2
		c0-0.5-0.1-0.9-0.2-1.2c-0.1-0.3-0.3-0.6-0.5-0.8c-0.2-0.2-0.5-0.3-0.8-0.4s-0.6-0.1-1-0.1c-0.3,0-0.6,0-0.9,0.1L622.2,366.9
		L622.2,366.9z"/>
	<path class="st10" d="M629.9,373.1v-12.5h5.6v1.4h-4v3.9h3.6v1.3h-3.6v4.5h4.3v1.4L629.9,373.1L629.9,373.1z"/>
</g>
<g class="st9">
	<path class="st11" d="M596.7,413.7c0-4.1,0.1-7.5,0.4-10.3c0.3-2.8,0.7-5,1.4-6.7c0.6-1.7,1.4-2.9,2.4-3.6s2.1-1.1,3.5-1.1
		s2.5,0.4,3.5,1.1s1.8,2,2.4,3.6c0.6,1.7,1.1,3.9,1.4,6.7c0.3,2.8,0.4,6.2,0.4,10.3s-0.1,7.5-0.4,10.3c-0.3,2.8-0.7,5-1.4,6.7
		c-0.6,1.7-1.4,2.9-2.4,3.6s-2.1,1.1-3.5,1.1s-2.6-0.4-3.5-1.1s-1.8-2-2.4-3.6s-1.1-3.9-1.4-6.7
		C596.8,421.2,596.7,417.7,596.7,413.7z M607.9,413.7c0-3.3-0.1-6-0.2-8.2c-0.1-2.2-0.3-4-0.6-5.3s-0.6-2.3-1.1-2.8
		c-0.4-0.6-1-0.8-1.6-0.8s-1.2,0.3-1.6,0.8c-0.4,0.6-0.8,1.5-1.1,2.8s-0.5,3.1-0.6,5.3c-0.1,2.2-0.2,4.9-0.2,8.2
		c0,3.3,0.1,6,0.2,8.2c0.1,2.2,0.3,4,0.6,5.3s0.6,2.3,1.1,2.8c0.4,0.6,1,0.8,1.6,0.8s1.2-0.3,1.6-0.8c0.4-0.6,0.8-1.5,1.1-2.8
		s0.5-3.1,0.6-5.3C607.8,419.7,607.9,416.9,607.9,413.7z"/>
	<path class="st11" d="M626.8,412.1c1.6,0.7,2.8,2,3.7,3.8s1.3,4.2,1.3,7c0,3.8-0.7,6.9-2.2,9.1s-3.7,3.3-6.7,3.3
		c-1.2,0-2.3-0.2-3.4-0.7c-1.1-0.4-2.1-1-2.9-1.7l1.1-4.2c0.7,0.6,1.5,1,2.3,1.4s1.7,0.6,2.5,0.6c1.6,0,2.9-0.6,3.8-1.9
		s1.4-3.3,1.4-6c0-2.8-0.5-4.8-1.5-6.2c-1-1.4-2.6-2.1-4.8-2.1h-1.2v-4.4h1c1.9,0,3.3-0.6,4.2-1.9s1.4-3.1,1.4-5.3
		c0-2.2-0.4-3.8-1.1-4.8c-0.7-1.1-1.7-1.6-2.9-1.6c-0.8,0-1.6,0.2-2.3,0.6s-1.4,0.9-1.9,1.5l-1.6-3.8c0.8-1,1.8-1.7,2.9-2.2
		c1.1-0.5,2.2-0.7,3.3-0.7c2.5,0,4.4,1,5.7,2.9c1.3,2,2,4.6,2,7.8c0,2.3-0.4,4.2-1.1,5.8S628.1,411.3,626.8,412.1z"/>
</g>
<path class="st1" d="M687,211.2c0,40-32.5,72.5-72.5,72.5S542,251.2,542,211.2s32.5-72.5,72.5-72.5C654.6,138.7,687,171.1,687,211.2
	"/>
<path class="st3" d="M668.9,259.4c-13.3,15-32.7,24.4-54.4,24.4c-19.7,0-37.7-7.9-50.8-20.7C566.5,260.5,670.6,257.4,668.9,259.4"/>
<polyline class="st1" points="664.1,267.5 643.6,245.2 653.9,235.2 673.7,254.9 "/>
<path class="st1" d="M674.4,256.2c3.1,3.1,3.1,8.2,0,11.3c-3.1,3.1-8.2,3.1-11.3,0s-3.1-8.2,0-11.3
	C666.2,253.1,671.3,253.1,674.4,256.2"/>
<polyline class="st1" points="566.3,267.5 586.8,245.2 576.5,235.2 556.6,254.9 "/>
<path class="st1" d="M554,256.2c-3.1,3.1-3.1,8.2,0,11.3c3.1,3.1,8.2,3.1,11.3,0s3.1-8.2,0-11.3C562.2,253.1,557.1,253.1,554,256.2"
	/>
<linearGradient id="SVGID_1_" gradientUnits="userSpaceOnUse" x1="156.8271" y1="4495.082" x2="157.8271" y2="4495.082" gradientTransform="matrix(138 0 0 -138 -21096.627 620518.75)">
	<stop  offset="0" style="stop-color:#7A9FCC"/>
	<stop  offset="7.505440e-02" style="stop-color:#7A9FCC"/>
	<stop  offset="0.3951" style="stop-color:#F48270"/>
	<stop  offset="0.7246" style="stop-color:#F5841F"/>
	<stop  offset="0.9481" style="stop-color:#ED174B"/>
	<stop  offset="1" style="stop-color:#ED174B"/>
</linearGradient>
<path class="st12" d="M559.8,252.3c-8.6-11.5-13.8-25.7-13.8-41.2c0-37.8,30.7-68.5,68.5-68.5s68.5,30.7,68.5,68.5
	c0,14.8-4.7,28.6-12.7,39.8l-5.7-4.1c7.2-10.1,11.4-22.4,11.4-35.7c-0.1-34-27.5-61.4-61.5-61.5c-34,0.1-61.4,27.5-61.5,61.5
	c0,13.9,4.6,26.7,12.4,37L559.8,252.3L559.8,252.3z"/>
<g>
	<g>
		<g>
			<g>
				<g>
					<defs>
						<path id="SVGID_2_" d="M549.5,211.1c0,35.9,29.1,65,65,65s65-29.1,65-65s-29.1-65-65-65S549.5,175.2,549.5,211.1"/>
					</defs>
					<clipPath id="SVGID_3_">
						<use xlink:href="#SVGID_2_"  style="overflow:visible;"/>
					</clipPath>
					
						<radialGradient id="SVGID_4_" cx="153.6191" cy="4493.0073" r="1" gradientTransform="matrix(65 0 0 -65 -9370.7441 292256.5625)" gradientUnits="userSpaceOnUse">
						<stop  offset="0" style="stop-color:#5E7AA2"/>
						<stop  offset="0.5461" style="stop-color:#5E7AA2"/>
						<stop  offset="1" style="stop-color:#415573"/>
					</radialGradient>
					<rect x="549.5" y="146.1" class="st13" width="130" height="130"/>
				</g>
			</g>
		</g>
	</g>
</g>
<g class="st9">
	<path class="st10" d="M605.1,171.8v1.4h-2.8v11.1h-1.6v-11.1H598v-1.4H605.1z"/>
	<path class="st10" d="M606.9,171.8h1.6v12.5h-1.6V171.8z"/>
	<path class="st10" d="M615.9,182.5c-0.2-0.9-0.5-1.7-0.7-2.5s-0.5-1.5-0.7-2.2s-0.5-1.3-0.7-1.9s-0.4-1.1-0.6-1.5
		c0,0.7-0.1,1.4-0.1,2.3c0,0.8-0.1,1.7-0.1,2.5c0,0.9-0.1,1.7-0.1,2.6c0,0.9,0,1.7,0,2.5h-1.5c0-1.1,0.1-2.2,0.1-3.3
		s0.1-2.2,0.1-3.2c0.1-1.1,0.1-2.1,0.2-3.1c0.1-1,0.1-2,0.2-2.9h1.6c0.2,0.5,0.5,1.1,0.7,1.8s0.6,1.5,0.8,2.2s0.6,1.6,0.8,2.3
		s0.5,1.5,0.7,2.1c0.2-0.6,0.4-1.4,0.7-2.1s0.5-1.6,0.8-2.3s0.5-1.5,0.8-2.2s0.5-1.3,0.7-1.8h1.6c0.1,0.9,0.2,1.9,0.2,2.9
		c0.1,1,0.1,2,0.2,3.1c0.1,1.1,0.1,2.1,0.1,3.2c0,1.1,0.1,2.2,0.1,3.3h-1.5c0-0.8,0-1.6-0.1-2.5c0-0.9,0-1.8-0.1-2.6
		c0-0.9-0.1-1.7-0.1-2.6s-0.1-1.6-0.1-2.3c-0.1,0.3-0.2,0.7-0.4,1.1c-0.2,0.5-0.3,0.9-0.5,1.5s-0.4,1.1-0.5,1.6
		c-0.2,0.6-0.4,1.1-0.5,1.6s-0.3,1-0.4,1.4s-0.2,0.8-0.3,1L615.9,182.5L615.9,182.5z"/>
	<path class="st10" d="M624.6,184.2v-12.5h5.6v1.4h-4v3.9h3.6v1.3h-3.6v4.5h4.3v1.4L624.6,184.2L624.6,184.2z"/>
</g>
<g class="st9">
	<path class="st7" d="M581.8,211.6c0.6-0.4,1.2-1,1.9-1.6c0.6-0.6,1.3-1.3,1.9-2.1c0.6-0.7,1.2-1.5,1.7-2.3s1-1.5,1.3-2.3h3.1v41.6
		h-4.1v-33.4c-0.5,0.7-1.2,1.4-1.9,2s-1.5,1.2-2.3,1.8L581.8,211.6z"/>
	<path class="st7" d="M607.2,216.3c0,0.9-0.3,1.7-0.8,2.5c-0.5,0.7-1.2,1.1-2.1,1.1s-1.5-0.4-2-1.1c-0.5-0.7-0.8-1.5-0.8-2.5
		s0.3-1.8,0.8-2.5s1.2-1.1,2-1.1s1.5,0.4,2.1,1.1C606.9,214.5,607.2,215.3,607.2,216.3z M607.2,242.1c0,0.9-0.3,1.7-0.8,2.5
		c-0.5,0.7-1.2,1.1-2.1,1.1s-1.5-0.4-2-1.1c-0.5-0.7-0.8-1.5-0.8-2.5s0.3-1.8,0.8-2.5s1.2-1.1,2-1.1s1.5,0.4,2.1,1.1
		C606.9,240.3,607.2,241.2,607.2,242.1z"/>
	<path class="st7" d="M622,222.6c1.6,0.7,2.8,2,3.7,3.8s1.3,4.2,1.3,7c0,3.8-0.7,6.9-2.2,9.1c-1.5,2.2-3.7,3.3-6.7,3.3
		c-1.2,0-2.3-0.2-3.4-0.7c-1.1-0.4-2.1-1-2.9-1.7l1.1-4.2c0.7,0.6,1.5,1,2.3,1.4s1.7,0.6,2.5,0.6c1.6,0,2.9-0.6,3.8-1.9
		s1.4-3.3,1.4-6s-0.5-4.8-1.5-6.2s-2.6-2.1-4.8-2.1h-1.2v-4.4h1c1.9,0,3.3-0.6,4.2-1.9c0.9-1.3,1.4-3.1,1.4-5.3s-0.4-3.8-1.1-4.8
		c-0.7-1.1-1.7-1.6-2.9-1.6c-0.8,0-1.6,0.2-2.3,0.6c-0.7,0.4-1.4,0.9-1.9,1.5l-1.6-3.8c0.8-1,1.8-1.7,2.9-2.2
		c1.1-0.5,2.2-0.7,3.3-0.7c2.5,0,4.4,1,5.7,2.9c1.3,2,2,4.6,2,7.8c0,2.3-0.4,4.2-1.1,5.8C624.3,220.5,623.3,221.7,622,222.6z"/>
	<path class="st7" d="M632.7,224.1c0-4.1,0.1-7.5,0.4-10.3c0.3-2.8,0.7-5,1.4-6.7c0.6-1.7,1.4-2.9,2.4-3.6c1-0.7,2.1-1.1,3.5-1.1
		s2.5,0.4,3.5,1.1c1,0.7,1.8,1.9,2.4,3.6c0.6,1.7,1.1,3.9,1.4,6.7c0.3,2.8,0.4,6.2,0.4,10.3s-0.1,7.5-0.4,10.3
		c-0.3,2.8-0.7,5-1.4,6.7c-0.6,1.7-1.4,2.9-2.4,3.6c-1,0.7-2.1,1.1-3.5,1.1s-2.6-0.4-3.5-1.1s-1.8-2-2.4-3.6
		c-0.6-1.7-1.1-3.9-1.4-6.7S632.7,228.2,632.7,224.1z M643.9,224.1c0-3.3-0.1-6-0.2-8.2c-0.1-2.2-0.3-4-0.6-5.3s-0.6-2.3-1.1-2.8
		c-0.4-0.6-1-0.8-1.6-0.8s-1.2,0.3-1.6,0.8c-0.4,0.6-0.8,1.5-1.1,2.8s-0.5,3.1-0.6,5.3s-0.2,4.9-0.2,8.2s0.1,6,0.2,8.2
		c0.1,2.2,0.3,4,0.6,5.3s0.6,2.3,1.1,2.8c0.4,0.6,1,0.8,1.6,0.8s1.2-0.3,1.6-0.8c0.4-0.6,0.8-1.5,1.1-2.8s0.5-3.1,0.6-5.3
		C643.8,230.2,643.9,227.4,643.9,224.1z"/>
</g>
</svg>
