<?xml version="1.0" encoding="utf-8"?>
<!-- Generator: Adobe Illustrator 19.2.1, SVG Export Plug-In . SVG Version: 6.00 Build 0)  -->
<svg version="1.1" id="Layer_1" xmlns="http://www.w3.org/2000/svg" xmlns:xlink="http://www.w3.org/1999/xlink" x="0px" y="0px"
	 viewBox="0 0 710 508" style="enable-background:new 0 0 710 508;" xml:space="preserve">
<style type="text/css">
	.st0{fill:#233347;}
	.st1{fill:#5E7AA2;}
	.st2{fill:#7A9FCC;}
	.st3{enable-background:new    ;}
	.st4{fill:#FFFFFF;}
	.st5{fill:#3E5A7D;}
	.st6{fill:#F1F2F2;}
	.st7{fill:url(#SVGID_1_);}
	.st8{clip-path:url(#SVGID_3_);fill:url(#SVGID_4_);}
	.st9{fill:#C2DBF2;}
	.st10{fill:#F26F6A;}
	.st11{fill:#FFCF01;}
	.st12{fill:none;stroke:#5E7AA2;stroke-miterlimit:10;}
	.st13{fill:#ED1C24;}
	.st14{fill:#CCE08A;}
</style>
<rect class="st0" width="520" height="508"/>
<rect x="520" y="100" class="st1" width="190" height="408"/>
<rect x="520" class="st2" width="190" height="100"/>
<path class="st1" d="M580.2,51.3c0,13.1-10.6,23.8-23.8,23.8c-13.1,0-23.8-10.6-23.8-23.8c0-13.1,10.6-23.8,23.8-23.8
	C569.6,27.5,580.2,38.1,580.2,51.3"/>
<g class="st3">
	<path class="st4" d="M587.5,42.7c0-1.2,0.1-2.3,0.3-3.2s0.6-1.6,1-2.1c0.4-0.6,0.9-1,1.5-1.2s1.3-0.4,2-0.4c0.6,0,1.1,0.1,1.6,0.2
		s0.8,0.3,1.1,0.5l-0.5,1.4c-0.3-0.2-0.6-0.4-1-0.5s-0.7-0.2-1.2-0.2c-1.1,0-1.9,0.4-2.4,1.3c-0.5,0.9-0.7,2.2-0.7,4
		c0,1,0.1,1.8,0.2,2.5s0.4,1.2,0.6,1.7c0.3,0.4,0.6,0.7,1,1c0.4,0.2,0.8,0.3,1.3,0.3c0.4,0,0.7,0,1-0.1v-5.1h1.7V49
		c-0.3,0.2-0.8,0.3-1.3,0.4s-1,0.2-1.6,0.2c-0.7,0-1.3-0.1-1.9-0.4s-1.1-0.7-1.5-1.3s-0.8-1.3-1-2.1
		C587.7,44.9,587.5,43.9,587.5,42.7z"/>
</g>
<g class="st3">
	<path class="st4" d="M598.1,36.3c0.9-0.2,1.7-0.3,2.6-0.3c0.7,0,1.3,0.1,1.8,0.2c0.5,0.2,1,0.4,1.4,0.7s0.7,0.8,0.9,1.3
		s0.3,1.1,0.3,1.9c0,0.9-0.2,1.7-0.5,2.2s-0.8,1-1.4,1.3c0.2,0.3,0.3,0.6,0.6,1c0.2,0.4,0.5,0.9,0.7,1.4s0.5,1.1,0.7,1.6
		c0.2,0.6,0.4,1.1,0.6,1.6H604c-0.1-0.4-0.3-0.8-0.5-1.3s-0.4-1-0.7-1.4s-0.5-0.9-0.7-1.4c-0.2-0.4-0.4-0.8-0.6-1.1
		c-0.2,0-0.4,0-0.6,0.1c-0.2,0-0.4,0-0.6,0h-0.5v5.1h-1.7L598.1,36.3L598.1,36.3z M599.8,42.7h0.7c0.9,0,1.5-0.2,2-0.6
		c0.5-0.4,0.7-1.1,0.7-2.1c0-0.5-0.1-0.9-0.2-1.2c-0.1-0.3-0.3-0.6-0.5-0.8s-0.5-0.3-0.8-0.4s-0.7-0.1-1-0.1s-0.6,0-0.9,0.1V42.7z"
		/>
</g>
<g class="st3">
	<path class="st4" d="M612.1,36.1c0.3,0.9,0.6,1.9,0.9,2.9c0.3,1,0.6,2,0.9,3c0.3,1.1,0.6,2.2,0.9,3.4c0.3,1.2,0.6,2.5,0.9,3.9H614
		c-0.1-0.6-0.2-1.1-0.3-1.7s-0.2-1.1-0.3-1.7h-4.2c-0.1,0.6-0.2,1.1-0.3,1.7c-0.1,0.6-0.2,1.1-0.3,1.7h-1.7c0.3-1.4,0.6-2.7,0.9-3.9
		c0.3-1.2,0.6-2.3,0.9-3.4c0.3-1.1,0.6-2.1,0.9-3c0.3-1,0.6-1.9,0.9-2.9H612.1z M611.2,38.1c-0.3,1.1-0.6,2.1-0.9,3.2
		c-0.3,1.1-0.6,2.2-0.8,3.3h3.4c-0.3-1.1-0.5-2.2-0.8-3.3C611.8,40.2,611.5,39.1,611.2,38.1z"/>
	<path class="st4" d="M622.1,47.5c-0.3-0.9-0.5-1.8-0.8-2.6s-0.5-1.6-0.8-2.4s-0.5-1.4-0.7-2s-0.4-1.1-0.6-1.6
		c-0.1,0.7-0.1,1.5-0.1,2.4S619,43.1,619,44s-0.1,1.8-0.1,2.7s0,1.8,0,2.6h-1.6c0-1.1,0.1-2.3,0.1-3.4s0.1-2.3,0.1-3.4
		s0.1-2.2,0.2-3.3c0.1-1.1,0.1-2.1,0.2-3h1.7c0.2,0.5,0.5,1.2,0.8,1.9c0.3,0.8,0.6,1.5,0.9,2.4c0.3,0.8,0.6,1.6,0.9,2.5
		c0.3,0.8,0.5,1.6,0.7,2.3c0.2-0.7,0.4-1.4,0.7-2.3s0.5-1.6,0.8-2.5s0.6-1.6,0.9-2.4c0.3-0.8,0.5-1.4,0.8-1.9h1.7c0.1,1,0.2,2,0.2,3
		c0.1,1.1,0.1,2.2,0.2,3.3c0.1,1.1,0.1,2.3,0.1,3.4s0.1,2.3,0.1,3.4h-1.6c0-0.8,0-1.7-0.1-2.6s0-1.9-0.1-2.8c0-0.9-0.1-1.8-0.1-2.7
		s-0.1-1.7-0.1-2.4c-0.1,0.3-0.3,0.7-0.4,1.2c-0.2,0.5-0.3,1-0.5,1.5c-0.2,0.6-0.4,1.1-0.6,1.7s-0.4,1.2-0.6,1.7
		c-0.2,0.5-0.3,1-0.5,1.5c-0.1,0.4-0.2,0.8-0.3,1.1C623.5,47.5,622.1,47.5,622.1,47.5z"/>
	<path class="st4" d="M635.9,47.5c-0.3-0.9-0.5-1.8-0.8-2.6s-0.5-1.6-0.8-2.4s-0.5-1.4-0.7-2s-0.4-1.1-0.6-1.6
		c-0.1,0.7-0.1,1.5-0.1,2.4s-0.1,1.8-0.1,2.7s-0.1,1.8-0.1,2.7s0,1.8,0,2.6h-1.6c0-1.1,0.1-2.3,0.1-3.4s0.1-2.3,0.1-3.4
		s0.1-2.2,0.2-3.3c0.1-1.1,0.1-2.1,0.2-3h1.7c0.2,0.5,0.5,1.2,0.8,1.9c0.3,0.8,0.6,1.5,0.9,2.4c0.3,0.8,0.6,1.6,0.9,2.5
		c0.3,0.8,0.5,1.6,0.7,2.3c0.2-0.7,0.4-1.4,0.7-2.3s0.5-1.6,0.8-2.5s0.6-1.6,0.9-2.4c0.3-0.8,0.5-1.4,0.8-1.9h1.7c0.1,1,0.2,2,0.2,3
		c0.1,1.1,0.1,2.2,0.2,3.3c0.1,1.1,0.1,2.3,0.1,3.4s0.1,2.3,0.1,3.4h-1.6c0-0.8,0-1.7-0.1-2.6s0-1.9-0.1-2.8c0-0.9-0.1-1.8-0.1-2.7
		s-0.1-1.7-0.1-2.4c-0.1,0.3-0.3,0.7-0.4,1.2c-0.2,0.5-0.3,1-0.5,1.5c-0.2,0.6-0.4,1.1-0.6,1.7s-0.4,1.2-0.6,1.7
		c-0.2,0.5-0.3,1-0.5,1.5c-0.1,0.4-0.2,0.8-0.3,1.1C637.3,47.5,635.9,47.5,635.9,47.5z"/>
</g>
<g class="st3">
	<path class="st4" d="M649.3,36.1c0.3,0.9,0.6,1.9,0.9,2.9c0.3,1,0.6,2,0.9,3c0.3,1.1,0.6,2.2,0.9,3.4c0.3,1.2,0.6,2.5,0.9,3.9h-1.7
		c-0.1-0.6-0.2-1.1-0.3-1.7s-0.2-1.1-0.3-1.7h-4.2c-0.1,0.6-0.2,1.1-0.3,1.7c-0.1,0.6-0.2,1.1-0.3,1.7H644c0.3-1.4,0.6-2.7,0.9-3.9
		c0.3-1.2,0.6-2.3,0.9-3.4c0.3-1.1,0.6-2.1,0.9-3c0.3-1,0.6-1.9,0.9-2.9H649.3z M648.4,38.1c-0.3,1.1-0.6,2.1-0.9,3.2
		c-0.3,1.1-0.6,2.2-0.8,3.3h3.4c-0.3-1.1-0.5-2.2-0.8-3.3S648.7,39.1,648.4,38.1z"/>
</g>
<g class="st3">
	<path class="st4" d="M660.3,36.1v1.5h-2.9v11.7h-1.7V37.6h-2.9v-1.5H660.3z"/>
	<path class="st4" d="M662.2,36.1h1.7v13.2h-1.7V36.1z"/>
</g>
<g class="st3">
	<path class="st4" d="M671.3,49.6c-1.5,0-2.7-0.6-3.6-1.7c-0.8-1.2-1.2-2.9-1.2-5.3c0-1.2,0.1-2.3,0.4-3.1c0.2-0.8,0.6-1.5,1-2.1
		c0.4-0.5,0.9-0.9,1.5-1.1c0.6-0.2,1.2-0.4,1.9-0.4c0.6,0,1.1,0.1,1.6,0.2c0.5,0.1,0.9,0.3,1.2,0.5l-0.5,1.4c-0.3-0.2-0.6-0.4-1-0.5
		c-0.3-0.1-0.8-0.2-1.2-0.2c-1,0-1.7,0.4-2.2,1.3c-0.5,0.8-0.7,2.1-0.7,3.9c0,1.8,0.2,3.2,0.7,4.1c0.5,1,1.3,1.4,2.4,1.4
		c0.5,0,0.9-0.1,1.3-0.2c0.3-0.1,0.6-0.3,0.9-0.5l0.5,1.3c-0.3,0.2-0.7,0.4-1.1,0.6C672.5,49.5,672,49.6,671.3,49.6z"/>
</g>
<g class="st3">
	<path class="st4" d="M680.7,36.1c0.3,0.9,0.6,1.9,0.9,2.9c0.3,1,0.6,2,0.9,3c0.3,1.1,0.6,2.2,0.9,3.4c0.3,1.2,0.6,2.5,0.9,3.9h-1.7
		c-0.1-0.6-0.2-1.1-0.3-1.7s-0.2-1.1-0.3-1.7h-4.2c-0.1,0.6-0.2,1.1-0.3,1.7c-0.1,0.6-0.2,1.1-0.3,1.7h-1.7c0.3-1.4,0.6-2.7,0.9-3.9
		c0.3-1.2,0.6-2.3,0.9-3.4c0.3-1.1,0.6-2.1,0.9-3c0.3-1,0.6-1.9,0.9-2.9H680.7z M679.8,38.1c-0.3,1.1-0.6,2.1-0.9,3.2
		c-0.3,1.1-0.6,2.2-0.8,3.3h3.4c-0.3-1.1-0.5-2.2-0.8-3.3S680.1,39.1,679.8,38.1z"/>
	<path class="st4" d="M692,47.8v1.5h-5.9V36.1h1.7v11.7H692z"/>
</g>
<g class="st3">
	<path class="st4" d="M588.1,51.8c0.9-0.2,1.7-0.3,2.6-0.3c0.7,0,1.3,0.1,1.8,0.2c0.5,0.2,1,0.4,1.4,0.7s0.7,0.8,0.9,1.3
		s0.3,1.1,0.3,1.9c0,0.9-0.2,1.7-0.5,2.2s-0.8,1-1.4,1.3c0.2,0.3,0.3,0.6,0.6,1c0.2,0.4,0.5,0.9,0.7,1.4s0.5,1.1,0.7,1.6
		c0.2,0.6,0.4,1.1,0.6,1.6H594c-0.1-0.4-0.3-0.8-0.5-1.3s-0.4-1-0.7-1.4s-0.5-0.9-0.7-1.4c-0.2-0.4-0.4-0.8-0.6-1.1
		c-0.2,0-0.4,0-0.6,0.1c-0.2,0-0.4,0-0.6,0h-0.5v5.1h-1.7L588.1,51.8L588.1,51.8z M589.8,58.2h0.7c0.9,0,1.5-0.2,2-0.6
		c0.5-0.4,0.7-1.1,0.7-2.1c0-0.5-0.1-0.9-0.2-1.2c-0.1-0.3-0.3-0.6-0.5-0.8s-0.5-0.3-0.8-0.4s-0.7-0.1-1-0.1s-0.6,0-0.9,0.1V58.2z"
		/>
</g>
<g class="st3">
	<path class="st4" d="M597.9,64.7V51.6h5.9V53h-4.2v4.1h3.8v1.4h-3.8v4.7h4.5v1.5H597.9z"/>
	<path class="st4" d="M610.8,51.6c0.3,0.9,0.6,1.9,0.9,2.9c0.3,1,0.6,2,0.9,3c0.3,1.1,0.6,2.2,0.9,3.4c0.3,1.2,0.6,2.5,0.9,3.9h-1.7
		c-0.1-0.6-0.2-1.1-0.3-1.7s-0.2-1.1-0.3-1.7h-4.2c-0.1,0.6-0.2,1.1-0.3,1.7c-0.1,0.6-0.2,1.1-0.3,1.7h-1.7c0.3-1.4,0.6-2.7,0.9-3.9
		c0.3-1.2,0.6-2.3,0.9-3.4c0.3-1.1,0.6-2.1,0.9-3c0.3-1,0.6-1.9,0.9-2.9H610.8z M609.9,53.5c-0.3,1.1-0.6,2.1-0.9,3.2
		c-0.3,1.1-0.6,2.2-0.8,3.3h3.4c-0.3-1.1-0.5-2.2-0.8-3.3C610.5,55.6,610.2,54.6,609.9,53.5z"/>
	<path class="st4" d="M618.1,63.6c0.7,0,1.2-0.2,1.6-0.6c0.4-0.4,0.6-0.9,0.6-1.5c0-0.3-0.1-0.6-0.2-0.9c-0.1-0.3-0.3-0.5-0.4-0.7
		s-0.4-0.4-0.6-0.6s-0.5-0.4-0.7-0.5c-0.3-0.2-0.6-0.4-0.9-0.6c-0.3-0.2-0.6-0.5-0.9-0.8c-0.3-0.3-0.5-0.7-0.6-1.1
		c-0.2-0.4-0.2-0.9-0.2-1.4s0.1-1,0.3-1.4s0.4-0.8,0.8-1.1c0.3-0.3,0.7-0.5,1.2-0.7c0.4-0.2,0.9-0.2,1.5-0.2c0.5,0,1,0.1,1.4,0.2
		c0.4,0.1,0.8,0.3,1.1,0.5l-0.5,1.3c-0.3-0.2-0.6-0.3-0.9-0.4c-0.3-0.1-0.6-0.1-1-0.1c-0.6,0-1.1,0.2-1.5,0.5s-0.6,0.8-0.6,1.5
		c0,0.4,0.1,0.7,0.2,0.9c0.1,0.3,0.3,0.5,0.5,0.7s0.4,0.4,0.7,0.6c0.3,0.2,0.5,0.4,0.8,0.6c0.3,0.2,0.6,0.4,0.9,0.6
		c0.3,0.2,0.6,0.5,0.8,0.8s0.5,0.6,0.6,1c0.2,0.4,0.2,0.9,0.2,1.4s-0.1,1-0.2,1.4c-0.2,0.4-0.4,0.8-0.7,1.2
		c-0.3,0.3-0.7,0.6-1.2,0.8c-0.5,0.2-1.1,0.3-1.7,0.3c-0.6,0-1.1-0.1-1.6-0.2s-0.9-0.3-1.2-0.6l0.5-1.4c0.3,0.2,0.7,0.4,1,0.5
		S617.7,63.6,618.1,63.6z"/>
</g>
<g class="st3">
	<path class="st4" d="M633.1,58.2c0,1-0.1,2-0.3,2.8s-0.5,1.6-0.9,2.2c-0.4,0.6-0.9,1.1-1.5,1.4s-1.3,0.5-2.1,0.5s-1.5-0.2-2.1-0.5
		s-1.1-0.8-1.5-1.4c-0.4-0.6-0.7-1.3-0.9-2.2c-0.2-0.8-0.3-1.8-0.3-2.8s0.1-2,0.3-2.8s0.5-1.6,0.9-2.2c0.4-0.6,0.9-1.1,1.5-1.4
		c0.6-0.3,1.3-0.5,2.1-0.5s1.5,0.2,2.1,0.5s1.1,0.8,1.5,1.4c0.4,0.6,0.7,1.3,0.9,2.2S633.1,57.1,633.1,58.2z M631.3,58.2
		c0-0.8-0.1-1.5-0.2-2.2c-0.1-0.7-0.3-1.2-0.5-1.7s-0.5-0.8-0.9-1.1s-0.8-0.4-1.3-0.4s-1,0.1-1.3,0.4c-0.4,0.3-0.7,0.6-0.9,1.1
		s-0.4,1-0.5,1.7s-0.2,1.4-0.2,2.2s0.1,1.5,0.2,2.2c0.1,0.7,0.3,1.2,0.5,1.7s0.5,0.8,0.9,1.1s0.8,0.4,1.3,0.4s1-0.1,1.3-0.4
		s0.7-0.6,0.9-1.1s0.4-1,0.5-1.7C631.3,59.7,631.3,59,631.3,58.2z"/>
	<path class="st4" d="M642.3,64.7c-0.3-0.7-0.6-1.6-1-2.4c-0.4-0.9-0.8-1.7-1.2-2.6c-0.4-0.9-0.9-1.8-1.3-2.6
		c-0.4-0.9-0.9-1.7-1.3-2.4v10.1h-1.6V51.6h1.4c0.5,0.8,0.9,1.6,1.4,2.4c0.4,0.8,0.9,1.6,1.3,2.4s0.8,1.6,1.1,2.4
		c0.4,0.8,0.7,1.5,1,2.2v-9.4h1.6v13.2h-1.4V64.7z"/>
	<path class="st4" d="M646.8,51.6h1.7v13.2h-1.7V51.6z"/>
	<path class="st4" d="M658.2,64.7c-0.3-0.7-0.6-1.6-1-2.4c-0.4-0.9-0.8-1.7-1.2-2.6c-0.4-0.9-0.9-1.8-1.3-2.6
		c-0.4-0.9-0.9-1.7-1.3-2.4v10.1h-1.6V51.6h1.4c0.5,0.8,0.9,1.6,1.4,2.4c0.4,0.8,0.9,1.6,1.3,2.4s0.8,1.6,1.1,2.4
		c0.4,0.8,0.7,1.5,1,2.2v-9.4h1.6v13.2h-1.4V64.7z"/>
	<path class="st4" d="M662.2,58.2c0-1.2,0.1-2.3,0.3-3.2s0.6-1.6,1-2.1c0.4-0.6,0.9-1,1.5-1.2s1.3-0.4,2-0.4c0.6,0,1.1,0.1,1.6,0.2
		s0.8,0.3,1.1,0.5l-0.5,1.4c-0.3-0.2-0.6-0.4-1-0.5s-0.7-0.2-1.2-0.2c-1.1,0-1.9,0.4-2.4,1.3c-0.5,0.9-0.7,2.2-0.7,4
		c0,1,0.1,1.8,0.2,2.5s0.4,1.2,0.6,1.7c0.3,0.4,0.6,0.7,1,1c0.4,0.2,0.8,0.3,1.3,0.3c0.4,0,0.7,0,1-0.1v-5.1h1.7v6.2
		c-0.3,0.2-0.8,0.3-1.3,0.4s-1,0.2-1.6,0.2c-0.7,0-1.3-0.1-1.9-0.4s-1.1-0.7-1.5-1.3s-0.8-1.3-1-2.1
		C662.3,60.4,662.2,59.3,662.2,58.2z"/>
</g>
<g class="st3">
	<path class="st4" d="M546.2,50.3c0-1.4,0.1-2.7,0.4-3.7c0.3-1,0.6-1.8,1.1-2.5c0.5-0.6,1.1-1.1,1.8-1.4s1.5-0.4,2.3-0.4
		c0.7,0,1.3,0.1,1.8,0.3s1,0.4,1.3,0.6l-0.6,1.7c-0.3-0.2-0.7-0.4-1.1-0.6c-0.4-0.2-0.9-0.2-1.4-0.2c-1.3,0-2.2,0.5-2.8,1.6
		c-0.6,1-0.8,2.6-0.8,4.7c0,1.1,0.1,2.1,0.3,2.9c0.2,0.8,0.4,1.4,0.7,1.9s0.7,0.9,1.1,1.1c0.4,0.2,0.9,0.4,1.5,0.4
		c0.5,0,0.8-0.1,1.2-0.2v-6h2v7.2c-0.4,0.2-0.9,0.4-1.5,0.5s-1.2,0.2-1.8,0.2c-0.8,0-1.5-0.2-2.2-0.5s-1.3-0.8-1.7-1.5
		c-0.5-0.7-0.9-1.5-1.1-2.5C546.4,52.9,546.2,51.7,546.2,50.3z"/>
	<path class="st4" d="M558.4,42.9c1-0.2,2-0.4,3-0.4c0.8,0,1.5,0.1,2.1,0.3s1.1,0.5,1.6,0.8s0.8,0.9,1,1.5s0.4,1.3,0.4,2.2
		c0,1.1-0.2,1.9-0.6,2.6s-1,1.1-1.6,1.5c0.2,0.3,0.4,0.7,0.7,1.2s0.5,1.1,0.8,1.7c0.3,0.6,0.6,1.2,0.8,1.9c0.3,0.6,0.5,1.3,0.7,1.8
		h-2c-0.2-0.4-0.4-0.9-0.6-1.5c-0.2-0.6-0.5-1.1-0.8-1.7s-0.5-1.1-0.8-1.6s-0.5-0.9-0.7-1.3c-0.2,0-0.5,0.1-0.7,0.1s-0.5,0-0.7,0
		h-0.5v5.9h-1.9v-15H558.4z M560.4,50.3h0.8c1,0,1.8-0.2,2.3-0.7s0.8-1.3,0.8-2.4c0-0.6-0.1-1.1-0.2-1.4s-0.3-0.7-0.6-0.9
		s-0.6-0.4-0.9-0.5c-0.4-0.1-0.8-0.2-1.2-0.2s-0.7,0-1.1,0.1v6C560.3,50.3,560.4,50.3,560.4,50.3z"/>
</g>
<path class="st1" d="M499.9,11.9v10.7c0,0.2-0.1,0.3-0.2,0.4s-0.3,0.2-0.4,0.2c-0.2,0-0.3-0.1-0.4-0.2l-3.3-3.3H493
	c-0.2,0-0.3-0.1-0.4-0.2s-0.2-0.3-0.2-0.4v-3.8c0-0.2,0.1-0.3,0.2-0.4c0.1-0.1,0.3-0.2,0.4-0.2h2.6l3.3-3.3c0.1-0.1,0.3-0.2,0.4-0.2
	c0.2,0,0.3,0.1,0.4,0.2C499.8,11.6,499.9,11.7,499.9,11.9 M503.2,15.8c0.3,0.4,0.4,0.9,0.4,1.4s-0.1,1-0.4,1.4s-0.6,0.7-1.1,0.9
	c-0.1,0-0.1,0-0.2,0c-0.2,0-0.3-0.1-0.4-0.2s-0.2-0.3-0.2-0.4s0-0.3,0.1-0.3c0.1-0.1,0.2-0.2,0.3-0.2c0.1-0.1,0.2-0.1,0.3-0.2
	c0.1-0.1,0.2-0.2,0.3-0.4c0.1-0.2,0.1-0.3,0.1-0.6c0-0.2,0-0.4-0.1-0.6s-0.2-0.3-0.3-0.4c-0.1-0.1-0.2-0.2-0.3-0.2
	c-0.1-0.1-0.2-0.2-0.3-0.2c-0.1-0.1-0.1-0.2-0.1-0.4s0.1-0.3,0.2-0.4c0.1-0.1,0.3-0.2,0.4-0.2s0.2,0,0.2,0
	C502.6,15.1,503,15.4,503.2,15.8"/>
<path class="st5" d="M687.1,400.1c0,40-32.5,72.5-72.5,72.5s-72.5-32.5-72.5-72.5s32.5-72.5,72.5-72.5
	C654.7,327.6,687.1,360,687.1,400.1"/>
<g class="st3">
	<path class="st6" d="M596.7,413.7c0-4.1,0.1-7.5,0.4-10.3c0.3-2.8,0.7-5,1.4-6.7c0.6-1.7,1.4-2.9,2.4-3.6s2.1-1.1,3.5-1.1
		s2.5,0.4,3.5,1.1s1.8,2,2.4,3.6c0.6,1.7,1.1,3.9,1.4,6.7c0.3,2.8,0.4,6.2,0.4,10.3s-0.1,7.5-0.4,10.3c-0.3,2.8-0.7,5-1.4,6.7
		c-0.6,1.7-1.4,2.9-2.4,3.6s-2.1,1.1-3.5,1.1s-2.6-0.4-3.5-1.1s-1.8-2-2.4-3.6s-1.1-3.9-1.4-6.7
		C596.8,421.2,596.7,417.7,596.7,413.7z M607.9,413.7c0-3.3-0.1-6-0.2-8.2c-0.1-2.2-0.3-4-0.6-5.3s-0.6-2.3-1.1-2.8
		c-0.4-0.6-1-0.8-1.6-0.8s-1.2,0.3-1.6,0.8c-0.4,0.6-0.8,1.5-1.1,2.8s-0.5,3.1-0.6,5.3c-0.1,2.2-0.2,4.9-0.2,8.2
		c0,3.3,0.1,6,0.2,8.2c0.1,2.2,0.3,4,0.6,5.3s0.6,2.3,1.1,2.8c0.4,0.6,1,0.8,1.6,0.8s1.2-0.3,1.6-0.8c0.4-0.6,0.8-1.5,1.1-2.8
		s0.5-3.1,0.6-5.3C607.8,419.7,607.9,416.9,607.9,413.7z"/>
	<path class="st6" d="M626.8,412.1c1.6,0.7,2.8,2,3.7,3.8s1.3,4.2,1.3,7c0,3.8-0.7,6.9-2.2,9.1s-3.7,3.3-6.7,3.3
		c-1.2,0-2.3-0.2-3.4-0.7c-1.1-0.4-2.1-1-2.9-1.7l1.1-4.2c0.7,0.6,1.5,1,2.3,1.4s1.7,0.6,2.5,0.6c1.6,0,2.9-0.6,3.8-1.9
		s1.4-3.3,1.4-6c0-2.8-0.5-4.8-1.5-6.2c-1-1.4-2.6-2.1-4.8-2.1h-1.2v-4.4h1c1.9,0,3.3-0.6,4.2-1.9s1.4-3.1,1.4-5.3
		c0-2.2-0.4-3.8-1.1-4.8c-0.7-1.1-1.7-1.6-2.9-1.6c-0.8,0-1.6,0.2-2.3,0.6s-1.4,0.9-1.9,1.5l-1.6-3.8c0.8-1,1.8-1.7,2.9-2.2
		c1.1-0.5,2.2-0.7,3.3-0.7c2.5,0,4.4,1,5.7,2.9c1.3,2,2,4.6,2,7.8c0,2.3-0.4,4.2-1.1,5.8S628.1,411.3,626.8,412.1z"/>
</g>
<path class="st0" d="M687,211.2c0,40-32.5,72.5-72.5,72.5S542,251.2,542,211.2s32.5-72.5,72.5-72.5C654.6,138.7,687,171.1,687,211.2
	"/>
<path class="st2" d="M668.9,259.4c-13.3,15-32.7,24.4-54.4,24.4c-19.7,0-37.7-7.9-50.8-20.7C566.5,260.5,670.6,257.4,668.9,259.4"/>
<polyline class="st0" points="664.1,267.5 643.6,245.2 653.9,235.2 673.7,254.9 "/>
<path class="st0" d="M674.4,256.2c3.1,3.1,3.1,8.2,0,11.3c-3.1,3.1-8.2,3.1-11.3,0s-3.1-8.2,0-11.3
	C666.2,253.1,671.3,253.1,674.4,256.2"/>
<polyline class="st0" points="566.3,267.5 586.8,245.2 576.5,235.2 556.6,254.9 "/>
<path class="st0" d="M554,256.2c-3.1,3.1-3.1,8.2,0,11.3c3.1,3.1,8.2,3.1,11.3,0s3.1-8.2,0-11.3C562.2,253.1,557.1,253.1,554,256.2"
	/>
<linearGradient id="SVGID_1_" gradientUnits="userSpaceOnUse" x1="156.8271" y1="4495.082" x2="157.8271" y2="4495.082" gradientTransform="matrix(138 0 0 -138 -21096.627 620518.75)">
	<stop  offset="0" style="stop-color:#7A9FCC"/>
	<stop  offset="7.505440e-02" style="stop-color:#7A9FCC"/>
	<stop  offset="0.3951" style="stop-color:#F48270"/>
	<stop  offset="0.7246" style="stop-color:#F5841F"/>
	<stop  offset="0.9481" style="stop-color:#ED174B"/>
	<stop  offset="1" style="stop-color:#ED174B"/>
</linearGradient>
<path class="st7" d="M559.8,252.3c-8.6-11.5-13.8-25.7-13.8-41.2c0-37.8,30.7-68.5,68.5-68.5s68.5,30.7,68.5,68.5
	c0,14.8-4.7,28.6-12.7,39.8l-5.7-4.1c7.2-10.1,11.4-22.4,11.4-35.7c-0.1-34-27.5-61.4-61.5-61.5c-34,0.1-61.4,27.5-61.5,61.5
	c0,13.9,4.6,26.7,12.4,37L559.8,252.3L559.8,252.3z"/>
<g>
	<g>
		<g>
			<g>
				<g>
					<defs>
						<path id="SVGID_2_" d="M549.5,211.1c0,35.9,29.1,65,65,65s65-29.1,65-65s-29.1-65-65-65S549.5,175.2,549.5,211.1"/>
					</defs>
					<clipPath id="SVGID_3_">
						<use xlink:href="#SVGID_2_"  style="overflow:visible;"/>
					</clipPath>
					
						<radialGradient id="SVGID_4_" cx="153.6191" cy="4493.0073" r="1" gradientTransform="matrix(65 0 0 -65 -9370.7441 292256.5625)" gradientUnits="userSpaceOnUse">
						<stop  offset="0" style="stop-color:#5E7AA2"/>
						<stop  offset="0.5461" style="stop-color:#5E7AA2"/>
						<stop  offset="1" style="stop-color:#415573"/>
					</radialGradient>
					<rect x="549.5" y="146.1" class="st8" width="130" height="130"/>
				</g>
			</g>
		</g>
	</g>
</g>
<g class="st3">
	<path class="st9" d="M605.1,171.8v1.4h-2.8v11.1h-1.6v-11.1H598v-1.4H605.1z"/>
	<path class="st9" d="M606.9,171.8h1.6v12.5h-1.6V171.8z"/>
	<path class="st9" d="M615.9,182.5c-0.2-0.9-0.5-1.7-0.7-2.5s-0.5-1.5-0.7-2.2s-0.5-1.3-0.7-1.9s-0.4-1.1-0.6-1.5
		c0,0.7-0.1,1.4-0.1,2.3c0,0.8-0.1,1.7-0.1,2.5c0,0.9-0.1,1.7-0.1,2.6c0,0.9,0,1.7,0,2.5h-1.5c0-1.1,0.1-2.2,0.1-3.3
		s0.1-2.2,0.1-3.2c0.1-1.1,0.1-2.1,0.2-3.1c0.1-1,0.1-2,0.2-2.9h1.6c0.2,0.5,0.5,1.1,0.7,1.8s0.6,1.5,0.8,2.2s0.6,1.6,0.8,2.3
		s0.5,1.5,0.7,2.1c0.2-0.6,0.4-1.4,0.7-2.1s0.5-1.6,0.8-2.3s0.5-1.5,0.8-2.2s0.5-1.3,0.7-1.8h1.6c0.1,0.9,0.2,1.9,0.2,2.9
		c0.1,1,0.1,2,0.2,3.1c0.1,1.1,0.1,2.1,0.1,3.2c0,1.1,0.1,2.2,0.1,3.3h-1.5c0-0.8,0-1.6-0.1-2.5c0-0.9,0-1.8-0.1-2.6
		c0-0.9-0.1-1.7-0.1-2.6s-0.1-1.6-0.1-2.3c-0.1,0.3-0.2,0.7-0.4,1.1c-0.2,0.5-0.3,0.9-0.5,1.5s-0.4,1.1-0.5,1.6
		c-0.2,0.6-0.4,1.1-0.5,1.6s-0.3,1-0.4,1.4s-0.2,0.8-0.3,1L615.9,182.5L615.9,182.5z"/>
	<path class="st9" d="M624.6,184.2v-12.5h5.6v1.4h-4v3.9h3.6v1.3h-3.6v4.5h4.3v1.4L624.6,184.2L624.6,184.2z"/>
</g>
<g class="st3">
	<path class="st4" d="M581.8,211.6c0.6-0.4,1.2-1,1.9-1.6c0.6-0.6,1.3-1.3,1.9-2.1c0.6-0.7,1.2-1.5,1.7-2.3s1-1.5,1.3-2.3h3.1v41.6
		h-4.1v-33.4c-0.5,0.7-1.2,1.4-1.9,2s-1.5,1.2-2.3,1.8L581.8,211.6z"/>
	<path class="st4" d="M607.2,216.3c0,0.9-0.3,1.7-0.8,2.5c-0.5,0.7-1.2,1.1-2.1,1.1s-1.5-0.4-2-1.1c-0.5-0.7-0.8-1.5-0.8-2.5
		s0.3-1.8,0.8-2.5s1.2-1.1,2-1.1s1.5,0.4,2.1,1.1C606.9,214.5,607.2,215.3,607.2,216.3z M607.2,242.1c0,0.9-0.3,1.7-0.8,2.5
		c-0.5,0.7-1.2,1.1-2.1,1.1s-1.5-0.4-2-1.1c-0.5-0.7-0.8-1.5-0.8-2.5s0.3-1.8,0.8-2.5s1.2-1.1,2-1.1s1.5,0.4,2.1,1.1
		C606.9,240.3,607.2,241.2,607.2,242.1z"/>
	<path class="st4" d="M622,222.6c1.6,0.7,2.8,2,3.7,3.8s1.3,4.2,1.3,7c0,3.8-0.7,6.9-2.2,9.1c-1.5,2.2-3.7,3.3-6.7,3.3
		c-1.2,0-2.3-0.2-3.4-0.7c-1.1-0.4-2.1-1-2.9-1.7l1.1-4.2c0.7,0.6,1.5,1,2.3,1.4s1.7,0.6,2.5,0.6c1.6,0,2.9-0.6,3.8-1.9
		s1.4-3.3,1.4-6s-0.5-4.8-1.5-6.2s-2.6-2.1-4.8-2.1h-1.2v-4.4h1c1.9,0,3.3-0.6,4.2-1.9c0.9-1.3,1.4-3.1,1.4-5.3s-0.4-3.8-1.1-4.8
		c-0.7-1.1-1.7-1.6-2.9-1.6c-0.8,0-1.6,0.2-2.3,0.6c-0.7,0.4-1.4,0.9-1.9,1.5l-1.6-3.8c0.8-1,1.8-1.7,2.9-2.2
		c1.1-0.5,2.2-0.7,3.3-0.7c2.5,0,4.4,1,5.7,2.9c1.3,2,2,4.6,2,7.8c0,2.3-0.4,4.2-1.1,5.8C624.3,220.5,623.3,221.7,622,222.6z"/>
	<path class="st4" d="M632.7,224.1c0-4.1,0.1-7.5,0.4-10.3c0.3-2.8,0.7-5,1.4-6.7c0.6-1.7,1.4-2.9,2.4-3.6c1-0.7,2.1-1.1,3.5-1.1
		s2.5,0.4,3.5,1.1c1,0.7,1.8,1.9,2.4,3.6c0.6,1.7,1.1,3.9,1.4,6.7c0.3,2.8,0.4,6.2,0.4,10.3s-0.1,7.5-0.4,10.3
		c-0.3,2.8-0.7,5-1.4,6.7c-0.6,1.7-1.4,2.9-2.4,3.6c-1,0.7-2.1,1.1-3.5,1.1s-2.6-0.4-3.5-1.1s-1.8-2-2.4-3.6
		c-0.6-1.7-1.1-3.9-1.4-6.7S632.7,228.2,632.7,224.1z M643.9,224.1c0-3.3-0.1-6-0.2-8.2c-0.1-2.2-0.3-4-0.6-5.3s-0.6-2.3-1.1-2.8
		c-0.4-0.6-1-0.8-1.6-0.8s-1.2,0.3-1.6,0.8c-0.4,0.6-0.8,1.5-1.1,2.8s-0.5,3.1-0.6,5.3s-0.2,4.9-0.2,8.2s0.1,6,0.2,8.2
		c0.1,2.2,0.3,4,0.6,5.3s0.6,2.3,1.1,2.8c0.4,0.6,1,0.8,1.6,0.8s1.2-0.3,1.6-0.8c0.4-0.6,0.8-1.5,1.1-2.8s0.5-3.1,0.6-5.3
		C643.8,230.2,643.9,227.4,643.9,224.1z"/>
</g>
<rect x="197.2" y="168.7" class="st10" width="124.7" height="124.7"/>
<path class="st11" d="M288.9,232c0,16.4-13.3,29.7-29.7,29.7c-16.4,0-29.7-13.3-29.7-29.7s13.3-29.7,29.7-29.7
	C275.6,202.3,288.9,215.6,288.9,232"/>
<g>
	<g>
		<path class="st12" d="M199.7,445.5h-87.5c-11.7,0-21.3-9.5-21.3-21.3v-57.5c0-11.7,9.5-21.3,21.3-21.3h87.5
			c11.7,0,21.3,9.5,21.3,21.3v57.5C221,436,211.5,445.5,199.7,445.5z"/>
	</g>
</g>
<g class="st3">
	<path class="st13" d="M112.5,410v-29.6h13.3v3.3h-9.4v9.3h8.4v3.2h-8.4V410H112.5z"/>
	<path class="st13" d="M138.7,380.4c0.7,2.1,1.4,4.3,2,6.5c0.7,2.2,1.3,4.5,2,6.9c0.6,2.4,1.3,4.9,1.9,7.6c0.6,2.7,1.3,5.6,1.9,8.7
		h-3.8c-0.2-1.3-0.5-2.6-0.7-3.8c-0.2-1.3-0.5-2.5-0.7-3.8H132c-0.3,1.3-0.5,2.5-0.8,3.8c-0.2,1.3-0.5,2.5-0.7,3.8h-3.7
		c0.6-3.1,1.3-6,1.9-8.7c0.7-2.7,1.3-5.2,2-7.6c0.6-2.4,1.3-4.7,2-6.9c0.7-2.2,1.4-4.3,2-6.5H138.7z M136.6,384.8
		c-0.7,2.4-1.4,4.8-2,7.1c-0.7,2.4-1.3,4.8-1.9,7.3h7.8c-0.6-2.5-1.2-5-1.8-7.3C138,389.5,137.3,387.1,136.6,384.8z"/>
	<path class="st13" d="M164.2,406.7v3.3H151v-29.6h3.8v26.3L164.2,406.7L164.2,406.7z"/>
	<path class="st13" d="M173.1,407.4c1.5,0,2.7-0.4,3.6-1.3c0.8-0.9,1.3-2,1.3-3.5c0-0.8-0.1-1.5-0.4-2.1c-0.3-0.6-0.6-1.1-1-1.6
		s-0.9-0.9-1.4-1.3s-1.1-0.8-1.7-1.2c-0.7-0.5-1.3-0.9-2.1-1.5c-0.7-0.5-1.4-1.1-1.9-1.8c-0.6-0.7-1.1-1.5-1.4-2.4
		c-0.4-0.9-0.6-2-0.6-3.2s0.2-2.3,0.6-3.2s1-1.8,1.7-2.5s1.6-1.2,2.6-1.6s2.1-0.6,3.3-0.6c1.1,0,2.2,0.1,3.2,0.4s1.8,0.6,2.4,1
		l-1.2,3c-0.6-0.4-1.2-0.7-1.9-0.9c-0.7-0.2-1.4-0.3-2.2-0.3c-1.4,0-2.5,0.4-3.4,1.1c-0.8,0.8-1.3,1.9-1.3,3.3
		c0,0.8,0.1,1.5,0.4,2.1c0.3,0.6,0.6,1.1,1.1,1.6c0.4,0.5,1,0.9,1.5,1.3c0.6,0.4,1.2,0.8,1.9,1.2c0.7,0.4,1.3,0.9,2,1.4
		s1.3,1.1,1.9,1.8c0.6,0.7,1,1.5,1.4,2.4s0.5,2,0.5,3.2c0,1.1-0.2,2.2-0.5,3.2s-0.9,1.9-1.6,2.6c-0.7,0.8-1.6,1.4-2.7,1.8
		c-1.1,0.4-2.4,0.7-3.9,0.7c-1.4,0-2.6-0.2-3.6-0.5s-1.9-0.7-2.7-1.2l1.2-3.1c0.7,0.5,1.5,0.8,2.3,1.1
		C171.1,407.2,172.1,407.4,173.1,407.4z"/>
	<path class="st13" d="M186.5,410v-29.6h13.3v3.3h-9.4v9.2h8.5v3.2h-8.5v10.6h10.1v3.3H186.5z"/>
</g>
<g>
	<g>
		<path class="st12" d="M399.7,445.5h-87.5c-11.7,0-21.3-9.5-21.3-21.3v-57.5c0-11.7,9.5-21.3,21.3-21.3h87.5
			c11.7,0,21.3,9.5,21.3,21.3v57.5C421,436,411.5,445.5,399.7,445.5z"/>
	</g>
</g>
<g class="st3">
	<path class="st14" d="M332.8,380v3.3h-6.6v26.3h-3.8v-26.3h-6.6V380H332.8z"/>
	<path class="st14" d="M337,380.5c2-0.5,3.9-0.7,5.8-0.7c1.5,0,2.8,0.2,4,0.5s2.2,0.9,3.1,1.6s1.5,1.7,2,2.9s0.7,2.6,0.7,4.2
		c0,2.1-0.4,3.7-1.2,5c-0.8,1.3-1.8,2.2-3.2,2.9c0.3,0.6,0.8,1.3,1.3,2.3s1.1,2.1,1.6,3.2s1.1,2.4,1.6,3.7s1,2.5,1.3,3.6h-3.9
		c-0.3-0.9-0.7-1.8-1.2-2.9s-1-2.2-1.5-3.2c-0.5-1.1-1-2.1-1.5-3.1s-1-1.8-1.4-2.5c-0.5,0.1-0.9,0.1-1.4,0.1s-1,0-1.5,0h-1.1v11.5
		H337V380.5z M340.8,395h1.6c2,0,3.5-0.4,4.5-1.3c1.1-0.9,1.6-2.4,1.6-4.6c0-1.1-0.1-2-0.4-2.8s-0.7-1.4-1.2-1.8s-1.1-0.8-1.8-1
		c-0.7-0.2-1.5-0.3-2.3-0.3c-0.7,0-1.4,0-2.1,0.1L340.8,395L340.8,395z"/>
	<path class="st14" d="M367,410.3c-2.8,0-4.8-0.8-6.2-2.4c-1.4-1.6-2.1-4-2.1-7.4V380h3.8v20.1c0,2.3,0.3,3.9,1,5.1
		c0.7,1.1,1.8,1.7,3.5,1.7c1.8,0,3-0.6,3.6-1.7c0.6-1.2,1-2.8,1-5V380h3.8v20.5c0,3.3-0.7,5.8-2.1,7.4
		C372,409.5,369.8,410.3,367,410.3z"/>
	<path class="st14" d="M382.5,409.7V380h13.3v3.3h-9.4v9.2h8.5v3.2h-8.5v10.6h10.1v3.3h-14V409.7z"/>
</g>
<g class="st3">
	<path class="st4" d="M123.3,121.9c-2.3,0-4-0.8-5.2-2.5s-1.8-4.3-1.8-7.9c0-1.8,0.2-3.3,0.5-4.6c0.3-1.2,0.8-2.3,1.4-3.1
		c0.6-0.8,1.3-1.3,2.2-1.7c0.8-0.3,1.8-0.5,2.7-0.5c0.8,0,1.6,0.1,2.3,0.3c0.7,0.2,1.3,0.5,1.7,0.8l-0.8,2.1
		c-0.4-0.3-0.9-0.5-1.4-0.7s-1.1-0.3-1.8-0.3c-1.5,0-2.6,0.6-3.2,1.9c-0.7,1.2-1,3.2-1,5.8c0,2.6,0.4,4.7,1.1,6.1s1.9,2.1,3.5,2.1
		c0.8,0,1.4-0.1,1.9-0.3c0.5-0.2,0.9-0.4,1.4-0.7l0.7,2c-0.4,0.3-1,0.6-1.7,0.9C125,121.8,124.2,121.9,123.3,121.9z"/>
	<path class="st4" d="M131.2,104.2c-0.4,0-0.8-0.1-1.1-0.4s-0.5-0.7-0.5-1.2s0.2-0.9,0.5-1.2c0.3-0.3,0.7-0.4,1.1-0.4
		c0.4,0,0.8,0.1,1.1,0.4s0.5,0.7,0.5,1.2s-0.2,0.9-0.5,1.2C132,104.1,131.6,104.2,131.2,104.2z M132.4,121.5H130v-14.7h2.4V121.5z"
		/>
	<path class="st4" d="M143.1,109c-0.6-0.3-1.3-0.4-2-0.4s-1.3,0.1-1.9,0.4v12.5h-2.4v-14.1c0.5-0.3,1.2-0.5,1.9-0.7s1.5-0.3,2.3-0.3
		c0.4,0,0.9,0,1.3,0.1c0.4,0.1,0.9,0.2,1.3,0.3L143.1,109z"/>
	<path class="st4" d="M150.2,121.9c-1,0-1.8-0.2-2.5-0.6s-1.2-0.9-1.6-1.6s-0.7-1.5-0.9-2.4s-0.3-2-0.3-3.1c0-2.4,0.4-4.3,1.3-5.7
		s2.2-2.1,4-2.1c0.5,0,1,0.1,1.5,0.2c0.4,0.1,0.8,0.3,1.2,0.5l-0.6,2c-0.6-0.4-1.2-0.6-1.9-0.6c-1,0-1.8,0.5-2.2,1.4
		c-0.5,0.9-0.7,2.3-0.7,4.3c0,0.8,0,1.5,0.1,2.2s0.3,1.3,0.5,1.8s0.5,0.9,0.9,1.1c0.4,0.3,0.9,0.4,1.5,0.4c0.4,0,0.8-0.1,1.1-0.2
		s0.6-0.2,0.9-0.4l0.5,1.9c-0.3,0.2-0.7,0.4-1.2,0.6S150.7,121.9,150.2,121.9z"/>
	<path class="st4" d="M159.4,121.8c-1.4,0-2.4-0.4-3-1s-0.9-1.7-0.9-3.1v-17.5l2.4-0.4v18c0,0.7,0.1,1.1,0.4,1.4
		c0.3,0.3,0.7,0.5,1.4,0.6L159.4,121.8z"/>
	<path class="st4" d="M164,114.9c0,0.7,0.1,1.4,0.2,1.9c0.1,0.6,0.3,1.1,0.5,1.5c0.3,0.4,0.6,0.8,1,1s1,0.4,1.6,0.4
		c0.5,0,1-0.1,1.5-0.2c0.5-0.2,0.8-0.3,1-0.4l0.4,1.9c-0.2,0.2-0.6,0.3-1.2,0.5c-0.6,0.2-1.2,0.3-2,0.3c-1,0-1.9-0.2-2.6-0.6
		c-0.7-0.4-1.3-0.9-1.7-1.6s-0.8-1.5-0.9-2.4s-0.3-2-0.3-3.1c0-2.7,0.4-4.7,1.3-5.9c0.9-1.2,2.1-1.9,3.6-1.9c1.7,0,2.8,0.6,3.5,1.9
		s1,3,1,5.3c0,0.2,0,0.4,0,0.6s0,0.4,0,0.7L164,114.9L164,114.9z M166.5,108.5c-0.8,0-1.4,0.4-1.8,1.2c-0.4,0.8-0.6,1.9-0.7,3.2h4.5
		c0-1.4-0.1-2.4-0.4-3.2C167.8,108.9,167.3,108.5,166.5,108.5z"/>
	<path class="st4" d="M181.2,104.2c-0.4,0-0.8-0.1-1.1-0.4s-0.5-0.7-0.5-1.2s0.2-0.9,0.5-1.2c0.3-0.3,0.7-0.4,1.1-0.4
		c0.4,0,0.8,0.1,1.1,0.4s0.5,0.7,0.5,1.2s-0.2,0.9-0.5,1.2C182,104.1,181.7,104.2,181.2,104.2z M182.5,121.5H180v-14.7h2.4v14.7
		H182.5z"/>
	<path class="st4" d="M188.9,119.8c0.7,0,1.2-0.2,1.6-0.6c0.4-0.4,0.5-0.9,0.5-1.6c0-0.4-0.1-0.8-0.2-1.1c-0.1-0.3-0.3-0.5-0.6-0.8
		s-0.5-0.4-0.8-0.6s-0.6-0.4-1-0.6c-0.3-0.2-0.6-0.4-0.9-0.7c-0.3-0.3-0.6-0.5-0.8-0.9c-0.2-0.3-0.4-0.7-0.6-1.1s-0.2-0.9-0.2-1.5
		c0-1.2,0.4-2.2,1.1-2.9c0.8-0.7,1.8-1.1,3.1-1.1c0.5,0,1.1,0.1,1.5,0.2c0.5,0.1,0.9,0.3,1.2,0.5l-0.5,1.9c-0.3-0.2-0.7-0.3-1-0.4
		s-0.7-0.1-1.1-0.1c-0.6,0-1.1,0.2-1.4,0.5s-0.5,0.8-0.5,1.5c0,0.4,0.1,0.7,0.2,1c0.1,0.3,0.3,0.5,0.5,0.7s0.5,0.4,0.7,0.6
		c0.3,0.2,0.6,0.4,0.9,0.5c0.4,0.2,0.7,0.4,1,0.7c0.3,0.2,0.7,0.5,0.9,0.9c0.3,0.3,0.5,0.7,0.7,1.1s0.3,1,0.3,1.6
		c0,1.3-0.4,2.3-1.1,3.1c-0.8,0.8-1.9,1.2-3.3,1.2c-0.7,0-1.4-0.1-2-0.3c-0.6-0.2-1-0.4-1.3-0.6l0.5-2c0.3,0.1,0.7,0.3,1.1,0.5
		C187.8,119.7,188.3,119.8,188.9,119.8z"/>
	<path class="st4" d="M203.9,119.8c0.7,0,1.2-0.2,1.6-0.6c0.4-0.4,0.5-0.9,0.5-1.6c0-0.4-0.1-0.8-0.2-1.1c-0.1-0.3-0.3-0.5-0.6-0.8
		s-0.5-0.4-0.8-0.6s-0.6-0.4-1-0.6c-0.3-0.2-0.6-0.4-0.9-0.7c-0.3-0.3-0.6-0.5-0.8-0.9c-0.2-0.3-0.4-0.7-0.6-1.1s-0.2-0.9-0.2-1.5
		c0-1.2,0.4-2.2,1.1-2.9c0.8-0.7,1.8-1.1,3.1-1.1c0.5,0,1.1,0.1,1.5,0.2c0.5,0.1,0.9,0.3,1.2,0.5l-0.5,1.9c-0.3-0.2-0.7-0.3-1-0.4
		s-0.7-0.1-1.1-0.1c-0.6,0-1.1,0.2-1.4,0.5s-0.5,0.8-0.5,1.5c0,0.4,0.1,0.7,0.2,1c0.1,0.3,0.3,0.5,0.5,0.7s0.5,0.4,0.7,0.6
		c0.3,0.2,0.6,0.4,0.9,0.5c0.4,0.2,0.7,0.4,1,0.7c0.3,0.2,0.7,0.5,0.9,0.9c0.3,0.3,0.5,0.7,0.7,1.1s0.3,1,0.3,1.6
		c0,1.3-0.4,2.3-1.1,3.1c-0.8,0.8-1.9,1.2-3.3,1.2c-0.7,0-1.4-0.1-2-0.3c-0.6-0.2-1-0.4-1.3-0.6l0.5-2c0.3,0.1,0.7,0.3,1.1,0.5
		C202.8,119.7,203.3,119.8,203.9,119.8z"/>
	<path class="st4" d="M211.4,107.2c0.7-0.2,1.4-0.4,2.1-0.5c0.8-0.1,1.5-0.2,2.1-0.2c0.7,0,1.2,0.1,1.8,0.3c0.5,0.2,1,0.4,1.4,0.8
		c0.5-0.3,1-0.6,1.6-0.8c0.6-0.2,1.2-0.3,1.8-0.3s1.3,0.1,1.8,0.3c0.6,0.2,1,0.5,1.4,1s0.7,1.1,0.9,1.9s0.3,1.8,0.3,3v8.9h-2.4v-8.7
		c0-1.5-0.2-2.5-0.5-3.2s-1-1-1.9-1c-0.4,0-0.7,0.1-1.1,0.2c-0.4,0.1-0.7,0.3-1,0.5c0.1,0.4,0.3,0.9,0.3,1.5
		c0.1,0.5,0.1,1.1,0.1,1.8v8.9h-2.4v-8.7c0-1.5-0.2-2.5-0.5-3.2s-1-1-1.9-1c-0.5,0-1,0.1-1.7,0.3v12.6h-2.4v-14.4L211.4,107.2
		L211.4,107.2z"/>
	<path class="st4" d="M231.1,107.1c0.5-0.2,1-0.4,1.5-0.5s1.1-0.2,1.8-0.2c1.3,0,2.4,0.4,3.2,1.2c0.8,0.8,1.2,2.1,1.2,3.8v9.7
		c-0.7,0.2-1.4,0.3-2.1,0.4c-0.7,0.1-1.4,0.2-2.1,0.2s-1.3-0.1-1.9-0.3s-1.1-0.4-1.5-0.8s-0.8-0.8-1-1.4c-0.3-0.6-0.4-1.3-0.4-2.1
		c0-0.8,0.1-1.4,0.4-2c0.2-0.6,0.6-1,1-1.4s0.9-0.7,1.5-0.9c0.6-0.2,1.2-0.3,1.8-0.3s1.3,0.1,2,0.2v-1.3c0-1.1-0.2-1.8-0.6-2.3
		c-0.4-0.4-1-0.6-1.8-0.6c-0.4,0-0.8,0-1.2,0.1s-0.8,0.2-1.2,0.4L231.1,107.1z M232.3,117.2c0,0.9,0.2,1.5,0.7,1.9
		c0.4,0.4,1.1,0.6,1.9,0.6c0.5,0,1.1-0.1,1.7-0.2v-4.7c-0.6-0.1-1.1-0.2-1.7-0.2c-0.4,0-0.7,0-1,0.1s-0.6,0.2-0.8,0.4
		c-0.2,0.2-0.4,0.5-0.5,0.8C232.4,116.3,232.3,116.7,232.3,117.2z"/>
	<path class="st4" d="M246.9,121.8c-1.4,0-2.4-0.4-3-1s-0.9-1.7-0.9-3.1v-17.5l2.4-0.4v18c0,0.7,0.1,1.1,0.4,1.4
		c0.3,0.3,0.7,0.5,1.4,0.6L246.9,121.8z"/>
	<path class="st4" d="M253.7,121.8c-1.4,0-2.4-0.4-3-1s-0.9-1.7-0.9-3.1v-17.5l2.4-0.4v18c0,0.7,0.1,1.1,0.4,1.4
		c0.3,0.3,0.7,0.5,1.4,0.6L253.7,121.8z"/>
	<path class="st4" d="M258.3,114.9c0,0.7,0.1,1.4,0.2,1.9c0.1,0.6,0.3,1.1,0.5,1.5c0.3,0.4,0.6,0.8,1,1s1,0.4,1.6,0.4
		c0.5,0,1-0.1,1.5-0.2c0.5-0.2,0.8-0.3,1-0.4l0.4,1.9c-0.2,0.2-0.6,0.3-1.2,0.5s-1.2,0.3-2,0.3c-1,0-1.9-0.2-2.6-0.6
		s-1.3-0.9-1.7-1.6s-0.8-1.5-0.9-2.4s-0.3-2-0.3-3.1c0-2.7,0.4-4.7,1.3-5.9c0.9-1.2,2.1-1.9,3.6-1.9c1.7,0,2.8,0.6,3.5,1.9
		s1,3,1,5.3c0,0.2,0,0.4,0,0.6s0,0.4,0,0.7L258.3,114.9L258.3,114.9z M260.8,108.5c-0.8,0-1.4,0.4-1.8,1.2c-0.4,0.8-0.6,1.9-0.7,3.2
		h4.5c0-1.4-0.1-2.4-0.4-3.2S261.6,108.5,260.8,108.5z"/>
	<path class="st4" d="M275.2,109c-0.6-0.3-1.3-0.4-2-0.4s-1.3,0.1-1.9,0.4v12.5h-2.4v-14.1c0.5-0.3,1.2-0.5,1.9-0.7
		c0.7-0.2,1.5-0.3,2.3-0.3c0.4,0,0.9,0,1.3,0.1s0.9,0.2,1.3,0.3L275.2,109z"/>
	<path class="st4" d="M285.8,106.8h3.7v2.1h-3.7v8.1c0,1,0.2,1.7,0.5,2.1c0.4,0.4,0.9,0.6,1.5,0.6c0.3,0,0.6,0,0.9-0.1
		s0.5-0.2,0.7-0.3l0.5,1.9c-0.8,0.4-1.6,0.7-2.4,0.7c-1.4,0-2.4-0.4-3.1-1.2c-0.7-0.8-1-2.1-1-3.9v-13.9l2.4-0.4V106.8z"/>
	<path class="st4" d="M292.5,121.5v-21.3l2.4-0.4v7.1c0.4-0.1,0.7-0.2,1.2-0.3c0.4-0.1,0.8-0.1,1.3-0.1c0.6,0,1.2,0.1,1.7,0.3
		c0.5,0.2,1,0.5,1.4,1s0.7,1.1,1,1.9c0.2,0.8,0.4,1.8,0.4,3v8.9h-2.4v-8.7c0-1.5-0.2-2.5-0.6-3.2s-1.1-1-2.1-1
		c-0.5,0-1.1,0.1-1.8,0.3v12.6h-2.5V121.5z"/>
	<path class="st4" d="M306.2,107.1c0.5-0.2,1-0.4,1.5-0.5s1.1-0.2,1.8-0.2c1.3,0,2.4,0.4,3.2,1.2c0.8,0.8,1.2,2.1,1.2,3.8v9.7
		c-0.7,0.2-1.4,0.3-2.1,0.4s-1.4,0.2-2.1,0.2s-1.3-0.1-1.9-0.3s-1.1-0.4-1.5-0.8s-0.8-0.8-1-1.4c-0.3-0.6-0.4-1.3-0.4-2.1
		c0-0.8,0.1-1.4,0.4-2c0.2-0.6,0.6-1,1-1.4s0.9-0.7,1.5-0.9c0.6-0.2,1.2-0.3,1.8-0.3c0.6,0,1.3,0.1,2,0.2v-1.3
		c0-1.1-0.2-1.8-0.6-2.3c-0.4-0.4-1-0.6-1.8-0.6c-0.4,0-0.8,0-1.2,0.1c-0.4,0.1-0.8,0.2-1.2,0.4L306.2,107.1z M307.4,117.2
		c0,0.9,0.2,1.5,0.7,1.9c0.4,0.4,1.1,0.6,1.9,0.6c0.5,0,1.1-0.1,1.7-0.2v-4.7c-0.6-0.1-1.1-0.2-1.7-0.2c-0.4,0-0.7,0-1,0.1
		s-0.6,0.2-0.8,0.4c-0.2,0.2-0.4,0.5-0.5,0.8C307.4,116.3,307.4,116.7,307.4,117.2z"/>
	<path class="st4" d="M318.2,107.2c0.7-0.2,1.4-0.4,2.2-0.5c0.8-0.1,1.5-0.2,2.2-0.2s1.4,0.1,2,0.3c0.6,0.2,1.1,0.5,1.5,1
		s0.7,1.1,1,1.9c0.2,0.8,0.4,1.8,0.4,3v8.9h-2.4v-8.7c0-1.5-0.2-2.5-0.6-3.2s-1.1-1-2.1-1c-0.5,0-1.1,0.1-1.8,0.3v12.6h-2.4
		L318.2,107.2L318.2,107.2z"/>
	<path class="st4" d="M339.2,119.8c0.7,0,1.2-0.2,1.6-0.6s0.5-0.9,0.5-1.6c0-0.4-0.1-0.8-0.2-1.1c-0.1-0.3-0.3-0.5-0.6-0.8
		s-0.5-0.4-0.8-0.6s-0.6-0.4-1-0.6c-0.3-0.2-0.6-0.4-0.9-0.7c-0.3-0.3-0.6-0.5-0.8-0.9c-0.2-0.3-0.4-0.7-0.6-1.1s-0.2-0.9-0.2-1.5
		c0-1.2,0.4-2.2,1.1-2.9c0.8-0.7,1.8-1.1,3.1-1.1c0.5,0,1.1,0.1,1.5,0.2c0.5,0.1,0.9,0.3,1.2,0.5l-0.5,1.9c-0.3-0.2-0.7-0.3-1-0.4
		s-0.7-0.1-1.1-0.1c-0.6,0-1.1,0.2-1.4,0.5s-0.5,0.8-0.5,1.5c0,0.4,0.1,0.7,0.2,1s0.3,0.5,0.5,0.7s0.5,0.4,0.7,0.6
		c0.3,0.2,0.6,0.4,0.9,0.5c0.4,0.2,0.7,0.4,1,0.7c0.3,0.2,0.7,0.5,0.9,0.9c0.3,0.3,0.5,0.7,0.7,1.1s0.3,1,0.3,1.6
		c0,1.3-0.4,2.3-1.1,3.1c-0.8,0.8-1.9,1.2-3.3,1.2c-0.7,0-1.4-0.1-2-0.3c-0.6-0.2-1-0.4-1.3-0.6l0.5-2c0.3,0.1,0.7,0.3,1.1,0.5
		C338.1,119.7,338.6,119.8,339.2,119.8z"/>
	<path class="st4" d="M353,121.4c-0.3,0.1-0.6,0.3-1,0.4s-0.7,0.1-1.1,0.1c-1.8,0-3.1-0.7-3.9-2s-1.2-3.2-1.2-5.7
		c0-1.2,0.1-2.3,0.3-3.3c0.2-1,0.6-1.8,1-2.4c0.5-0.7,1.1-1.2,1.8-1.5c0.7-0.4,1.6-0.5,2.7-0.5c0.7,0,1.4,0.1,2,0.2
		c0.7,0.1,1.3,0.3,1.8,0.5v19.5H353V121.4z M353,108.8c-0.3-0.1-0.5-0.1-0.8-0.2c-0.2,0-0.5,0-0.7,0c-1.1,0-1.9,0.4-2.5,1.3
		s-0.8,2.3-0.8,4.3c0,1,0.1,1.9,0.2,2.6s0.3,1.3,0.6,1.7c0.3,0.4,0.6,0.7,0.9,0.9c0.4,0.2,0.8,0.3,1.2,0.3c0.6,0,1.2-0.1,1.7-0.4
		v-10.5C352.8,108.8,353,108.8,353,108.8z"/>
	<path class="st4" d="M368.8,121.1c-0.2,0.1-0.5,0.2-0.9,0.3c-0.3,0.1-0.7,0.2-1.1,0.2c-0.4,0.1-0.8,0.1-1.1,0.2
		c-0.4,0-0.7,0.1-1.1,0.1c-0.8,0-1.5-0.1-2.1-0.3s-1.2-0.5-1.6-0.9s-0.8-1.1-1-1.8c-0.2-0.8-0.4-1.8-0.4-2.9v-9h2.4v9
		c0,1.4,0.2,2.5,0.7,3c0.4,0.6,1.1,0.9,2,0.9c0.3,0,0.6,0,0.9,0s0.6-0.1,0.9-0.2V107h2.4L368.8,121.1L368.8,121.1z"/>
	<path class="st4" d="M373.4,107.1c0.5-0.2,1-0.4,1.5-0.5s1.1-0.2,1.8-0.2c1.3,0,2.4,0.4,3.2,1.2c0.8,0.8,1.2,2.1,1.2,3.8v9.7
		c-0.7,0.2-1.4,0.3-2.1,0.4s-1.4,0.2-2.1,0.2s-1.3-0.1-1.9-0.3s-1.1-0.4-1.5-0.8s-0.8-0.8-1-1.4c-0.3-0.6-0.4-1.3-0.4-2.1
		c0-0.8,0.1-1.4,0.3-2s0.6-1,1-1.4s0.9-0.7,1.5-0.9c0.6-0.2,1.2-0.3,1.8-0.3c0.6,0,1.3,0.1,2,0.2v-1.3c0-1.1-0.2-1.8-0.6-2.3
		c-0.4-0.4-1-0.6-1.8-0.6c-0.4,0-0.8,0-1.2,0.1c-0.4,0.1-0.8,0.2-1.2,0.4L373.4,107.1z M374.6,117.2c0,0.9,0.2,1.5,0.7,1.9
		c0.4,0.4,1.1,0.6,1.9,0.6c0.5,0,1.1-0.1,1.7-0.2v-4.7c-0.6-0.1-1.1-0.2-1.7-0.2c-0.4,0-0.7,0-1,0.1s-0.6,0.2-0.8,0.4
		c-0.2,0.2-0.4,0.5-0.5,0.8C374.6,116.3,374.6,116.7,374.6,117.2z"/>
	<path class="st4" d="M391.7,109c-0.6-0.3-1.3-0.4-2-0.4s-1.3,0.1-1.9,0.4v12.5h-2.4v-14.1c0.5-0.3,1.2-0.5,1.9-0.7s1.5-0.3,2.3-0.3
		c0.4,0,0.9,0,1.3,0.1s0.9,0.2,1.3,0.3L391.7,109z"/>
	<path class="st4" d="M395.9,114.9c0,0.7,0.1,1.4,0.2,1.9c0.1,0.6,0.3,1.1,0.5,1.5c0.3,0.4,0.6,0.8,1,1s1,0.4,1.6,0.4
		c0.5,0,1-0.1,1.5-0.2c0.5-0.2,0.8-0.3,1-0.4l0.4,1.9c-0.2,0.2-0.6,0.3-1.2,0.5s-1.2,0.3-2,0.3c-1,0-1.9-0.2-2.6-0.6
		s-1.3-0.9-1.7-1.6c-0.4-0.7-0.8-1.5-0.9-2.4s-0.3-2-0.3-3.1c0-2.7,0.4-4.7,1.3-5.9c0.9-1.2,2.1-1.9,3.6-1.9c1.7,0,2.8,0.6,3.5,1.9
		s1,3,1,5.3c0,0.2,0,0.4,0,0.6s0,0.4,0,0.7L395.9,114.9L395.9,114.9z M398.3,108.5c-0.8,0-1.4,0.4-1.8,1.2c-0.4,0.8-0.6,1.9-0.7,3.2
		h4.5c0-1.4-0.1-2.4-0.4-3.2C399.7,108.9,399.1,108.5,398.3,108.5z"/>
</g>
<g>
	<g class="st3">
		<path class="st9" d="M595.8,378c0.6,0,1.1-0.2,1.5-0.5c0.4-0.4,0.5-0.8,0.5-1.5c0-0.3-0.1-0.6-0.2-0.9c-0.1-0.3-0.2-0.5-0.4-0.7
			c-0.2-0.2-0.4-0.4-0.6-0.6s-0.5-0.3-0.7-0.5c-0.3-0.2-0.6-0.4-0.9-0.6s-0.6-0.5-0.8-0.8c-0.2-0.3-0.4-0.6-0.6-1s-0.2-0.8-0.2-1.4
			c0-0.5,0.1-1,0.3-1.4c0.2-0.4,0.4-0.8,0.7-1c0.3-0.3,0.7-0.5,1.1-0.7s0.9-0.2,1.4-0.2s0.9,0.1,1.3,0.2c0.4,0.1,0.8,0.3,1,0.4
			l-0.5,1.3c-0.3-0.2-0.5-0.3-0.8-0.4c-0.3-0.1-0.6-0.1-0.9-0.1c-0.6,0-1.1,0.2-1.4,0.5c-0.4,0.3-0.5,0.8-0.5,1.4
			c0,0.3,0.1,0.6,0.2,0.9c0.1,0.3,0.3,0.5,0.5,0.7c0.2,0.2,0.4,0.4,0.6,0.6c0.2,0.2,0.5,0.3,0.8,0.5c0.3,0.2,0.6,0.4,0.8,0.6
			c0.3,0.2,0.5,0.5,0.8,0.7c0.2,0.3,0.4,0.6,0.6,1s0.2,0.8,0.2,1.3s-0.1,0.9-0.2,1.3s-0.4,0.8-0.7,1.1c-0.3,0.3-0.7,0.6-1.2,0.8
			c-0.5,0.2-1,0.3-1.6,0.3s-1.1-0.1-1.5-0.2s-0.8-0.3-1.2-0.5l0.5-1.3c0.3,0.2,0.6,0.3,1,0.5C595,377.9,595.4,378,595.8,378z"/>
	</g>
	<g class="st3">
		<path class="st9" d="M608.6,374.7l1.4,0.4c-0.3,1.4-0.8,2.5-1.6,3.2c-0.7,0.7-1.7,1.1-2.7,1.1c-1.1,0-2-0.3-2.7-0.8
			c-0.7-0.6-1.2-1.4-1.6-2.5c-0.4-1.1-0.5-2.2-0.5-3.5c0-1.3,0.2-2.5,0.6-3.5c0.4-1,1-1.8,1.8-2.3c0.8-0.5,1.6-0.8,2.5-0.8
			c1,0,1.9,0.3,2.6,1c0.7,0.7,1.2,1.6,1.5,2.8l-1.3,0.4c-0.2-0.9-0.6-1.6-1-2c-0.5-0.4-1-0.6-1.7-0.6c-0.8,0-1.5,0.2-2,0.7
			c-0.5,0.5-0.9,1.1-1.1,1.9c-0.2,0.8-0.3,1.6-0.3,2.5c0,1.1,0.1,2.1,0.4,2.9c0.3,0.8,0.7,1.4,1.2,1.8c0.5,0.4,1.1,0.6,1.8,0.6
			c0.8,0,1.4-0.3,1.9-0.8S608.4,375.7,608.6,374.7z"/>
	</g>
	<g class="st3">
		<path class="st9" d="M620.2,372.7c0,1-0.1,1.9-0.3,2.7c-0.2,0.8-0.4,1.5-0.8,2.1s-0.8,1-1.4,1.3c-0.6,0.3-1.2,0.5-2,0.5
			c-0.8,0-1.4-0.2-2-0.5s-1-0.8-1.4-1.3c-0.4-0.6-0.6-1.3-0.8-2.1c-0.2-0.8-0.3-1.7-0.3-2.7s0.1-1.9,0.3-2.7
			c0.2-0.8,0.5-1.5,0.8-2.1c0.4-0.6,0.8-1,1.4-1.3s1.2-0.5,2-0.5c0.8,0,1.4,0.2,2,0.5s1,0.8,1.4,1.3c0.4,0.6,0.6,1.3,0.8,2.1
			C620.1,370.8,620.2,371.7,620.2,372.7z M618.5,372.7c0-0.8,0-1.4-0.1-2.1c-0.1-0.6-0.3-1.2-0.5-1.6c-0.2-0.4-0.5-0.8-0.8-1.1
			c-0.3-0.3-0.8-0.4-1.3-0.4s-0.9,0.1-1.3,0.4c-0.4,0.3-0.6,0.6-0.8,1.1c-0.2,0.5-0.4,1-0.5,1.6s-0.2,1.3-0.2,2.1s0.1,1.4,0.2,2.1
			c0.1,0.6,0.3,1.2,0.5,1.6c0.2,0.4,0.5,0.8,0.8,1c0.3,0.2,0.8,0.4,1.3,0.4s0.9-0.1,1.3-0.4c0.4-0.3,0.6-0.6,0.8-1
			c0.2-0.4,0.4-1,0.5-1.6C618.4,374.1,618.5,373.4,618.5,372.7z"/>
		<path class="st9" d="M622.7,366.6c0.8-0.2,1.6-0.3,2.4-0.3c0.6,0,1.2,0.1,1.7,0.2s0.9,0.4,1.3,0.7c0.4,0.3,0.6,0.7,0.8,1.2
			c0.2,0.5,0.3,1.1,0.3,1.8c0,0.9-0.2,1.6-0.5,2.1c-0.3,0.5-0.8,0.9-1.3,1.2c0.1,0.2,0.3,0.6,0.5,1c0.2,0.4,0.5,0.9,0.7,1.4
			c0.2,0.5,0.5,1,0.7,1.5c0.2,0.5,0.4,1,0.6,1.5h-1.6c-0.1-0.4-0.3-0.8-0.5-1.2c-0.2-0.5-0.4-0.9-0.6-1.4c-0.2-0.4-0.4-0.9-0.6-1.3
			s-0.4-0.8-0.6-1.1c-0.2,0-0.4,0-0.6,0.1c-0.2,0-0.4,0-0.6,0h-0.5v4.9h-1.6L622.7,366.6L622.7,366.6z M624.3,372.7h0.7
			c0.8,0,1.5-0.2,1.9-0.6s0.7-1,0.7-2c0-0.5-0.1-0.9-0.2-1.2c-0.1-0.3-0.3-0.6-0.5-0.8c-0.2-0.2-0.5-0.3-0.8-0.4
			c-0.3-0.1-0.6-0.1-1-0.1c-0.3,0-0.6,0-0.9,0.1L624.3,372.7L624.3,372.7z"/>
		<path class="st9" d="M632,378.9v-12.5h5.6v1.4h-4v3.9h3.6v1.3h-3.6v4.5h4.3v1.4L632,378.9L632,378.9z"/>
	</g>
</g>
</svg>
