<?xml version="1.0" encoding="utf-8"?>
<!-- Generator: Adobe Illustrator 19.2.1, SVG Export Plug-In . SVG Version: 6.00 Build 0)  -->
<svg version="1.1" id="Layer_1" xmlns="http://www.w3.org/2000/svg" xmlns:xlink="http://www.w3.org/1999/xlink" x="0px" y="0px"
	 viewBox="0 0 710 508" style="enable-background:new 0 0 710 508;" xml:space="preserve">
<style type="text/css">
	.st0{fill:#233347;}
	.st1{fill:#5E7AA2;}
	.st2{fill:#7A9FCC;}
	.st3{clip-path:url(#SVGID_2_);fill:#5E7AA2;}
	.st4{fill:#FFFFFF;}
	.st5{clip-path:url(#SVGID_4_);fill:#FFFFFF;}
	.st6{clip-path:url(#SVGID_6_);fill:#FFFFFF;}
	.st7{clip-path:url(#SVGID_8_);fill:#3E5A7D;}
	.st8{fill:#C2DBF2;}
	.st9{fill:#F1F2F2;}
	.st10{fill:none;}
	.st11{clip-path:url(#SVGID_10_);fill:#233347;}
	.st12{clip-path:url(#SVGID_12_);fill:#7A9FCC;}
	.st13{clip-path:url(#SVGID_14_);fill:#233347;}
	.st14{clip-path:url(#SVGID_16_);fill:#233347;}
	.st15{clip-path:url(#SVGID_18_);fill:#233347;}
	.st16{clip-path:url(#SVGID_20_);fill:#233347;}
	.st17{clip-path:url(#SVGID_22_);fill:url(#SVGID_23_);}
	.st18{clip-path:url(#SVGID_25_);fill:url(#SVGID_26_);}
	.st19{fill:#F26F6A;}
	.st20{fill:#00BBD6;}
	.st21{clip-path:url(#SVGID_28_);fill:#233347;}
	.st22{clip-path:url(#SVGID_30_);fill:#7A9FCC;}
	.st23{clip-path:url(#SVGID_32_);fill:#233347;}
	.st24{clip-path:url(#SVGID_34_);fill:#233347;}
	.st25{clip-path:url(#SVGID_36_);fill:#233347;}
	.st26{clip-path:url(#SVGID_38_);fill:#233347;}
	.st27{clip-path:url(#SVGID_40_);fill:url(#SVGID_41_);}
	.st28{clip-path:url(#SVGID_43_);fill:url(#SVGID_44_);}
</style>
<rect class="st0" width="520" height="508"/>
<rect x="520" y="100" class="st1" width="190" height="408"/>
<rect x="520" class="st2" width="190" height="100"/>
<g>
	<g>
		<defs>
			<rect id="SVGID_1_" x="-234.5" y="-345.3" width="1155.5" height="3399.3"/>
		</defs>
		<clipPath id="SVGID_2_">
			<use xlink:href="#SVGID_1_"  style="overflow:visible;"/>
		</clipPath>
		<path class="st3" d="M584.7,50c0,13.1-10.6,23.8-23.8,23.8c-13.1,0-23.8-10.6-23.8-23.8c0-13.1,10.6-23.8,23.8-23.8
			C574,26.2,584.7,36.9,584.7,50"/>
	</g>
</g>
<g>
	<path class="st4" d="M601.4,48.9c0,1-0.1,2-0.3,2.8s-0.5,1.6-0.9,2.2c-0.4,0.6-0.9,1.1-1.5,1.4c-0.6,0.3-1.3,0.5-2.1,0.5
		s-1.5-0.2-2.1-0.5s-1.1-0.8-1.5-1.4c-0.4-0.6-0.7-1.3-0.9-2.2c-0.2-0.8-0.3-1.8-0.3-2.8s0.1-2,0.3-2.8s0.5-1.6,0.9-2.2
		c0.4-0.6,0.9-1.1,1.5-1.4c0.6-0.3,1.3-0.5,2.1-0.5s1.5,0.2,2.1,0.5s1.1,0.8,1.5,1.4c0.4,0.6,0.7,1.3,0.9,2.2
		C601.3,47,601.4,47.9,601.4,48.9z M599.6,48.9c0-0.8-0.1-1.5-0.2-2.2c-0.1-0.7-0.3-1.2-0.5-1.7s-0.5-0.8-0.9-1.1s-0.8-0.4-1.3-0.4
		s-1,0.1-1.3,0.4s-0.7,0.6-0.9,1.1s-0.4,1-0.5,1.7s-0.2,1.4-0.2,2.2s0.1,1.5,0.2,2.2c0.1,0.7,0.3,1.2,0.5,1.7s0.5,0.8,0.9,1.1
		s0.8,0.4,1.3,0.4s1-0.1,1.3-0.4c0.4-0.3,0.7-0.6,0.9-1.1s0.4-1,0.5-1.7C599.5,50.5,599.6,49.7,599.6,48.9z"/>
	<path class="st4" d="M612.3,48.9c0,1.2-0.1,2.3-0.4,3.1c-0.3,0.9-0.6,1.5-1.1,2.1c-0.5,0.5-1.1,0.9-1.8,1.2
		c-0.7,0.2-1.5,0.4-2.3,0.4c-0.9,0-1.8-0.1-2.7-0.3V42.5c0.5-0.1,1-0.2,1.4-0.2c0.5-0.1,0.9-0.1,1.3-0.1c0.9,0,1.6,0.1,2.3,0.4
		s1.3,0.6,1.8,1.2c0.5,0.5,0.9,1.2,1.1,2.1C612.2,46.6,612.3,47.7,612.3,48.9z M610.5,48.9c0-0.9-0.1-1.7-0.2-2.4
		c-0.1-0.7-0.4-1.2-0.6-1.6c-0.3-0.4-0.7-0.7-1.1-0.9c-0.5-0.2-1-0.3-1.7-0.3c-0.2,0-0.4,0-0.5,0s-0.4,0-0.6,0.1V54
		c0.2,0,0.4,0,0.6,0.1s0.3,0,0.5,0c0.7,0,1.2-0.1,1.7-0.3s0.9-0.5,1.2-0.9s0.5-0.9,0.7-1.6C610.5,50.7,610.5,49.9,610.5,48.9z"/>
	<path class="st4" d="M623.3,48.9c0,1.2-0.1,2.3-0.4,3.1c-0.3,0.9-0.6,1.5-1.1,2.1c-0.5,0.5-1.1,0.9-1.8,1.2
		c-0.7,0.2-1.5,0.4-2.3,0.4c-0.9,0-1.8-0.1-2.7-0.3V42.5c0.5-0.1,1-0.2,1.4-0.2c0.5-0.1,0.9-0.1,1.3-0.1c0.9,0,1.6,0.1,2.3,0.4
		s1.3,0.6,1.8,1.2c0.5,0.5,0.9,1.2,1.1,2.1C623.2,46.6,623.3,47.7,623.3,48.9z M621.5,48.9c0-0.9-0.1-1.7-0.2-2.4
		c-0.1-0.7-0.4-1.2-0.6-1.6c-0.3-0.4-0.7-0.7-1.1-0.9c-0.5-0.2-1-0.3-1.7-0.3c-0.2,0-0.4,0-0.5,0s-0.4,0-0.6,0.1V54
		c0.2,0,0.4,0,0.6,0.1s0.3,0,0.5,0c0.7,0,1.2-0.1,1.7-0.3s0.9-0.5,1.2-0.9s0.5-0.9,0.7-1.6C621.4,50.7,621.5,49.9,621.5,48.9z"/>
	<path class="st4" d="M638.5,48.9c0,1-0.1,2-0.3,2.8s-0.5,1.6-0.9,2.2c-0.4,0.6-0.9,1.1-1.5,1.4c-0.6,0.3-1.3,0.5-2.1,0.5
		s-1.5-0.2-2.1-0.5s-1.1-0.8-1.5-1.4c-0.4-0.6-0.7-1.3-0.9-2.2c-0.2-0.8-0.3-1.8-0.3-2.8s0.1-2,0.3-2.8s0.5-1.6,0.9-2.2
		c0.4-0.6,0.9-1.1,1.5-1.4c0.6-0.3,1.3-0.5,2.1-0.5s1.5,0.2,2.1,0.5s1.1,0.8,1.5,1.4c0.4,0.6,0.7,1.3,0.9,2.2
		C638.4,47,638.5,47.9,638.5,48.9z M636.6,48.9c0-0.8-0.1-1.5-0.2-2.2c-0.1-0.7-0.3-1.2-0.5-1.7s-0.5-0.8-0.9-1.1s-0.8-0.4-1.3-0.4
		s-1,0.1-1.3,0.4s-0.7,0.6-0.9,1.1s-0.4,1-0.5,1.7s-0.2,1.4-0.2,2.2s0.1,1.5,0.2,2.2c0.1,0.7,0.3,1.2,0.5,1.7s0.5,0.8,0.9,1.1
		s0.8,0.4,1.3,0.4s1-0.1,1.3-0.4c0.4-0.3,0.7-0.6,0.9-1.1s0.4-1,0.5-1.7C636.6,50.5,636.6,49.7,636.6,48.9z"/>
	<path class="st4" d="M647.6,55.5c-0.3-0.7-0.6-1.6-1-2.4c-0.4-0.9-0.8-1.7-1.2-2.6c-0.4-0.9-0.9-1.8-1.3-2.6
		c-0.4-0.9-0.9-1.7-1.3-2.4v10.1h-1.6V42.3h1.4c0.5,0.8,0.9,1.6,1.4,2.4c0.4,0.8,0.9,1.6,1.3,2.4s0.8,1.6,1.2,2.4
		c0.4,0.8,0.7,1.5,1,2.2v-9.4h1.6v13.2C649.1,55.5,647.6,55.5,647.6,55.5z"/>
	<path class="st4" d="M652.2,55.5V42.3h5.9v1.5h-4.2v4.1h3.8v1.4h-3.8V54h4.5v1.5H652.2z"/>
	<path class="st4" d="M673.4,48.9c0,1-0.1,2-0.3,2.8s-0.5,1.6-0.9,2.2c-0.4,0.6-0.9,1.1-1.5,1.4c-0.6,0.3-1.3,0.5-2.1,0.5
		s-1.5-0.2-2.1-0.5s-1.1-0.8-1.5-1.4c-0.4-0.6-0.7-1.3-0.9-2.2c-0.2-0.8-0.3-1.8-0.3-2.8s0.1-2,0.3-2.8s0.5-1.6,0.9-2.2
		c0.4-0.6,0.9-1.1,1.5-1.4c0.6-0.3,1.3-0.5,2.1-0.5s1.5,0.2,2.1,0.5s1.1,0.8,1.5,1.4c0.4,0.6,0.7,1.3,0.9,2.2
		C673.3,47,673.4,47.9,673.4,48.9z M671.5,48.9c0-0.8-0.1-1.5-0.2-2.2c-0.1-0.7-0.3-1.2-0.5-1.7s-0.5-0.8-0.9-1.1s-0.8-0.4-1.3-0.4
		s-1,0.1-1.3,0.4s-0.7,0.6-0.9,1.1s-0.4,1-0.5,1.7s-0.2,1.4-0.2,2.2s0.1,1.5,0.2,2.2c0.1,0.7,0.3,1.2,0.5,1.7s0.5,0.8,0.9,1.1
		s0.8,0.4,1.3,0.4s1-0.1,1.3-0.4c0.4-0.3,0.7-0.6,0.9-1.1s0.4-1,0.5-1.7C671.5,50.5,671.5,49.7,671.5,48.9z"/>
	<path class="st4" d="M679.6,55.8c-1.2,0-2.2-0.3-2.8-1s-0.9-1.8-0.9-3.3v-9.1h1.7v8.9c0,1,0.1,1.8,0.4,2.3c0.3,0.5,0.8,0.8,1.6,0.8
		s1.3-0.3,1.6-0.8s0.4-1.3,0.4-2.2v-8.9h1.7v9.1c0,1.5-0.3,2.6-1,3.3C681.8,55.4,680.9,55.8,679.6,55.8z"/>
	<path class="st4" d="M692.7,42.3v1.5h-2.9v11.7h-1.7V43.8h-2.9v-1.5H692.7z"/>
</g>
<g>
	<g>
		<defs>
			<rect id="SVGID_3_" x="-234.5" y="-345.3" width="1155.5" height="3399.3"/>
		</defs>
		<clipPath id="SVGID_4_">
			<use xlink:href="#SVGID_3_"  style="overflow:visible;"/>
		</clipPath>
		<path class="st5" d="M560,50c0,1.2-0.1,2.3-0.3,3.2s-0.5,1.8-1,2.5c-0.4,0.7-1,1.2-1.7,1.6s-1.5,0.6-2.4,0.6s-1.7-0.2-2.4-0.6
			c-0.7-0.4-1.2-0.9-1.7-1.6c-0.4-0.7-0.8-1.5-1-2.5s-0.3-2.1-0.3-3.2c0-1.2,0.1-2.3,0.3-3.3s0.6-1.8,1-2.5s1-1.2,1.7-1.6
			c0.7-0.4,1.5-0.6,2.4-0.6s1.7,0.2,2.4,0.6c0.7,0.4,1.2,0.9,1.7,1.6c0.4,0.7,0.8,1.5,1,2.5S560,48.8,560,50 M557.9,50
			c0-0.9-0.1-1.8-0.2-2.5c-0.1-0.8-0.3-1.4-0.6-2s-0.6-1-1-1.3s-0.9-0.5-1.5-0.5s-1.1,0.2-1.5,0.5s-0.8,0.7-1,1.3
			c-0.3,0.5-0.5,1.2-0.6,2s-0.2,1.6-0.2,2.5s0.1,1.8,0.2,2.5c0.1,0.8,0.3,1.4,0.6,2c0.3,0.5,0.6,1,1,1.3s0.9,0.5,1.5,0.5
			s1.1-0.1,1.5-0.5c0.4-0.3,0.8-0.7,1-1.3c0.3-0.5,0.5-1.2,0.6-2C557.8,51.8,557.9,50.9,557.9,50"/>
	</g>
	<g>
		<defs>
			<rect id="SVGID_5_" x="-234.5" y="-345.3" width="1155.5" height="3399.3"/>
		</defs>
		<clipPath id="SVGID_6_">
			<use xlink:href="#SVGID_5_"  style="overflow:visible;"/>
		</clipPath>
		<path class="st6" d="M572.7,50c0,1.4-0.2,2.6-0.5,3.6s-0.7,1.8-1.3,2.4c-0.6,0.6-1.2,1.1-2,1.3c-0.8,0.3-1.7,0.4-2.7,0.4
			s-2.1-0.1-3.2-0.4V42.6c0.6-0.1,1.1-0.2,1.6-0.3s1-0.1,1.5-0.1c1,0,1.9,0.1,2.7,0.4c0.8,0.3,1.5,0.7,2,1.3c0.6,0.6,1,1.4,1.3,2.4
			C572.5,47.4,572.7,48.6,572.7,50 M570.6,50c0-1.1-0.1-2-0.2-2.8c-0.2-0.8-0.4-1.4-0.7-1.9s-0.8-0.8-1.3-1.1
			c-0.6-0.2-1.2-0.3-2-0.3c-0.2,0-0.4,0-0.6,0c-0.2,0-0.4,0-0.6,0.1v11.9c0.2,0,0.4,0.1,0.6,0.1c0.2,0,0.4,0,0.6,0
			c0.8,0,1.4-0.1,2-0.3c0.5-0.2,1-0.6,1.3-1c0.3-0.5,0.6-1.1,0.8-1.9C570.5,52,570.6,51.1,570.6,50"/>
	</g>
</g>
<g>
	<g>
		<defs>
			<rect id="SVGID_7_" x="-234.5" y="-345.3" width="1155.5" height="3399.3"/>
		</defs>
		<clipPath id="SVGID_8_">
			<use xlink:href="#SVGID_7_"  style="overflow:visible;"/>
		</clipPath>
		<path class="st7" d="M668.8,423.9c0,29.8-24.2,54-54,54s-54-24.2-54-54s24.2-54,54-54S668.8,394.1,668.8,423.9"/>
	</g>
</g>
<g>
	<path class="st8" d="M600.6,401.5c0.5,0,0.9-0.1,1.1-0.4c0.3-0.3,0.4-0.6,0.4-1.1c0-0.2,0-0.5-0.1-0.6c-0.1-0.2-0.2-0.4-0.3-0.5
		s-0.3-0.3-0.5-0.4s-0.3-0.3-0.5-0.4s-0.4-0.3-0.6-0.5c-0.2-0.2-0.4-0.3-0.6-0.6s-0.3-0.5-0.5-0.8c-0.1-0.3-0.2-0.6-0.2-1
		s0.1-0.7,0.2-1s0.3-0.6,0.5-0.8c0.2-0.2,0.5-0.4,0.8-0.5s0.7-0.2,1-0.2c0.4,0,0.7,0,1,0.1s0.6,0.2,0.8,0.3l-0.4,1
		c-0.2-0.1-0.4-0.2-0.6-0.3c-0.2-0.1-0.5-0.1-0.7-0.1c-0.4,0-0.8,0.1-1.1,0.4s-0.4,0.6-0.4,1c0,0.3,0,0.5,0.1,0.7s0.2,0.4,0.3,0.5
		c0.1,0.2,0.3,0.3,0.5,0.4s0.4,0.3,0.6,0.4c0.2,0.1,0.4,0.3,0.6,0.4c0.2,0.2,0.4,0.3,0.6,0.6s0.3,0.5,0.4,0.7c0.1,0.3,0.2,0.6,0.2,1
		c0,0.3-0.1,0.7-0.2,1c-0.1,0.3-0.3,0.6-0.5,0.8s-0.5,0.4-0.9,0.6s-0.8,0.2-1.2,0.2s-0.8,0-1.1-0.1s-0.6-0.2-0.9-0.4l0.4-1
		c0.2,0.1,0.5,0.3,0.7,0.3C600,401.5,600.3,401.5,600.6,401.5z"/>
	<path class="st8" d="M608,402.5c-1.1,0-1.9-0.4-2.5-1.2c-0.6-0.8-0.9-2.1-0.9-3.8c0-0.9,0.1-1.6,0.2-2.2c0.2-0.6,0.4-1.1,0.7-1.5
		s0.6-0.6,1-0.8s0.8-0.2,1.3-0.2c0.4,0,0.8,0.1,1.1,0.2s0.6,0.2,0.8,0.4l-0.4,1c-0.2-0.1-0.4-0.3-0.7-0.3c-0.2-0.1-0.5-0.1-0.9-0.1
		c-0.7,0-1.2,0.3-1.6,0.9c-0.3,0.6-0.5,1.5-0.5,2.8s0.2,2.2,0.5,2.9c0.3,0.7,0.9,1,1.7,1c0.4,0,0.7,0,0.9-0.1s0.5-0.2,0.7-0.3l0.3,1
		c-0.2,0.2-0.5,0.3-0.8,0.4S608.4,402.5,608,402.5z"/>
	<path class="st8" d="M617.4,397.7c0,0.7-0.1,1.4-0.2,2c-0.1,0.6-0.3,1.1-0.6,1.5s-0.6,0.8-1,1s-0.9,0.3-1.5,0.3s-1.1-0.1-1.5-0.3
		c-0.4-0.2-0.8-0.6-1-1c-0.3-0.4-0.5-0.9-0.6-1.5s-0.2-1.3-0.2-2s0.1-1.4,0.2-2c0.1-0.6,0.3-1.1,0.6-1.5s0.6-0.8,1-1
		s0.9-0.4,1.5-0.4s1.1,0.1,1.5,0.4c0.4,0.2,0.8,0.6,1,1c0.3,0.4,0.5,0.9,0.6,1.5C617.4,396.3,617.4,397,617.4,397.7z M616.1,397.7
		c0-0.6,0-1.1-0.1-1.5c-0.1-0.5-0.2-0.9-0.3-1.2s-0.4-0.6-0.6-0.8c-0.3-0.2-0.6-0.3-0.9-0.3s-0.7,0.1-0.9,0.3
		c-0.3,0.2-0.5,0.5-0.6,0.8s-0.3,0.7-0.4,1.2s-0.1,1-0.1,1.5s0,1.1,0.1,1.5s0.2,0.9,0.4,1.2c0.2,0.3,0.4,0.6,0.6,0.8
		c0.3,0.2,0.6,0.3,0.9,0.3s0.7-0.1,0.9-0.3c0.3-0.2,0.5-0.4,0.6-0.8c0.2-0.3,0.3-0.7,0.3-1.2C616.1,398.8,616.1,398.2,616.1,397.7z"
		/>
	<path class="st8" d="M619.3,393.1c0.6-0.2,1.2-0.2,1.8-0.2c0.5,0,0.9,0.1,1.3,0.2c0.4,0.1,0.7,0.3,1,0.5s0.5,0.5,0.6,0.9
		s0.2,0.8,0.2,1.3c0,0.6-0.1,1.2-0.4,1.6c-0.2,0.4-0.6,0.7-1,0.9c0.1,0.2,0.2,0.4,0.4,0.7c0.2,0.3,0.3,0.7,0.5,1
		c0.2,0.4,0.3,0.8,0.5,1.1c0.2,0.4,0.3,0.8,0.4,1.1h-1.2c-0.1-0.3-0.2-0.6-0.4-0.9c-0.1-0.3-0.3-0.7-0.5-1s-0.3-0.7-0.5-1
		s-0.3-0.6-0.4-0.8c-0.1,0-0.3,0-0.4,0c-0.2,0-0.3,0-0.5,0h-0.3v3.6h-1.2v-9H619.3z M620.5,397.7h0.5c0.6,0,1.1-0.1,1.4-0.4
		c0.3-0.3,0.5-0.8,0.5-1.5c0-0.3,0-0.6-0.1-0.9c-0.1-0.2-0.2-0.4-0.4-0.6c-0.2-0.1-0.3-0.2-0.6-0.3c-0.2-0.1-0.5-0.1-0.7-0.1
		s-0.4,0-0.6,0L620.5,397.7L620.5,397.7z"/>
	<path class="st8" d="M626.2,402.3V393h4.2v1h-3v2.9h2.7v1h-2.7v3.3h3.2v1h-4.4V402.3z"/>
</g>
<g>
	<path class="st9" d="M601.4,432.5c0-3.1,0.1-5.6,0.3-7.7s0.6-3.8,1-5c0.5-1.3,1.1-2.2,1.8-2.7c0.7-0.6,1.6-0.8,2.6-0.8
		s1.9,0.3,2.6,0.8c0.7,0.6,1.3,1.5,1.8,2.7c0.5,1.3,0.8,2.9,1,5s0.3,4.7,0.3,7.7s-0.1,5.6-0.3,7.7s-0.6,3.8-1,5
		c-0.5,1.3-1.1,2.2-1.8,2.7c-0.7,0.6-1.6,0.8-2.6,0.8s-1.9-0.3-2.6-0.8c-0.7-0.6-1.3-1.5-1.8-2.7c-0.5-1.3-0.8-2.9-1-5
		S601.4,435.5,601.4,432.5z M609.8,432.5c0-2.5,0-4.5-0.1-6.2c-0.1-1.6-0.2-3-0.4-4s-0.5-1.7-0.8-2.1s-0.7-0.6-1.2-0.6
		s-0.9,0.2-1.2,0.6s-0.6,1.1-0.8,2.1s-0.3,2.3-0.4,4c-0.1,1.7-0.1,3.7-0.1,6.2s0,4.5,0.1,6.2s0.2,3,0.4,4s0.5,1.7,0.8,2.1
		s0.7,0.6,1.2,0.6s0.9-0.2,1.2-0.6s0.6-1.1,0.8-2.1s0.3-2.3,0.4-4C609.8,437,609.8,434.9,609.8,432.5z"/>
	<path class="st9" d="M624,431.3c1.2,0.5,2.1,1.5,2.8,2.9s1,3.1,1,5.3c0,2.9-0.6,5.2-1.7,6.8c-1.1,1.7-2.8,2.5-5,2.5
		c-0.9,0-1.7-0.2-2.6-0.5c-0.8-0.3-1.6-0.8-2.2-1.3l0.8-3.2c0.5,0.4,1.1,0.8,1.7,1.1c0.6,0.3,1.2,0.5,1.9,0.5c1.2,0,2.2-0.5,2.8-1.4
		c0.7-0.9,1-2.5,1-4.5c0-2.1-0.4-3.6-1.1-4.7c-0.7-1-1.9-1.6-3.6-1.6H619v-3.3h0.8c1.4,0,2.5-0.5,3.2-1.4s1-2.3,1-4
		c0-1.6-0.3-2.8-0.8-3.6c-0.5-0.8-1.3-1.2-2.2-1.2c-0.6,0-1.2,0.2-1.8,0.5s-1,0.7-1.4,1.1l-1.2-2.8c0.6-0.7,1.3-1.3,2.2-1.6
		s1.7-0.5,2.5-0.5c1.8,0,3.3,0.7,4.3,2.2s1.5,3.4,1.5,5.8c0,1.7-0.3,3.2-0.8,4.3C625.7,429.8,625,430.7,624,431.3z"/>
</g>
<rect x="-234.5" y="-345.3" class="st10" width="1155.5" height="3399.3"/>
<g>
	<g>
		<defs>
			<rect id="SVGID_9_" x="-234.5" y="-345.3" width="1155.5" height="3399.3"/>
		</defs>
		<clipPath id="SVGID_10_">
			<use xlink:href="#SVGID_9_"  style="overflow:visible;"/>
		</clipPath>
		<path class="st11" d="M668.5,172.1c0,29.8-24.2,54-54,54s-54-24.2-54-54s24.2-54,54-54S668.5,142.3,668.5,172.1"/>
	</g>
	<g>
		<defs>
			<rect id="SVGID_11_" x="-234.5" y="-345.3" width="1155.5" height="3399.3"/>
		</defs>
		<clipPath id="SVGID_12_">
			<use xlink:href="#SVGID_11_"  style="overflow:visible;"/>
		</clipPath>
		<path class="st12" d="M655.1,208.1c-9.9,11.2-24.4,18.3-40.6,18.3c-14.7,0-28.1-5.9-37.9-15.4
			C578.6,208.9,656.4,206.6,655.1,208.1"/>
	</g>
	<g>
		<defs>
			<rect id="SVGID_13_" x="-234.5" y="-345.3" width="1155.5" height="3399.3"/>
		</defs>
		<clipPath id="SVGID_14_">
			<use xlink:href="#SVGID_13_"  style="overflow:visible;"/>
		</clipPath>
		<polyline class="st13" points="651.6,214.2 636.3,197.5 643.9,190 658.8,204.8 		"/>
	</g>
	<g>
		<defs>
			<rect id="SVGID_15_" x="-234.5" y="-345.3" width="1155.5" height="3399.3"/>
		</defs>
		<clipPath id="SVGID_16_">
			<use xlink:href="#SVGID_15_"  style="overflow:visible;"/>
		</clipPath>
		<path class="st14" d="M659.3,205.7c2.3,2.3,2.3,6.1,0,8.4c-2.3,2.3-6.1,2.3-8.4,0c-2.3-2.3-2.3-6.1,0-8.4
			C653.1,203.4,656.9,203.4,659.3,205.7"/>
	</g>
	<g>
		<defs>
			<rect id="SVGID_17_" x="-234.5" y="-345.3" width="1155.5" height="3399.3"/>
		</defs>
		<clipPath id="SVGID_18_">
			<use xlink:href="#SVGID_17_"  style="overflow:visible;"/>
		</clipPath>
		<polyline class="st15" points="578.5,214.2 593.8,197.5 586.2,190 571.3,204.8 		"/>
	</g>
	<g>
		<defs>
			<rect id="SVGID_19_" x="-234.5" y="-345.3" width="1155.5" height="3399.3"/>
		</defs>
		<clipPath id="SVGID_20_">
			<use xlink:href="#SVGID_19_"  style="overflow:visible;"/>
		</clipPath>
		<path class="st16" d="M569.3,205.7c-2.3,2.3-2.3,6.1,0,8.4c2.3,2.3,6.1,2.3,8.4,0c2.3-2.3,2.3-6.1,0-8.4
			C575.4,203.4,571.7,203.4,569.3,205.7"/>
	</g>
	<g>
		<defs>
			<rect id="SVGID_21_" x="-234.5" y="-345.3" width="1155.5" height="3399.3"/>
		</defs>
		<clipPath id="SVGID_22_">
			<use xlink:href="#SVGID_21_"  style="overflow:visible;"/>
		</clipPath>
		
			<linearGradient id="SVGID_23_" gradientUnits="userSpaceOnUse" x1="36.9703" y1="-2739.9138" x2="37.9703" y2="-2739.9138" gradientTransform="matrix(102.087 0 0 102.087 -3210.7002 279871.625)">
			<stop  offset="0" style="stop-color:#7A9FCC"/>
			<stop  offset="7.505440e-02" style="stop-color:#7A9FCC"/>
			<stop  offset="0.3951" style="stop-color:#F48270"/>
			<stop  offset="0.7246" style="stop-color:#F5841F"/>
			<stop  offset="0.9481" style="stop-color:#ED174B"/>
			<stop  offset="1" style="stop-color:#ED174B"/>
		</linearGradient>
		<path class="st17" d="M574.2,202.5c-6.4-8.5-10.2-19-10.2-30.4c0-27.9,22.6-50.5,50.5-50.5s50.5,22.6,50.5,50.5
			c0,10.9-3.5,21.1-9.4,29.4l-3.3-2.3c5.5-7.6,8.7-17,8.7-27c0-25.7-20.8-46.5-46.5-46.5S568,146.5,568,172.2
			c0,10.5,3.5,20.2,9.4,28L574.2,202.5L574.2,202.5z"/>
	</g>
</g>
<g>
	<g>
		<defs>
			<path id="SVGID_24_" d="M566,172.1c0,26.8,21.7,48.5,48.5,48.5s48.5-21.7,48.5-48.5s-21.7-48.5-48.5-48.5
				C587.8,123.6,566,145.3,566,172.1"/>
		</defs>
		<clipPath id="SVGID_25_">
			<use xlink:href="#SVGID_24_"  style="overflow:visible;"/>
		</clipPath>
		
			<radialGradient id="SVGID_26_" cx="34.0028" cy="-2742.0149" r="1" gradientTransform="matrix(48.5 0 0 48.5 -1034.6368 133159.8281)" gradientUnits="userSpaceOnUse">
			<stop  offset="0" style="stop-color:#5E7AA2"/>
			<stop  offset="0.5461" style="stop-color:#5E7AA2"/>
			<stop  offset="1" style="stop-color:#415573"/>
		</radialGradient>
		<rect x="566" y="123.6" class="st18" width="97" height="97"/>
	</g>
</g>
<g>
	<path class="st8" d="M607.5,142.7v1h-2.1v8.3h-1.2v-8.3h-2.1v-1H607.5z"/>
	<path class="st8" d="M608.8,142.7h1.2v9.3h-1.2V142.7z"/>
	<path class="st8" d="M615.6,150.7c-0.2-0.6-0.4-1.3-0.6-1.9c-0.2-0.6-0.4-1.1-0.5-1.7s-0.3-1-0.5-1.4s-0.3-0.8-0.4-1.1
		c0,0.5-0.1,1.1-0.1,1.7c0,0.6,0,1.2-0.1,1.9c0,0.6,0,1.3-0.1,1.9c0,0.6,0,1.3,0,1.9h-1.2c0-0.8,0.1-1.6,0.1-2.4
		c0-0.8,0.1-1.6,0.1-2.4c0-0.8,0.1-1.6,0.1-2.3c0-0.8,0.1-1.5,0.2-2.1h1.2c0.2,0.4,0.3,0.8,0.6,1.4c0.2,0.5,0.4,1.1,0.6,1.7
		c0.2,0.6,0.4,1.2,0.6,1.7c0.2,0.6,0.4,1.1,0.5,1.6c0.1-0.5,0.3-1,0.5-1.6s0.4-1.2,0.6-1.7c0.2-0.6,0.4-1.1,0.6-1.7s0.4-1,0.5-1.4
		h1.2c0.1,0.7,0.1,1.4,0.2,2.1c0,0.8,0.1,1.5,0.1,2.3s0.1,1.6,0.1,2.4c0,0.8,0.1,1.6,0.1,2.4h-1.2c0-0.6,0-1.2,0-1.9s0-1.3-0.1-2
		c0-0.7,0-1.3-0.1-1.9c0-0.6-0.1-1.2-0.1-1.7c-0.1,0.2-0.2,0.5-0.3,0.8s-0.2,0.7-0.4,1.1c-0.1,0.4-0.3,0.8-0.4,1.2
		c-0.1,0.4-0.3,0.8-0.4,1.2c-0.1,0.4-0.2,0.7-0.3,1.1c-0.1,0.3-0.2,0.6-0.2,0.8L615.6,150.7L615.6,150.7z"/>
	<path class="st8" d="M622.1,152v-9.3h4.2v1h-3v2.9h2.7v1h-2.7v3.3h3.2v1h-4.4V152z"/>
</g>
<g>
	<path class="st4" d="M590,172.3c0.5-0.3,0.9-0.7,1.4-1.2s1-1,1.4-1.5c0.4-0.6,0.9-1.1,1.3-1.7c0.4-0.6,0.7-1.2,1-1.7h2.3v31.2h-3.1
		v-25.1c-0.4,0.5-0.9,1.1-1.4,1.5c-0.5,0.5-1.1,0.9-1.7,1.3L590,172.3z"/>
	<path class="st4" d="M609,175.8c0,0.7-0.2,1.3-0.6,1.8c-0.4,0.5-0.9,0.8-1.5,0.8s-1.1-0.3-1.5-0.8s-0.6-1.2-0.6-1.8
		c0-0.7,0.2-1.4,0.6-1.9s0.9-0.8,1.5-0.8s1.2,0.3,1.5,0.8C608.8,174.4,609,175.1,609,175.8z M609,195.2c0,0.7-0.2,1.3-0.6,1.8
		c-0.4,0.5-0.9,0.8-1.5,0.8s-1.1-0.3-1.5-0.8s-0.6-1.2-0.6-1.8c0-0.7,0.2-1.3,0.6-1.9s0.9-0.8,1.5-0.8s1.2,0.3,1.5,0.8
		C608.8,193.8,609,194.5,609,195.2z"/>
	<path class="st4" d="M620.2,180.5c1.2,0.5,2.1,1.5,2.8,2.9s1,3.1,1,5.3c0,2.9-0.6,5.2-1.7,6.8c-1.1,1.7-2.8,2.5-5,2.5
		c-0.9,0-1.7-0.2-2.6-0.5c-0.8-0.3-1.6-0.8-2.2-1.3l0.8-3.2c0.5,0.4,1.1,0.8,1.7,1.1c0.6,0.3,1.2,0.5,1.9,0.5c1.2,0,2.2-0.5,2.8-1.4
		c0.7-0.9,1-2.5,1-4.5c0-2.1-0.4-3.6-1.1-4.7c-0.7-1-1.9-1.6-3.6-1.6h-0.9v-3.3h0.8c1.4,0,2.5-0.5,3.2-1.4s1-2.3,1-4
		c0-1.6-0.3-2.8-0.8-3.6s-1.3-1.2-2.2-1.2c-0.6,0-1.2,0.2-1.8,0.5s-1,0.7-1.4,1.1l-1.2-2.8c0.6-0.7,1.3-1.3,2.2-1.6s1.7-0.5,2.5-0.5
		c1.8,0,3.3,0.7,4.3,2.2s1.5,3.4,1.5,5.8c0,1.7-0.3,3.2-0.8,4.3C621.9,179,621.1,179.9,620.2,180.5z"/>
	<path class="st4" d="M628.1,181.7c0-3.1,0.1-5.6,0.3-7.7c0.2-2.1,0.6-3.8,1-5c0.5-1.3,1.1-2.2,1.8-2.7c0.7-0.6,1.6-0.8,2.6-0.8
		s1.9,0.3,2.6,0.8c0.7,0.6,1.3,1.5,1.8,2.7c0.5,1.3,0.8,2.9,1,5s0.3,4.7,0.3,7.7s-0.1,5.6-0.3,7.7c-0.2,2.1-0.6,3.8-1,5
		c-0.5,1.3-1.1,2.2-1.8,2.7c-0.7,0.6-1.6,0.8-2.6,0.8s-1.9-0.3-2.6-0.8c-0.7-0.6-1.3-1.5-1.8-2.7c-0.5-1.3-0.8-2.9-1-5
		C628.3,187.3,628.1,184.8,628.1,181.7z M636.5,181.7c0-2.5,0-4.5-0.1-6.2c-0.1-1.6-0.2-3-0.4-4s-0.5-1.7-0.8-2.1
		c-0.3-0.4-0.7-0.6-1.2-0.6s-0.9,0.2-1.2,0.6c-0.3,0.4-0.6,1.1-0.8,2.1s-0.3,2.3-0.4,4c-0.1,1.7-0.1,3.7-0.1,6.2s0,4.5,0.1,6.2
		s0.2,3,0.4,4s0.5,1.7,0.8,2.1s0.7,0.6,1.2,0.6s0.9-0.2,1.2-0.6s0.6-1.1,0.8-2.1s0.3-2.3,0.4-4C636.5,186.2,636.5,184.2,636.5,181.7
		z"/>
</g>
<g>
	<path class="st19" d="M136.7,81.2c0,1-0.8,1.8-1.8,1.8h-8v8c0,1-0.8,1.8-1.8,1.8h-3.7c-1,0-1.8-0.8-1.8-1.8v-8h-8
		c-1,0-1.8-0.8-1.8-1.8v-3.7c0-1,0.8-1.8,1.8-1.8h8v-8c0-1,0.8-1.8,1.8-1.8h3.7c1,0,1.8,0.8,1.8,1.8v8h8c1,0,1.8,0.8,1.8,1.8V81.2z"
		/>
</g>
<g>
	<path class="st19" d="M136.7,115.5c0,1-0.8,1.8-1.8,1.8h-8v8c0,1-0.8,1.8-1.8,1.8h-3.7c-1,0-1.8-0.8-1.8-1.8v-8h-8
		c-1,0-1.8-0.8-1.8-1.8v-3.7c0-1,0.8-1.8,1.8-1.8h8v-8c0-1,0.8-1.8,1.8-1.8h3.7c1,0,1.8,0.8,1.8,1.8v8h8c1,0,1.8,0.8,1.8,1.8V115.5z
		"/>
</g>
<g>
	<path class="st19" d="M168.7,81.2c0,1-0.8,1.8-1.8,1.8h-8v8c0,1-0.8,1.8-1.8,1.8h-3.7c-1,0-1.8-0.8-1.8-1.8v-8h-8
		c-1,0-1.8-0.8-1.8-1.8v-3.7c0-1,0.8-1.8,1.8-1.8h8v-8c0-1,0.8-1.8,1.8-1.8h3.7c1,0,1.8,0.8,1.8,1.8v8h8c1,0,1.8,0.8,1.8,1.8V81.2z"
		/>
</g>
<g>
	<path class="st19" d="M168.7,115.5c0,1-0.8,1.8-1.8,1.8h-8v8c0,1-0.8,1.8-1.8,1.8h-3.7c-1,0-1.8-0.8-1.8-1.8v-8h-8
		c-1,0-1.8-0.8-1.8-1.8v-3.7c0-1,0.8-1.8,1.8-1.8h8v-8c0-1,0.8-1.8,1.8-1.8h3.7c1,0,1.8,0.8,1.8,1.8v8h8c1,0,1.8,0.8,1.8,1.8V115.5z
		"/>
</g>
<g>
	<path class="st19" d="M168.7,149.9c0,1-0.8,1.8-1.8,1.8h-8v8c0,1-0.8,1.8-1.8,1.8h-3.7c-1,0-1.8-0.8-1.8-1.8v-8h-8
		c-1,0-1.8-0.8-1.8-1.8v-3.7c0-1,0.8-1.8,1.8-1.8h8v-8c0-1,0.8-1.8,1.8-1.8h3.7c1,0,1.8,0.8,1.8,1.8v8h8c1,0,1.8,0.8,1.8,1.8V149.9z
		"/>
</g>
<g>
	<path class="st19" d="M136.7,218.5c0,1-0.8,1.8-1.8,1.8h-8v8c0,1-0.8,1.8-1.8,1.8h-3.7c-1,0-1.8-0.8-1.8-1.8v-8h-8
		c-1,0-1.8-0.8-1.8-1.8v-3.7c0-1,0.8-1.8,1.8-1.8h8v-8c0-1,0.8-1.8,1.8-1.8h3.7c1,0,1.8,0.8,1.8,1.8v8h8c1,0,1.8,0.8,1.8,1.8V218.5z
		"/>
</g>
<g>
	<path class="st19" d="M136.7,252.9c0,1-0.8,1.8-1.8,1.8h-8v8c0,1-0.8,1.8-1.8,1.8h-3.7c-1,0-1.8-0.8-1.8-1.8v-8h-8
		c-1,0-1.8-0.8-1.8-1.8v-3.7c0-1,0.8-1.8,1.8-1.8h8v-8c0-1,0.8-1.8,1.8-1.8h3.7c1,0,1.8,0.8,1.8,1.8v8h8c1,0,1.8,0.8,1.8,1.8V252.9z
		"/>
</g>
<g>
	<path class="st19" d="M168.7,218.5c0,1-0.8,1.8-1.8,1.8h-8v8c0,1-0.8,1.8-1.8,1.8h-3.7c-1,0-1.8-0.8-1.8-1.8v-8h-8
		c-1,0-1.8-0.8-1.8-1.8v-3.7c0-1,0.8-1.8,1.8-1.8h8v-8c0-1,0.8-1.8,1.8-1.8h3.7c1,0,1.8,0.8,1.8,1.8v8h8c1,0,1.8,0.8,1.8,1.8V218.5z
		"/>
</g>
<g>
	<path class="st19" d="M168.7,252.9c0,1-0.8,1.8-1.8,1.8h-8v8c0,1-0.8,1.8-1.8,1.8h-3.7c-1,0-1.8-0.8-1.8-1.8v-8h-8
		c-1,0-1.8-0.8-1.8-1.8v-3.7c0-1,0.8-1.8,1.8-1.8h8v-8c0-1,0.8-1.8,1.8-1.8h3.7c1,0,1.8,0.8,1.8,1.8v8h8c1,0,1.8,0.8,1.8,1.8V252.9z
		"/>
</g>
<g>
	<path class="st19" d="M136.7,287.2c0,1-0.8,1.8-1.8,1.8h-8v8c0,1-0.8,1.8-1.8,1.8h-3.7c-1,0-1.8-0.8-1.8-1.8v-8h-8
		c-1,0-1.8-0.8-1.8-1.8v-3.7c0-1,0.8-1.8,1.8-1.8h8v-8c0-1,0.8-1.8,1.8-1.8h3.7c1,0,1.8,0.8,1.8,1.8v8h8c1,0,1.8,0.8,1.8,1.8V287.2z
		"/>
</g>
<g>
	<path class="st19" d="M136.7,355.9c0,1-0.8,1.8-1.8,1.8h-8v8c0,1-0.8,1.8-1.8,1.8h-3.7c-1,0-1.8-0.8-1.8-1.8v-8h-8
		c-1,0-1.8-0.8-1.8-1.8v-3.7c0-1,0.8-1.8,1.8-1.8h8v-8c0-1,0.8-1.8,1.8-1.8h3.7c1,0,1.8,0.8,1.8,1.8v8h8c1,0,1.8,0.8,1.8,1.8V355.9z
		"/>
</g>
<g>
	<path class="st19" d="M136.7,390.3c0,1-0.8,1.8-1.8,1.8h-8v8c0,1-0.8,1.8-1.8,1.8h-3.7c-1,0-1.8-0.8-1.8-1.8v-8h-8
		c-1,0-1.8-0.8-1.8-1.8v-3.7c0-1,0.8-1.8,1.8-1.8h8v-8c0-1,0.8-1.8,1.8-1.8h3.7c1,0,1.8,0.8,1.8,1.8v8h8c1,0,1.8,0.8,1.8,1.8V390.3z
		"/>
</g>
<g>
	<path class="st19" d="M168.7,355.9c0,1-0.8,1.8-1.8,1.8h-8v8c0,1-0.8,1.8-1.8,1.8h-3.7c-1,0-1.8-0.8-1.8-1.8v-8h-8
		c-1,0-1.8-0.8-1.8-1.8v-3.7c0-1,0.8-1.8,1.8-1.8h8v-8c0-1,0.8-1.8,1.8-1.8h3.7c1,0,1.8,0.8,1.8,1.8v8h8c1,0,1.8,0.8,1.8,1.8V355.9z
		"/>
</g>
<g>
	<path class="st19" d="M168.7,390.3c0,1-0.8,1.8-1.8,1.8h-8v8c0,1-0.8,1.8-1.8,1.8h-3.7c-1,0-1.8-0.8-1.8-1.8v-8h-8
		c-1,0-1.8-0.8-1.8-1.8v-3.7c0-1,0.8-1.8,1.8-1.8h8v-8c0-1,0.8-1.8,1.8-1.8h3.7c1,0,1.8,0.8,1.8,1.8v8h8c1,0,1.8,0.8,1.8,1.8V390.3z
		"/>
</g>
<g>
	<path class="st19" d="M168.7,424.6c0,1-0.8,1.8-1.8,1.8h-8v8c0,1-0.8,1.8-1.8,1.8h-3.7c-1,0-1.8-0.8-1.8-1.8v-8h-8
		c-1,0-1.8-0.8-1.8-1.8v-3.7c0-1,0.8-1.8,1.8-1.8h8v-8c0-1,0.8-1.8,1.8-1.8h3.7c1,0,1.8,0.8,1.8,1.8v8h8c1,0,1.8,0.8,1.8,1.8V424.6z
		"/>
</g>
<g>
	<path class="st19" d="M251.1,81.2c0,1-0.8,1.8-1.8,1.8h-8v8c0,1-0.8,1.8-1.8,1.8h-3.7c-1,0-1.8-0.8-1.8-1.8v-8h-8
		c-1,0-1.8-0.8-1.8-1.8v-3.7c0-1,0.8-1.8,1.8-1.8h8v-8c0-1,0.8-1.8,1.8-1.8h3.7c1,0,1.8,0.8,1.8,1.8v8h8c1,0,1.8,0.8,1.8,1.8V81.2z"
		/>
</g>
<g>
	<path class="st19" d="M251.1,115.5c0,1-0.8,1.8-1.8,1.8h-8v8c0,1-0.8,1.8-1.8,1.8h-3.7c-1,0-1.8-0.8-1.8-1.8v-8h-8
		c-1,0-1.8-0.8-1.8-1.8v-3.7c0-1,0.8-1.8,1.8-1.8h8v-8c0-1,0.8-1.8,1.8-1.8h3.7c1,0,1.8,0.8,1.8,1.8v8h8c1,0,1.8,0.8,1.8,1.8V115.5z
		"/>
</g>
<g>
	<path class="st19" d="M283.2,81.2c0,1-0.8,1.8-1.8,1.8h-8v8c0,1-0.8,1.8-1.8,1.8h-3.7c-1,0-1.8-0.8-1.8-1.8v-8h-8
		c-1,0-1.8-0.8-1.8-1.8v-3.7c0-1,0.8-1.8,1.8-1.8h8v-8c0-1,0.8-1.8,1.8-1.8h3.7c1,0,1.8,0.8,1.8,1.8v8h8c1,0,1.8,0.8,1.8,1.8V81.2z"
		/>
</g>
<g>
	<path class="st19" d="M283.2,115.5c0,1-0.8,1.8-1.8,1.8h-8v8c0,1-0.8,1.8-1.8,1.8h-3.7c-1,0-1.8-0.8-1.8-1.8v-8h-8
		c-1,0-1.8-0.8-1.8-1.8v-3.7c0-1,0.8-1.8,1.8-1.8h8v-8c0-1,0.8-1.8,1.8-1.8h3.7c1,0,1.8,0.8,1.8,1.8v8h8c1,0,1.8,0.8,1.8,1.8V115.5z
		"/>
</g>
<g>
	<path class="st19" d="M283.2,149.9c0,1-0.8,1.8-1.8,1.8h-8v8c0,1-0.8,1.8-1.8,1.8h-3.7c-1,0-1.8-0.8-1.8-1.8v-8h-8
		c-1,0-1.8-0.8-1.8-1.8v-3.7c0-1,0.8-1.8,1.8-1.8h8v-8c0-1,0.8-1.8,1.8-1.8h3.7c1,0,1.8,0.8,1.8,1.8v8h8c1,0,1.8,0.8,1.8,1.8V149.9z
		"/>
</g>
<g>
	<path class="st20" d="M251.1,218.5c0,1-0.8,1.8-1.8,1.8h-8v8c0,1-0.8,1.8-1.8,1.8h-3.7c-1,0-1.8-0.8-1.8-1.8v-8h-8
		c-1,0-1.8-0.8-1.8-1.8v-3.7c0-1,0.8-1.8,1.8-1.8h8v-8c0-1,0.8-1.8,1.8-1.8h3.7c1,0,1.8,0.8,1.8,1.8v8h8c1,0,1.8,0.8,1.8,1.8V218.5z
		"/>
</g>
<g>
	<path class="st20" d="M251.1,252.9c0,1-0.8,1.8-1.8,1.8h-8v8c0,1-0.8,1.8-1.8,1.8h-3.7c-1,0-1.8-0.8-1.8-1.8v-8h-8
		c-1,0-1.8-0.8-1.8-1.8v-3.7c0-1,0.8-1.8,1.8-1.8h8v-8c0-1,0.8-1.8,1.8-1.8h3.7c1,0,1.8,0.8,1.8,1.8v8h8c1,0,1.8,0.8,1.8,1.8V252.9z
		"/>
</g>
<g>
	<path class="st20" d="M283.2,218.5c0,1-0.8,1.8-1.8,1.8h-8v8c0,1-0.8,1.8-1.8,1.8h-3.7c-1,0-1.8-0.8-1.8-1.8v-8h-8
		c-1,0-1.8-0.8-1.8-1.8v-3.7c0-1,0.8-1.8,1.8-1.8h8v-8c0-1,0.8-1.8,1.8-1.8h3.7c1,0,1.8,0.8,1.8,1.8v8h8c1,0,1.8,0.8,1.8,1.8V218.5z
		"/>
</g>
<g>
	<path class="st20" d="M283.2,252.9c0,1-0.8,1.8-1.8,1.8h-8v8c0,1-0.8,1.8-1.8,1.8h-3.7c-1,0-1.8-0.8-1.8-1.8v-8h-8
		c-1,0-1.8-0.8-1.8-1.8v-3.7c0-1,0.8-1.8,1.8-1.8h8v-8c0-1,0.8-1.8,1.8-1.8h3.7c1,0,1.8,0.8,1.8,1.8v8h8c1,0,1.8,0.8,1.8,1.8V252.9z
		"/>
</g>
<g>
	<path class="st20" d="M283.2,287.2c0,1-0.8,1.8-1.8,1.8h-8v8c0,1-0.8,1.8-1.8,1.8h-3.7c-1,0-1.8-0.8-1.8-1.8v-8h-8
		c-1,0-1.8-0.8-1.8-1.8v-3.7c0-1,0.8-1.8,1.8-1.8h8v-8c0-1,0.8-1.8,1.8-1.8h3.7c1,0,1.8,0.8,1.8,1.8v8h8c1,0,1.8,0.8,1.8,1.8V287.2z
		"/>
</g>
<g>
	<path class="st19" d="M251.1,355.9c0,1-0.8,1.8-1.8,1.8h-8v8c0,1-0.8,1.8-1.8,1.8h-3.7c-1,0-1.8-0.8-1.8-1.8v-8h-8
		c-1,0-1.8-0.8-1.8-1.8v-3.7c0-1,0.8-1.8,1.8-1.8h8v-8c0-1,0.8-1.8,1.8-1.8h3.7c1,0,1.8,0.8,1.8,1.8v8h8c1,0,1.8,0.8,1.8,1.8V355.9z
		"/>
</g>
<g>
	<path class="st19" d="M251.1,390.3c0,1-0.8,1.8-1.8,1.8h-8v8c0,1-0.8,1.8-1.8,1.8h-3.7c-1,0-1.8-0.8-1.8-1.8v-8h-8
		c-1,0-1.8-0.8-1.8-1.8v-3.7c0-1,0.8-1.8,1.8-1.8h8v-8c0-1,0.8-1.8,1.8-1.8h3.7c1,0,1.8,0.8,1.8,1.8v8h8c1,0,1.8,0.8,1.8,1.8V390.3z
		"/>
</g>
<g>
	<path class="st19" d="M283.2,355.9c0,1-0.8,1.8-1.8,1.8h-8v8c0,1-0.8,1.8-1.8,1.8h-3.7c-1,0-1.8-0.8-1.8-1.8v-8h-8
		c-1,0-1.8-0.8-1.8-1.8v-3.7c0-1,0.8-1.8,1.8-1.8h8v-8c0-1,0.8-1.8,1.8-1.8h3.7c1,0,1.8,0.8,1.8,1.8v8h8c1,0,1.8,0.8,1.8,1.8V355.9z
		"/>
</g>
<g>
	<path class="st19" d="M283.2,390.3c0,1-0.8,1.8-1.8,1.8h-8v8c0,1-0.8,1.8-1.8,1.8h-3.7c-1,0-1.8-0.8-1.8-1.8v-8h-8
		c-1,0-1.8-0.8-1.8-1.8v-3.7c0-1,0.8-1.8,1.8-1.8h8v-8c0-1,0.8-1.8,1.8-1.8h3.7c1,0,1.8,0.8,1.8,1.8v8h8c1,0,1.8,0.8,1.8,1.8V390.3z
		"/>
</g>
<g>
	<path class="st19" d="M283.2,424.6c0,1-0.8,1.8-1.8,1.8h-8v8c0,1-0.8,1.8-1.8,1.8h-3.7c-1,0-1.8-0.8-1.8-1.8v-8h-8
		c-1,0-1.8-0.8-1.8-1.8v-3.7c0-1,0.8-1.8,1.8-1.8h8v-8c0-1,0.8-1.8,1.8-1.8h3.7c1,0,1.8,0.8,1.8,1.8v8h8c1,0,1.8,0.8,1.8,1.8V424.6z
		"/>
</g>
<g>
	<path class="st19" d="M354.2,81.2c0,1-0.8,1.8-1.8,1.8h-8v8c0,1-0.8,1.8-1.8,1.8h-3.7c-1,0-1.8-0.8-1.8-1.8v-8h-8
		c-1,0-1.8-0.8-1.8-1.8v-3.7c0-1,0.8-1.8,1.8-1.8h8v-8c0-1,0.8-1.8,1.8-1.8h3.7c1,0,1.8,0.8,1.8,1.8v8h8c1,0,1.8,0.8,1.8,1.8V81.2z"
		/>
</g>
<g>
	<path class="st19" d="M354.2,115.5c0,1-0.8,1.8-1.8,1.8h-8v8c0,1-0.8,1.8-1.8,1.8h-3.7c-1,0-1.8-0.8-1.8-1.8v-8h-8
		c-1,0-1.8-0.8-1.8-1.8v-3.7c0-1,0.8-1.8,1.8-1.8h8v-8c0-1,0.8-1.8,1.8-1.8h3.7c1,0,1.8,0.8,1.8,1.8v8h8c1,0,1.8,0.8,1.8,1.8V115.5z
		"/>
</g>
<path class="st19" d="M386.3,77.5v3.7c0,0.5-0.2,0.9-0.5,1.3c-0.4,0.4-0.8,0.5-1.3,0.5h-8v8c0,0.5-0.2,0.9-0.5,1.3
	c-0.4,0.4-0.8,0.5-1.3,0.5H371c-0.5,0-0.9-0.2-1.3-0.5c-0.4-0.4-0.5-0.8-0.5-1.3v-8h-8c-0.5,0-0.9-0.2-1.3-0.5
	c-0.4-0.4-0.5-0.8-0.5-1.3v-3.7c0-0.5,0.2-0.9,0.5-1.3c0.4-0.4,0.8-0.5,1.3-0.5h8v-8c0-0.5,0.2-0.9,0.5-1.3c0.4-0.4,0.8-0.5,1.3-0.5
	h3.7c0.5,0,0.9,0.2,1.3,0.5c0.4,0.4,0.5,0.8,0.5,1.3v8h8c0.5,0,0.9,0.2,1.3,0.5C386.1,76.5,386.3,77,386.3,77.5"/>
<rect x="-234.5" y="-345.3" class="st10" width="1155.5" height="3399.3"/>
<g>
	<path class="st19" d="M386.3,115.5c0,1-0.8,1.8-1.8,1.8h-8v8c0,1-0.8,1.8-1.8,1.8H371c-1,0-1.8-0.8-1.8-1.8v-8h-8
		c-1,0-1.8-0.8-1.8-1.8v-3.7c0-1,0.8-1.8,1.8-1.8h8v-8c0-1,0.8-1.8,1.8-1.8h3.7c1,0,1.8,0.8,1.8,1.8v8h8c1,0,1.8,0.8,1.8,1.8V115.5z
		"/>
</g>
<g>
	<path class="st19" d="M386.3,149.9c0,1-0.8,1.8-1.8,1.8h-8v8c0,1-0.8,1.8-1.8,1.8H371c-1,0-1.8-0.8-1.8-1.8v-8h-8
		c-1,0-1.8-0.8-1.8-1.8v-3.7c0-1,0.8-1.8,1.8-1.8h8v-8c0-1,0.8-1.8,1.8-1.8h3.7c1,0,1.8,0.8,1.8,1.8v8h8c1,0,1.8,0.8,1.8,1.8V149.9z
		"/>
</g>
<g>
	<path class="st19" d="M354.2,218.5c0,1-0.8,1.8-1.8,1.8h-8v8c0,1-0.8,1.8-1.8,1.8h-3.7c-1,0-1.8-0.8-1.8-1.8v-8h-8
		c-1,0-1.8-0.8-1.8-1.8v-3.7c0-1,0.8-1.8,1.8-1.8h8v-8c0-1,0.8-1.8,1.8-1.8h3.7c1,0,1.8,0.8,1.8,1.8v8h8c1,0,1.8,0.8,1.8,1.8V218.5z
		"/>
</g>
<g>
	<path class="st19" d="M354.2,252.9c0,1-0.8,1.8-1.8,1.8h-8v8c0,1-0.8,1.8-1.8,1.8h-3.7c-1,0-1.8-0.8-1.8-1.8v-8h-8
		c-1,0-1.8-0.8-1.8-1.8v-3.7c0-1,0.8-1.8,1.8-1.8h8v-8c0-1,0.8-1.8,1.8-1.8h3.7c1,0,1.8,0.8,1.8,1.8v8h8c1,0,1.8,0.8,1.8,1.8V252.9z
		"/>
</g>
<g>
	<path class="st19" d="M386.3,218.5c0,1-0.8,1.8-1.8,1.8h-8v8c0,1-0.8,1.8-1.8,1.8H371c-1,0-1.8-0.8-1.8-1.8v-8h-8
		c-1,0-1.8-0.8-1.8-1.8v-3.7c0-1,0.8-1.8,1.8-1.8h8v-8c0-1,0.8-1.8,1.8-1.8h3.7c1,0,1.8,0.8,1.8,1.8v8h8c1,0,1.8,0.8,1.8,1.8V218.5z
		"/>
</g>
<g>
	<path class="st19" d="M386.3,252.9c0,1-0.8,1.8-1.8,1.8h-8v8c0,1-0.8,1.8-1.8,1.8H371c-1,0-1.8-0.8-1.8-1.8v-8h-8
		c-1,0-1.8-0.8-1.8-1.8v-3.7c0-1,0.8-1.8,1.8-1.8h8v-8c0-1,0.8-1.8,1.8-1.8h3.7c1,0,1.8,0.8,1.8,1.8v8h8c1,0,1.8,0.8,1.8,1.8V252.9z
		"/>
</g>
<g>
	<path class="st19" d="M386.3,287.2c0,1-0.8,1.8-1.8,1.8h-8v8c0,1-0.8,1.8-1.8,1.8H371c-1,0-1.8-0.8-1.8-1.8v-8h-8
		c-1,0-1.8-0.8-1.8-1.8v-3.7c0-1,0.8-1.8,1.8-1.8h8v-8c0-1,0.8-1.8,1.8-1.8h3.7c1,0,1.8,0.8,1.8,1.8v8h8c1,0,1.8,0.8,1.8,1.8V287.2z
		"/>
</g>
<g>
	<path class="st19" d="M354.2,355.9c0,1-0.8,1.8-1.8,1.8h-8v8c0,1-0.8,1.8-1.8,1.8h-3.7c-1,0-1.8-0.8-1.8-1.8v-8h-8
		c-1,0-1.8-0.8-1.8-1.8v-3.7c0-1,0.8-1.8,1.8-1.8h8v-8c0-1,0.8-1.8,1.8-1.8h3.7c1,0,1.8,0.8,1.8,1.8v8h8c1,0,1.8,0.8,1.8,1.8V355.9z
		"/>
</g>
<g>
	<path class="st19" d="M354.2,390.3c0,1-0.8,1.8-1.8,1.8h-8v8c0,1-0.8,1.8-1.8,1.8h-3.7c-1,0-1.8-0.8-1.8-1.8v-8h-8
		c-1,0-1.8-0.8-1.8-1.8v-3.7c0-1,0.8-1.8,1.8-1.8h8v-8c0-1,0.8-1.8,1.8-1.8h3.7c1,0,1.8,0.8,1.8,1.8v8h8c1,0,1.8,0.8,1.8,1.8V390.3z
		"/>
</g>
<g>
	<path class="st19" d="M386.3,355.9c0,1-0.8,1.8-1.8,1.8h-8v8c0,1-0.8,1.8-1.8,1.8H371c-1,0-1.8-0.8-1.8-1.8v-8h-8
		c-1,0-1.8-0.8-1.8-1.8v-3.7c0-1,0.8-1.8,1.8-1.8h8v-8c0-1,0.8-1.8,1.8-1.8h3.7c1,0,1.8,0.8,1.8,1.8v8h8c1,0,1.8,0.8,1.8,1.8V355.9z
		"/>
</g>
<g>
	<path class="st19" d="M386.3,390.3c0,1-0.8,1.8-1.8,1.8h-8v8c0,1-0.8,1.8-1.8,1.8H371c-1,0-1.8-0.8-1.8-1.8v-8h-8
		c-1,0-1.8-0.8-1.8-1.8v-3.7c0-1,0.8-1.8,1.8-1.8h8v-8c0-1,0.8-1.8,1.8-1.8h3.7c1,0,1.8,0.8,1.8,1.8v8h8c1,0,1.8,0.8,1.8,1.8V390.3z
		"/>
</g>
<g>
	<path class="st19" d="M386.3,424.6c0,1-0.8,1.8-1.8,1.8h-8v8c0,1-0.8,1.8-1.8,1.8H371c-1,0-1.8-0.8-1.8-1.8v-8h-8
		c-1,0-1.8-0.8-1.8-1.8v-3.7c0-1,0.8-1.8,1.8-1.8h8v-8c0-1,0.8-1.8,1.8-1.8h3.7c1,0,1.8,0.8,1.8,1.8v8h8c1,0,1.8,0.8,1.8,1.8V424.6z
		"/>
</g>
<g>
	<g>
		<defs>
			<rect id="SVGID_27_" x="-234.5" y="-345.3" width="1155.5" height="3399.3"/>
		</defs>
		<clipPath id="SVGID_28_">
			<use xlink:href="#SVGID_27_"  style="overflow:visible;"/>
		</clipPath>
		<path class="st21" d="M669.2,300.1c0,29.9-24.2,54.1-54.1,54.1c-29.9,0-54.1-24.2-54.1-54.1s24.2-54.1,54.1-54.1
			C644.9,246,669.2,270.2,669.2,300.1"/>
	</g>
	<g>
		<defs>
			<rect id="SVGID_29_" x="-234.5" y="-345.3" width="1155.5" height="3399.3"/>
		</defs>
		<clipPath id="SVGID_30_">
			<use xlink:href="#SVGID_29_"  style="overflow:visible;"/>
		</clipPath>
		<path class="st22" d="M655.6,336.1c-9.9,11.2-24.4,18.3-40.6,18.3c-14.7,0-28.1-5.9-37.9-15.4
			C579.2,336.9,656.9,334.7,655.6,336.1"/>
	</g>
	<g>
		<defs>
			<rect id="SVGID_31_" x="-234.5" y="-345.3" width="1155.5" height="3399.3"/>
		</defs>
		<clipPath id="SVGID_32_">
			<use xlink:href="#SVGID_31_"  style="overflow:visible;"/>
		</clipPath>
		<polyline class="st23" points="652.1,342.2 636.8,325.5 644.4,318 659.3,332.8 		"/>
	</g>
	<g>
		<defs>
			<rect id="SVGID_33_" x="-234.5" y="-345.3" width="1155.5" height="3399.3"/>
		</defs>
		<clipPath id="SVGID_34_">
			<use xlink:href="#SVGID_33_"  style="overflow:visible;"/>
		</clipPath>
		<path class="st24" d="M660.1,333.4c2.3,2.3,2.3,6.1,0,8.4s-6.1,2.3-8.4,0c-2.3-2.3-2.3-6.1,0-8.4
			C654,331.1,657.8,331.1,660.1,333.4"/>
	</g>
	<g>
		<defs>
			<rect id="SVGID_35_" x="-234.5" y="-345.3" width="1155.5" height="3399.3"/>
		</defs>
		<clipPath id="SVGID_36_">
			<use xlink:href="#SVGID_35_"  style="overflow:visible;"/>
		</clipPath>
		<polyline class="st25" points="579,342.2 594.3,325.5 586.7,318 571.8,332.8 		"/>
	</g>
	<g>
		<defs>
			<rect id="SVGID_37_" x="-234.5" y="-345.3" width="1155.5" height="3399.3"/>
		</defs>
		<clipPath id="SVGID_38_">
			<use xlink:href="#SVGID_37_"  style="overflow:visible;"/>
		</clipPath>
		<path class="st26" d="M570.2,334.1c-2.3,2.3-2.3,6.1,0,8.4s6.1,2.3,8.4,0c2.3-2.3,2.3-6.1,0-8.4
			C576.4,331.8,572.6,331.8,570.2,334.1"/>
	</g>
	<g>
		<defs>
			<rect id="SVGID_39_" x="-234.5" y="-345.3" width="1155.5" height="3399.3"/>
		</defs>
		<clipPath id="SVGID_40_">
			<use xlink:href="#SVGID_39_"  style="overflow:visible;"/>
		</clipPath>
		
			<linearGradient id="SVGID_41_" gradientUnits="userSpaceOnUse" x1="36.9964" y1="-2739.8955" x2="37.9964" y2="-2739.8955" gradientTransform="matrix(103.087 0 0 103.087 -3250.3467 282737.5625)">
			<stop  offset="0" style="stop-color:#39B54A"/>
			<stop  offset="8.278921e-02" style="stop-color:#39B54A"/>
			<stop  offset="0.3951" style="stop-color:#F48270"/>
			<stop  offset="0.7246" style="stop-color:#F5841F"/>
			<stop  offset="0.9481" style="stop-color:#ED174B"/>
			<stop  offset="1" style="stop-color:#ED174B"/>
		</linearGradient>
		<path class="st27" d="M574.3,330.8c-6.4-8.5-10.3-19.2-10.3-30.7c0-28.2,22.9-51,51-51c28.2,0,51,22.9,51,51
			c0,11.1-3.5,21.3-9.5,29.7l-4.1-2.9c5.4-7.5,8.6-16.8,8.6-26.8c0-25.4-20.6-46-46-46s-46,20.6-46,46c0,10.4,3.4,20,9.3,27.7
			L574.3,330.8L574.3,330.8z"/>
	</g>
</g>
<g>
	<g>
		<defs>
			<path id="SVGID_42_" d="M566.5,300.1c0,26.8,21.7,48.5,48.5,48.5s48.5-21.7,48.5-48.5s-21.7-48.5-48.5-48.5
				C588.3,251.6,566.5,273.3,566.5,300.1"/>
		</defs>
		<clipPath id="SVGID_43_">
			<use xlink:href="#SVGID_42_"  style="overflow:visible;"/>
		</clipPath>
		
			<radialGradient id="SVGID_44_" cx="34.0026" cy="-2742.0156" r="1" gradientTransform="matrix(48.5 0 0 48.5 -1034.1276 133287.8594)" gradientUnits="userSpaceOnUse">
			<stop  offset="0" style="stop-color:#5E7AA2"/>
			<stop  offset="0.5461" style="stop-color:#5E7AA2"/>
			<stop  offset="1" style="stop-color:#415573"/>
		</radialGradient>
		<rect x="566.5" y="251.6" class="st28" width="97" height="97"/>
	</g>
</g>
<g>
	<path class="st8" d="M605.3,279v1h-4.2v-9.3h1.2v8.3H605.3z"/>
	<path class="st8" d="M606.7,280v-9.3h4.2v1h-3v2.9h2.7v1h-2.7v3.3h3.2v1h-4.4V280z"/>
	<path class="st8" d="M614.4,280c-0.2-0.7-0.4-1.4-0.6-2c-0.2-0.7-0.4-1.4-0.6-2.2c-0.2-0.8-0.4-1.5-0.6-2.4s-0.4-1.8-0.6-2.7h1.3
		c0.1,0.7,0.2,1.4,0.4,2.1c0.1,0.7,0.3,1.4,0.5,2c0.2,0.7,0.3,1.3,0.5,2s0.3,1.2,0.5,1.8c0.2-0.6,0.3-1.2,0.5-1.8
		c0.2-0.6,0.3-1.3,0.5-2s0.3-1.4,0.5-2c0.1-0.7,0.3-1.4,0.4-2.1h1.2c-0.2,1-0.4,1.9-0.6,2.7c-0.2,0.8-0.4,1.6-0.6,2.4
		c-0.2,0.8-0.4,1.5-0.6,2.2c-0.2,0.7-0.4,1.4-0.6,2H614.4z"/>
	<path class="st8" d="M619.5,280v-9.3h4.2v1h-3v2.9h2.7v1h-2.7v3.3h3.2v1h-4.4V280z"/>
	<path class="st8" d="M629.8,279v1h-4.2v-9.3h1.2v8.3H629.8z"/>
</g>
<g>
	<path class="st4" d="M601.6,309.7c0-3.1,0.1-5.6,0.3-7.7s0.6-3.8,1-5c0.5-1.3,1.1-2.2,1.8-2.7c0.7-0.6,1.6-0.8,2.6-0.8
		s1.9,0.3,2.6,0.8c0.7,0.6,1.3,1.5,1.8,2.7c0.5,1.3,0.8,2.9,1,5s0.3,4.7,0.3,7.7s-0.1,5.6-0.3,7.7s-0.6,3.8-1,5
		c-0.5,1.3-1.1,2.2-1.8,2.7c-0.7,0.6-1.6,0.8-2.6,0.8s-1.9-0.3-2.6-0.8c-0.7-0.6-1.3-1.5-1.8-2.7c-0.5-1.3-0.8-2.9-1-5
		C601.7,315.4,601.6,312.8,601.6,309.7z M610,309.7c0-2.5,0-4.5-0.1-6.2c-0.1-1.6-0.2-3-0.4-4s-0.5-1.7-0.8-2.1s-0.7-0.6-1.2-0.6
		s-0.9,0.2-1.2,0.6s-0.6,1.1-0.8,2.1s-0.3,2.3-0.4,4c-0.1,1.7-0.1,3.7-0.1,6.2s0,4.5,0.1,6.2s0.2,3,0.4,4s0.5,1.7,0.8,2.1
		s0.7,0.6,1.2,0.6s0.9-0.2,1.2-0.6s0.6-1.1,0.8-2.1s0.3-2.3,0.4-4C609.9,314.2,610,312.2,610,309.7z"/>
	<path class="st4" d="M618.1,322.1c0.9-0.1,1.7-0.4,2.5-0.7c0.8-0.3,1.5-0.9,2-1.6c0.6-0.7,1.1-1.7,1.5-2.9c0.4-1.2,0.7-2.7,0.9-4.5
		c-0.9,0.5-1.8,0.7-2.6,0.7c-1.7,0-3-0.8-4-2.5s-1.4-4-1.4-7c0-3.2,0.4-5.7,1.3-7.5s2.3-2.7,4.2-2.7c1,0,1.8,0.2,2.6,0.7
		c0.7,0.5,1.3,1.3,1.8,2.4s0.9,2.5,1.1,4.3c0.2,1.8,0.4,4,0.4,6.5c0,2.3-0.2,4.5-0.5,6.6s-0.9,4-1.7,5.7s-1.8,3-3.1,4
		s-2.9,1.6-4.7,1.7L618.1,322.1z M623.3,310.1c0.7,0,1.4-0.3,2.1-0.8c0-0.4,0-0.7,0-1.1s0-0.8,0-1.2c0-1.4,0-2.7-0.1-3.9
		c0-1.2-0.2-2.3-0.4-3.3c-0.2-0.9-0.5-1.7-0.8-2.2c-0.4-0.6-0.9-0.8-1.5-0.8c-0.9,0-1.6,0.6-1.9,1.9c-0.4,1.2-0.6,2.9-0.6,5
		c0,2.2,0.3,3.9,0.8,5C621.4,309.6,622.2,310.1,623.3,310.1z"/>
</g>
<g>
	<path class="st8" d="M671.5,335.7c1-1,2.2-1.5,3.7-1.5c1.4,0,2.4,0.4,3.2,1.1c0.7,0.7,1.1,1.9,1.1,3.4c0,0.7-0.1,1.4-0.4,2.1
		c-0.2,0.7-0.5,1.3-0.9,1.9s-0.8,1.2-1.2,1.8c-0.4,0.6-0.8,1.2-1.2,1.8s-0.7,1.3-1,1.9c-0.3,0.7-0.5,1.4-0.5,2.2h5.6v2h-8v-0.5
		c0-1.1,0.1-2.2,0.4-3.1c0.3-0.9,0.6-1.7,1-2.4c0.4-0.7,0.8-1.4,1.3-2s0.9-1.2,1.3-1.8s0.7-1.2,1-1.8c0.3-0.6,0.4-1.3,0.4-2.1
		c0-0.9-0.2-1.6-0.5-2c-0.4-0.4-0.9-0.6-1.6-0.6c-0.5,0-0.9,0.1-1.3,0.3c-0.4,0.2-0.8,0.4-1.1,0.8L671.5,335.7z"/>
	<path class="st8" d="M682.7,343.5c0-1.7,0.1-3.2,0.2-4.4c0.2-1.2,0.4-2.1,0.7-2.9c0.3-0.7,0.8-1.2,1.3-1.6s1.2-0.5,1.9-0.5
		s1.4,0.2,1.9,0.5s1,0.8,1.3,1.6c0.3,0.7,0.6,1.7,0.7,2.9c0.2,1.2,0.2,2.7,0.2,4.4s-0.1,3.2-0.2,4.4c-0.2,1.2-0.4,2.1-0.7,2.9
		c-0.3,0.7-0.8,1.2-1.3,1.6c-0.5,0.3-1.2,0.5-1.9,0.5c-0.8,0-1.4-0.2-1.9-0.5s-1-0.8-1.3-1.6c-0.3-0.7-0.6-1.7-0.7-2.9
		S682.7,345.2,682.7,343.5z M688.8,343.5c0-1.4,0-2.6-0.1-3.5s-0.2-1.7-0.3-2.3c-0.1-0.6-0.3-1-0.6-1.2c-0.2-0.2-0.5-0.4-0.9-0.4
		s-0.6,0.1-0.9,0.4c-0.2,0.2-0.4,0.6-0.6,1.2c-0.1,0.6-0.3,1.3-0.3,2.3c-0.1,0.9-0.1,2.1-0.1,3.5s0,2.6,0.1,3.5s0.2,1.7,0.3,2.3
		s0.3,1,0.6,1.2c0.2,0.2,0.5,0.4,0.9,0.4s0.6-0.1,0.9-0.4c0.2-0.2,0.4-0.6,0.6-1.2s0.3-1.3,0.3-2.3S688.8,344.9,688.8,343.5z"/>
</g>
<g>
	<path class="st8" d="M674.9,366.2c-0.2-0.6-0.3-1.1-0.5-1.7c-0.2-0.5-0.3-1-0.5-1.5s-0.3-0.9-0.5-1.3c-0.1-0.4-0.3-0.7-0.4-1
		c0,0.5-0.1,1-0.1,1.5c0,0.6,0,1.1-0.1,1.7c0,0.6,0,1.2,0,1.8c0,0.6,0,1.1,0,1.7h-1c0-0.7,0-1.5,0.1-2.2c0-0.7,0.1-1.5,0.1-2.2
		s0.1-1.4,0.1-2.1s0.1-1.3,0.2-1.9h1.1c0.1,0.3,0.3,0.8,0.5,1.2c0.2,0.5,0.4,1,0.6,1.5c0.2,0.5,0.4,1,0.6,1.6c0.2,0.5,0.3,1,0.5,1.4
		c0.1-0.4,0.3-0.9,0.4-1.4c0.2-0.5,0.3-1,0.5-1.6c0.2-0.5,0.4-1,0.6-1.5c0.2-0.5,0.3-0.9,0.5-1.2h1.1c0.1,0.6,0.1,1.2,0.2,1.9
		c0,0.7,0.1,1.4,0.1,2.1s0.1,1.4,0.1,2.2c0,0.7,0,1.5,0.1,2.2h-1c0-0.5,0-1.1,0-1.7s0-1.2,0-1.8c0-0.6,0-1.2-0.1-1.7
		c0-0.6-0.1-1.1-0.1-1.5c-0.1,0.2-0.2,0.5-0.3,0.8s-0.2,0.6-0.3,1s-0.2,0.7-0.4,1.1c-0.1,0.4-0.2,0.7-0.4,1.1
		c-0.1,0.3-0.2,0.7-0.3,1s-0.2,0.5-0.2,0.7h-1.2V366.2z"/>
	<path class="st8" d="M683.3,359c0.2,0.6,0.4,1.2,0.6,1.8c0.2,0.6,0.4,1.3,0.6,1.9c0.2,0.7,0.4,1.4,0.5,2.2s0.4,1.6,0.5,2.5h-1.1
		c-0.1-0.4-0.1-0.7-0.2-1.1c-0.1-0.4-0.1-0.7-0.2-1.1h-2.6c-0.1,0.4-0.2,0.7-0.2,1.1c-0.1,0.4-0.1,0.7-0.2,1.1h-1
		c0.2-0.9,0.4-1.7,0.5-2.5s0.4-1.5,0.6-2.2c0.2-0.7,0.4-1.3,0.6-1.9c0.2-0.6,0.4-1.2,0.6-1.8H683.3z M682.7,360.2
		c-0.2,0.7-0.4,1.3-0.6,2c-0.2,0.7-0.4,1.4-0.5,2.1h2.2c-0.2-0.7-0.3-1.4-0.5-2.1C683.1,361.5,682.9,360.9,682.7,360.2z"/>
	<path class="st8" d="M688.9,361.9l1.4-3h1.1l-2,4.1c0.2,0.3,0.4,0.7,0.6,1.1c0.2,0.4,0.4,0.7,0.6,1.1c0.2,0.4,0.4,0.7,0.5,1.1
		c0.2,0.4,0.3,0.7,0.4,1h-1.1c-0.1-0.2-0.2-0.5-0.3-0.8s-0.2-0.6-0.4-0.9s-0.3-0.6-0.4-0.9c-0.1-0.3-0.3-0.6-0.4-0.9
		c-0.1,0.3-0.3,0.6-0.4,0.9c-0.2,0.3-0.3,0.6-0.4,0.9s-0.3,0.6-0.4,0.9c-0.1,0.3-0.2,0.5-0.3,0.8h-1.1c0.1-0.3,0.3-0.7,0.4-1
		c0.2-0.4,0.3-0.7,0.5-1.1s0.4-0.8,0.5-1.2c0.2-0.4,0.4-0.8,0.5-1.1l-1.9-4h1.1L688.9,361.9z"/>
</g>
<rect x="-234.5" y="-345.3" class="st10" width="1155.5" height="3399.3"/>
<rect x="-234.5" y="-345.3" class="st10" width="1155.5" height="3399.3"/>
<rect x="-234.5" y="-345.3" class="st10" width="1155.5" height="3399.3"/>
<rect x="-234.5" y="-345.3" class="st10" width="1155.5" height="3399.3"/>
<rect x="-234.5" y="-345.3" class="st10" width="1155.5" height="3399.3"/>
<rect x="-234.5" y="-345.3" class="st10" width="1155.5" height="3399.3"/>
<rect x="-234.5" y="-345.3" class="st10" width="1155.5" height="3399.3"/>
<rect x="-234.5" y="-345.3" class="st10" width="1155.5" height="3399.3"/>
<rect x="-234.5" y="-345.3" class="st10" width="1155.5" height="3399.3"/>
<rect x="-234.5" y="-345.3" class="st10" width="1155.5" height="3399.3"/>
<path class="st1" d="M498.5,11.6v10.7c0,0.2-0.1,0.3-0.2,0.4s-0.3,0.2-0.4,0.2c-0.2,0-0.3-0.1-0.4-0.2l-3.3-3.3h-2.6
	c-0.2,0-0.3-0.1-0.4-0.2s-0.2-0.3-0.2-0.4V15c0-0.2,0.1-0.3,0.2-0.4c0.1-0.1,0.3-0.2,0.4-0.2h2.6l3.3-3.3c0.1-0.1,0.3-0.2,0.4-0.2
	c0.2,0,0.3,0.1,0.4,0.2C498.5,11.3,498.5,11.4,498.5,11.6 M501.9,15.6c0.3,0.4,0.4,0.9,0.4,1.4s-0.1,1-0.4,1.4s-0.6,0.7-1.1,0.9
	c-0.1,0-0.1,0.1-0.2,0.1c-0.2,0-0.3-0.1-0.4-0.2s-0.2-0.3-0.2-0.4s0-0.3,0.1-0.3c0.1-0.1,0.2-0.2,0.3-0.2c0.1-0.1,0.2-0.1,0.3-0.2
	s0.2-0.2,0.3-0.3c0.1-0.2,0.1-0.3,0.1-0.6c0-0.2,0-0.4-0.1-0.6s-0.2-0.3-0.3-0.4c-0.1-0.1-0.2-0.2-0.3-0.2c-0.1-0.1-0.2-0.2-0.3-0.2
	c-0.1-0.1-0.1-0.2-0.1-0.4s0.1-0.3,0.2-0.4c0.1-0.1,0.3-0.2,0.4-0.2s0.2,0,0.2,0C501.2,14.8,501.6,15.1,501.9,15.6"/>
</svg>
