<?xml version="1.0" encoding="utf-8"?>
<!-- Generator: Adobe Illustrator 21.0.0, SVG Export Plug-In . SVG Version: 6.00 Build 0)  -->
<svg version="1.1" id="Layer_1" xmlns="http://www.w3.org/2000/svg" xmlns:xlink="http://www.w3.org/1999/xlink" x="0px" y="0px"
	 viewBox="0 0 1155.5 826" style="enable-background:new 0 0 1155.5 826;" xml:space="preserve">
<style type="text/css">
	.st0{fill:#2D2935;}
	.st1{fill:#70627F;}
	.st2{fill:#8E7EA8;}
	.st3{fill:#847A91;stroke:#2D2935;stroke-width:2;stroke-miterlimit:10;}
	.st4{fill:#6B637F;stroke:#2D2935;stroke-miterlimit:10;}
	.st5{fill:none;stroke:#2D2935;stroke-miterlimit:10;}
	.st6{fill:#514960;stroke:#2D2935;stroke-miterlimit:10;}
	.st7{opacity:0.7;fill:none;stroke:#2D2935;stroke-miterlimit:10;enable-background:new    ;}
	.st8{fill:none;stroke:#665F77;stroke-miterlimit:10;}
	.st9{fill:#FFFFFF;}
	.st10{font-family:'UbuntuCondensed-Regular';}
	.st11{font-size:30.8717px;}
	.st12{font-size:35.7462px;}
	.st13{fill:#3BB54A;}
	.st14{fill:#F1F2F2;}
	.st15{fill:#50475E;}
	.st16{fill:#BEB6CE;}
	.st17{font-size:29.2469px;}
	.st18{font-size:97.4896px;}
	.st19{fill:none;stroke:url(#SVGID_1_);stroke-width:8;stroke-miterlimit:10;}
	.st20{fill:url(#SVGID_2_);}
	.st21{font-family:'FontAwesome';}
	.st22{font-size:24.3724px;}
	.st23{letter-spacing:4;}
	.st24{font-size:19.4979px;}
	.st25{fill:#F26F6A;}
	.st26{fill:#FFCF01;}
	.st27{fill:#CCE089;}
</style>
<g id="Layer_37">
</g>
<g id="Background_x5F_Panel_x5F_L">
	<rect x="0.3" y="0.6" class="st0" width="845" height="825.4"/>
</g>
<g id="Bottom_x5F_Panel_x5F_L">
	<rect x="845.3" y="163.1" class="st1" width="308.7" height="662.9"/>
</g>
<g id="Top_x5F_Panel_x5F_L">
	<rect x="845.3" y="0.6" class="st2" width="308.7" height="162.5"/>
</g>
<g id="Test_x5F_Element3">
</g>
<g id="Test_x5F_Element2">
</g>
<g id="Test_x5F_Element1">
	<path class="st1" d="M533.5,559.7h-78.3c-11.7,0-21.3-9.5-21.3-21.3v-78.3c0-11.7,9.5-21.3,21.3-21.3h78.3
		c11.7,0,21.3,9.5,21.3,21.3v78.3C554.8,550.2,545.3,559.7,533.5,559.7z"/>
	<g>
		<path class="st1" d="M381.4,559.7h-78.3c-11.7,0-21.3-9.5-21.3-21.3v-78.3c0-11.7,9.5-21.3,21.3-21.3h78.3
			c11.7,0,21.3,9.5,21.3,21.3v78.3C402.7,550.2,393.2,559.7,381.4,559.7z"/>
	</g>
	<g>
		<path class="st1" d="M542.2,243.9h-78.3c-11.7,0-21.3-9.5-21.3-21.3v-78.3c0-11.7,9.5-21.3,21.3-21.3h78.3
			c11.7,0,21.3,9.5,21.3,21.3v78.3C563.5,234.3,553.9,243.9,542.2,243.9z"/>
	</g>
	<g>
		<path class="st1" d="M701.3,394.8H623c-11.7,0-21.3-9.5-21.3-21.3v-78.3c0-11.7,9.5-21.3,21.3-21.3h78.3
			c11.7,0,21.3,9.5,21.3,21.3v78.3C722.6,385.3,713,394.8,701.3,394.8z"/>
	</g>
	<g>
		<polygon class="st3" points="447.9,473.4 494.6,449.6 541.1,473.8 540.9,521.3 494.1,549 447.7,520.9 		"/>
		<polygon class="st4" points="540.9,521.3 494.2,549 494.4,501.5 541.1,473.8 		"/>
		<polyline class="st5" points="447.9,473.4 494.6,449.6 541.1,473.8 		"/>
		<polygon class="st6" points="447.7,520.9 494.1,549 494.3,501.5 447.9,473.4 		"/>
		<polygon class="st7" points="531,517 504.2,532.9 504.3,505.7 531.1,489.8 		"/>
		<line class="st7" x1="504.3" y1="505.7" x2="531" y2="517"/>
		<line class="st7" x1="531.1" y1="489.8" x2="504.2" y2="532.9"/>
		<polygon class="st6" points="456.6,517.2 485.2,534.5 485.3,505.2 456.8,487.9 		"/>
		<line class="st5" x1="456.8" y1="487.9" x2="485.2" y2="534.5"/>
		<line class="st5" x1="456.6" y1="517.2" x2="485.3" y2="505.2"/>
		<polygon class="st8" points="495.1,489.3 469.4,474.8 495.1,461.1 521,475.2 		"/>
		<line class="st8" x1="495.1" y1="461.1" x2="495.1" y2="489.3"/>
		<line class="st8" x1="469.4" y1="474.8" x2="521" y2="475.2"/>
	</g>
</g>
<g id="Test_name">
	<circle class="st1" cx="925.6" cy="83.5" r="38.6"/>
	<g>
		<text transform="matrix(1 0 0 1 974.4148 80.6587)" class="st9 st10 st11">Paired</text>
		<text transform="matrix(1 0 0 1 974.4148 105.7587)" class="st9 st10 st11">Associates</text>
	</g>
	<g>
		<text transform="matrix(1 0 0 1 907.9246 95.1021)" class="st9 st10 st12">pa</text>
	</g>
</g>
<g id="Instruction_Icon">
</g>
<g id="Quit_Icon">
	<path class="st2" d="M776.8,34.7c0,0.4-0.1,0.8-0.4,1.1l-2.2,2.2c-0.3,0.3-0.7,0.4-1.1,0.4c-0.4,0-0.8-0.1-1.1-0.4l-4.7-4.7
		l-4.7,4.7c-0.3,0.3-0.7,0.4-1.1,0.4s-0.8-0.1-1.1-0.4l-2.2-2.2c-0.3-0.3-0.4-0.7-0.4-1.1c0-0.4,0.1-0.8,0.4-1.1l4.7-4.7l-4.7-4.7
		c-0.3-0.3-0.4-0.7-0.4-1.1s0.1-0.8,0.4-1.1l2.2-2.2c0.3-0.3,0.7-0.4,1.1-0.4s0.8,0.2,1.1,0.4l4.7,4.7l4.7-4.7
		c0.3-0.3,0.7-0.4,1.1-0.4c0.4,0,0.8,0.2,1.1,0.4l2.2,2.2c0.3,0.3,0.4,0.7,0.4,1.1s-0.1,0.8-0.4,1.1l-4.7,4.7l4.7,4.7
		C776.6,33.9,776.8,34.3,776.8,34.7z"/>
</g>
<g id="Audio_Controls">
	<g id="Layer_23">
		<rect x="804.8" y="52.3" class="st1" width="6.5" height="130"/>
	</g>
	<g id="Layer_19">
		<rect x="804.8" y="123.5" class="st13" width="6.5" height="58.8"/>
	</g>
	<g id="Layer_18">
		<path class="st2" d="M812.5,19.9v17.4c0,0.3-0.1,0.5-0.3,0.7s-0.4,0.3-0.7,0.3s-0.5-0.1-0.7-0.3l-5.3-5.3h-4.2
			c-0.3,0-0.5-0.1-0.7-0.3s-0.3-0.4-0.3-0.7v-6.1c0-0.3,0.1-0.5,0.3-0.7s0.4-0.3,0.7-0.3h4.2l5.3-5.3c0.2-0.2,0.4-0.3,0.7-0.3
			s0.5,0.1,0.7,0.3C812.4,19.4,812.5,19.6,812.5,19.9z M818,26.3c0.5,0.7,0.7,1.5,0.7,2.3s-0.2,1.6-0.7,2.3
			c-0.5,0.7-1.1,1.2-1.8,1.5c-0.1,0.1-0.2,0.1-0.4,0.1c-0.3,0-0.5-0.1-0.7-0.3s-0.3-0.4-0.3-0.7c0-0.2,0.1-0.4,0.2-0.6
			c0.1-0.2,0.3-0.3,0.5-0.4s0.4-0.2,0.5-0.4c0.2-0.1,0.3-0.3,0.5-0.6c0.1-0.2,0.2-0.5,0.2-0.9s-0.1-0.7-0.2-0.9
			c-0.1-0.2-0.3-0.4-0.5-0.6c-0.2-0.1-0.4-0.3-0.5-0.4c-0.2-0.1-0.3-0.2-0.5-0.4c-0.1-0.2-0.2-0.3-0.2-0.6c0-0.3,0.1-0.5,0.3-0.7
			s0.4-0.3,0.7-0.3c0.2,0,0.3,0,0.4,0.1C816.9,25.1,817.5,25.6,818,26.3z"/>
	</g>
	<g id="Layer_21">
		<circle class="st14" cx="808" cy="121.9" r="6.8"/>
	</g>
</g>
<g id="Score">
	<circle class="st15" cx="999" cy="650.6" r="117.8"/>
	<g id="ScoreNum">
		<g>
			<text transform="matrix(1 0 0 1 963.24 606.9478)" class="st16 st10 st17">SCORE</text>
		</g>
		<text transform="matrix(0.7899 0 0 1 965.8652 706.5264)" class="st9 st10 st18">03</text>
	</g>
</g>
<g id="LevelMeter">
	<g id="MeterBack">
		<circle class="st0" cx="998.8" cy="343.7" r="117.8"/>
		<path class="st15" d="M1087.2,422.1c-21.6,24.4-53.2,39.7-88.3,39.7c-32.1,0-61.2-12.8-82.5-33.6
			C920.7,423.8,1090,418.9,1087.2,422.1z"/>
		<polyline class="st0" points="1079.4,435.2 1046.1,398.9 1062.7,382.7 1095,414.8 		"/>
		<ellipse transform="matrix(0.7071 -0.7071 0.7071 0.7071 17.0465 893.383)" class="st0" cx="1086.9" cy="426.1" rx="13" ry="13"/>
		<polyline class="st0" points="920.5,435.2 953.7,398.9 937.1,382.7 904.8,414.8 		"/>
		
			<ellipse transform="matrix(0.7071 -0.7071 0.7071 0.7071 -34.8866 768.0176)" class="st0" cx="909.6" cy="426.1" rx="13" ry="13"/>
	</g>
	<g id="Meter_x5F_Ring">
		
			<linearGradient id="SVGID_1_" gradientUnits="userSpaceOnUse" x1="889.2" y1="504.1486" x2="1108.4" y2="504.1486" gradientTransform="matrix(1 0 0 -1 0 826)">
			<stop  offset="8.004897e-02" style="stop-color:#39B54A"/>
			<stop  offset="0.3967" style="stop-color:#F48270"/>
			<stop  offset="0.7246" style="stop-color:#F5841F"/>
			<stop  offset="0.9481" style="stop-color:#ED174B"/>
		</linearGradient>
		<path class="st19" d="M914.4,407.2c-13.3-17.7-21.2-39.7-21.2-63.5c0-58.3,47.3-105.6,105.6-105.6s105.6,47.3,105.6,105.6
			c0,22.9-7.3,44.1-19.7,61.4"/>
	</g>
	<g id="Ellipse_x5F_Meter">
		
			<radialGradient id="SVGID_2_" cx="998.8" cy="482.4" r="105.6" gradientTransform="matrix(1 0 0 -1 0 826)" gradientUnits="userSpaceOnUse">
			<stop  offset="0.5456" style="stop-color:#70627F"/>
			<stop  offset="1" style="stop-color:#5A4E66"/>
		</radialGradient>
		<circle class="st20" cx="998.8" cy="343.6" r="105.6"/>
	</g>
	<g id="Level_Txt">
		<text transform="matrix(1 0 0 1 966.0232 299.9443)" class="st16 st10 st17">level</text>
	</g>
	<g id="Level_No.">
		<text transform="matrix(0.7899 0 0 1 965.71 398.5889)" class="st9 st10 st18">09</text>
	</g>
</g>
<g id="LevelMeter_copy">
	<g id="MeterBack_copy">
	</g>
	<g id="Meter_x5F_Ring_copy">
	</g>
	<g id="Ellipse_x5F_Meter_copy">
	</g>
	<g id="Level_Txt_copy">
	</g>
	<g id="Level_No._copy">
	</g>
</g>
<g id="Lifeline">
	<g id="Panel_x5F_Bar">
		<path class="st1" d="M238,25.7H36c-7,0-12.8,5.7-12.8,12.8l0,0c0,7,5.7,12.8,12.8,12.8h202V25.7z"/>
	</g>
	<g id="Layer_29">
		<circle class="st1" cx="144.4" cy="40" r="20.7"/>
	</g>
	<circle class="st1" cx="194.5" cy="38.4" r="20.7"/>
	<circle class="st1" cx="244.6" cy="39.1" r="20.7"/>
	<path class="st13" d="M144.4,50.4c-0.2,0-0.4-0.1-0.6-0.2l-8.5-8.2c-0.1-0.1-0.2-0.2-0.4-0.4s-0.4-0.5-0.8-0.9
		c-0.3-0.4-0.7-0.9-0.9-1.3c-0.3-0.5-0.5-1-0.7-1.6s-0.3-1.3-0.3-1.9c0-2,0.6-3.6,1.7-4.7c1.2-1.1,2.7-1.7,4.8-1.7
		c0.6,0,1.1,0.1,1.7,0.3c0.6,0.2,1.1,0.5,1.6,0.8s0.9,0.6,1.3,0.9c0.4,0.3,0.7,0.6,1,0.9c0.3-0.3,0.7-0.6,1-0.9
		c0.4-0.3,0.8-0.6,1.3-0.9s1-0.6,1.6-0.8c0.6-0.2,1.2-0.3,1.7-0.3c2,0,3.6,0.6,4.8,1.7c1.2,1.1,1.7,2.7,1.7,4.7s-1,4-3.1,6.1
		l-8.5,8.2C144.8,50.3,144.6,50.4,144.4,50.4z"/>
	<text transform="matrix(1 0 0 1 182.3088 48.2305)" class="st13 st21 st22 st23"></text>
</g>
<g id="HeartGreen">
	<text transform="matrix(1 0 0 1 232.4485 49.5801)" class="st0 st21 st22 st23"></text>
</g>
<g id="LifeLIne_x5F_Txt">
	<text transform="matrix(1 0 0 1 33.0827 44.7803)" class="st9 st10 st24">lifeline</text>
</g>
<g id="Layer_30">
</g>
<g>
	<path class="st25" d="M492.4,181.4c0-3.8,2-7.1,5.1-8.9L485,149.8c-11.2,6.2-18.8,18.1-18.8,31.6H492.4z"/>
	<path class="st25" d="M508.8,190.8c-3.3,1.9-7.2,1.8-10.4,0.1l-13.7,22.1c11.1,6.5,25.2,7,37.2,0.2L508.8,190.8z"/>
	<path class="st25" d="M508.7,171.3c3.3,1.9,5.2,5.3,5.3,8.8l26.2,0.7c0.1-12.7-6.5-25.1-18.4-31.9L508.7,171.3z"/>
	<ellipse class="st25" cx="503.3" cy="181.4" rx="7.4" ry="7.3"/>
</g>
<g>
	<g>
		<polygon class="st26" points="676.2,328.6 671.4,365 685.1,341.6 694.5,364.8 694.4,329.7 		"/>
		<path class="st26" d="M676,328.6l-4.8,36.3c0,0.1,0.1,0.1,0.1,0.2c0.1,0,0.2,0,0.2-0.1l13.7-23.3c0,0.1-0.1,0.1-0.2,0.1
			c-0.1,0-0.2,0-0.2-0.1l9.4,23.2c0,0.1,0.1,0.1,0.2,0.1c0.1,0,0.2-0.1,0.2-0.2l-0.1-35.2c0-0.1-0.1-0.1-0.2-0.2l-18.2-1
			C676.1,328.5,676,328.5,676,328.6z M694.2,329.7l0.1,35.2c0-0.1,0.1-0.1,0.2-0.2c0.1,0,0.2,0,0.2,0.1l-9.4-23.2
			c0-0.1-0.1-0.1-0.2-0.1c-0.1,0-0.2,0-0.2,0.1l-13.7,23.3c0-0.1,0.1-0.1,0.2-0.1c0.1,0,0.2,0.1,0.1,0.2l4.8-36.3
			c0,0.1-0.1,0.1-0.2,0.1l18.2,1C694.3,329.8,694.2,329.7,694.2,329.7z"/>
		<polygon class="st26" points="676.4,327.8 694.5,327.2 684.4,312 643.6,310.5 670.5,317.3 		"/>
		<path class="st26" d="M676.4,328l18.2-0.6c0.1,0,0.1,0,0.2-0.1c0,0,0-0.1,0-0.2l-10.2-15.2c0,0-0.1-0.1-0.2-0.1l-40.8-1.5
			c-0.1,0-0.2,0.1-0.2,0.1c0,0.1,0,0.2,0.1,0.2l26.9,6.8c-0.1,0-0.1,0-0.1-0.1l5.8,10.5C676.2,327.9,676.3,328,676.4,328z
			 M670.6,317.2l-26.9-6.8c0.1,0,0.1,0.1,0.1,0.2c0,0.1-0.1,0.1-0.2,0.1l40.8,1.5c-0.1,0-0.1,0-0.2-0.1l10.2,15.2c0,0,0-0.1,0-0.1
			c0,0,0.1-0.1,0.2-0.1l-18.2,0.6c0.1,0,0.2,0,0.2,0.1l-5.8-10.5C670.7,317.2,670.6,317.2,670.6,317.2z"/>
		<path class="st26" d="M682,304.9c0.3,3-2.5,5.5-6.2,5.8c-3.7,0.2-6.9-2-7.2-4.9c-0.3-3,2.5-5.5,6.2-5.8
			C678.5,299.7,681.7,301.9,682,304.9z"/>
		<path class="st26" d="M631.7,330l5.7,33.2c0.1,0.5,0.6,0.9,1.3,0.9l20.2,0c0.7,0,1.2-0.4,1.3-0.9l4.5-33.3l0,0
			c0.1-0.6-0.4-1.1-1.1-1.1c-0.7-0.1-1.3,0.3-1.4,0.9l0,0l-4.5,33.3c0.1-0.5,0.6-0.9,1.3-0.9l-20.2,0c0.6,0,1.2,0.4,1.3,0.9
			l-5.7-33.2l0,0c-0.1-0.6-0.7-1-1.5-0.9C632.1,328.9,631.6,329.4,631.7,330L631.7,330z"/>
		<path class="st26" d="M631.5,331.1l33.6,0.1l0,0c1.1,0,1.9-0.7,1.9-1.5c0-0.9-0.9-1.5-1.9-1.6l0,0l-33.6-0.1l0,0
			c-1.1,0-1.9,0.7-1.9,1.5C629.6,330.4,630.4,331.1,631.5,331.1L631.5,331.1z"/>
		<path class="st26" d="M644.8,362.3l-2.8-32.5l0,0c0-0.6-0.7-1-1.4-1c-0.7,0-1.2,0.5-1.2,1.1l0,0l2.8,32.5l0,0c0,0.6,0.7,1,1.4,1
			C644.3,363.4,644.9,362.9,644.8,362.3L644.8,362.3z"/>
		<path class="st26" d="M646.7,330.2l0.6,32.4l0,0c0,0.6,0.6,1,1.3,1c0.7,0,1.3-0.5,1.3-1l0,0l-0.6-32.3l0,0c0-0.6-0.6-1-1.3-1
			C647.3,329.2,646.7,329.7,646.7,330.2L646.7,330.2z"/>
		<path class="st26" d="M655.2,362.8l1.8-32.6l0,0c0-0.6-0.5-1.1-1.2-1.1c-0.7,0-1.3,0.4-1.3,1l0,0l-1.8,32.6l0,0
			c0,0.6,0.5,1.1,1.2,1.1C654.6,363.8,655.2,363.4,655.2,362.8L655.2,362.8z"/>
		<path class="st26" d="M638.6,324.8c1.1-0.9,6.6-5.6,5.9-7.7l-0.8,0.6c0.4,0.1,10,2.5,16.3,1.8l-0.7-0.5c0,0.1,0.1,1.8-2.9,2.8
			c-3.9,1.3-3.8,3.6-3.8,3.7l1.1-0.4c-0.1-0.1-3-2-9.1,0.1l0.2,0c-3.5,0.4-6.1-1.2-6.1-1.2L638.6,324.8z M645,326.2
			c5.3-1.8,7.6-0.4,7.7-0.3l0,0l1.1,0.8l0-1.2c0-0.1,0-1.7,3-2.7c3.9-1.3,3.7-3.7,3.7-3.8l-0.1-0.5l-0.7,0.1
			c-5.9,0.7-15.6-1.7-15.7-1.8l0,0l-1.1-0.3l0.3,0.9c0.3,1.1-3.1,4.6-5.6,6.7l0,0l0,0l-0.4,0.4l0.5,0.3c0.1,0.1,3,1.9,7.1,1.5
			L645,326.2L645,326.2z"/>
		<path class="st26" d="M659.4,318.9l-2.2-2.5l-0.4-0.4l-0.5,0.3c0,0-3.3,1.7-5.4,1.9l0.1,1c2.5-0.2,5.9-2,6-2l-0.9-0.1l2.2,2.5
			L659.4,318.9z"/>
		<path class="st26" d="M634.2,335.4l28.2-0.1l0,0c0.7,0,1.3-0.5,1.3-1c0-0.6-0.6-1-1.3-1l0,0l-28.2,0.1l0,0c-0.7,0-1.3,0.5-1.3,1
			C632.9,335,633.5,335.4,634.2,335.4L634.2,335.4z"/>
		<path class="st26" d="M634.9,340.2l26.5-0.1l0,0c0.7,0,1.3-0.5,1.3-1c0-0.6-0.6-1-1.3-1l0,0l-26.5,0.1l0,0c-0.7,0-1.3,0.5-1.3,1
			C633.6,339.8,634.2,340.2,634.9,340.2L634.9,340.2z"/>
		<path class="st26" d="M635.8,345.3L661,345l0,0c0.7,0,1.3-0.5,1.3-1c0-0.6-0.6-1-1.3-1l0,0l-25.2,0.2l0,0c-0.7,0-1.3,0.5-1.3,1
			C634.5,344.8,635.1,345.3,635.8,345.3L635.8,345.3z"/>
		<path class="st26" d="M636.6,350.7l23.8-0.1l0,0c0.7,0,1.3-0.5,1.3-1c0-0.6-0.6-1-1.3-1l0,0l-23.8,0.1l0,0c-0.7,0-1.3,0.5-1.3,1
			C635.3,350.2,635.9,350.7,636.6,350.7L636.6,350.7z"/>
		<path class="st26" d="M637.7,356.4l22,0l0,0c0.7,0,1.3-0.5,1.3-1c0-0.6-0.6-1-1.3-1l0,0l-22,0l0,0c-0.7,0-1.3,0.5-1.3,1
			C636.4,356,637,356.4,637.7,356.4L637.7,356.4z"/>
	</g>
</g>
<g>
	<g>
		<path class="st27" d="M320.5,525.8c-2.7,0-4.8-2.9-4.8-6.5l0,0v-40.1c0-3.6,2.2-6.5,4.8-6.5l0,0H364c2.7,0,4.8,2.9,4.8,6.5l0,0
			v40.1c0,3.6-2.2,6.5-4.8,6.5l0,0H320.5L320.5,525.8z M319,479.2v40.1c0,1.1,0.7,2,1.5,2l0,0H364c0.8,0,1.5-0.9,1.5-2l0,0v-40.1
			c0-1.1-0.7-2-1.5-2l0,0h-43.5C319.7,477.2,319,478.1,319,479.2L319,479.2z"/>
	</g>
	<g>
		<polygon class="st27" points="340.9,497.8 364.9,474.2 366.9,477.9 342.8,501.5 340.9,497.8 		"/>
	</g>
	<g>
		<g>
			<line class="st27" x1="341.8" y1="499.6" x2="318.6" y2="477"/>
		</g>
		<g>
			<path class="st27" d="M342.8,497.8c-7.7-7.5-15.5-15.1-23.2-22.6c-1.7-1.7-3.7,2-1.9,3.7c7.7,7.5,15.5,15.1,23.2,22.6
				C342.6,503.2,344.5,499.5,342.8,497.8L342.8,497.8z"/>
		</g>
	</g>
</g>
</svg>
