<?xml version="1.0" encoding="utf-8"?>
<!-- Generator: Adobe Illustrator 21.0.0, SVG Export Plug-In . SVG Version: 6.00 Build 0)  -->
<svg version="1.1" id="Layer_1" xmlns="http://www.w3.org/2000/svg" xmlns:xlink="http://www.w3.org/1999/xlink" x="0px" y="0px"
	 viewBox="0 0 1158 830" style="enable-background:new 0 0 1158 830;" xml:space="preserve">
<style type="text/css">
	.st0{fill:#3D3232;}
	.st1{fill:#BC5A5A;}
	.st2{fill:#F26F6A;}
	.st3{fill:#944D4D;}
	.st4{fill:#C2DBF2;}
	.st5{fill:#F1F2F2;}
	.st6{fill:#233347;}
	.st7{fill:#FFFFFF;}
	.st8{clip-path:url(#SVGID_3_);fill:url(#SVGID_4_);}
	.st9{fill:#51B848;}
	.st10{fill:url(#SVGID_5_);}
	.st11{clip-path:url(#SVGID_7_);fill:url(#SVGID_8_);}
	.st12{opacity:0.5;}
	.st13{fill:none;stroke:#FFFFFF;stroke-width:2;stroke-miterlimit:10;}
	.st14{fill:none;stroke:#CADE88;stroke-miterlimit:10;}
	.st15{fill:#CADD88;stroke:#CADD88;stroke-miterlimit:10;}
	.st16{fill:none;stroke:#CADE88;stroke-width:4;stroke-miterlimit:10;}
	.st17{fill:none;stroke:#F26F6A;stroke-miterlimit:10;}
	.st18{fill:#F26F6A;stroke:#F26F6A;stroke-miterlimit:10;}
	.st19{fill:none;stroke:#F26F6A;stroke-width:5;stroke-miterlimit:10;}
</style>
<title>SpatialSpan</title>
<desc>Created with Sketch.</desc>
<g id="Page-1">
	<g id="SpatialSpan">
		<g id="Background_x5F_Panel_x5F_L">
			<rect id="Rectangle-path" y="0.8" class="st0" width="847.9" height="828.2"/>
		</g>
		<g id="Bottom_x5F_Panel_x5F_L" transform="translate(847.000000, 163.000000)">
			<rect id="Rectangle-path_1_" x="0.8" y="0.9" class="st1" width="309.8" height="665.2"/>
		</g>
		<g id="Top_x5F_Panel_x5F_L" transform="translate(847.000000, 0.000000)">
			<rect id="Rectangle-path_2_" x="0.8" y="0.9" class="st2" width="309.8" height="163"/>
		</g>
		<g id="Test_name" transform="translate(905.000000, 45.000000)">
			<circle id="Oval" class="st1" cx="39.7" cy="39" r="38.8"/>
		</g>
		<g id="Audio_Controls" transform="translate(802.000000, 19.000000)">
			<g id="Layer_18">
				<path id="Shape_17_" class="st2" d="M13,1.2v17.5c0,0.3-0.1,0.5-0.3,0.7s-0.4,0.3-0.7,0.3s-0.5-0.1-0.7-0.3L6,14.1H1.8
					c-0.3,0-0.5-0.1-0.7-0.3s-0.3-0.4-0.3-0.7V6.9c0-0.3,0.1-0.5,0.3-0.7C1.3,6,1.5,5.9,1.8,5.9H6l5.3-5.3c0.2-0.2,0.4-0.3,0.7-0.3
					s0.5,0.1,0.7,0.3C12.9,0.7,13,0.9,13,1.2z M18.5,7.7c0.5,0.7,0.7,1.5,0.7,2.3s-0.2,1.6-0.7,2.3s-1.1,1.2-1.8,1.5
					c-0.1,0.1-0.2,0.1-0.4,0.1c-0.3,0-0.5-0.1-0.7-0.3s-0.3-0.4-0.3-0.7c0-0.2,0.1-0.4,0.2-0.6s0.3-0.3,0.5-0.4
					c0.2-0.1,0.4-0.2,0.5-0.4c0.2-0.1,0.3-0.3,0.5-0.6c0.1-0.2,0.2-0.6,0.2-0.9c0-0.4-0.1-0.7-0.2-0.9s-0.3-0.4-0.5-0.6
					c-0.2-0.1-0.4-0.3-0.5-0.4c-0.2-0.1-0.3-0.2-0.5-0.4c-0.1-0.2-0.2-0.3-0.2-0.6c0-0.3,0.1-0.5,0.3-0.7s0.4-0.3,0.7-0.3
					c0.2,0,0.3,0,0.4,0.1C17.4,6.4,18,6.9,18.5,7.7z"/>
			</g>
		</g>
		<g>
			<g>
				<path class="st3" d="M1079.7,680.4c0,46.4-37.7,84.1-84.1,84.1s-84.1-37.7-84.1-84.1s37.7-84.1,84.1-84.1
					S1079.7,634,1079.7,680.4"/>
			</g>
		</g>
		<g>
			<path class="st4" d="M973.4,645.5c0.8,0,1.4-0.2,1.7-0.6c0.5-0.5,0.6-0.9,0.6-1.7c0-0.3,0-0.8-0.2-0.9c-0.2-0.3-0.3-0.6-0.5-0.8
				c-0.2-0.2-0.5-0.5-0.8-0.6c-0.3-0.2-0.5-0.5-0.8-0.6c-0.3-0.2-0.6-0.5-0.9-0.8c-0.3-0.3-0.6-0.5-0.9-0.9
				c-0.3-0.5-0.5-0.8-0.8-1.2c-0.2-0.5-0.3-0.9-0.3-1.6c0-0.6,0.2-1.1,0.3-1.6s0.5-0.9,0.8-1.2c0.3-0.3,0.8-0.6,1.2-0.8
				c0.5-0.2,1.1-0.3,1.6-0.3c0.6,0,1.1,0,1.6,0.2s0.9,0.3,1.2,0.5l-0.6,1.6c-0.3-0.2-0.6-0.3-0.9-0.5c-0.3-0.2-0.8-0.2-1.1-0.2
				c-0.6,0-1.2,0.2-1.7,0.6c-0.5,0.5-0.6,0.9-0.6,1.6c0,0.5,0,0.8,0.2,1.1s0.3,0.6,0.5,0.8c0.2,0.3,0.5,0.5,0.8,0.6s0.6,0.5,0.9,0.6
				c0.3,0.2,0.6,0.5,0.9,0.6c0.3,0.3,0.6,0.5,0.9,0.9c0.3,0.5,0.5,0.8,0.6,1.1c0.2,0.5,0.3,0.9,0.3,1.6c0,0.5-0.2,1.1-0.3,1.6
				c-0.2,0.5-0.5,0.9-0.8,1.2c-0.3,0.3-0.8,0.6-1.4,0.9c-0.6,0.3-1.2,0.3-1.9,0.3c-0.6,0-1.2,0-1.7-0.2s-0.9-0.3-1.4-0.6l0.6-1.6
				c0.3,0.2,0.8,0.5,1.1,0.5C972.5,645.5,973,645.5,973.4,645.5z"/>
			<path class="st4" d="M985,647.1c-1.7,0-3-0.6-3.9-1.9c-0.9-1.2-1.4-3.3-1.4-5.9c0-1.4,0.2-2.5,0.3-3.4c0.3-0.9,0.6-1.7,1.1-2.3
				c0.5-0.6,0.9-0.9,1.6-1.2c0.6-0.3,1.2-0.3,2-0.3c0.6,0,1.2,0.2,1.7,0.3c0.5,0.2,0.9,0.3,1.2,0.6l-0.6,1.6
				c-0.3-0.2-0.6-0.5-1.1-0.5c-0.3-0.2-0.8-0.2-1.4-0.2c-1.1,0-1.9,0.5-2.5,1.4c-0.5,0.9-0.8,2.3-0.8,4.4c0,2,0.3,3.4,0.8,4.5
				c0.5,1.1,1.4,1.6,2.6,1.6c0.6,0,1.1,0,1.4-0.2c0.3-0.2,0.8-0.3,1.1-0.5l0.5,1.6c-0.3,0.3-0.8,0.5-1.2,0.6
				C985.9,647.4,985.6,647.1,985,647.1z"/>
			<path class="st4" d="M999.6,639.6c0,1.1-0.2,2.2-0.3,3.1c-0.2,0.9-0.5,1.7-0.9,2.3s-0.9,1.2-1.6,1.6c-0.6,0.3-1.4,0.5-2.3,0.5
				s-1.7-0.2-2.3-0.5c-0.6-0.3-1.2-0.9-1.6-1.6c-0.5-0.6-0.8-1.4-0.9-2.3c-0.2-0.9-0.3-2-0.3-3.1c0-1.1,0.2-2.2,0.3-3.1
				c0.2-0.9,0.5-1.7,0.9-2.3s0.9-1.2,1.6-1.6c0.6-0.3,1.4-0.6,2.3-0.6s1.7,0.2,2.3,0.6c0.6,0.3,1.2,0.9,1.6,1.6
				c0.5,0.6,0.8,1.4,0.9,2.3C999.6,637.4,999.6,638.5,999.6,639.6z M997.6,639.6c0-0.9,0-1.7-0.2-2.3c-0.2-0.8-0.3-1.4-0.5-1.9
				s-0.6-0.9-0.9-1.2c-0.5-0.3-0.9-0.5-1.4-0.5c-0.5,0-1.1,0.2-1.4,0.5c-0.5,0.3-0.8,0.8-0.9,1.2c-0.2,0.5-0.5,1.1-0.6,1.9
				s-0.2,1.6-0.2,2.3c0,0.8,0,1.7,0.2,2.3s0.3,1.4,0.6,1.9c0.3,0.5,0.6,0.9,0.9,1.2c0.5,0.3,0.9,0.5,1.4,0.5c0.5,0,1.1-0.2,1.4-0.5
				c0.5-0.3,0.8-0.6,0.9-1.2c0.3-0.5,0.5-1.1,0.5-1.9C997.6,641.3,997.6,640.4,997.6,639.6z"/>
			<path class="st4" d="M1002.6,632.5c0.9-0.3,1.9-0.3,2.8-0.3c0.8,0,1.4,0.2,2,0.3c0.6,0.2,1.1,0.5,1.6,0.8s0.8,0.8,0.9,1.4
				c0.2,0.6,0.3,1.2,0.3,2c0,0.9-0.2,1.9-0.6,2.5c-0.3,0.6-0.9,1.1-1.6,1.4c0.2,0.3,0.3,0.6,0.6,1.1c0.3,0.5,0.5,1.1,0.8,1.6
				c0.3,0.6,0.5,1.2,0.8,1.7c0.3,0.6,0.5,1.2,0.6,1.7h-1.9c-0.2-0.5-0.3-0.9-0.6-1.4c-0.2-0.5-0.5-1.1-0.8-1.6s-0.5-1.1-0.8-1.6
				s-0.5-0.9-0.6-1.2c-0.2,0-0.5,0-0.6,0c-0.3,0-0.5,0-0.8,0h-0.5v5.6h-1.9v-14H1002.6z M1004.4,639.6h0.8c0.9,0,1.7-0.2,2.2-0.6
				c0.5-0.5,0.8-1.2,0.8-2.3c0-0.5,0-0.9-0.2-1.4c-0.2-0.3-0.3-0.6-0.6-0.9c-0.3-0.2-0.5-0.3-0.9-0.5c-0.3-0.2-0.8-0.2-1.1-0.2
				c-0.3,0-0.6,0-0.9,0L1004.4,639.6L1004.4,639.6z"/>
			<path class="st4" d="M1013.3,646.8v-14.5h6.5v1.6h-4.7v4.5h4.2v1.6h-4.2v5.1h5v1.6h-6.9V646.8z"/>
		</g>
		<g>
			<path class="st5" d="M974.7,693.8c0-4.8,0.2-8.7,0.5-12c0.3-3.3,0.9-5.9,1.6-7.8c0.8-2,1.7-3.4,2.8-4.2c1.1-0.9,2.5-1.2,4-1.2
				c1.6,0,3,0.5,4,1.2c1.1,0.9,2,2.3,2.8,4.2c0.8,2,1.2,4.5,1.6,7.8c0.3,3.3,0.5,7.3,0.5,12c0,4.7-0.2,8.7-0.5,12
				c-0.3,3.3-0.9,5.9-1.6,7.8c-0.8,2-1.7,3.4-2.8,4.2c-1.1,0.9-2.5,1.2-4,1.2c-1.6,0-3-0.5-4-1.2c-1.1-0.9-2-2.3-2.8-4.2
				c-0.8-2-1.2-4.5-1.6-7.8C974.8,702.5,974.7,698.5,974.7,693.8z M987.8,693.8c0-3.9,0-7-0.2-9.7c-0.2-2.5-0.3-4.7-0.6-6.2
				c-0.3-1.6-0.8-2.6-1.2-3.3c-0.5-0.6-1.1-0.9-1.9-0.9s-1.4,0.3-1.9,0.9c-0.5,0.6-0.9,1.7-1.2,3.3c-0.3,1.6-0.5,3.6-0.6,6.2
				c-0.2,2.6-0.2,5.8-0.2,9.7s0,7,0.2,9.7s0.3,4.7,0.6,6.2c0.3,1.6,0.8,2.6,1.2,3.3c0.5,0.6,1.1,0.9,1.9,0.9s1.4-0.3,1.9-0.9
				c0.5-0.6,0.9-1.7,1.2-3.3c0.3-1.6,0.5-3.6,0.6-6.2C987.8,700.8,987.8,697.5,987.8,693.8z"/>
			<path class="st5" d="M1009.9,691.9c1.9,0.8,3.3,2.3,4.4,4.5c1.1,2.2,1.6,4.8,1.6,8.3c0,4.5-0.9,8.1-2.6,10.6
				c-1.7,2.6-4.4,3.9-7.8,3.9c-1.4,0-2.6-0.3-4-0.8c-1.2-0.5-2.5-1.2-3.4-2l1.2-5c0.8,0.6,1.7,1.2,2.6,1.7c0.9,0.5,1.9,0.8,3,0.8
				c1.9,0,3.4-0.8,4.4-2.2c1.1-1.4,1.6-3.9,1.6-7c0-3.3-0.6-5.6-1.7-7.3c-1.1-1.6-3-2.5-5.6-2.5h-1.2v-5.1h1.2c2.2,0,3.9-0.8,5-2.2
				c1.1-1.4,1.6-3.6,1.6-6.2c0-2.5-0.5-4.4-1.2-5.6c-0.8-1.2-2-1.9-3.4-1.9c-0.9,0-1.9,0.3-2.8,0.8s-1.6,1.1-2.2,1.7l-1.9-4.4
				c0.9-1.1,2-2,3.4-2.5c1.4-0.5,2.6-0.8,3.9-0.8c2.8,0,5.1,1.1,6.7,3.4c1.6,2.3,2.3,5.3,2.3,9c0,2.6-0.5,5-1.2,6.7
				C1012.5,689.6,1011.4,691,1009.9,691.9z"/>
		</g>
		<g>
			<g>
				<path class="st6" d="M1079.2,288.3c0,46.4-37.7,84.1-84.1,84.1c-46.4,0-84.1-37.7-84.1-84.1s37.7-84.1,84.1-84.1
					C1041.5,204.2,1079.2,241.9,1079.2,288.3"/>
			</g>
			<g>
				<path class="st3" d="M1058.3,344.4c-15.4,17.4-38,28.5-63.2,28.5c-22.9,0-43.8-9.2-59-24C939.2,345.6,1060.3,342,1058.3,344.4"
					/>
			</g>
			<g>
				<polyline class="st6" points="1052.9,353.9 1029,327.8 1040.9,316.2 1064.1,339.2 				"/>
			</g>
			<g>
				<path class="st6" d="M1064.9,340.6c3.6,3.6,3.6,9.5,0,13.1c-3.6,3.6-9.5,3.6-13.1,0c-3.6-3.6-3.6-9.5,0-13.1
					C1055.2,337,1061.1,337,1064.9,340.6"/>
			</g>
			<g>
				<polyline class="st6" points="939,353.9 962.9,327.8 951,316.2 927.8,339.2 				"/>
			</g>
			<g>
				<path class="st6" d="M924.7,340.6c-3.6,3.6-3.6,9.5,0,13.1s9.5,3.6,13.1,0c3.6-3.6,3.6-9.5,0-13.1
					C934.2,337,928.4,337,924.7,340.6"/>
			</g>
			<g>
				<path class="st7" d="M954.6,228.4c-19.3,13-31.9,35-31.9,60.1c0,16.4,5.5,31.5,14.6,43.6l-5,3.6l0,0
					c-10-13.2-15.9-29.6-15.9-47.3c0-26,12.6-49.1,32.1-63.4"/>
			</g>
			<path class="st7" d="M995.1,209.7"/>
		</g>
		<g>
			<g>
				<defs>
					<path id="SVGID_1_" d="M919.6,288.3c0,41.7,33.8,75.5,75.5,75.5c41.7,0,75.5-33.8,75.5-75.5s-33.8-75.5-75.5-75.5
						C953.5,212.8,919.6,246.6,919.6,288.3"/>
				</defs>
				<radialGradient id="SVGID_2_" cx="995.093" cy="288.293" r="75.5279" gradientUnits="userSpaceOnUse">
					<stop  offset="0" style="stop-color:#F26F6A"/>
					<stop  offset="1" style="stop-color:#BC5A5A"/>
				</radialGradient>
				<use xlink:href="#SVGID_1_"  style="overflow:visible;fill:url(#SVGID_2_);"/>
				<clipPath id="SVGID_3_">
					<use xlink:href="#SVGID_1_"  style="overflow:visible;"/>
				</clipPath>
				
					<radialGradient id="SVGID_4_" cx="261.2315" cy="-2582.9182" r="1.5573" gradientTransform="matrix(48.5 0 0 48.5 -11674.6367 125559.8281)" gradientUnits="userSpaceOnUse">
					<stop  offset="0" style="stop-color:#F26F6A"/>
					<stop  offset="1" style="stop-color:#BC5A5A"/>
				</radialGradient>
				<rect x="919.6" y="212.8" class="st8" width="151.1" height="151.1"/>
			</g>
		</g>
		<g>
			<path class="st4" d="M984.2,242.5v1.6h-3.3V257h-1.9v-12.9h-3.3v-1.6H984.2z"/>
			<path class="st4" d="M986.2,242.5h1.9V257h-1.9V242.5z"/>
			<path class="st4" d="M996.8,255c-0.3-0.9-0.6-2-0.9-3c-0.3-0.9-0.6-1.7-0.8-2.6c-0.2-0.9-0.5-1.6-0.8-2.2
				c-0.3-0.6-0.5-1.2-0.6-1.7c0,0.8-0.2,1.7-0.2,2.6c0,0.9,0,1.9-0.2,3c0,0.9,0,2-0.2,3c0,0.9,0,2,0,3h-1.9c0-1.2,0.2-2.5,0.2-3.7
				c0-1.2,0.2-2.5,0.2-3.7c0-1.2,0.2-2.5,0.2-3.6c0-1.2,0.2-2.3,0.3-3.3h1.9c0.3,0.6,0.5,1.2,0.9,2.2c0.3,0.8,0.6,1.7,0.9,2.6
				c0.3,0.9,0.6,1.9,0.9,2.6c0.3,0.9,0.6,1.7,0.8,2.5c0.2-0.8,0.5-1.6,0.8-2.5c0.3-0.9,0.6-1.9,0.9-2.6c0.3-0.9,0.6-1.7,0.9-2.6
				c0.3-0.9,0.6-1.6,0.8-2.2h1.9c0.2,1.1,0.2,2.2,0.3,3.3c0,1.2,0.2,2.3,0.2,3.6c0,1.2,0.2,2.5,0.2,3.7c0,1.2,0.2,2.5,0.2,3.7h-1.9
				c0-0.9,0-1.9,0-3s0-2-0.2-3.1c0-1.1,0-2-0.2-3c0-0.9-0.2-1.9-0.2-2.6c-0.2,0.3-0.3,0.8-0.5,1.2c-0.2,0.5-0.3,1.1-0.6,1.7
				c-0.2,0.6-0.5,1.2-0.6,1.9c-0.2,0.6-0.5,1.2-0.6,1.9c-0.2,0.6-0.3,1.1-0.5,1.7c-0.2,0.5-0.3,0.9-0.3,1.2L996.8,255L996.8,255z"/>
			<path class="st4" d="M1006.9,257v-14.5h6.5v1.6h-4.7v4.5h4.2v1.6h-4.2v5.1h5v1.6h-6.9V257z"/>
		</g>
		<g>
			<path class="st7" d="M956.9,288.6c0.8-0.5,1.4-1.1,2.2-1.9c0.8-0.8,1.6-1.6,2.2-2.3c0.6-0.9,1.4-1.7,2-2.6
				c0.6-0.9,1.1-1.9,1.6-2.6h3.6v48.6h-4.8v-39.1c-0.6,0.8-1.4,1.7-2.2,2.3c-0.8,0.8-1.7,1.4-2.6,2L956.9,288.6z"/>
			<path class="st7" d="M986.5,294.1c0,1.1-0.3,2-0.9,2.8c-0.6,0.8-1.4,1.2-2.3,1.2s-1.7-0.5-2.3-1.2c-0.6-0.8-0.9-1.9-0.9-2.8
				c0-1.1,0.3-2.2,0.9-3c0.6-0.8,1.4-1.2,2.3-1.2s1.9,0.5,2.3,1.2C986.2,291.9,986.5,293,986.5,294.1z M986.5,324.3
				c0,1.1-0.3,2-0.9,2.8c-0.6,0.8-1.4,1.2-2.3,1.2s-1.7-0.5-2.3-1.2c-0.6-0.8-0.9-1.9-0.9-2.8c0-1.1,0.3-2,0.9-3
				c0.6-0.9,1.4-1.2,2.3-1.2s1.9,0.5,2.3,1.2C986.2,322.1,986.5,323.2,986.5,324.3z"/>
			<path class="st7" d="M1004,301.4c1.9,0.8,3.3,2.3,4.4,4.5c1.1,2.2,1.6,4.8,1.6,8.3c0,4.5-0.9,8.1-2.6,10.6
				c-1.7,2.6-4.4,3.9-7.8,3.9c-1.4,0-2.6-0.3-4-0.8c-1.2-0.5-2.5-1.2-3.4-2l1.2-5c0.8,0.6,1.7,1.2,2.6,1.7c0.9,0.5,1.9,0.8,3,0.8
				c1.9,0,3.4-0.8,4.4-2.2c1.1-1.4,1.6-3.9,1.6-7c0-3.3-0.6-5.6-1.7-7.3c-1.1-1.6-3-2.5-5.6-2.5H996v-5.1h1.2c2.2,0,3.9-0.8,5-2.2
				c1.1-1.4,1.6-3.6,1.6-6.2c0-2.5-0.5-4.4-1.2-5.6c-0.8-1.2-2-1.9-3.4-1.9c-0.9,0-1.9,0.3-2.8,0.8c-0.9,0.5-1.6,1.1-2.2,1.7
				l-1.9-4.4c0.9-1.1,2-2,3.4-2.5c1.4-0.5,2.6-0.8,3.9-0.8c2.8,0,5.1,1.1,6.7,3.4c1.6,2.3,2.3,5.3,2.3,9c0,2.6-0.5,5-1.2,6.7
				C1006.6,299,1005.4,300.4,1004,301.4z"/>
			<path class="st7" d="M1016.3,303.2c0-4.8,0.2-8.7,0.5-12c0.3-3.3,0.9-5.9,1.6-7.8c0.8-2,1.7-3.4,2.8-4.2c1.1-0.9,2.5-1.2,4-1.2
				c1.6,0,3,0.5,4,1.2c1.1,0.9,2,2.3,2.8,4.2c0.8,2,1.2,4.5,1.6,7.8c0.3,3.3,0.5,7.3,0.5,12c0,4.7-0.2,8.7-0.5,12
				c-0.3,3.3-0.9,5.9-1.6,7.8c-0.8,2-1.7,3.4-2.8,4.2c-1.1,0.9-2.5,1.2-4,1.2c-1.6,0-3-0.5-4-1.2c-1.1-0.9-2-2.3-2.8-4.2
				c-0.8-2-1.2-4.5-1.6-7.8C1016.6,312,1016.3,308.1,1016.3,303.2z M1029.4,303.2c0-3.9,0-7-0.2-9.7c-0.2-2.5-0.3-4.7-0.6-6.2
				c-0.3-1.6-0.8-2.6-1.2-3.3c-0.5-0.6-1.1-0.9-1.9-0.9c-0.8,0-1.4,0.3-1.9,0.9c-0.5,0.6-0.9,1.7-1.2,3.3c-0.3,1.6-0.5,3.6-0.6,6.2
				c-0.2,2.6-0.2,5.8-0.2,9.7s0,7,0.2,9.7s0.3,4.7,0.6,6.2c0.3,1.6,0.8,2.6,1.2,3.3c0.5,0.6,1.1,0.9,1.9,0.9c0.8,0,1.4-0.3,1.9-0.9
				s0.9-1.7,1.2-3.3c0.3-1.6,0.5-3.6,0.6-6.2C1029.4,310.3,1029.4,307.1,1029.4,303.2z"/>
		</g>
		<g>
			<g>
				<path class="st6" d="M1080.3,487.6c0,46.6-37.7,84.2-84.2,84.2c-46.6,0-84.2-37.7-84.2-84.2s37.7-84.2,84.2-84.2
					C1042.4,403.4,1080.3,441.1,1080.3,487.6"/>
			</g>
			<g>
				<path class="st3" d="M1059.1,543.7c-15.4,17.4-38,28.5-63.2,28.5c-22.9,0-43.8-9.2-59-24C940.1,544.9,1061.1,541.5,1059.1,543.7
					"/>
			</g>
			<g>
				<polyline class="st6" points="1053.6,553.2 1029.8,527.2 1041.7,515.5 1064.9,538.5 				"/>
			</g>
			<g>
				<path class="st6" d="M1066.1,539.5c3.6,3.6,3.6,9.5,0,13.1c-3.6,3.6-9.5,3.6-13.1,0c-3.6-3.6-3.6-9.5,0-13.1
					C1056.6,535.9,1062.5,535.9,1066.1,539.5"/>
			</g>
			<g>
				<polyline class="st6" points="939.8,553.2 963.6,527.2 951.8,515.5 928.6,538.5 				"/>
			</g>
			<g>
				<path class="st6" d="M926.1,540.6c-3.6,3.6-3.6,9.5,0,13.1s9.5,3.6,13.1,0c3.6-3.6,3.6-9.5,0-13.1
					C935.8,537,929.8,537,926.1,540.6"/>
			</g>
			<g>
				<path class="st9" d="M943.5,438.8c-11.9,12.8-19.2,30-19.2,48.8c0,16.2,5.3,31.1,14.5,43.1l-6.2,4.7l0,0
					c-10-13.2-16-29.9-16-47.8c0-20.9,8.1-39.9,21.3-54.1"/>
			</g>
			<linearGradient id="SVGID_5_" gradientUnits="userSpaceOnUse" x1="1064.859" y1="522.6667" x2="1064.859" y2="522.6667">
				<stop  offset="0" style="stop-color:#39B54A"/>
				<stop  offset="8.278921e-02" style="stop-color:#39B54A"/>
				<stop  offset="0.3951" style="stop-color:#F48270"/>
				<stop  offset="0.7246" style="stop-color:#F5841F"/>
				<stop  offset="0.9481" style="stop-color:#ED174B"/>
				<stop  offset="1" style="stop-color:#ED174B"/>
			</linearGradient>
			<path class="st10" d="M1064.9,522.7"/>
		</g>
		<g>
			<g>
				<defs>
					<path id="SVGID_6_" d="M920.3,487.6c0,41.7,33.8,75.5,75.5,75.5s75.5-33.8,75.5-75.5s-33.8-75.5-75.5-75.5
						C954.3,412.1,920.3,445.9,920.3,487.6"/>
				</defs>
				<clipPath id="SVGID_7_">
					<use xlink:href="#SVGID_6_"  style="overflow:visible;"/>
				</clipPath>
				<radialGradient id="SVGID_8_" cx="995.8716" cy="487.6245" r="75.5279" gradientUnits="userSpaceOnUse">
					<stop  offset="0" style="stop-color:#F26F6A"/>
					<stop  offset="1" style="stop-color:#BC5A5A"/>
				</radialGradient>
				<rect x="920.3" y="412.1" class="st11" width="151.1" height="151.1"/>
			</g>
		</g>
		<g>
			<path class="st4" d="M980.8,454.8v1.6h-6.5v-14.5h1.9v12.9H980.8z"/>
			<path class="st4" d="M982.9,456.3v-14.5h6.5v1.6h-4.7v4.5h4.2v1.6h-4.2v5.1h5v1.6h-6.9V456.3z"/>
			<path class="st4" d="M994.9,456.3c-0.3-1.1-0.6-2.2-0.9-3.1c-0.3-1.1-0.6-2.2-0.9-3.4c-0.3-1.2-0.6-2.3-0.9-3.7
				c-0.3-1.4-0.6-2.8-0.9-4.2h2c0.2,1.1,0.3,2.2,0.6,3.3c0.2,1.1,0.5,2.2,0.8,3.1c0.3,1.1,0.5,2,0.8,3.1c0.3,1.1,0.5,1.9,0.8,2.8
				c0.3-0.9,0.5-1.9,0.8-2.8c0.3-0.9,0.5-2,0.8-3.1s0.5-2.2,0.8-3.1c0.2-1.1,0.5-2.2,0.6-3.3h1.9c-0.3,1.6-0.6,3-0.9,4.2
				c-0.3,1.2-0.6,2.5-0.9,3.7c-0.3,1.2-0.6,2.3-0.9,3.4c-0.3,1.1-0.6,2.2-0.9,3.1H994.9z"/>
			<path class="st4" d="M1002.9,456.3v-14.5h6.5v1.6h-4.7v4.5h4.2v1.6h-4.2v5.1h5v1.6h-6.9V456.3z"/>
			<path class="st4" d="M1018.9,454.8v1.6h-6.5v-14.5h1.9v12.9H1018.9z"/>
		</g>
		<g class="st12">
			<path class="st7" d="M1089.2,590.6c-0.3-0.9-0.5-1.7-0.8-2.6c-0.3-0.8-0.5-1.6-0.8-2.3c-0.3-0.8-0.5-1.4-0.8-2
				c-0.2-0.6-0.5-1.1-0.6-1.6c0,0.8-0.2,1.6-0.2,2.3c0,0.9,0,1.7-0.2,2.6c0,0.9,0,1.9,0,2.8c0,0.9,0,1.7,0,2.6h-1.6
				c0-1.1,0-2.3,0.2-3.4c0-1.1,0.2-2.3,0.2-3.4c0-1.1,0.2-2.2,0.2-3.3s0.2-2,0.3-3h1.7c0.2,0.5,0.5,1.2,0.8,1.9
				c0.3,0.8,0.6,1.6,0.9,2.3s0.6,1.6,0.9,2.5c0.3,0.8,0.5,1.6,0.8,2.2c0.2-0.6,0.5-1.4,0.6-2.2c0.3-0.8,0.5-1.6,0.8-2.5
				c0.3-0.8,0.6-1.6,0.9-2.3c0.3-0.8,0.5-1.4,0.8-1.9h1.7c0.2,0.9,0.2,1.9,0.3,3c0,1.1,0.2,2.2,0.2,3.3c0,1.1,0.2,2.2,0.2,3.4
				c0,1.1,0,2.3,0.2,3.4h-1.6c0-0.8,0-1.7,0-2.6s0-1.9,0-2.8c0-0.9,0-1.9-0.2-2.6c0-0.9-0.2-1.7-0.2-2.3c-0.2,0.3-0.3,0.8-0.5,1.2
				c-0.2,0.5-0.3,0.9-0.5,1.6c-0.2,0.6-0.3,1.1-0.6,1.7c-0.2,0.6-0.3,1.1-0.6,1.7c-0.2,0.5-0.3,1.1-0.5,1.6
				c-0.2,0.5-0.3,0.8-0.3,1.1h-1.9V590.6z"/>
			<path class="st7" d="M1102.2,579.3c0.3,0.9,0.6,1.9,0.9,2.8c0.3,0.9,0.6,2,0.9,3c0.3,1.1,0.6,2.2,0.8,3.4
				c0.2,1.2,0.6,2.5,0.8,3.9h-1.7c-0.2-0.6-0.2-1.1-0.3-1.7c-0.2-0.6-0.2-1.1-0.3-1.7h-4c-0.2,0.6-0.3,1.1-0.3,1.7
				c-0.2,0.6-0.2,1.1-0.3,1.7h-1.6c0.3-1.4,0.6-2.6,0.8-3.9c0.2-1.2,0.6-2.3,0.9-3.4c0.3-1.1,0.6-2,0.9-3c0.3-0.9,0.6-1.9,0.9-2.8
				H1102.2z M1101.3,581.2c-0.3,1.1-0.6,2-0.9,3.1c-0.3,1.1-0.6,2.2-0.8,3.3h3.4c-0.3-1.1-0.5-2.2-0.8-3.3
				C1101.9,583.2,1101.6,582.3,1101.3,581.2z"/>
			<path class="st7" d="M1111,583.9l2.2-4.7h1.7l-3.1,6.4c0.3,0.5,0.6,1.1,0.9,1.7c0.3,0.6,0.6,1.1,0.9,1.7c0.3,0.6,0.6,1.1,0.8,1.7
				c0.3,0.6,0.5,1.1,0.6,1.6h-1.7c-0.2-0.3-0.3-0.8-0.5-1.2c-0.2-0.5-0.3-0.9-0.6-1.4c-0.3-0.5-0.5-0.9-0.6-1.4
				c-0.2-0.5-0.5-0.9-0.6-1.4c-0.2,0.5-0.5,0.9-0.6,1.4c-0.3,0.5-0.5,0.9-0.6,1.4c-0.2,0.5-0.5,0.9-0.6,1.4
				c-0.2,0.5-0.3,0.8-0.5,1.2h-1.7c0.2-0.5,0.5-1.1,0.6-1.6c0.3-0.6,0.5-1.1,0.8-1.7c0.3-0.6,0.6-1.2,0.8-1.9
				c0.3-0.6,0.6-1.2,0.8-1.7l-3-6.2h1.7L1111,583.9z"/>
		</g>
		<g class="st12">
			<path class="st7" d="M1104.5,543.2c-1.1,0.1-2,0.4-2.9,0.7c-0.9,0.3-1.7,0.8-2.4,1.5c-0.7,0.7-1.3,1.6-1.8,2.7
				c-0.5,1.1-0.8,2.5-1,4.2c0.6-0.3,1.2-0.4,1.7-0.5c0.5-0.1,1.1-0.2,1.5-0.2c2,0,3.6,0.8,4.7,2.4c1.1,1.6,1.7,3.8,1.7,6.6
				c0,3-0.5,5.3-1.6,7c-1.1,1.7-2.7,2.6-5,2.6c-1.2,0-2.2-0.2-3-0.7c-0.9-0.4-1.6-1.2-2.2-2.2c-0.6-1-1-2.4-1.3-4
				c-0.3-1.7-0.4-3.7-0.4-6.1c0-2.1,0.2-4.2,0.6-6.2c0.4-2,1.1-3.8,2-5.3c0.9-1.6,2.1-2.8,3.6-3.8c1.5-1,3.3-1.5,5.5-1.6
				L1104.5,543.2z M1098.8,554.6c-0.4,0-0.9,0.1-1.3,0.2c-0.4,0.2-0.9,0.3-1.3,0.6c0,0.3,0,0.7,0,1c0,0.4,0,0.7,0,1.1
				c0,1.3,0,2.5,0.1,3.7c0.1,1.2,0.2,2.2,0.4,3.1c0.2,0.9,0.6,1.6,1,2.1c0.4,0.5,1,0.8,1.8,0.8c1.1,0,1.9-0.6,2.3-1.7
				c0.4-1.2,0.7-2.7,0.7-4.7c0-2.1-0.3-3.7-0.9-4.7C1101,555.1,1100.1,554.6,1098.8,554.6z"/>
		</g>
		<g>
			<path class="st7" d="M997.8,71.7c1.4-0.3,2.8-0.5,4.1-0.5c1,0,2,0.1,2.8,0.4c0.9,0.3,1.6,0.6,2.2,1.2c0.6,0.5,1.1,1.2,1.4,2.1
				c0.3,0.8,0.5,1.9,0.5,3c0,1.2-0.2,2.2-0.5,3.1s-0.8,1.5-1.4,2.1c-0.6,0.5-1.4,0.9-2.2,1.2c-0.9,0.2-1.8,0.4-2.9,0.4h-1.3v7.7
				h-2.7V71.7z M1000.5,82.1h1.1c0.7,0,1.3-0.1,1.8-0.2c0.5-0.1,1-0.4,1.4-0.7c0.4-0.3,0.7-0.8,0.9-1.3s0.3-1.2,0.3-2
				c0-0.8-0.1-1.5-0.3-2c-0.2-0.5-0.5-1-0.8-1.3s-0.8-0.6-1.3-0.7c-0.5-0.1-1-0.2-1.6-0.2c-0.5,0-1,0-1.4,0.1V82.1z"/>
			<path class="st7" d="M1026.3,81.8c0,1.6-0.1,3.1-0.4,4.4c-0.3,1.3-0.7,2.5-1.3,3.4c-0.6,1-1.4,1.7-2.3,2.2
				c-0.9,0.5-2,0.8-3.3,0.8s-2.4-0.3-3.3-0.8c-0.9-0.5-1.7-1.3-2.3-2.2c-0.6-0.9-1.1-2.1-1.4-3.4c-0.3-1.3-0.5-2.8-0.5-4.4
				s0.2-3.1,0.5-4.4s0.8-2.5,1.4-3.4c0.6-0.9,1.4-1.7,2.3-2.2c0.9-0.5,2-0.8,3.3-0.8s2.4,0.3,3.3,0.8c0.9,0.5,1.7,1.3,2.3,2.2
				c0.6,1,1.1,2.1,1.3,3.4C1026.1,78.7,1026.3,80.2,1026.3,81.8z M1023.4,81.8c0-1.3-0.1-2.4-0.2-3.5c-0.2-1-0.4-1.9-0.8-2.7
				c-0.4-0.8-0.8-1.3-1.4-1.8c-0.6-0.4-1.3-0.6-2.1-0.6s-1.5,0.2-2.1,0.6c-0.6,0.4-1,1-1.4,1.8c-0.4,0.8-0.6,1.6-0.8,2.7
				c-0.2,1-0.3,2.2-0.3,3.5c0,1.3,0.1,2.4,0.3,3.4c0.2,1,0.4,1.9,0.8,2.7c0.4,0.7,0.8,1.3,1.4,1.7c0.6,0.4,1.3,0.6,2.1,0.6
				s1.5-0.2,2.1-0.6c0.6-0.4,1-1,1.4-1.7c0.4-0.7,0.6-1.6,0.8-2.7C1023.3,84.2,1023.4,83.1,1023.4,81.8z"/>
			<path class="st7" d="M1039.8,89.9v2.3h-9.3V71.4h2.7v18.5H1039.8z"/>
			<path class="st7" d="M1052.4,71.4c-0.3,0.9-0.7,1.9-1.1,3c-0.4,1.1-0.8,2.1-1.3,3.2c-0.5,1.1-0.9,2.2-1.4,3.3s-1,2.1-1.4,3.1v8.2
				h-2.7v-8c-0.5-1-1-2-1.5-3.1c-0.5-1.1-1-2.2-1.4-3.3c-0.5-1.1-0.9-2.2-1.3-3.3s-0.8-2.1-1.1-3.1h2.9c0.5,1.6,1.1,3.2,1.8,5
				c0.7,1.8,1.3,3.4,2,4.9c0.7-1.5,1.4-3.2,2-4.9c0.7-1.8,1.2-3.4,1.8-5H1052.4z"/>
			<path class="st7" d="M1053.4,81.8c0-2,0.2-3.6,0.5-5c0.4-1.4,0.9-2.5,1.5-3.4s1.5-1.5,2.4-1.9s2-0.6,3.2-0.6
				c0.9,0,1.7,0.1,2.5,0.4c0.7,0.3,1.3,0.5,1.8,0.9l-0.8,2.2c-0.5-0.3-1-0.6-1.5-0.8c-0.5-0.2-1.2-0.3-1.9-0.3c-1.7,0-3,0.7-3.8,2.1
				c-0.8,1.4-1.1,3.5-1.1,6.4c0,1.5,0.1,2.8,0.3,3.9c0.2,1.1,0.6,2,1,2.6c0.4,0.7,0.9,1.2,1.5,1.5c0.6,0.3,1.3,0.5,2,0.5
				c0.6,0,1.1-0.1,1.6-0.2V82h2.7v9.8c-0.5,0.3-1.2,0.5-2,0.7c-0.8,0.2-1.6,0.3-2.5,0.3c-1.1,0-2.1-0.2-3-0.6s-1.7-1.1-2.4-2
				c-0.7-0.9-1.2-2-1.6-3.4C1053.6,85.3,1053.4,83.7,1053.4,81.8z"/>
			<path class="st7" d="M1084,81.8c0,1.6-0.1,3.1-0.4,4.4c-0.3,1.3-0.7,2.5-1.3,3.4c-0.6,1-1.4,1.7-2.3,2.2c-0.9,0.5-2,0.8-3.3,0.8
				s-2.4-0.3-3.3-0.8c-0.9-0.5-1.7-1.3-2.3-2.2c-0.6-0.9-1.1-2.1-1.4-3.4c-0.3-1.3-0.5-2.8-0.5-4.4s0.2-3.1,0.5-4.4s0.8-2.5,1.4-3.4
				c0.6-0.9,1.4-1.7,2.3-2.2c0.9-0.5,2-0.8,3.3-0.8s2.4,0.3,3.3,0.8c0.9,0.5,1.7,1.3,2.3,2.2c0.6,1,1.1,2.1,1.3,3.4
				C1083.8,78.7,1084,80.2,1084,81.8z M1081.1,81.8c0-1.3-0.1-2.4-0.2-3.5c-0.2-1-0.4-1.9-0.8-2.7c-0.4-0.8-0.8-1.3-1.4-1.8
				c-0.6-0.4-1.3-0.6-2.1-0.6s-1.5,0.2-2.1,0.6c-0.6,0.4-1,1-1.4,1.8c-0.4,0.8-0.6,1.6-0.8,2.7c-0.2,1-0.3,2.2-0.3,3.5
				c0,1.3,0.1,2.4,0.3,3.4c0.2,1,0.4,1.9,0.8,2.7c0.4,0.7,0.8,1.3,1.4,1.7c0.6,0.4,1.3,0.6,2.1,0.6s1.5-0.2,2.1-0.6
				c0.6-0.4,1-1,1.4-1.7c0.4-0.7,0.6-1.6,0.8-2.7C1081,84.2,1081.1,83.1,1081.1,81.8z"/>
			<path class="st7" d="M1098.4,92.2c-0.5-1.2-1-2.5-1.6-3.8c-0.6-1.4-1.2-2.7-1.9-4.1s-1.4-2.8-2.1-4.1c-0.7-1.4-1.4-2.6-2.1-3.8
				v15.9h-2.5V71.4h2.2c0.8,1.2,1.5,2.5,2.2,3.8c0.7,1.3,1.4,2.6,2,3.9c0.6,1.3,1.2,2.5,1.8,3.8s1.1,2.4,1.6,3.5V71.4h2.5v20.8
				H1098.4z"/>
			<path class="st7" d="M1108.2,90.3c1.1,0,1.9-0.3,2.5-0.9c0.6-0.6,0.9-1.4,0.9-2.4c0-0.5-0.1-1-0.3-1.4c-0.2-0.4-0.4-0.8-0.7-1.1
				c-0.3-0.3-0.6-0.6-1-0.9c-0.4-0.3-0.8-0.6-1.2-0.8c-0.5-0.3-0.9-0.7-1.4-1s-1-0.8-1.4-1.3c-0.4-0.5-0.7-1-1-1.7
				c-0.3-0.6-0.4-1.4-0.4-2.2c0-0.8,0.1-1.6,0.4-2.3c0.3-0.7,0.7-1.3,1.2-1.7c0.5-0.5,1.1-0.8,1.8-1.1c0.7-0.3,1.5-0.4,2.3-0.4
				c0.8,0,1.5,0.1,2.2,0.3c0.7,0.2,1.2,0.4,1.7,0.7l-0.8,2.1c-0.4-0.3-0.9-0.5-1.4-0.6c-0.5-0.1-1-0.2-1.5-0.2c-1,0-1.8,0.3-2.4,0.8
				s-0.9,1.3-0.9,2.3c0,0.6,0.1,1.1,0.3,1.5c0.2,0.4,0.4,0.8,0.8,1.1c0.3,0.3,0.7,0.6,1.1,0.9c0.4,0.3,0.8,0.6,1.3,0.9
				c0.5,0.3,0.9,0.6,1.4,1c0.5,0.4,0.9,0.8,1.3,1.2c0.4,0.5,0.7,1,1,1.6c0.2,0.6,0.4,1.4,0.4,2.2c0,0.8-0.1,1.5-0.4,2.2
				c-0.2,0.7-0.6,1.3-1.1,1.8c-0.5,0.5-1.2,1-1.9,1.3c-0.8,0.3-1.7,0.5-2.7,0.5c-1,0-1.8-0.1-2.5-0.3c-0.7-0.2-1.4-0.5-1.9-0.9
				l0.8-2.2c0.5,0.3,1.1,0.6,1.6,0.8C1106.8,90.2,1107.5,90.3,1108.2,90.3z"/>
		</g>
		<g>
			<path class="st7" d="M926.5,69.8c1.9-0.5,3.7-0.7,5.5-0.7c1.4,0,2.6,0.2,3.8,0.5c1.1,0.3,2.1,0.9,2.9,1.6
				c0.8,0.7,1.4,1.6,1.9,2.7c0.4,1.1,0.7,2.5,0.7,4c0,1.6-0.2,3-0.7,4.1c-0.5,1.1-1.1,2.1-1.9,2.8c-0.8,0.7-1.8,1.2-3,1.5
				c-1.2,0.3-2.4,0.5-3.9,0.5h-1.7v10.3h-3.6V69.8z M930.1,83.7h1.4c0.9,0,1.7-0.1,2.5-0.3c0.7-0.2,1.4-0.5,1.9-1
				c0.5-0.5,0.9-1,1.2-1.8s0.4-1.6,0.4-2.7c0-1.1-0.1-2-0.4-2.7s-0.6-1.3-1.1-1.8s-1-0.8-1.7-0.9c-0.7-0.2-1.4-0.3-2.2-0.3
				c-0.7,0-1.3,0-1.9,0.1V83.7z"/>
			<path class="st7" d="M964.5,83.3c0,2.2-0.2,4.1-0.6,5.9c-0.4,1.8-1,3.3-1.8,4.6s-1.8,2.2-3.1,2.9c-1.2,0.7-2.7,1-4.4,1
				s-3.1-0.3-4.4-1c-1.2-0.7-2.3-1.7-3.1-2.9s-1.4-2.8-1.8-4.6c-0.4-1.8-0.6-3.7-0.6-5.9c0-2.2,0.2-4.1,0.6-5.9
				c0.4-1.8,1-3.3,1.8-4.6s1.8-2.3,3.1-3c1.2-0.7,2.7-1.1,4.4-1.1s3.1,0.4,4.4,1.1s2.3,1.7,3.1,3s1.4,2.8,1.8,4.6
				S964.5,81.1,964.5,83.3z M960.6,83.3c0-1.7-0.1-3.2-0.3-4.6c-0.2-1.4-0.6-2.6-1-3.6c-0.5-1-1.1-1.8-1.9-2.3
				c-0.8-0.6-1.7-0.8-2.8-0.8c-1.1,0-2,0.3-2.8,0.8c-0.8,0.6-1.4,1.3-1.9,2.3c-0.5,1-0.8,2.2-1.1,3.6c-0.2,1.4-0.3,2.9-0.3,4.6
				c0,1.7,0.1,3.2,0.3,4.6c0.2,1.4,0.6,2.6,1.1,3.6c0.5,1,1.1,1.8,1.9,2.3c0.8,0.5,1.7,0.8,2.8,0.8c1.1,0,2-0.3,2.8-0.8
				c0.8-0.5,1.4-1.3,1.9-2.3c0.5-1,0.8-2.2,1-3.6C960.5,86.5,960.6,84.9,960.6,83.3z"/>
		</g>
		<g>
			<path class="st7" d="M970.7,502.9c0-4.5,0.2-8.3,0.6-11.3c0.4-3.1,1-5.5,1.9-7.4c0.9-1.8,2-3.2,3.3-4c1.3-0.8,3-1.2,4.9-1.2
				c1.9,0,3.5,0.4,4.9,1.2c1.4,0.8,2.5,2.1,3.4,4c0.9,1.8,1.5,4.3,1.9,7.4c0.4,3.1,0.6,6.8,0.6,11.3c0,4.5-0.2,8.3-0.6,11.3
				c-0.4,3.1-1,5.5-1.9,7.4c-0.9,1.8-2,3.2-3.4,4c-1.4,0.8-3,1.2-4.9,1.2c-1.9,0-3.6-0.4-4.9-1.2c-1.3-0.8-2.5-2.1-3.3-4
				c-0.9-1.8-1.5-4.3-1.9-7.4C970.9,511.1,970.7,507.4,970.7,502.9z M986.3,502.9c0-3.6-0.1-6.6-0.3-9c-0.2-2.4-0.5-4.4-0.8-5.8
				c-0.4-1.5-0.9-2.5-1.5-3.1c-0.6-0.6-1.4-0.9-2.2-0.9c-0.9,0-1.6,0.3-2.2,0.9c-0.6,0.6-1.1,1.7-1.5,3.1s-0.6,3.4-0.8,5.8
				c-0.2,2.4-0.3,5.4-0.3,9s0.1,6.6,0.3,9c0.2,2.4,0.5,4.4,0.8,5.8c0.4,1.5,0.9,2.5,1.5,3.1c0.6,0.6,1.4,0.9,2.2,0.9
				c0.9,0,1.6-0.3,2.2-0.9c0.6-0.6,1.1-1.7,1.5-3.1c0.4-1.5,0.6-3.4,0.8-5.8C986.2,509.5,986.3,506.5,986.3,502.9z"/>
			<path class="st7" d="M1012.7,501.2c2.2,0.8,3.9,2.2,5.1,4.2c1.2,2,1.8,4.6,1.8,7.8c0,4.2-1,7.6-3.1,10c-2,2.4-5.1,3.7-9.3,3.7
				c-1.6,0-3.2-0.2-4.8-0.7c-1.5-0.5-2.9-1.1-4-1.9l1.5-4.6c1,0.6,2.1,1.1,3.2,1.6s2.3,0.7,3.5,0.7c2.2,0,4-0.7,5.3-2.1
				c1.3-1.4,1.9-3.6,1.9-6.6c0-3-0.7-5.3-2.1-6.9c-1.4-1.5-3.6-2.3-6.6-2.3h-1.7V499h1.5c2.6,0,4.6-0.7,5.9-2.1
				c1.3-1.4,1.9-3.4,1.9-5.9c0-2.4-0.5-4.2-1.5-5.3c-1-1.2-2.4-1.8-4-1.8c-1.1,0-2.2,0.2-3.3,0.7c-1,0.4-1.9,1-2.7,1.7l-2.2-4.2
				c1.1-1.1,2.5-1.8,4.1-2.4c1.6-0.5,3.1-0.8,4.7-0.8c3.4,0,6.1,1.1,7.9,3.2c1.8,2.2,2.8,5,2.8,8.6c0,2.5-0.5,4.6-1.5,6.4
				C1015.9,498.9,1014.5,500.2,1012.7,501.2z"/>
		</g>
	</g>
</g>
<polygon class="st13" points="229,204.2 161,303.2 239,393 361,288.3 "/>
<polygon class="st13" points="546,216.2 478,315.2 556,405 678,300.3 "/>
<polygon class="st13" points="319,175 261,265 361,393 "/>
<circle class="st14" cx="271.3" cy="618.5" r="75.5"/>
<g>
	<path class="st15" d="M246.4,623.8c-0.4-1.3-0.7-2.5-1.1-3.7c-0.4-1.2-0.7-2.3-1.1-3.4c-0.4-1.1-0.7-2-1-2.9
		c-0.3-0.9-0.6-1.6-0.9-2.3c-0.1,1-0.1,2.2-0.2,3.4c0,1.2-0.1,2.5-0.1,3.8s-0.1,2.6-0.1,3.9s0,2.6-0.1,3.7h-2.3
		c0.1-1.6,0.1-3.3,0.2-4.9c0.1-1.6,0.1-3.3,0.2-4.9s0.2-3.1,0.3-4.7c0.1-1.5,0.2-2.9,0.3-4.3h2.4c0.3,0.8,0.7,1.7,1.1,2.8
		c0.4,1.1,0.8,2.2,1.3,3.4s0.8,2.3,1.2,3.5c0.4,1.2,0.7,2.2,1,3.2c0.3-1,0.6-2,1-3.2c0.4-1.2,0.8-2.3,1.2-3.5s0.8-2.3,1.2-3.4
		s0.8-2,1.1-2.8h2.4c0.1,1.3,0.2,2.8,0.3,4.3c0.1,1.5,0.2,3.1,0.3,4.7s0.1,3.2,0.2,4.9c0.1,1.6,0.1,3.3,0.2,4.9H253
		c0-1.2-0.1-2.4-0.1-3.8c0-1.3-0.1-2.6-0.1-4c0-1.3-0.1-2.6-0.1-3.9c-0.1-1.3-0.1-2.4-0.2-3.4c-0.2,0.5-0.4,1-0.6,1.7
		s-0.5,1.4-0.8,2.2c-0.3,0.8-0.5,1.6-0.8,2.4c-0.3,0.8-0.5,1.6-0.8,2.4c-0.2,0.8-0.5,1.5-0.6,2.1c-0.2,0.6-0.3,1.2-0.4,1.6H246.4z"
		/>
	<path class="st15" d="M265.3,607.7c0.4,1.3,0.9,2.7,1.3,4.1c0.4,1.4,0.8,2.8,1.2,4.3c0.4,1.5,0.8,3.1,1.2,4.8
		c0.4,1.7,0.8,3.5,1.2,5.5h-2.4c-0.1-0.8-0.3-1.6-0.4-2.4c-0.2-0.8-0.3-1.6-0.5-2.4H261c-0.2,0.8-0.3,1.6-0.5,2.4
		c-0.1,0.8-0.3,1.6-0.4,2.4h-2.3c0.4-2,0.8-3.8,1.2-5.5c0.4-1.7,0.8-3.3,1.2-4.8c0.4-1.5,0.8-3,1.2-4.3c0.4-1.4,0.9-2.7,1.3-4.1
		H265.3z M264,610.4c-0.4,1.5-0.9,3-1.3,4.5c-0.4,1.5-0.8,3.1-1.2,4.6h4.9c-0.4-1.6-0.7-3.1-1.2-4.6S264.4,611.9,264,610.4z"/>
	<path class="st15" d="M281,607.7v2.1h-4.2v16.6h-2.4v-16.6h-4.2v-2.1H281z"/>
	<path class="st15" d="M288.8,626.8c-2.2,0-3.9-0.8-5-2.5c-1.2-1.6-1.8-4.2-1.8-7.6c0-1.7,0.2-3.2,0.5-4.4c0.3-1.2,0.8-2.2,1.4-2.9
		s1.3-1.3,2.1-1.6s1.7-0.5,2.6-0.5c0.8,0,1.5,0.1,2.2,0.3s1.2,0.5,1.7,0.8l-0.7,2c-0.4-0.3-0.9-0.5-1.4-0.7
		c-0.5-0.2-1.1-0.3-1.7-0.3c-1.4,0-2.5,0.6-3.1,1.8c-0.6,1.2-1,3.1-1,5.6c0,2.5,0.3,4.5,1,5.9c0.7,1.4,1.8,2.1,3.3,2.1
		c0.7,0,1.3-0.1,1.8-0.3c0.5-0.2,0.9-0.4,1.3-0.7l0.7,1.9c-0.4,0.3-1,0.6-1.6,0.8C290.5,626.7,289.7,626.8,288.8,626.8z"/>
	<path class="st15" d="M304.1,607.7h2.4v18.7h-2.4v-8.7h-6.2v8.7h-2.4v-18.7h2.4v7.9h6.2V607.7z"/>
</g>
<path class="st16" d="M283.3,554.1c15.5,4.6,28.8,14.1,38.4,26.7c7.1,9.3,12.1,20.3,14.2,32.3"/>
<circle class="st17" cx="590.3" cy="618.5" r="75.5"/>
<g>
	<path class="st18" d="M547.7,624c-0.3-1.2-0.7-2.3-1-3.4c-0.4-1.1-0.7-2.1-1-3.1c-0.3-1-0.6-1.9-0.9-2.7c-0.3-0.8-0.6-1.5-0.8-2.1
		c-0.1,0.9-0.1,2-0.2,3.1c0,1.1-0.1,2.3-0.1,3.5c0,1.2-0.1,2.4-0.1,3.6c0,1.2,0,2.4-0.1,3.5h-2.1c0-1.5,0.1-3,0.1-4.5
		c0-1.5,0.1-3,0.2-4.5c0.1-1.5,0.2-2.9,0.2-4.3c0.1-1.4,0.2-2.7,0.3-4h2.2c0.3,0.7,0.6,1.6,1,2.6c0.4,1,0.8,2,1.2,3.1
		c0.4,1.1,0.8,2.2,1.1,3.2c0.4,1.1,0.7,2.1,1,3c0.3-0.9,0.6-1.9,0.9-3c0.3-1.1,0.7-2.2,1.1-3.2c0.4-1.1,0.8-2.1,1.1-3.1
		c0.4-1,0.7-1.8,1-2.6h2.2c0.1,1.2,0.2,2.6,0.3,4c0.1,1.4,0.2,2.8,0.2,4.3c0.1,1.5,0.1,3,0.2,4.5c0.1,1.5,0.1,3,0.1,4.5h-2.1
		c0-1.1-0.1-2.3-0.1-3.5s-0.1-2.4-0.1-3.7c0-1.2-0.1-2.4-0.1-3.6c-0.1-1.2-0.1-2.2-0.2-3.2c-0.1,0.4-0.3,0.9-0.6,1.6s-0.5,1.3-0.7,2
		c-0.2,0.7-0.5,1.5-0.8,2.3c-0.3,0.8-0.5,1.5-0.7,2.2s-0.4,1.4-0.6,2c-0.2,0.6-0.3,1.1-0.4,1.4H547.7z"/>
	<path class="st18" d="M559.9,609.1h2.2v17.3h-2.2V609.1z"/>
	<path class="st18" d="M568.5,624.8c0.9,0,1.6-0.2,2.1-0.8s0.7-1.2,0.7-2c0-0.5-0.1-0.8-0.2-1.2c-0.1-0.3-0.3-0.7-0.6-0.9
		c-0.2-0.3-0.5-0.5-0.8-0.8s-0.6-0.5-1-0.7c-0.4-0.3-0.8-0.5-1.2-0.8c-0.4-0.3-0.8-0.7-1.1-1c-0.3-0.4-0.6-0.9-0.8-1.4
		c-0.2-0.5-0.3-1.2-0.3-1.9c0-0.7,0.1-1.3,0.4-1.9c0.2-0.6,0.6-1,1-1.4c0.4-0.4,0.9-0.7,1.5-0.9c0.6-0.2,1.2-0.3,1.9-0.3
		c0.7,0,1.3,0.1,1.9,0.2c0.6,0.2,1,0.4,1.4,0.6l-0.7,1.8c-0.4-0.2-0.7-0.4-1.1-0.5c-0.4-0.1-0.8-0.2-1.3-0.2c-0.8,0-1.5,0.2-2,0.7
		c-0.5,0.4-0.7,1.1-0.7,1.9c0,0.5,0.1,0.9,0.2,1.2c0.2,0.3,0.4,0.7,0.6,1c0.3,0.3,0.6,0.5,0.9,0.8c0.3,0.2,0.7,0.5,1.1,0.7
		s0.8,0.5,1.2,0.8c0.4,0.3,0.8,0.6,1.1,1s0.6,0.8,0.8,1.4s0.3,1.1,0.3,1.9c0,0.7-0.1,1.3-0.3,1.9c-0.2,0.6-0.5,1.1-0.9,1.5
		s-1,0.8-1.6,1c-0.6,0.3-1.4,0.4-2.3,0.4c-0.8,0-1.5-0.1-2.1-0.3c-0.6-0.2-1.1-0.4-1.6-0.7l0.7-1.8c0.4,0.3,0.9,0.5,1.3,0.6
		C567.3,624.8,567.9,624.8,568.5,624.8z"/>
	<path class="st18" d="M582.3,624c-0.3-1.2-0.7-2.3-1-3.4c-0.3-1.1-0.7-2.1-1-3.1c-0.3-1-0.6-1.9-0.9-2.7s-0.6-1.5-0.8-2.1
		c-0.1,0.9-0.1,2-0.2,3.1c0,1.1-0.1,2.3-0.1,3.5c0,1.2-0.1,2.4-0.1,3.6c0,1.2,0,2.4-0.1,3.5h-2.1c0-1.5,0.1-3,0.1-4.5
		c0-1.5,0.1-3,0.2-4.5c0.1-1.5,0.2-2.9,0.2-4.3c0.1-1.4,0.2-2.7,0.3-4h2.2c0.3,0.7,0.6,1.6,1,2.6c0.4,1,0.8,2,1.2,3.1
		c0.4,1.1,0.8,2.2,1.1,3.2c0.4,1.1,0.7,2.1,1,3c0.3-0.9,0.6-1.9,0.9-3c0.3-1.1,0.7-2.2,1.1-3.2c0.4-1.1,0.8-2.1,1.1-3.1
		c0.4-1,0.7-1.8,1-2.6h2.2c0.1,1.2,0.2,2.6,0.3,4c0.1,1.4,0.2,2.8,0.2,4.3c0.1,1.5,0.1,3,0.2,4.5c0,1.5,0.1,3,0.1,4.5h-2.1
		c0-1.1-0.1-2.3-0.1-3.5c0-1.2-0.1-2.4-0.1-3.7c0-1.2-0.1-2.4-0.1-3.6c0-1.2-0.1-2.2-0.2-3.2c-0.1,0.4-0.3,0.9-0.6,1.6
		s-0.5,1.3-0.7,2s-0.5,1.5-0.8,2.3c-0.3,0.8-0.5,1.5-0.7,2.2s-0.4,1.4-0.6,2c-0.2,0.6-0.3,1.1-0.4,1.4H582.3z"/>
	<path class="st18" d="M599.8,609.1c0.4,1.2,0.8,2.5,1.2,3.8c0.4,1.3,0.8,2.6,1.1,4c0.4,1.4,0.8,2.9,1.1,4.5
		c0.4,1.6,0.8,3.3,1.1,5.1h-2.2c-0.1-0.8-0.3-1.5-0.4-2.2c-0.1-0.7-0.3-1.5-0.4-2.2h-5.5c-0.2,0.7-0.3,1.5-0.5,2.2
		c-0.1,0.7-0.3,1.5-0.4,2.2h-2.2c0.4-1.8,0.7-3.5,1.1-5.1c0.4-1.6,0.8-3,1.1-4.4c0.4-1.4,0.8-2.7,1.2-4c0.4-1.3,0.8-2.5,1.2-3.8
		H599.8z M598.6,611.6c-0.4,1.4-0.8,2.8-1.2,4.2s-0.8,2.8-1.1,4.3h4.5c-0.3-1.5-0.7-2.9-1.1-4.3S599,613,598.6,611.6z"/>
	<path class="st18" d="M614.4,609.1v1.9h-3.8v15.4h-2.2V611h-3.9v-1.9H614.4z"/>
	<path class="st18" d="M621.6,626.8c-2,0-3.6-0.8-4.7-2.3c-1.1-1.5-1.6-3.9-1.6-7c0-1.6,0.2-3,0.5-4.1c0.3-1.1,0.7-2,1.3-2.7
		c0.5-0.7,1.2-1.2,1.9-1.5c0.8-0.3,1.6-0.5,2.5-0.5c0.7,0,1.4,0.1,2,0.3s1.2,0.4,1.6,0.7l-0.7,1.9c-0.4-0.3-0.8-0.5-1.3-0.7
		c-0.5-0.2-1-0.2-1.6-0.2c-1.3,0-2.3,0.6-2.9,1.7c-0.6,1.1-0.9,2.8-0.9,5.2c0,2.3,0.3,4.2,1,5.4c0.6,1.3,1.7,1.9,3.1,1.9
		c0.7,0,1.2-0.1,1.7-0.2c0.4-0.2,0.8-0.4,1.2-0.7l0.6,1.8c-0.4,0.3-0.9,0.6-1.5,0.8C623.2,626.6,622.4,626.8,621.6,626.8z"/>
	<path class="st18" d="M635.7,609.1h2.2v17.3h-2.2v-8H630v8h-2.2v-17.3h2.2v7.3h5.7V609.1z"/>
</g>
<path class="st19" d="M602.3,554.1c15.5,4.6,28.8,14.1,38.4,26.7c7.1,9.3,12.1,20.3,14.2,32.3"/>
</svg>
