<?xml version="1.0" encoding="utf-8"?>
<!-- Generator: Adobe Illustrator 19.2.1, SVG Export Plug-In . SVG Version: 6.00 Build 0)  -->
<svg version="1.1" id="Layer_1" xmlns="http://www.w3.org/2000/svg" xmlns:xlink="http://www.w3.org/1999/xlink" x="0px" y="0px"
	 viewBox="0 0 710 508" style="enable-background:new 0 0 710 508;" xml:space="preserve">
<style type="text/css">
	.st0{fill:#1F3A37;}
	.st1{fill:#39817A;}
	.st2{fill:#00A79D;}
	.st3{fill:#FFFFFF;}
	.st4{fill:#388078;}
	.st5{fill:none;stroke:#388078;stroke-width:9;stroke-miterlimit:10;}
	.st6{fill:#39B54A;}
	.st7{fill:#F26F6A;}
	.st8{fill:#B8E2E1;}
	.st9{fill:#FDE5E6;}
	.st10{fill:#164F48;}
	.st11{fill:#B2E0E0;}
	.st12{fill:#F1F2F2;}
	.st13{fill:url(#SVGID_1_);}
	.st14{clip-path:url(#SVGID_3_);fill:url(#SVGID_4_);}
	.st15{fill:url(#SVGID_5_);}
	.st16{clip-path:url(#SVGID_7_);fill:url(#SVGID_8_);}
	.st17{fill:#B1DFDF;}
</style>
<rect class="st0" width="520" height="508"/>
<rect x="520" y="100" class="st1" width="190" height="408"/>
<rect x="520" class="st2" width="190" height="100"/>
<path class="st1" d="M597.2,51.3c0,13.1-10.6,23.8-23.8,23.8c-13.1,0-23.8-10.6-23.8-23.8c0-13.1,10.6-23.8,23.8-23.8
	C586.6,27.5,597.2,38.1,597.2,51.3"/>
<g>
	<path class="st3" d="M606.7,40.1c0.7,0,1.2-0.2,1.6-0.6s0.6-0.9,0.6-1.5c0-0.3-0.1-0.6-0.2-0.9c-0.1-0.3-0.3-0.5-0.4-0.7
		s-0.4-0.4-0.6-0.6c-0.2-0.2-0.5-0.4-0.7-0.5c-0.3-0.2-0.6-0.4-0.9-0.6s-0.6-0.5-0.9-0.8c-0.3-0.3-0.5-0.7-0.6-1.1
		c-0.2-0.4-0.2-0.9-0.2-1.4s0.1-1,0.3-1.4s0.4-0.8,0.8-1.1c0.3-0.3,0.7-0.5,1.2-0.7s0.9-0.2,1.5-0.2c0.5,0,1,0.1,1.4,0.2
		s0.8,0.3,1.1,0.5l-0.5,1.3c-0.3-0.2-0.6-0.3-0.9-0.4c-0.3-0.1-0.6-0.1-1-0.1c-0.6,0-1.1,0.2-1.5,0.5s-0.6,0.8-0.6,1.5
		c0,0.4,0.1,0.7,0.2,0.9s0.3,0.5,0.5,0.7s0.4,0.4,0.7,0.6c0.3,0.2,0.5,0.4,0.8,0.6c0.3,0.2,0.6,0.4,0.9,0.6c0.3,0.2,0.6,0.5,0.8,0.8
		s0.4,0.6,0.6,1c0.2,0.4,0.2,0.9,0.2,1.4s-0.1,1-0.2,1.4c-0.2,0.4-0.4,0.8-0.7,1.2c-0.3,0.3-0.7,0.6-1.2,0.8s-1.1,0.3-1.7,0.3
		c-0.6,0-1.1-0.1-1.6-0.2c-0.5-0.1-0.9-0.3-1.2-0.6l0.5-1.4c0.3,0.2,0.7,0.4,1,0.5C605.9,40,606.3,40.1,606.7,40.1z"/>
	<path class="st3" d="M612.7,28.3c0.9-0.2,1.8-0.3,2.6-0.3c0.7,0,1.3,0.1,1.8,0.2c0.5,0.2,1,0.4,1.4,0.7c0.4,0.3,0.7,0.8,0.9,1.3
		s0.3,1.2,0.3,1.9c0,0.8-0.1,1.4-0.3,1.9s-0.5,1-0.9,1.3s-0.9,0.6-1.4,0.7c-0.6,0.2-1.2,0.2-1.8,0.2h-0.8v4.9h-1.7L612.7,28.3
		L612.7,28.3z M614.4,34.9h0.7c0.4,0,0.8,0,1.2-0.1c0.3-0.1,0.6-0.2,0.9-0.5c0.2-0.2,0.4-0.5,0.6-0.8c0.1-0.3,0.2-0.8,0.2-1.3
		s-0.1-0.9-0.2-1.3c-0.1-0.3-0.3-0.6-0.5-0.8s-0.5-0.4-0.8-0.4c-0.3-0.1-0.7-0.1-1-0.1s-0.6,0-0.9,0.1v5.2H614.4z"/>
	<path class="st3" d="M625.4,28.1c0.3,0.9,0.6,1.9,0.9,2.9c0.3,1,0.6,2,0.9,3c0.3,1.1,0.6,2.2,0.9,3.4c0.3,1.2,0.6,2.5,0.9,3.9h-1.7
		c-0.1-0.6-0.2-1.1-0.3-1.7c-0.1-0.6-0.2-1.1-0.3-1.7h-4.2c-0.1,0.6-0.2,1.1-0.3,1.7s-0.2,1.1-0.3,1.7H620c0.3-1.4,0.6-2.7,0.9-3.9
		c0.3-1.2,0.6-2.3,0.9-3.4c0.3-1.1,0.6-2.1,0.9-3s0.6-1.9,0.9-2.9H625.4z M624.4,30.1c-0.3,1.1-0.6,2.1-0.9,3.2
		c-0.3,1.1-0.6,2.2-0.8,3.3h3.4c-0.3-1.1-0.5-2.2-0.8-3.3C625,32.2,624.7,31.1,624.4,30.1z"/>
	<path class="st3" d="M636.4,28.1v1.5h-2.9v11.7h-1.7V29.6h-2.9v-1.5H636.4z"/>
	<path class="st3" d="M638.3,28.1h1.7v13.2h-1.7V28.1z"/>
	<path class="st3" d="M647.3,28.1c0.3,0.9,0.6,1.9,0.9,2.9c0.3,1,0.6,2,0.9,3c0.3,1.1,0.6,2.2,0.9,3.4c0.3,1.2,0.6,2.5,0.9,3.9H649
		c-0.1-0.6-0.2-1.1-0.3-1.7c-0.1-0.6-0.2-1.1-0.3-1.7h-4.2c-0.1,0.6-0.2,1.1-0.3,1.7s-0.2,1.1-0.3,1.7H642c0.3-1.4,0.6-2.7,0.9-3.9
		c0.3-1.2,0.6-2.3,0.9-3.4c0.3-1.1,0.6-2.1,0.9-3s0.6-1.9,0.9-2.9H647.3z M646.3,30.1c-0.3,1.1-0.6,2.1-0.9,3.2
		c-0.3,1.1-0.6,2.2-0.8,3.3h3.4c-0.3-1.1-0.5-2.2-0.8-3.3S646.6,31.1,646.3,30.1z"/>
	<path class="st3" d="M658.6,39.8v1.5h-5.9V28.1h1.7v11.7H658.6z"/>
</g>
<g>
	<path class="st3" d="M605.1,43.8c0.9-0.2,1.8-0.3,2.6-0.3c0.7,0,1.3,0.1,1.8,0.2c0.5,0.2,1,0.4,1.4,0.7s0.7,0.8,0.9,1.3
		s0.3,1.2,0.3,1.9c0,0.8-0.1,1.4-0.3,1.9s-0.5,1-0.9,1.3s-0.9,0.6-1.4,0.7c-0.6,0.2-1.2,0.2-1.8,0.2h-0.8v4.9h-1.7L605.1,43.8
		L605.1,43.8z M606.8,50.4h0.7c0.4,0,0.8,0,1.2-0.1c0.3-0.1,0.6-0.2,0.9-0.5c0.2-0.2,0.4-0.5,0.6-0.8c0.1-0.3,0.2-0.8,0.2-1.3
		s-0.1-0.9-0.2-1.3c-0.1-0.3-0.3-0.6-0.5-0.8s-0.5-0.4-0.8-0.4c-0.3-0.1-0.7-0.1-1-0.1s-0.6,0-0.9,0.1v5.2H606.8z"/>
	<path class="st3" d="M620.2,55.3v1.5h-5.9V43.6h1.7v11.7H620.2z"/>
	<path class="st3" d="M626.9,43.6c0.3,0.9,0.6,1.9,0.9,2.9c0.3,1,0.6,2,0.9,3c0.3,1.1,0.6,2.2,0.9,3.4c0.3,1.2,0.6,2.5,0.9,3.9h-1.7
		c-0.1-0.6-0.2-1.1-0.3-1.7c-0.1-0.6-0.2-1.1-0.3-1.7H624c-0.1,0.6-0.2,1.1-0.3,1.7s-0.2,1.1-0.3,1.7h-1.7c0.3-1.4,0.6-2.7,0.9-3.9
		c0.3-1.2,0.6-2.3,0.9-3.4c0.3-1.1,0.6-2.1,0.9-3s0.6-1.9,0.9-2.9H626.9z M626,45.5c-0.3,1.1-0.6,2.1-0.9,3.2
		c-0.3,1.1-0.6,2.2-0.8,3.3h3.4c-0.3-1.1-0.5-2.2-0.8-3.3C626.6,47.6,626.3,46.6,626,45.5z"/>
	<path class="st3" d="M638.8,56.7c-0.3-0.7-0.6-1.6-1-2.4c-0.4-0.9-0.8-1.7-1.2-2.6c-0.4-0.9-0.9-1.8-1.3-2.6s-0.9-1.7-1.3-2.4v10.1
		h-1.6V43.6h1.4c0.5,0.8,0.9,1.6,1.4,2.4c0.4,0.8,0.9,1.6,1.3,2.4c0.4,0.8,0.8,1.6,1.2,2.4c0.4,0.8,0.7,1.5,1,2.2v-9.4h1.6v13.2
		h-1.5V56.7z"/>
	<path class="st3" d="M649.9,56.7c-0.3-0.7-0.6-1.6-1-2.4c-0.4-0.9-0.8-1.7-1.2-2.6c-0.4-0.9-0.9-1.8-1.3-2.6s-0.9-1.7-1.3-2.4v10.1
		h-1.6V43.6h1.4c0.5,0.8,0.9,1.6,1.4,2.4c0.4,0.8,0.9,1.6,1.3,2.4c0.4,0.8,0.8,1.6,1.2,2.4c0.4,0.8,0.7,1.5,1,2.2v-9.4h1.6v13.2
		h-1.5V56.7z"/>
	<path class="st3" d="M654.4,43.6h1.7v13.2h-1.7V43.6z"/>
	<path class="st3" d="M665.8,56.7c-0.3-0.7-0.6-1.6-1-2.4c-0.4-0.9-0.8-1.7-1.2-2.6c-0.4-0.9-0.9-1.8-1.3-2.6s-0.9-1.7-1.3-2.4v10.1
		h-1.6V43.6h1.4c0.5,0.8,0.9,1.6,1.4,2.4c0.4,0.8,0.9,1.6,1.3,2.4c0.4,0.8,0.8,1.6,1.2,2.4c0.4,0.8,0.7,1.5,1,2.2v-9.4h1.6v13.2
		h-1.5V56.7z"/>
	<path class="st3" d="M669.8,50.2c0-1.2,0.1-2.3,0.3-3.2s0.6-1.6,1-2.1c0.4-0.6,0.9-1,1.5-1.2s1.3-0.4,2-0.4c0.6,0,1.1,0.1,1.6,0.2
		c0.5,0.2,0.8,0.3,1.1,0.5l-0.5,1.4c-0.3-0.2-0.6-0.4-1-0.5c-0.3-0.1-0.7-0.2-1.2-0.2c-1.1,0-1.9,0.4-2.4,1.3s-0.7,2.2-0.7,4
		c0,1,0.1,1.8,0.2,2.5c0.1,0.7,0.4,1.2,0.6,1.7c0.3,0.4,0.6,0.7,1,1s0.8,0.3,1.3,0.3c0.4,0,0.7,0,1-0.1v-5.1h1.7v6.2
		c-0.3,0.2-0.8,0.3-1.3,0.4c-0.5,0.1-1,0.2-1.6,0.2c-0.7,0-1.3-0.1-1.9-0.4c-0.6-0.3-1.1-0.7-1.5-1.3s-0.8-1.3-1-2.1
		S669.8,51.3,669.8,50.2z"/>
</g>
<g>
	<path class="st3" d="M611.3,59v1.5h-2.9v11.7h-1.7V60.5h-2.9V59H611.3z"/>
	<path class="st3" d="M616.6,59c0.3,0.9,0.6,1.9,0.9,2.9c0.3,1,0.6,2,0.9,3c0.3,1.1,0.6,2.2,0.9,3.4c0.3,1.2,0.6,2.5,0.9,3.9h-1.7
		c-0.1-0.6-0.2-1.1-0.3-1.7s-0.2-1.1-0.3-1.7h-4.2c-0.1,0.6-0.2,1.1-0.3,1.7s-0.2,1.1-0.3,1.7h-1.7c0.3-1.4,0.6-2.7,0.9-3.9
		c0.3-1.2,0.6-2.3,0.9-3.4c0.3-1.1,0.6-2.1,0.9-3s0.6-1.9,0.9-2.9H616.6z M615.7,61c-0.3,1.1-0.6,2.1-0.9,3.2
		c-0.3,1.1-0.6,2.2-0.8,3.3h3.4c-0.3-1.1-0.5-2.2-0.8-3.3C616.3,63.1,616,62,615.7,61z"/>
	<path class="st3" d="M623.9,71c0.7,0,1.2-0.2,1.6-0.6s0.6-0.9,0.6-1.5c0-0.3-0.1-0.6-0.2-0.9c-0.1-0.3-0.3-0.5-0.4-0.7
		s-0.4-0.4-0.6-0.6c-0.2-0.2-0.5-0.4-0.7-0.5c-0.3-0.2-0.6-0.4-0.9-0.6s-0.6-0.5-0.9-0.8c-0.3-0.3-0.5-0.7-0.6-1.1
		c-0.2-0.4-0.2-0.9-0.2-1.4s0.1-1,0.3-1.4s0.4-0.8,0.8-1.1c0.3-0.3,0.7-0.5,1.2-0.7s0.9-0.2,1.5-0.2c0.5,0,1,0.1,1.4,0.2
		c0.4,0.1,0.8,0.3,1.1,0.5l-0.5,1.3c-0.3-0.2-0.6-0.3-0.9-0.4c-0.3-0.1-0.6-0.1-1-0.1c-0.6,0-1.1,0.2-1.5,0.5s-0.6,0.8-0.6,1.5
		c0,0.4,0.1,0.7,0.2,0.9s0.3,0.5,0.5,0.7s0.4,0.4,0.7,0.6s0.5,0.4,0.8,0.6s0.6,0.4,0.9,0.6c0.3,0.2,0.6,0.5,0.8,0.8s0.4,0.6,0.6,1
		c0.2,0.4,0.2,0.9,0.2,1.4s-0.1,1-0.2,1.4c-0.2,0.4-0.4,0.8-0.7,1.2c-0.3,0.3-0.7,0.6-1.2,0.8c-0.5,0.2-1.1,0.3-1.7,0.3
		c-0.6,0-1.1-0.1-1.6-0.2s-0.9-0.3-1.2-0.6l0.5-1.4c0.3,0.2,0.7,0.4,1,0.5C623,71,623.5,71,623.9,71z"/>
	<path class="st3" d="M637.4,59c-0.3,0.4-0.6,0.9-0.9,1.4c-0.3,0.5-0.7,1.1-1.1,1.6s-0.7,1.1-1.1,1.6s-0.7,1-1.1,1.5
		c0.4,0.4,0.8,0.9,1.2,1.4c0.4,0.6,0.9,1.2,1.3,1.8c0.4,0.6,0.8,1.3,1.2,1.9c0.4,0.7,0.7,1.3,0.9,1.8H636c-0.3-0.6-0.6-1.2-0.9-1.8
		s-0.7-1.2-1.1-1.8s-0.8-1.1-1.2-1.6s-0.8-0.9-1.2-1.2v6.3h-1.7V59h1.7v5.8c0.3-0.4,0.7-0.9,1-1.4s0.7-1.1,1.1-1.6s0.7-1,1-1.5
		s0.6-0.9,0.8-1.3C635.5,59,637.4,59,637.4,59z"/>
</g>
<g>
	<path class="st3" d="M562.8,56.6c0.8,0,1.4-0.2,1.8-0.7s0.6-1,0.6-1.8c0-0.4-0.1-0.7-0.2-1.1c-0.1-0.3-0.3-0.6-0.5-0.8
		s-0.5-0.5-0.7-0.7c-0.3-0.2-0.6-0.4-0.9-0.6c-0.3-0.2-0.7-0.5-1.1-0.7c-0.4-0.3-0.7-0.6-1-0.9c-0.3-0.4-0.5-0.8-0.7-1.2
		s-0.3-1-0.3-1.6s0.1-1.2,0.3-1.7s0.5-0.9,0.9-1.3s0.8-0.6,1.3-0.8s1.1-0.3,1.7-0.3c0.6,0,1.1,0.1,1.6,0.2c0.5,0.1,0.9,0.3,1.3,0.5
		l-0.6,1.6c-0.3-0.2-0.6-0.4-1-0.5s-0.7-0.2-1.1-0.2c-0.7,0-1.3,0.2-1.7,0.6s-0.6,1-0.6,1.7c0,0.4,0.1,0.8,0.2,1.1
		c0.1,0.3,0.3,0.6,0.5,0.8s0.5,0.5,0.8,0.7s0.6,0.4,1,0.6c0.3,0.2,0.7,0.5,1,0.7c0.4,0.3,0.7,0.6,1,0.9c0.3,0.3,0.5,0.7,0.7,1.2
		s0.3,1,0.3,1.6s-0.1,1.1-0.3,1.6s-0.5,1-0.8,1.4c-0.4,0.4-0.8,0.7-1.4,0.9c-0.6,0.2-1.2,0.3-2,0.3c-0.7,0-1.3-0.1-1.8-0.2
		s-1-0.4-1.4-0.6l0.6-1.6c0.4,0.2,0.8,0.4,1.2,0.6C561.8,56.5,562.2,56.6,562.8,56.6z"/>
	<path class="st3" d="M569.7,42.9c1-0.2,2-0.4,3-0.4c0.8,0,1.5,0.1,2.1,0.3s1.2,0.5,1.6,0.9c0.4,0.4,0.8,0.9,1,1.5s0.4,1.4,0.4,2.2
		c0,0.9-0.1,1.6-0.4,2.3c-0.2,0.6-0.6,1.1-1.1,1.5s-1,0.7-1.6,0.8c-0.6,0.2-1.3,0.3-2.1,0.3h-0.9V58h-2V42.9z M571.7,50.5h0.8
		c0.5,0,0.9-0.1,1.4-0.2c0.4-0.1,0.7-0.3,1-0.5s0.5-0.6,0.6-1s0.2-0.9,0.2-1.5s-0.1-1.1-0.2-1.5s-0.3-0.7-0.6-1
		c-0.3-0.2-0.6-0.4-0.9-0.5s-0.8-0.2-1.2-0.2s-0.7,0-1.1,0.1V50.5z"/>
	<path class="st3" d="M587.6,42.7v1.7h-3.4V58h-2V44.4h-3.4v-1.7H587.6z"/>
</g>
<path class="st4" d="M499.9,11.9v10.7c0,0.2-0.1,0.3-0.2,0.4s-0.3,0.2-0.4,0.2c-0.2,0-0.3-0.1-0.4-0.2l-3.3-3.3H493
	c-0.2,0-0.3-0.1-0.4-0.2s-0.2-0.3-0.2-0.4v-3.8c0-0.2,0.1-0.3,0.2-0.4c0.1-0.1,0.3-0.2,0.4-0.2h2.6l3.3-3.3c0.1-0.1,0.3-0.2,0.4-0.2
	c0.2,0,0.3,0.1,0.4,0.2C499.8,11.6,499.9,11.7,499.9,11.9 M503.2,15.8c0.3,0.4,0.4,0.9,0.4,1.4s-0.1,1-0.4,1.4s-0.6,0.7-1.1,0.9
	c-0.1,0-0.1,0.1-0.2,0.1c-0.2,0-0.3-0.1-0.4-0.2s-0.2-0.3-0.2-0.4s0-0.3,0.1-0.3c0.1-0.1,0.2-0.2,0.3-0.2c0.1-0.1,0.2-0.1,0.3-0.2
	s0.2-0.2,0.3-0.3c0.1-0.2,0.1-0.3,0.1-0.6c0-0.2,0-0.4-0.1-0.6s-0.2-0.3-0.3-0.4c-0.1-0.1-0.2-0.2-0.3-0.2c-0.1-0.1-0.2-0.2-0.3-0.2
	c-0.1-0.1-0.1-0.2-0.1-0.4s0.1-0.3,0.2-0.4c0.1-0.1,0.3-0.2,0.4-0.2s0.2,0,0.2,0C502.6,15.1,503,15.4,503.2,15.8"/>
<line class="st5" x1="259.9" y1="107.8" x2="259.9" y2="420.6"/>
<line class="st5" x1="86.5" y1="351.3" x2="444.5" y2="351.3"/>
<line class="st5" x1="153.7" y1="245.7" x2="370.8" y2="245.7"/>
<line class="st5" x1="221" y1="149.6" x2="297.9" y2="149.6"/>
<path class="st6" d="M235.9,149.6c0,15-12.1,27.1-27.1,27.1s-27.1-12.1-27.1-27.1s12.1-27.1,27.1-27.1S235.9,134.6,235.9,149.6"/>
<path class="st6" d="M337.2,149.6c0,15-12.1,27.1-27.1,27.1S283,164.6,283,149.6s12.1-27.1,27.1-27.1
	C325.1,122.5,337.2,134.6,337.2,149.6"/>
<path class="st6" d="M235.9,245.7c0,15-12.1,27.1-27.1,27.1s-27.1-12.1-27.1-27.1s12.1-27.1,27.1-27.1S235.9,230.7,235.9,245.7"/>
<path class="st7" d="M337.2,351.7c0,15-12.1,27.1-27.1,27.1S283,366.7,283,351.7s12.1-27.1,27.1-27.1
	C325.1,324.5,337.2,336.7,337.2,351.7"/>
<path class="st7" d="M404.5,351.7c0,15-12.1,27.1-27.1,27.1s-27.1-12.1-27.1-27.1s12.1-27.1,27.1-27.1
	C392.3,324.5,404.5,336.7,404.5,351.7"/>
<path class="st7" d="M168.6,245.7c0,15-12.1,27.1-27.1,27.1s-27.1-12.1-27.1-27.1s12.1-27.1,27.1-27.1S168.6,230.7,168.6,245.7"/>
<path class="st6" d="M235.9,351.3c0,15-12.1,27.1-27.1,27.1s-27.1-12.1-27.1-27.1s12.1-27.1,27.1-27.1S235.9,336.4,235.9,351.3"/>
<path class="st6" d="M168.6,351.3c0,15-12.1,27.1-27.1,27.1s-27.1-12.1-27.1-27.1s12.1-27.1,27.1-27.1S168.6,336.4,168.6,351.3"/>
<path class="st6" d="M101.4,351.3c0,15-12.1,27.1-27.1,27.1s-27.1-12.1-27.1-27.1s12.1-27.1,27.1-27.1S101.4,336.4,101.4,351.3"/>
<g>
	<path class="st3" d="M208.1,142.9c0.3-0.2,0.7-0.5,1.1-0.8c0.4-0.3,0.7-0.6,1.1-1s0.7-0.7,1-1.1c0.3-0.4,0.5-0.7,0.7-1.1h1.8v20
		h-2.3v-16.1c-0.3,0.3-0.7,0.7-1.1,1c-0.4,0.3-0.8,0.6-1.3,0.9L208.1,142.9z"/>
</g>
<g>
	<path class="st3" d="M306.7,140.2c1.1-1.1,2.4-1.7,3.9-1.7s2.6,0.4,3.4,1.2s1.2,2.1,1.2,3.8c0,0.8-0.1,1.6-0.4,2.3
		s-0.6,1.4-0.9,2.1c-0.4,0.7-0.8,1.4-1.2,2c-0.5,0.7-0.9,1.4-1.3,2.1c-0.4,0.7-0.8,1.4-1.1,2.2c-0.3,0.8-0.5,1.6-0.6,2.4h5.9v2.2
		h-8.4v-0.5c0-1.3,0.1-2.4,0.4-3.4s0.6-1.9,1-2.7s0.9-1.6,1.3-2.2c0.5-0.7,0.9-1.4,1.3-2s0.7-1.3,1-2s0.4-1.5,0.4-2.3
		c0-1-0.2-1.8-0.6-2.2c-0.4-0.5-0.9-0.7-1.7-0.7c-0.5,0-1,0.1-1.4,0.3s-0.8,0.5-1.1,0.9L306.7,140.2z"/>
</g>
<g>
	<path class="st3" d="M204.4,248.3c0.3-1.2,0.7-2.4,1.2-3.8c0.5-1.3,1-2.6,1.6-3.8c0.5-1.2,1.1-2.3,1.6-3.3s0.9-1.8,1.2-2.3h2.4
		v13.1h1.8v2h-1.8v4.9h-2.1v-4.9h-5.8L204.4,248.3L204.4,248.3z M210.2,248.1v-9.7c-0.3,0.6-0.6,1.3-0.9,2c-0.4,0.8-0.7,1.6-1.1,2.5
		c-0.4,0.9-0.7,1.7-1,2.6s-0.6,1.8-0.8,2.6L210.2,248.1L210.2,248.1z"/>
</g>
<g>
	<path class="st8" d="M312.5,350.2c0.9,0.3,1.6,1,2.1,1.8c0.5,0.9,0.7,2,0.7,3.4c0,1.8-0.4,3.3-1.3,4.4c-0.8,1.1-2.1,1.6-3.8,1.6
		c-0.7,0-1.3-0.1-1.9-0.3c-0.6-0.2-1.2-0.5-1.6-0.8l0.6-2c0.4,0.3,0.9,0.5,1.3,0.7c0.5,0.2,0.9,0.3,1.4,0.3c0.9,0,1.6-0.3,2.1-0.9
		s0.8-1.6,0.8-2.9s-0.3-2.3-0.9-3s-1.5-1-2.7-1h-0.7v-2.1h0.6c1.1,0,1.9-0.3,2.4-0.9s0.8-1.5,0.8-2.6c0-1-0.2-1.8-0.6-2.3
		s-1-0.8-1.6-0.8c-0.5,0-0.9,0.1-1.3,0.3c-0.4,0.2-0.8,0.4-1.1,0.7l-0.9-1.8c0.5-0.5,1-0.8,1.7-1c0.6-0.2,1.3-0.3,1.9-0.3
		c1.4,0,2.5,0.5,3.2,1.4c0.8,0.9,1.1,2.2,1.1,3.7c0,1.1-0.2,2-0.6,2.8C313.8,349.3,313.2,349.8,312.5,350.2z"/>
</g>
<g>
	<path class="st9" d="M141.6,237.2c-0.1,1.4-0.2,2.5-0.2,3.5c0,0.9-0.1,1.7-0.1,2.2c1.9,0.2,3.3,0.9,4.2,2s1.3,2.5,1.3,4.3
		c0,1-0.2,1.9-0.5,2.7s-0.7,1.5-1.3,2c-0.5,0.5-1.2,0.9-1.9,1.2s-1.5,0.4-2.4,0.4c-0.6,0-1.2-0.1-1.8-0.2s-1.2-0.4-1.7-0.7l0.7-2
		c0.9,0.5,1.8,0.7,2.7,0.7c1,0,1.8-0.3,2.4-1c0.7-0.7,1-1.7,1-3.1c0-1.5-0.4-2.6-1.3-3.3c-0.9-0.7-2.3-1-4.1-1.1
		c0.1-1,0.2-1.8,0.2-2.6s0.1-1.6,0.2-2.3c0-0.8,0.1-1.5,0.1-2.3s0.1-1.6,0.1-2.4h7.1v2.2h-4.7V237.2z"/>
</g>
<g>
	<path class="st3" d="M206.5,358.7c0.7-0.1,1.3-0.2,1.9-0.4c0.6-0.2,1.1-0.6,1.6-1c0.5-0.5,0.8-1.1,1.1-1.8c0.3-0.8,0.5-1.7,0.7-2.9
		c-0.7,0.3-1.4,0.5-2,0.5c-1.3,0-2.3-0.5-3-1.6s-1.1-2.6-1.1-4.5c0-2,0.3-3.6,1-4.8c0.7-1.2,1.7-1.8,3.2-1.8c0.7,0,1.4,0.2,1.9,0.5
		c0.6,0.3,1,0.8,1.4,1.5s0.6,1.6,0.8,2.8c0.2,1.1,0.3,2.5,0.3,4.2c0,1.5-0.1,2.9-0.4,4.2c-0.3,1.4-0.7,2.6-1.3,3.6
		c-0.6,1.1-1.4,1.9-2.4,2.6s-2.2,1-3.6,1.1L206.5,358.7z M210.4,350.9c0.5,0,1.1-0.2,1.6-0.5c0-0.2,0-0.5,0-0.7s0-0.5,0-0.8
		c0-0.9,0-1.7-0.1-2.5c0-0.8-0.1-1.5-0.3-2.1c-0.1-0.6-0.4-1.1-0.6-1.4c-0.3-0.4-0.7-0.5-1.1-0.5c-0.7,0-1.2,0.4-1.5,1.2
		c-0.3,0.8-0.4,1.9-0.4,3.2c0,1.4,0.2,2.5,0.6,3.2C209,350.6,209.6,350.9,210.4,350.9z"/>
</g>
<g>
	<path class="st3" d="M146.9,345.1c0,1.1-0.3,2.1-0.8,3s-1.1,1.7-1.8,2.4c0.8,0.6,1.4,1.3,2,2.1c0.6,0.8,0.8,1.8,0.8,3
		c0,0.9-0.1,1.7-0.4,2.4c-0.3,0.7-0.6,1.2-1,1.7s-0.9,0.8-1.4,1s-1.1,0.3-1.7,0.3c-0.7,0-1.3-0.1-1.8-0.4c-0.6-0.3-1-0.6-1.4-1.1
		s-0.7-1-0.9-1.6s-0.3-1.3-0.3-2.1c0-1.2,0.2-2.3,0.7-3.2c0.5-0.9,1.2-1.8,2-2.5c-0.7-0.6-1.2-1.3-1.7-2.1c-0.4-0.9-0.6-1.9-0.6-3
		c0-0.9,0.1-1.6,0.4-2.2c0.3-0.6,0.6-1.1,1-1.5s0.9-0.7,1.4-0.9c0.5-0.2,1-0.3,1.5-0.3s1,0.1,1.5,0.3c0.5,0.2,0.9,0.5,1.3,0.9
		c0.4,0.4,0.7,0.9,0.9,1.5C146.8,343.5,146.9,344.3,146.9,345.1z M144.8,355.9c0-0.5-0.1-1-0.2-1.4c-0.2-0.4-0.4-0.8-0.6-1.2
		c-0.3-0.4-0.5-0.7-0.9-1c-0.3-0.3-0.6-0.6-1-0.9c-0.5,0.5-1,1.1-1.3,1.8c-0.3,0.7-0.5,1.6-0.5,2.6s0.2,1.9,0.6,2.5
		c0.4,0.6,1,0.9,1.7,0.9c0.6,0,1.1-0.3,1.6-0.9S144.8,357,144.8,355.9z M140.7,344.9c0,0.6,0,1.2,0.1,1.6c0.1,0.5,0.2,0.9,0.4,1.2
		c0.2,0.4,0.4,0.7,0.7,1s0.6,0.6,0.9,0.8c0.5-0.6,0.9-1.1,1.2-1.8c0.3-0.6,0.5-1.4,0.5-2.4c0-1.2-0.2-2-0.5-2.4
		c-0.4-0.5-0.8-0.7-1.3-0.7c-0.2,0-0.4,0-0.6,0.1c-0.2,0.1-0.4,0.2-0.6,0.4s-0.3,0.5-0.5,0.8C140.8,343.9,140.7,344.3,140.7,344.9z"
		/>
</g>
<g>
	<path class="st9" d="M382.1,343c-0.7,0.1-1.3,0.3-1.9,0.5s-1.1,0.6-1.5,1c-0.5,0.5-0.8,1.1-1.1,1.9c-0.3,0.8-0.5,1.7-0.7,2.9
		c0.4-0.2,0.7-0.3,1.1-0.4s0.7-0.1,1-0.1c1.3,0,2.3,0.5,3,1.6s1.1,2.6,1.1,4.5c0,2-0.3,3.6-1,4.8c-0.7,1.2-1.7,1.8-3.2,1.8
		c-0.7,0-1.4-0.2-1.9-0.5c-0.6-0.3-1-0.8-1.4-1.5s-0.6-1.6-0.8-2.8c-0.2-1.1-0.3-2.5-0.3-4.2c0-1.4,0.1-2.8,0.4-4.2
		c0.3-1.4,0.7-2.6,1.3-3.6c0.6-1.1,1.4-1.9,2.3-2.6s2.1-1,3.5-1.1L382.1,343z M378.4,350.8c-0.3,0-0.6,0.1-0.9,0.2s-0.6,0.2-0.8,0.4
		c0,0.2,0,0.5,0,0.7s0,0.5,0,0.7c0,0.9,0,1.7,0.1,2.5c0,0.8,0.1,1.5,0.3,2.1c0.1,0.6,0.4,1.1,0.6,1.4c0.3,0.4,0.7,0.5,1.1,0.5
		c0.7,0,1.2-0.4,1.5-1.2c0.3-0.8,0.4-1.9,0.4-3.2c0-1.4-0.2-2.5-0.6-3.2C379.8,351.1,379.2,350.8,378.4,350.8z"/>
</g>
<g>
	<path class="st3" d="M72.5,360.7c0-0.9,0.1-1.9,0.3-3c0.2-1.1,0.3-2.1,0.6-3.2c0.2-1.1,0.5-2.2,0.8-3.3c0.3-1.1,0.6-2.2,0.9-3.2
		s0.6-1.9,1-2.8c0.3-0.9,0.6-1.6,1-2.3h-6.4v-2.2h9v1.9c-0.4,0.7-0.9,1.8-1.4,3.1c-0.5,1.3-1,2.8-1.5,4.4s-0.9,3.3-1.2,5.2
		s-0.5,3.6-0.6,5.4H72.5z"/>
</g>
<path class="st10" d="M668.9,429.9c0,29.9-24.2,54.1-54.1,54.1c-29.9,0-54.1-24.2-54.1-54.1s24.2-54.1,54.1-54.1
	S668.9,400,668.9,429.9"/>
<g>
	<path class="st11" d="M600.6,407.5c0.5,0,0.9-0.1,1.1-0.4c0.3-0.3,0.4-0.6,0.4-1.1c0-0.2,0-0.5-0.1-0.6c-0.1-0.2-0.2-0.4-0.3-0.5
		s-0.3-0.3-0.5-0.4s-0.3-0.3-0.5-0.4s-0.4-0.3-0.6-0.5c-0.2-0.2-0.4-0.3-0.6-0.6c-0.2-0.2-0.3-0.5-0.5-0.8c-0.1-0.3-0.2-0.6-0.2-1
		s0.1-0.7,0.2-1s0.3-0.6,0.5-0.8c0.2-0.2,0.5-0.4,0.8-0.5s0.7-0.2,1-0.2c0.4,0,0.7,0,1,0.1s0.6,0.2,0.8,0.3l-0.4,1
		c-0.2-0.1-0.4-0.2-0.6-0.3c-0.2-0.1-0.5-0.1-0.7-0.1c-0.4,0-0.8,0.1-1.1,0.4c-0.3,0.2-0.4,0.6-0.4,1c0,0.3,0,0.5,0.1,0.7
		s0.2,0.4,0.3,0.5c0.1,0.2,0.3,0.3,0.5,0.4s0.4,0.3,0.6,0.4c0.2,0.1,0.4,0.3,0.6,0.4c0.2,0.2,0.4,0.3,0.6,0.6
		c0.2,0.2,0.3,0.5,0.4,0.7c0.1,0.3,0.2,0.6,0.2,1c0,0.3-0.1,0.7-0.2,1c-0.1,0.3-0.3,0.6-0.5,0.8s-0.5,0.4-0.9,0.6
		c-0.3,0.1-0.8,0.2-1.2,0.2s-0.8,0-1.1-0.1s-0.6-0.2-0.9-0.4l0.4-1c0.2,0.1,0.5,0.3,0.7,0.3C600,407.5,600.3,407.5,600.6,407.5z"/>
	<path class="st11" d="M608,408.5c-1.1,0-1.9-0.4-2.5-1.2c-0.6-0.8-0.9-2.1-0.9-3.8c0-0.9,0.1-1.6,0.2-2.2c0.2-0.6,0.4-1.1,0.7-1.5
		s0.6-0.6,1-0.8c0.4-0.2,0.8-0.2,1.3-0.2c0.4,0,0.8,0.1,1.1,0.2s0.6,0.2,0.8,0.4l-0.4,1c-0.2-0.1-0.4-0.3-0.7-0.3
		c-0.2-0.1-0.5-0.1-0.9-0.1c-0.7,0-1.2,0.3-1.6,0.9c-0.3,0.6-0.5,1.5-0.5,2.8s0.2,2.2,0.5,2.9c0.3,0.7,0.9,1,1.7,1
		c0.4,0,0.7,0,0.9-0.1s0.5-0.2,0.7-0.3l0.3,1c-0.2,0.2-0.5,0.3-0.8,0.4S608.4,408.5,608,408.5z"/>
	<path class="st11" d="M617.4,403.7c0,0.7-0.1,1.4-0.2,2c-0.1,0.6-0.3,1.1-0.6,1.5s-0.6,0.8-1,1s-0.9,0.3-1.5,0.3s-1.1-0.1-1.5-0.3
		c-0.4-0.2-0.8-0.6-1-1c-0.3-0.4-0.5-0.9-0.6-1.5s-0.2-1.3-0.2-2s0.1-1.4,0.2-2c0.1-0.6,0.3-1.1,0.6-1.5s0.6-0.8,1-1
		s0.9-0.4,1.5-0.4s1.1,0.1,1.5,0.4c0.4,0.2,0.8,0.6,1,1c0.3,0.4,0.5,0.9,0.6,1.5C617.4,402.3,617.4,403,617.4,403.7z M616.1,403.7
		c0-0.6,0-1.1-0.1-1.5c-0.1-0.5-0.2-0.9-0.3-1.2c-0.2-0.3-0.4-0.6-0.6-0.8c-0.3-0.2-0.6-0.3-0.9-0.3s-0.7,0.1-0.9,0.3
		c-0.3,0.2-0.5,0.5-0.6,0.8c-0.2,0.3-0.3,0.7-0.4,1.2c-0.1,0.5-0.1,1-0.1,1.5c0,0.6,0,1.1,0.1,1.5c0.1,0.5,0.2,0.9,0.4,1.2
		s0.4,0.6,0.6,0.8c0.3,0.2,0.6,0.3,0.9,0.3s0.7-0.1,0.9-0.3c0.3-0.2,0.5-0.4,0.6-0.8s0.3-0.7,0.3-1.2
		C616.1,404.8,616.1,404.2,616.1,403.7z"/>
	<path class="st11" d="M619.3,399.1c0.6-0.2,1.2-0.2,1.8-0.2c0.5,0,0.9,0.1,1.3,0.2c0.4,0.1,0.7,0.3,1,0.5s0.5,0.5,0.6,0.9
		s0.2,0.8,0.2,1.3c0,0.6-0.1,1.2-0.4,1.6c-0.2,0.4-0.6,0.7-1,0.9c0.1,0.2,0.2,0.4,0.4,0.7c0.2,0.3,0.3,0.6,0.5,1s0.3,0.8,0.5,1.1
		c0.2,0.4,0.3,0.8,0.4,1.1h-1.2c-0.1-0.3-0.2-0.6-0.4-0.9c-0.1-0.3-0.3-0.7-0.5-1s-0.3-0.7-0.5-1s-0.3-0.6-0.4-0.8
		c-0.1,0-0.3,0-0.4,0c-0.2,0-0.3,0-0.5,0h-0.3v3.6h-1.2v-9H619.3z M620.5,403.7h0.5c0.6,0,1.1-0.1,1.4-0.4c0.3-0.3,0.5-0.8,0.5-1.5
		c0-0.3,0-0.6-0.1-0.9c-0.1-0.2-0.2-0.4-0.4-0.6c-0.2-0.1-0.3-0.2-0.6-0.3c-0.2-0.1-0.5-0.1-0.7-0.1s-0.4,0-0.6,0L620.5,403.7
		L620.5,403.7z"/>
	<path class="st11" d="M626.2,408.3V399h4.2v1h-3v2.9h2.7v1h-2.7v3.3h3.2v1h-4.4V408.3z"/>
</g>
<g>
	<path class="st12" d="M601.4,438.5c0-3.1,0.1-5.6,0.3-7.7s0.6-3.8,1-5c0.5-1.3,1.1-2.2,1.8-2.7s1.6-0.8,2.6-0.8s1.9,0.3,2.6,0.8
		s1.3,1.5,1.8,2.7c0.5,1.3,0.8,2.9,1,5s0.3,4.7,0.3,7.7c0,3.1-0.1,5.6-0.3,7.7s-0.6,3.8-1,5c-0.5,1.3-1.1,2.2-1.8,2.7
		c-0.7,0.6-1.6,0.8-2.6,0.8s-1.9-0.3-2.6-0.8c-0.7-0.6-1.3-1.5-1.8-2.7c-0.5-1.3-0.8-2.9-1-5S601.4,441.5,601.4,438.5z M609.8,438.5
		c0-2.5,0-4.5-0.1-6.2s-0.2-3-0.4-4s-0.5-1.7-0.8-2.1s-0.7-0.6-1.2-0.6s-0.9,0.2-1.2,0.6s-0.6,1.1-0.8,2.1s-0.3,2.3-0.4,4
		s-0.1,3.7-0.1,6.2s0,4.5,0.1,6.2s0.2,3,0.4,4s0.5,1.7,0.8,2.1s0.7,0.6,1.2,0.6s0.9-0.2,1.2-0.6s0.6-1.1,0.8-2.1s0.3-2.3,0.4-4
		C609.8,443,609.8,440.9,609.8,438.5z"/>
	<path class="st12" d="M624,437.3c1.2,0.5,2.1,1.5,2.8,2.9s1,3.1,1,5.3c0,2.9-0.6,5.2-1.7,6.8c-1.1,1.7-2.8,2.5-5,2.5
		c-0.9,0-1.7-0.2-2.6-0.5c-0.8-0.3-1.6-0.8-2.2-1.3l0.8-3.1c0.5,0.4,1.1,0.8,1.7,1.1c0.6,0.3,1.2,0.4,1.9,0.4c1.2,0,2.2-0.5,2.8-1.4
		c0.7-0.9,1-2.5,1-4.5s-0.4-3.6-1.1-4.7c-0.7-1-1.9-1.6-3.6-1.6H619v-3.3h0.8c1.4,0,2.5-0.5,3.2-1.4c0.7-1,1-2.3,1-4
		c0-1.6-0.3-2.8-0.8-3.6c-0.5-0.8-1.3-1.2-2.2-1.2c-0.6,0-1.2,0.2-1.8,0.4c-0.6,0.3-1,0.7-1.4,1.1l-1.2-2.8c0.6-0.7,1.3-1.3,2.2-1.6
		c0.8-0.4,1.7-0.5,2.5-0.5c1.8,0,3.3,0.7,4.3,2.2s1.5,3.4,1.5,5.9c0,1.7-0.3,3.2-0.8,4.3S625,436.7,624,437.3z"/>
</g>
<path class="st0" d="M668.5,178.1c0,29.8-24.2,54-54,54s-54-24.2-54-54s24.2-54,54-54S668.5,148.3,668.5,178.1"/>
<path class="st10" d="M655.1,214.1c-9.9,11.2-24.4,18.3-40.6,18.3c-14.7,0-28.1-5.9-37.9-15.4C578.6,214.9,656.4,212.6,655.1,214.1"
	/>
<polyline class="st0" points="651.6,220.2 636.3,203.5 643.9,196 658.8,210.8 "/>
<path class="st0" d="M659.3,211.7c2.3,2.3,2.3,6.1,0,8.4c-2.3,2.3-6.1,2.3-8.4,0c-2.3-2.3-2.3-6.1,0-8.4
	C653.1,209.4,656.9,209.4,659.3,211.7"/>
<polyline class="st0" points="578.5,220.2 593.8,203.5 586.2,196 571.3,210.8 "/>
<path class="st0" d="M569.3,211.7c-2.3,2.3-2.3,6.1,0,8.4c2.3,2.3,6.1,2.3,8.4,0c2.3-2.3,2.3-6.1,0-8.4
	C575.4,209.4,571.7,209.4,569.3,211.7"/>
<linearGradient id="SVGID_1_" gradientUnits="userSpaceOnUse" x1="-22.6819" y1="-2949.1738" x2="-21.6819" y2="-2949.1738" gradientTransform="matrix(102.087 0 0 102.087 2879.0203 301240.375)">
	<stop  offset="0" style="stop-color:#3A827B"/>
	<stop  offset="7.274180e-02" style="stop-color:#3A827B"/>
	<stop  offset="0.3951" style="stop-color:#F48270"/>
	<stop  offset="0.7246" style="stop-color:#F5841F"/>
	<stop  offset="0.9481" style="stop-color:#ED174B"/>
	<stop  offset="1" style="stop-color:#ED174B"/>
</linearGradient>
<path class="st13" d="M574.2,208.5c-6.4-8.5-10.2-19-10.2-30.4c0-27.9,22.6-50.5,50.5-50.5s50.5,22.6,50.5,50.5
	c0,10.9-3.5,21.1-9.4,29.4l-3.3-2.3c5.5-7.6,8.7-17,8.7-27c0-25.7-20.8-46.5-46.5-46.5S568,152.5,568,178.2c0,10.5,3.5,20.2,9.4,28
	L574.2,208.5L574.2,208.5z"/>
<g>
	<g>
		<defs>
			<path id="SVGID_2_" d="M566,178.1c0,26.8,21.7,48.5,48.5,48.5s48.5-21.7,48.5-48.5s-21.7-48.5-48.5-48.5S566,151.3,566,178.1"/>
		</defs>
		<clipPath id="SVGID_3_">
			<use xlink:href="#SVGID_2_"  style="overflow:visible;"/>
		</clipPath>
		
			<radialGradient id="SVGID_4_" cx="-24.9974" cy="-2950.917" r="1" gradientTransform="matrix(48.5 0 0 48.5 1826.876 143297.5781)" gradientUnits="userSpaceOnUse">
			<stop  offset="0" style="stop-color:#39817A"/>
			<stop  offset="0.4798" style="stop-color:#39817A"/>
			<stop  offset="1" style="stop-color:#18625B"/>
		</radialGradient>
		<rect x="566" y="129.6" class="st14" width="97" height="97"/>
	</g>
</g>
<g>
	<path class="st11" d="M607.5,148.7v1h-2.1v8.3h-1.2v-8.3h-2.1v-1H607.5z"/>
	<path class="st11" d="M608.8,148.7h1.2v9.3h-1.2V148.7z"/>
	<path class="st11" d="M615.6,156.7c-0.2-0.6-0.4-1.3-0.6-1.9c-0.2-0.6-0.4-1.1-0.5-1.7s-0.3-1-0.5-1.4s-0.3-0.8-0.4-1.1
		c0,0.5-0.1,1.1-0.1,1.7s0,1.2-0.1,1.9c0,0.6,0,1.3-0.1,1.9s0,1.3,0,1.9h-1.2c0-0.8,0.1-1.6,0.1-2.4c0-0.8,0.1-1.6,0.1-2.4
		c0-0.8,0.1-1.6,0.1-2.3c0-0.8,0.1-1.5,0.2-2.1h1.2c0.2,0.4,0.3,0.8,0.6,1.4c0.2,0.5,0.4,1.1,0.6,1.7s0.4,1.2,0.6,1.7
		s0.4,1.1,0.5,1.6c0.1-0.5,0.3-1,0.5-1.6s0.4-1.2,0.6-1.7s0.4-1.1,0.6-1.7s0.4-1,0.5-1.4h1.2c0.1,0.7,0.1,1.4,0.2,2.1
		c0,0.8,0.1,1.5,0.1,2.3s0.1,1.6,0.1,2.4c0,0.8,0.1,1.6,0.1,2.4h-1.2c0-0.6,0-1.2,0-1.9s0-1.3-0.1-2s0-1.3-0.1-1.9
		c0-0.6-0.1-1.2-0.1-1.7c-0.1,0.2-0.2,0.5-0.3,0.8s-0.2,0.7-0.4,1.1c-0.1,0.4-0.3,0.8-0.4,1.2c-0.1,0.4-0.3,0.8-0.4,1.2
		c-0.1,0.4-0.2,0.7-0.3,1.1c-0.1,0.3-0.2,0.6-0.2,0.8L615.6,156.7L615.6,156.7z"/>
	<path class="st11" d="M622.1,158v-9.3h4.2v1h-3v2.9h2.7v1h-2.7v3.3h3.2v1h-4.4V158z"/>
</g>
<g>
	<path class="st3" d="M590,178.3c0.5-0.3,0.9-0.7,1.4-1.2s1-1,1.4-1.5c0.4-0.6,0.9-1.1,1.3-1.7c0.4-0.6,0.7-1.2,1-1.7h2.3v31.2h-3.1
		v-25.1c-0.4,0.5-0.9,1.1-1.4,1.5c-0.5,0.5-1.1,0.9-1.7,1.4L590,178.3z"/>
	<path class="st3" d="M609,181.8c0,0.7-0.2,1.3-0.6,1.8c-0.4,0.5-0.9,0.8-1.5,0.8s-1.1-0.3-1.5-0.8s-0.6-1.2-0.6-1.8
		c0-0.7,0.2-1.4,0.6-1.9s0.9-0.8,1.5-0.8s1.2,0.3,1.5,0.8C608.8,180.4,609,181.1,609,181.8z M609,201.2c0,0.7-0.2,1.3-0.6,1.8
		c-0.4,0.5-0.9,0.8-1.5,0.8s-1.1-0.3-1.5-0.8s-0.6-1.2-0.6-1.8c0-0.7,0.2-1.3,0.6-1.9s0.9-0.8,1.5-0.8s1.2,0.3,1.5,0.8
		C608.8,199.8,609,200.5,609,201.2z"/>
	<path class="st3" d="M620.2,186.5c1.2,0.5,2.1,1.5,2.8,2.9s1,3.1,1,5.3c0,2.9-0.6,5.2-1.7,6.8c-1.1,1.7-2.8,2.5-5,2.5
		c-0.9,0-1.7-0.2-2.6-0.5c-0.8-0.3-1.6-0.8-2.2-1.3l0.8-3.1c0.5,0.4,1.1,0.8,1.7,1.1c0.6,0.3,1.2,0.4,1.9,0.4c1.2,0,2.2-0.5,2.8-1.4
		c0.7-0.9,1-2.5,1-4.5s-0.4-3.6-1.1-4.7c-0.7-1-1.9-1.6-3.6-1.6h-0.9v-3.3h0.8c1.4,0,2.5-0.5,3.2-1.4c0.7-1,1-2.3,1-4
		c0-1.6-0.3-2.8-0.8-3.6s-1.3-1.2-2.2-1.2c-0.6,0-1.2,0.2-1.8,0.4c-0.6,0.3-1,0.7-1.4,1.1l-1.2-2.8c0.6-0.7,1.3-1.3,2.2-1.6
		c0.8-0.4,1.7-0.5,2.5-0.5c1.8,0,3.3,0.7,4.3,2.2s1.5,3.4,1.5,5.9c0,1.7-0.3,3.2-0.8,4.3S621.1,185.9,620.2,186.5z"/>
	<path class="st3" d="M628.1,187.7c0-3.1,0.1-5.6,0.3-7.7c0.2-2.1,0.6-3.8,1-5c0.5-1.3,1.1-2.2,1.8-2.7s1.6-0.8,2.6-0.8
		s1.9,0.3,2.6,0.8s1.3,1.5,1.8,2.7c0.5,1.3,0.8,2.9,1,5s0.3,4.7,0.3,7.7c0,3.1-0.1,5.6-0.3,7.7c-0.2,2.1-0.6,3.8-1,5
		c-0.5,1.3-1.1,2.2-1.8,2.7c-0.7,0.6-1.6,0.8-2.6,0.8s-1.9-0.3-2.6-0.8c-0.7-0.6-1.3-1.5-1.8-2.7c-0.5-1.3-0.8-2.9-1-5
		C628.3,193.3,628.1,190.8,628.1,187.7z M636.5,187.7c0-2.5,0-4.5-0.1-6.2s-0.2-3-0.4-4s-0.5-1.7-0.8-2.1c-0.3-0.4-0.7-0.6-1.2-0.6
		s-0.9,0.2-1.2,0.6c-0.3,0.4-0.6,1.1-0.8,2.1s-0.3,2.3-0.4,4s-0.1,3.7-0.1,6.2s0,4.5,0.1,6.2s0.2,3,0.4,4s0.5,1.7,0.8,2.1
		c0.3,0.4,0.7,0.6,1.2,0.6s0.9-0.2,1.2-0.6c0.3-0.4,0.6-1.1,0.8-2.1s0.3-2.3,0.4-4C636.5,192.2,636.5,190.2,636.5,187.7z"/>
</g>
<path class="st0" d="M669.2,306.1c0,29.9-24.2,54.1-54.1,54.1c-29.9,0-54.1-24.2-54.1-54.1s24.2-54.1,54.1-54.1
	C644.9,252,669.2,276.2,669.2,306.1"/>
<path class="st10" d="M655.6,342.1c-9.9,11.2-24.4,18.3-40.6,18.3c-14.7,0-28.1-5.9-37.9-15.4C579.2,342.9,656.9,340.7,655.6,342.1"
	/>
<polyline class="st0" points="652.1,348.2 636.8,331.5 644.4,324 659.3,338.8 "/>
<path class="st0" d="M660.1,339.4c2.3,2.3,2.3,6.1,0,8.4s-6.1,2.3-8.4,0c-2.3-2.3-2.3-6.1,0-8.4C654,337.1,657.8,337.1,660.1,339.4"
	/>
<polyline class="st0" points="579,348.2 594.3,331.5 586.7,324 571.8,338.8 "/>
<path class="st0" d="M570.2,340.1c-2.3,2.3-2.3,6.1,0,8.4s6.1,2.3,8.4,0c2.3-2.3,2.3-6.1,0-8.4C576.4,337.8,572.6,337.8,570.2,340.1
	"/>
<linearGradient id="SVGID_5_" gradientUnits="userSpaceOnUse" x1="-22.6616" y1="-2949.1589" x2="-21.6616" y2="-2949.1589" gradientTransform="matrix(103.087 0 0 103.087 2899.616 304315.9062)">
	<stop  offset="0" style="stop-color:#39B54A"/>
	<stop  offset="8.278921e-02" style="stop-color:#39B54A"/>
	<stop  offset="0.3951" style="stop-color:#F48270"/>
	<stop  offset="0.7246" style="stop-color:#F5841F"/>
	<stop  offset="0.9481" style="stop-color:#ED174B"/>
	<stop  offset="1" style="stop-color:#ED174B"/>
</linearGradient>
<path class="st15" d="M574.3,336.8c-6.4-8.5-10.3-19.2-10.3-30.7c0-28.2,22.9-51,51-51c28.2,0,51,22.9,51,51
	c0,11.1-3.5,21.3-9.5,29.7l-4.1-2.9c5.4-7.5,8.6-16.8,8.6-26.8c0-25.4-20.6-46-46-46s-46,20.6-46,46c0,10.4,3.4,20,9.3,27.7
	L574.3,336.8L574.3,336.8z"/>
<g>
	<g>
		<defs>
			<path id="SVGID_6_" d="M566.5,306.1c0,26.8,21.7,48.5,48.5,48.5s48.5-21.7,48.5-48.5s-21.7-48.5-48.5-48.5
				C588.2,257.5,566.5,279.3,566.5,306.1"/>
		</defs>
		<clipPath id="SVGID_7_">
			<use xlink:href="#SVGID_6_"  style="overflow:visible;"/>
		</clipPath>
		
			<radialGradient id="SVGID_8_" cx="-24.9926" cy="-2950.915" r="0.9999" gradientTransform="matrix(48.5436 0 0 48.5436 1828.2797 143553.9844)" gradientUnits="userSpaceOnUse">
			<stop  offset="0" style="stop-color:#39817A"/>
			<stop  offset="0.4798" style="stop-color:#39817A"/>
			<stop  offset="1" style="stop-color:#18625B"/>
		</radialGradient>
		<rect x="566.5" y="257.5" class="st16" width="97.1" height="97.1"/>
	</g>
</g>
<g>
	<path class="st11" d="M605.3,285v1h-4.2v-9.3h1.2v8.3H605.3z"/>
	<path class="st11" d="M606.7,286v-9.3h4.2v1h-3v2.9h2.7v1h-2.7v3.3h3.2v1h-4.4V286z"/>
	<path class="st11" d="M614.4,286c-0.2-0.7-0.4-1.4-0.6-2c-0.2-0.7-0.4-1.4-0.6-2.2c-0.2-0.8-0.4-1.5-0.6-2.4s-0.4-1.8-0.6-2.7h1.3
		c0.1,0.7,0.2,1.4,0.4,2.1c0.1,0.7,0.3,1.4,0.5,2c0.2,0.7,0.3,1.3,0.5,2s0.3,1.2,0.5,1.8c0.2-0.6,0.3-1.2,0.5-1.8
		c0.2-0.6,0.3-1.3,0.5-2s0.3-1.4,0.5-2c0.1-0.7,0.3-1.4,0.4-2.1h1.2c-0.2,1-0.4,1.9-0.6,2.7c-0.2,0.8-0.4,1.6-0.6,2.4
		c-0.2,0.8-0.4,1.5-0.6,2.2c-0.2,0.7-0.4,1.4-0.6,2H614.4z"/>
	<path class="st11" d="M619.5,286v-9.3h4.2v1h-3v2.9h2.7v1h-2.7v3.3h3.2v1h-4.4V286z"/>
	<path class="st11" d="M629.8,285v1h-4.2v-9.3h1.2v8.3H629.8z"/>
</g>
<g>
	<path class="st3" d="M601.6,315.7c0-3.1,0.1-5.6,0.3-7.7s0.6-3.8,1-5c0.5-1.3,1.1-2.2,1.8-2.7s1.6-0.8,2.6-0.8s1.9,0.3,2.6,0.8
		s1.3,1.5,1.8,2.7c0.5,1.3,0.8,2.9,1,5s0.3,4.7,0.3,7.7c0,3.1-0.1,5.6-0.3,7.7s-0.6,3.8-1,5c-0.5,1.3-1.1,2.2-1.8,2.7
		c-0.7,0.6-1.6,0.8-2.6,0.8s-1.9-0.3-2.6-0.8c-0.7-0.6-1.3-1.5-1.8-2.7c-0.5-1.3-0.8-2.9-1-5C601.7,321.4,601.6,318.8,601.6,315.7z
		 M610,315.7c0-2.5,0-4.5-0.1-6.2s-0.2-3-0.4-4s-0.5-1.7-0.8-2.1s-0.7-0.6-1.2-0.6s-0.9,0.2-1.2,0.6s-0.6,1.1-0.8,2.1
		s-0.3,2.3-0.4,4s-0.1,3.7-0.1,6.2s0,4.5,0.1,6.2s0.2,3,0.4,4s0.5,1.7,0.8,2.1s0.7,0.6,1.2,0.6s0.9-0.2,1.2-0.6s0.6-1.1,0.8-2.1
		s0.3-2.3,0.4-4C609.9,320.2,610,318.2,610,315.7z"/>
	<path class="st3" d="M618.1,328.1c0.9-0.1,1.7-0.4,2.5-0.7c0.8-0.3,1.5-0.9,2-1.6c0.6-0.7,1.1-1.7,1.5-2.9c0.4-1.2,0.7-2.7,0.9-4.5
		c-0.9,0.5-1.8,0.7-2.6,0.7c-1.7,0-3-0.8-4-2.5s-1.4-4-1.4-7c0-3.2,0.4-5.7,1.3-7.5c0.9-1.8,2.3-2.7,4.2-2.7c1,0,1.8,0.2,2.6,0.7
		c0.7,0.5,1.3,1.3,1.8,2.4s0.9,2.5,1.1,4.3c0.2,1.8,0.4,4,0.4,6.5c0,2.3-0.2,4.5-0.5,6.6s-0.9,4-1.7,5.7s-1.8,3-3.1,4
		s-2.9,1.6-4.7,1.7L618.1,328.1z M623.3,316.1c0.7,0,1.4-0.3,2.1-0.8c0-0.4,0-0.7,0-1.1s0-0.8,0-1.2c0-1.4,0-2.7-0.1-3.9
		c0-1.2-0.2-2.3-0.4-3.3s-0.5-1.7-0.8-2.2c-0.4-0.6-0.9-0.8-1.5-0.8c-0.9,0-1.6,0.6-1.9,1.9c-0.4,1.2-0.6,2.9-0.6,5
		c0,2.2,0.3,3.9,0.8,5C621.4,315.6,622.2,316.1,623.3,316.1z"/>
</g>
<g>
	<path class="st17" d="M671.5,341.7c1-1,2.2-1.5,3.7-1.5c1.4,0,2.4,0.4,3.2,1.1c0.7,0.7,1.1,1.9,1.1,3.4c0,0.7-0.1,1.4-0.4,2.1
		c-0.2,0.7-0.5,1.3-0.9,1.9s-0.8,1.2-1.2,1.8c-0.4,0.6-0.8,1.2-1.2,1.8s-0.7,1.3-1,1.9c-0.3,0.7-0.5,1.4-0.5,2.2h5.6v2h-8v-0.5
		c0-1.1,0.1-2.2,0.4-3.1c0.3-0.9,0.6-1.7,1-2.4s0.8-1.4,1.3-2s0.9-1.2,1.3-1.8s0.7-1.2,1-1.8c0.3-0.6,0.4-1.3,0.4-2.1
		c0-0.9-0.2-1.6-0.5-2c-0.4-0.4-0.9-0.6-1.6-0.6c-0.5,0-0.9,0.1-1.3,0.3c-0.4,0.2-0.8,0.4-1.1,0.8L671.5,341.7z"/>
	<path class="st17" d="M682.7,349.5c0-1.7,0.1-3.2,0.2-4.4c0.2-1.2,0.4-2.1,0.7-2.9c0.3-0.7,0.8-1.2,1.3-1.6s1.2-0.5,1.9-0.5
		s1.4,0.2,1.9,0.5s1,0.8,1.3,1.6s0.6,1.7,0.7,2.9c0.2,1.2,0.2,2.7,0.2,4.4s-0.1,3.2-0.2,4.4c-0.2,1.2-0.4,2.1-0.7,2.9
		s-0.8,1.2-1.3,1.6c-0.5,0.3-1.2,0.5-1.9,0.5c-0.8,0-1.4-0.2-1.9-0.5s-1-0.8-1.3-1.6c-0.3-0.7-0.6-1.7-0.7-2.9
		S682.7,351.2,682.7,349.5z M688.8,349.5c0-1.4,0-2.6-0.1-3.5s-0.2-1.7-0.3-2.3c-0.1-0.6-0.3-1-0.6-1.2c-0.2-0.2-0.5-0.4-0.9-0.4
		s-0.6,0.1-0.9,0.4c-0.2,0.2-0.4,0.6-0.6,1.2c-0.1,0.6-0.3,1.3-0.3,2.3c-0.1,0.9-0.1,2.1-0.1,3.5s0,2.6,0.1,3.5s0.2,1.7,0.3,2.3
		c0.1,0.6,0.3,1,0.6,1.2c0.2,0.2,0.5,0.4,0.9,0.4s0.6-0.1,0.9-0.4c0.2-0.2,0.4-0.6,0.6-1.2c0.1-0.6,0.3-1.3,0.3-2.3
		S688.8,350.9,688.8,349.5z"/>
</g>
<g>
	<path class="st17" d="M674.9,372.2c-0.2-0.6-0.3-1.1-0.5-1.7c-0.2-0.5-0.3-1-0.5-1.5s-0.3-0.9-0.5-1.3c-0.1-0.4-0.3-0.7-0.4-1
		c0,0.5-0.1,1-0.1,1.5s0,1.1-0.1,1.7s0,1.2,0,1.8c0,0.6,0,1.1,0,1.7h-1c0-0.7,0-1.5,0.1-2.2s0.1-1.5,0.1-2.2s0.1-1.4,0.1-2.1
		s0.1-1.3,0.2-1.9h1.1c0.1,0.3,0.3,0.8,0.5,1.2c0.2,0.5,0.4,1,0.6,1.5c0.2,0.5,0.4,1,0.6,1.6c0.2,0.5,0.3,1,0.5,1.4
		c0.1-0.4,0.3-0.9,0.4-1.4c0.2-0.5,0.3-1,0.5-1.6s0.4-1,0.6-1.5c0.2-0.5,0.3-0.9,0.5-1.2h1.1c0.1,0.6,0.1,1.2,0.2,1.9
		c0,0.7,0.1,1.4,0.1,2.1s0.1,1.4,0.1,2.2s0,1.5,0.1,2.2h-1c0-0.5,0-1.1,0-1.7s0-1.2,0-1.8c0-0.6,0-1.2-0.1-1.7
		c0-0.6-0.1-1.1-0.1-1.5c-0.1,0.2-0.2,0.5-0.3,0.8s-0.2,0.6-0.3,1s-0.2,0.7-0.4,1.1c-0.1,0.4-0.2,0.7-0.4,1.1
		c-0.1,0.3-0.2,0.7-0.3,1s-0.2,0.5-0.2,0.7h-1.2V372.2z"/>
	<path class="st17" d="M683.3,365c0.2,0.6,0.4,1.2,0.6,1.8s0.4,1.3,0.6,1.9s0.4,1.4,0.5,2.2c0.2,0.8,0.4,1.6,0.5,2.5h-1.1
		c-0.1-0.4-0.1-0.7-0.2-1.1c-0.1-0.4-0.1-0.7-0.2-1.1h-2.6c-0.1,0.4-0.2,0.7-0.2,1.1c-0.1,0.4-0.1,0.7-0.2,1.1h-1
		c0.2-0.9,0.4-1.7,0.5-2.5s0.4-1.5,0.6-2.2c0.2-0.7,0.4-1.3,0.6-1.9c0.2-0.6,0.4-1.2,0.6-1.8H683.3z M682.7,366.2
		c-0.2,0.7-0.4,1.3-0.6,2c-0.2,0.7-0.4,1.4-0.5,2.1h2.2c-0.2-0.7-0.3-1.4-0.5-2.1C683.1,367.5,682.9,366.9,682.7,366.2z"/>
	<path class="st17" d="M688.9,367.9l1.4-3h1.1l-2,4.1c0.2,0.3,0.4,0.7,0.6,1.1s0.4,0.7,0.6,1.1c0.2,0.4,0.4,0.7,0.5,1.1
		c0.2,0.4,0.3,0.7,0.4,1h-1.1c-0.1-0.2-0.2-0.5-0.3-0.8s-0.2-0.6-0.4-0.9s-0.3-0.6-0.4-0.9c-0.1-0.3-0.3-0.6-0.4-0.9
		c-0.1,0.3-0.3,0.6-0.4,0.9c-0.2,0.3-0.3,0.6-0.4,0.9s-0.3,0.6-0.4,0.9c-0.1,0.3-0.2,0.5-0.3,0.8h-1.1c0.1-0.3,0.3-0.7,0.4-1
		c0.2-0.4,0.3-0.7,0.5-1.1s0.4-0.8,0.5-1.2c0.2-0.4,0.4-0.8,0.5-1.1l-1.9-4h1.1L688.9,367.9z"/>
</g>
</svg>
