<?xml version="1.0" encoding="utf-8"?>
<!-- Generator: Adobe Illustrator 21.0.0, SVG Export Plug-In . SVG Version: 6.00 Build 0)  -->
<svg version="1.1" id="Layer_1" xmlns="http://www.w3.org/2000/svg" xmlns:xlink="http://www.w3.org/1999/xlink" x="0px" y="0px"
	 viewBox="0 0 1158 830" style="enable-background:new 0 0 1158 830;" xml:space="preserve">
<style type="text/css">
	.st0{fill:#2D2935;}
	.st1{fill:#70627F;}
	.st2{fill:#8E7EA8;}
	.st3{fill:#39B54A;}
	.st4{fill:#FFFFFF;}
	.st5{fill:#3BB54A;}
	.st6{fill:#F1F2F2;}
	.st7{fill:#50475E;}
	.st8{fill:none;stroke:url(#Shape_26_);stroke-width:8;}
	.st9{fill:url(#Oval_10_);}
	.st10{font-family:'Helvetica';}
	.st11{font-size:19.5649px;}
</style>
<title>SpatialSpan</title>
<desc>Created with Sketch.</desc>
<g id="Page-1">
	<g id="SpatialSpan">
		<g id="Background_x5F_Panel_x5F_L">
			<rect id="Rectangle-path" y="0.8" class="st0" width="847.9" height="828.2"/>
		</g>
		<g id="Bottom_x5F_Panel_x5F_L" transform="translate(847.000000, 163.000000)">
			<rect id="Rectangle-path_1_" x="0.8" y="0.9" class="st1" width="309.8" height="665.2"/>
		</g>
		<g id="Top_x5F_Panel_x5F_L" transform="translate(847.000000, 0.000000)">
			<rect id="Rectangle-path_2_" x="0.8" y="0.9" class="st2" width="309.8" height="163"/>
		</g>
		<g id="Test_x5F_Element2" transform="translate(115.000000, 115.000000)">
			<path id="Shape" class="st1" d="M100.5,122H21.8c-11.7,0-21.3-9.5-21.3-21.3V22C0.5,10.3,10,0.7,21.8,0.7h78.7
				c11.7,0,21.3,9.5,21.3,21.3v78.7C121.8,112.5,112.2,122,100.5,122z"/>
			<path id="Shape_1_" class="st1" d="M263.5,122h-78.7c-11.7,0-21.3-9.5-21.3-21.3V22c0-11.7,9.5-21.3,21.3-21.3h78.7
				c11.7,0,21.3,9.5,21.3,21.3v78.7C284.8,112.5,275.3,122,263.5,122z"/>
			<path id="Shape_2_" class="st1" d="M426.6,122h-78.7c-11.7,0-21.3-9.5-21.3-21.3V22c0-11.7,9.5-21.3,21.3-21.3h78.7
				c11.7,0,21.3,9.5,21.3,21.3v78.7C447.8,112.5,438.3,122,426.6,122z"/>
			<path id="Shape_3_" class="st3" d="M589.6,122h-78.7c-11.7,0-21.3-9.5-21.3-21.3V22c0-11.7,9.5-21.3,21.3-21.3h78.7
				c11.7,0,21.3,9.5,21.3,21.3v78.7C610.9,112.5,601.4,122,589.6,122z"/>
			<path id="Shape_4_" class="st1" d="M100.5,285.1H21.8c-11.7,0-21.3-9.5-21.3-21.3v-78.7c0-11.7,9.5-21.3,21.3-21.3h78.7
				c11.7,0,21.3,9.5,21.3,21.3v78.7C121.8,275.6,112.2,285.1,100.5,285.1z"/>
			<path id="Shape_5_" class="st3" d="M263.5,285.1h-78.7c-11.7,0-21.3-9.5-21.3-21.3v-78.7c0-11.7,9.5-21.3,21.3-21.3h78.7
				c11.7,0,21.3,9.5,21.3,21.3v78.7C284.8,275.6,275.3,285.1,263.5,285.1z"/>
			<path id="Shape_6_" class="st1" d="M426.6,285.1h-78.7c-11.7,0-21.3-9.5-21.3-21.3v-78.7c0-11.7,9.5-21.3,21.3-21.3h78.7
				c11.7,0,21.3,9.5,21.3,21.3v78.7C447.8,275.6,438.3,285.1,426.6,285.1z"/>
			<path id="Shape_7_" class="st1" d="M589.4,285.1h-78.7c-11.7,0-21.3-9.5-21.3-21.3v-78.7c0-11.7,9.5-21.3,21.3-21.3h78.7
				c11.7,0,21.3,9.5,21.3,21.3v78.7C610.6,275.6,601.1,285.1,589.4,285.1z"/>
			<path id="Shape_8_" class="st1" d="M100.5,448.1H21.8c-11.7,0-21.3-9.5-21.3-21.3v-78.7c0-11.7,9.5-21.3,21.3-21.3h78.7
				c11.7,0,21.3,9.5,21.3,21.3v78.7C121.8,438.6,112.2,448.1,100.5,448.1z"/>
			<path id="Shape_9_" class="st1" d="M263.5,448.1h-78.7c-11.7,0-21.3-9.5-21.3-21.3v-78.7c0-11.7,9.5-21.3,21.3-21.3h78.7
				c11.7,0,21.3,9.5,21.3,21.3v78.7C284.8,438.6,275.3,448.1,263.5,448.1z"/>
			<path id="Shape_10_" class="st1" d="M426.6,448.1h-78.7c-11.7,0-21.3-9.5-21.3-21.3v-78.7c0-11.7,9.5-21.3,21.3-21.3h78.7
				c11.7,0,21.3,9.5,21.3,21.3v78.7C447.8,438.6,438.3,448.1,426.6,448.1z"/>
			<path id="Shape_11_" class="st3" d="M589.6,448.1h-78.7c-11.7,0-21.3-9.5-21.3-21.3v-78.7c0-11.7,9.5-21.3,21.3-21.3h78.7
				c11.7,0,21.3,9.5,21.3,21.3v78.7C610.9,438.6,601.4,448.1,589.6,448.1z"/>
			<path id="Shape_12_" class="st1" d="M100.5,611.2H21.8c-11.7,0-21.3-9.5-21.3-21.3v-78.7c0-11.7,9.5-21.3,21.3-21.3h78.7
				c11.7,0,21.3,9.5,21.3,21.3v78.7C121.8,601.6,112.2,611.2,100.5,611.2z"/>
			<path id="Shape_13_" class="st3" d="M263.5,611.2h-78.7c-11.7,0-21.3-9.5-21.3-21.3v-78.7c0-11.7,9.5-21.3,21.3-21.3h78.7
				c11.7,0,21.3,9.5,21.3,21.3v78.7C284.8,601.6,275.3,611.2,263.5,611.2z"/>
			<path id="Shape_14_" class="st1" d="M426.6,611.2h-78.7c-11.7,0-21.3-9.5-21.3-21.3v-78.7c0-11.7,9.5-21.3,21.3-21.3h78.7
				c11.7,0,21.3,9.5,21.3,21.3v78.7C447.8,601.6,438.3,611.2,426.6,611.2z"/>
			<path id="Shape_15_" class="st1" d="M589.6,611.2h-78.7c-11.7,0-21.3-9.5-21.3-21.3v-78.7c0-11.7,9.5-21.3,21.3-21.3h78.7
				c11.7,0,21.3,9.5,21.3,21.3v78.7C610.9,601.6,601.4,611.2,589.6,611.2z"/>
		</g>
		<g id="Test_name" transform="translate(905.000000, 45.000000)">
			<circle id="Oval" class="st1" cx="39.7" cy="39" r="38.8"/>
			<g id="Group" transform="translate(88.735100, 12.184600)">
				<path id="SPAN" class="st4" d="M5.3,47.3c1.1,0,2-0.3,2.6-0.9c0.6-0.6,0.9-1.5,0.9-2.5c0-0.6-0.1-1.1-0.3-1.5
					c-0.2-0.4-0.4-0.8-0.7-1.2c-0.3-0.4-0.6-0.7-1-1s-0.8-0.6-1.2-0.9C5,39,4.5,38.7,4,38.3S3,37.5,2.6,37s-0.8-1.1-1-1.7
					s-0.4-1.4-0.4-2.3c0-0.9,0.1-1.7,0.4-2.4s0.7-1.3,1.2-1.8s1.2-0.9,1.9-1.1c0.7-0.3,1.5-0.4,2.4-0.4c0.8,0,1.6,0.1,2.3,0.3
					c0.7,0.2,1.3,0.5,1.8,0.7l-0.9,2.2c-0.4-0.3-0.9-0.5-1.4-0.7c-0.5-0.2-1-0.2-1.6-0.2c-1,0-1.8,0.3-2.4,0.8S4,31.8,4,32.8
					c0,0.6,0.1,1.1,0.3,1.5c0.2,0.4,0.5,0.8,0.8,1.2s0.7,0.7,1.1,1c0.4,0.3,0.9,0.6,1.3,0.9c0.5,0.3,1,0.7,1.5,1s0.9,0.8,1.3,1.3
					s0.7,1.1,1,1.7c0.3,0.7,0.4,1.4,0.4,2.3c0,0.8-0.1,1.6-0.4,2.3c-0.2,0.7-0.6,1.4-1.2,1.9c-0.5,0.5-1.2,1-2,1.3
					c-0.8,0.3-1.7,0.5-2.8,0.5c-1,0-1.9-0.1-2.6-0.3c-0.7-0.2-1.4-0.5-2-0.9l0.9-2.2c0.5,0.3,1.1,0.6,1.7,0.8S4.5,47.3,5.3,47.3z
					 M15,28c1.4-0.4,2.9-0.5,4.2-0.5c1.1,0,2,0.1,2.9,0.4c0.9,0.3,1.6,0.7,2.3,1.2s1.1,1.3,1.5,2.1s0.5,1.9,0.5,3.1
					c0,1.2-0.2,2.3-0.5,3.2s-0.8,1.6-1.5,2.1c-0.6,0.5-1.4,0.9-2.3,1.2c-0.9,0.2-1.9,0.4-3,0.4h-1.3v8H15V28z M17.8,38.8h1.1
					c0.7,0,1.3-0.1,1.9-0.2c0.6-0.2,1-0.4,1.4-0.8c0.4-0.4,0.7-0.8,0.9-1.4c0.2-0.6,0.3-1.2,0.3-2.1c0-0.8-0.1-1.5-0.3-2.1
					c-0.2-0.6-0.5-1-0.9-1.4c-0.4-0.3-0.8-0.6-1.3-0.7C20.5,30,19.9,30,19.3,30c-0.5,0-1,0-1.5,0.1V38.8z M35.6,27.7
					c0.5,1.5,1,3.1,1.5,4.7s1,3.2,1.4,5c0.5,1.7,0.9,3.6,1.4,5.5c0.5,1.9,0.9,4,1.4,6.3h-2.8c-0.2-0.9-0.3-1.8-0.5-2.8
					c-0.2-0.9-0.4-1.8-0.5-2.7h-6.8c-0.2,0.9-0.4,1.8-0.6,2.7c-0.2,0.9-0.3,1.8-0.5,2.8H27c0.5-2.3,0.9-4.3,1.4-6.3
					c0.5-1.9,0.9-3.8,1.4-5.5c0.5-1.7,0.9-3.4,1.4-5s1-3.1,1.5-4.7H35.6z M34.1,30.9c-0.5,1.7-1,3.4-1.5,5.2
					c-0.5,1.7-0.9,3.5-1.4,5.3h5.7c-0.4-1.8-0.9-3.6-1.3-5.3C35.1,34.3,34.6,32.6,34.1,30.9z M55,49.2c-0.5-1.2-1.1-2.5-1.7-3.9
					c-0.6-1.4-1.3-2.8-2-4.3c-0.7-1.4-1.4-2.9-2.1-4.3c-0.7-1.4-1.4-2.7-2.1-3.9v16.4h-2.6V27.7h2.3c0.8,1.3,1.5,2.6,2.3,3.9
					c0.7,1.3,1.4,2.7,2.1,4s1.3,2.6,1.9,3.9c0.6,1.3,1.1,2.5,1.6,3.6V27.7h2.6v21.5H55z"/>
				<g>
					<path class="st4" d="M5.5,19.9c1.1,0,2-0.3,2.6-0.9S9,17.6,9,16.5C9,16,8.9,15.5,8.8,15c-0.2-0.4-0.4-0.8-0.7-1.2
						c-0.3-0.4-0.6-0.7-1-1c-0.4-0.3-0.8-0.6-1.2-0.9c-0.5-0.3-1-0.7-1.5-1.1c-0.5-0.4-1-0.8-1.4-1.3s-0.8-1.1-1-1.7
						C1.6,7.3,1.4,6.5,1.4,5.6c0-0.9,0.2-1.7,0.5-2.4c0.3-0.7,0.7-1.3,1.2-1.8C3.7,0.9,4.3,0.6,5,0.3C5.8,0,6.5-0.1,7.4-0.1
						C8.2-0.1,9,0,9.7,0.2c0.7,0.2,1.3,0.5,1.8,0.7l-0.9,2.2c-0.4-0.3-0.9-0.5-1.4-0.7c-0.5-0.2-1-0.2-1.6-0.2c-1,0-1.8,0.3-2.4,0.8
						C4.5,3.6,4.2,4.4,4.2,5.5c0,0.6,0.1,1.1,0.3,1.5C4.7,7.4,5,7.8,5.3,8.2c0.3,0.4,0.7,0.7,1.1,1C6.8,9.4,7.3,9.7,7.8,10
						c0.5,0.3,1,0.7,1.5,1s0.9,0.8,1.3,1.3c0.4,0.5,0.7,1.1,1,1.7c0.3,0.7,0.4,1.4,0.4,2.3c0,0.8-0.1,1.6-0.4,2.3
						c-0.2,0.7-0.6,1.4-1.2,1.9c-0.5,0.5-1.2,1-2,1.3c-0.8,0.3-1.7,0.5-2.8,0.5c-1,0-1.9-0.1-2.6-0.3s-1.4-0.5-2-0.9l0.9-2.2
						c0.5,0.3,1.1,0.6,1.7,0.8C4.1,19.9,4.8,19.9,5.5,19.9z"/>
					<path class="st4" d="M15.3,0.7c1.4-0.4,2.9-0.5,4.2-0.5c1.1,0,2.1,0.1,2.9,0.4c0.9,0.3,1.6,0.7,2.3,1.2
						c0.6,0.5,1.1,1.3,1.5,2.1c0.3,0.9,0.5,1.9,0.5,3.1c0,1.2-0.2,2.3-0.5,3.2c-0.4,0.9-0.8,1.6-1.5,2.1c-0.6,0.5-1.4,0.9-2.3,1.2
						s-1.9,0.4-3,0.4h-1.3v8h-2.8V0.7z M18.1,11.5h1.1c0.7,0,1.3-0.1,1.9-0.2c0.6-0.2,1-0.4,1.4-0.8c0.4-0.4,0.7-0.8,0.9-1.4
						c0.2-0.6,0.3-1.2,0.3-2.1c0-0.8-0.1-1.5-0.3-2.1c-0.2-0.6-0.5-1-0.9-1.4c-0.4-0.3-0.8-0.6-1.3-0.7c-0.5-0.1-1.1-0.2-1.7-0.2
						c-0.5,0-1,0-1.5,0.1V11.5z"/>
					<path class="st4" d="M35.9,0.4c0.5,1.5,1,3.1,1.5,4.7s1,3.2,1.4,5c0.5,1.7,0.9,3.6,1.4,5.5c0.5,1.9,0.9,4,1.4,6.3h-2.8
						c-0.2-0.9-0.3-1.9-0.5-2.8c-0.2-0.9-0.4-1.8-0.5-2.7H31c-0.2,0.9-0.4,1.8-0.6,2.7s-0.3,1.8-0.5,2.8h-2.7
						c0.5-2.3,0.9-4.3,1.4-6.3s0.9-3.8,1.4-5.5c0.5-1.7,0.9-3.4,1.4-5c0.5-1.6,1-3.1,1.5-4.7H35.9z M34.4,3.6
						c-0.5,1.7-1,3.4-1.5,5.2c-0.5,1.7-0.9,3.5-1.4,5.3h5.6c-0.4-1.8-0.9-3.6-1.3-5.3S34.9,5.3,34.4,3.6z"/>
					<path class="st4" d="M53.9,0.4v2.4h-4.8v19.1h-2.8V2.8h-4.8V0.4H53.9z"/>
					<path class="st4" d="M56.9,0.4h2.8v21.5h-2.8V0.4z"/>
					<path class="st4" d="M71.6,0.4c0.5,1.5,1,3.1,1.5,4.7s1,3.2,1.4,5c0.5,1.7,0.9,3.6,1.4,5.5c0.5,1.9,0.9,4,1.4,6.3h-2.8
						c-0.2-0.9-0.3-1.9-0.5-2.8c-0.2-0.9-0.4-1.8-0.5-2.7h-6.8c-0.2,0.9-0.4,1.8-0.6,2.7s-0.3,1.8-0.5,2.8h-2.7
						c0.5-2.3,0.9-4.3,1.4-6.3s0.9-3.8,1.4-5.5c0.5-1.7,0.9-3.4,1.4-5c0.5-1.6,1-3.1,1.5-4.7H71.6z M70.1,3.6
						c-0.5,1.7-1,3.4-1.5,5.2c-0.5,1.7-0.9,3.5-1.4,5.3h5.6c-0.4-1.8-0.9-3.6-1.3-5.3S70.6,5.3,70.1,3.6z"/>
					<path class="st4" d="M90.1,19.5v2.4h-9.6V0.4h2.8v19.1H90.1z"/>
				</g>
			</g>
			<path id="SP" class="st4" d="M30,48.5c1.3,0,2.3-0.4,3-1.1c0.7-0.7,1.1-1.7,1.1-2.9c0-0.6-0.1-1.2-0.3-1.7
				c-0.2-0.5-0.5-1-0.8-1.4c-0.3-0.4-0.7-0.8-1.2-1.1c-0.5-0.3-0.9-0.7-1.4-1c-0.5-0.4-1.1-0.8-1.7-1.2c-0.6-0.4-1.1-0.9-1.6-1.5
				s-0.9-1.2-1.2-2c-0.3-0.8-0.5-1.7-0.5-2.7c0-1,0.2-1.9,0.5-2.7c0.3-0.8,0.8-1.5,1.4-2.1c0.6-0.6,1.3-1,2.2-1.3
				c0.8-0.3,1.8-0.5,2.7-0.5c1,0,1.8,0.1,2.7,0.4c0.8,0.2,1.5,0.5,2,0.9l-1,2.5c-0.5-0.3-1-0.6-1.6-0.8C33.6,28.1,33,28,32.3,28
				c-1.2,0-2.1,0.3-2.8,1c-0.7,0.6-1.1,1.6-1.1,2.8c0,0.7,0.1,1.3,0.3,1.8c0.2,0.5,0.5,1,0.9,1.4c0.4,0.4,0.8,0.8,1.3,1.1
				c0.5,0.3,1,0.7,1.6,1c0.5,0.4,1.1,0.8,1.7,1.2c0.6,0.4,1.1,0.9,1.6,1.5c0.5,0.6,0.8,1.2,1.1,2c0.3,0.8,0.4,1.6,0.4,2.7
				c0,0.9-0.1,1.8-0.4,2.7c-0.3,0.8-0.7,1.6-1.3,2.2c-0.6,0.6-1.4,1.1-2.3,1.5c-0.9,0.4-2,0.6-3.2,0.6c-1.1,0-2.2-0.1-3-0.4
				c-0.9-0.3-1.6-0.6-2.3-1l1-2.6c0.6,0.4,1.3,0.7,1.9,0.9C28.3,48.3,29.1,48.5,30,48.5z M41.2,26.2c1.7-0.4,3.3-0.6,4.9-0.6
				c1.2,0,2.4,0.1,3.4,0.4c1,0.3,1.9,0.8,2.6,1.4c0.7,0.6,1.3,1.5,1.7,2.5s0.6,2.2,0.6,3.6c0,1.4-0.2,2.7-0.6,3.7
				c-0.4,1-1,1.8-1.7,2.5c-0.7,0.6-1.6,1.1-2.7,1.4s-2.2,0.4-3.5,0.4h-1.5v9.2h-3.2V26.2z M44.5,38.6h1.3c0.8,0,1.5-0.1,2.2-0.3
				c0.7-0.2,1.2-0.5,1.7-0.9c0.5-0.4,0.8-0.9,1-1.6s0.4-1.4,0.4-2.4s-0.1-1.8-0.4-2.4c-0.2-0.7-0.6-1.2-1-1.6
				c-0.4-0.4-0.9-0.7-1.5-0.8c-0.6-0.2-1.3-0.3-2-0.3c-0.6,0-1.2,0-1.7,0.1V38.6z"/>
		</g>
		<g id="Quit_Icon" transform="translate(760.000000, 19.000000)">
			<path id="Shape_16_" class="st2" d="M19.1,16.1c0,0.4-0.1,0.8-0.4,1.1l-2.2,2.2c-0.3,0.3-0.7,0.4-1.1,0.4c-0.4,0-0.8-0.1-1.1-0.4
				l-4.7-4.7l-4.7,4.7c-0.3,0.3-0.7,0.4-1.1,0.4S3,19.7,2.7,19.4l-2.2-2.2c-0.3-0.3-0.4-0.7-0.4-1.1c0-0.4,0.1-0.8,0.4-1.1l4.7-4.7
				L0.5,5.6C0.2,5.3,0.1,4.9,0.1,4.5s0.1-0.8,0.4-1.1l2.2-2.2C3,0.9,3.4,0.7,3.8,0.7s0.8,0.2,1.1,0.5l4.7,4.7l4.7-4.7
				c0.3-0.3,0.7-0.5,1.1-0.5c0.4,0,0.8,0.2,1.1,0.5l2.2,2.2c0.3,0.3,0.4,0.7,0.4,1.1S19,5.3,18.7,5.6L14,10.3l4.7,4.7
				C19,15.3,19.1,15.6,19.1,16.1z"/>
		</g>
		<g id="Audio_Controls" transform="translate(802.000000, 19.000000)">
			<g id="Layer_23" transform="translate(5.000000, 33.000000)">
				<rect id="Rectangle-path_3_" x="0.2" y="0.7" class="st1" width="6.5" height="130.4"/>
			</g>
			<g id="Layer_19" transform="translate(5.000000, 105.000000)">
				<rect id="Rectangle-path_4_" x="0.2" y="0.2" class="st5" width="6.5" height="59"/>
			</g>
			<g id="Layer_18">
				<path id="Shape_17_" class="st2" d="M13,1.2v17.5c0,0.3-0.1,0.5-0.3,0.7c-0.2,0.2-0.4,0.3-0.7,0.3s-0.5-0.1-0.7-0.3L6,14.1H1.8
					c-0.3,0-0.5-0.1-0.7-0.3s-0.3-0.4-0.3-0.7V6.9c0-0.3,0.1-0.5,0.3-0.7C1.3,6,1.5,5.9,1.8,5.9H6l5.3-5.3c0.2-0.2,0.4-0.3,0.7-0.3
					s0.5,0.1,0.7,0.3C12.9,0.7,13,0.9,13,1.2z M18.5,7.7c0.5,0.7,0.7,1.5,0.7,2.3s-0.2,1.6-0.7,2.3s-1.1,1.2-1.8,1.5
					c-0.1,0.1-0.2,0.1-0.4,0.1c-0.3,0-0.5-0.1-0.7-0.3c-0.2-0.2-0.3-0.4-0.3-0.7c0-0.2,0.1-0.4,0.2-0.6s0.3-0.3,0.5-0.4
					c0.2-0.1,0.4-0.2,0.5-0.4c0.2-0.1,0.3-0.3,0.5-0.6c0.1-0.2,0.2-0.6,0.2-0.9c0-0.4-0.1-0.7-0.2-0.9c-0.1-0.2-0.3-0.4-0.5-0.6
					c-0.2-0.1-0.4-0.3-0.5-0.4c-0.2-0.1-0.3-0.2-0.5-0.4c-0.1-0.2-0.2-0.3-0.2-0.6c0-0.3,0.1-0.5,0.3-0.7c0.2-0.2,0.4-0.3,0.7-0.3
					c0.2,0,0.3,0,0.4,0.1C17.4,6.4,18,6.9,18.5,7.7z"/>
			</g>
			<g id="Layer_21" transform="translate(1.000000, 96.000000)">
				<circle id="Oval_1_" class="st6" cx="7.5" cy="7.6" r="6.8"/>
			</g>
		</g>
		<g id="Score" transform="translate(883.000000, 534.000000)">
			<circle id="Oval_2_" class="st7" cx="119.1" cy="119.1" r="118.2"/>
			<g id="ScoreNum" transform="translate(81.000000, 54.000000)">
				<path id="SCORE" class="st4" d="M7.2,19.5c1.1,0,1.9-0.3,2.5-0.9c0.6-0.6,0.9-1.4,0.9-2.4c0-0.5-0.1-1-0.3-1.4
					c-0.2-0.4-0.4-0.8-0.7-1.1c-0.3-0.3-0.6-0.6-1-0.9s-0.8-0.5-1.1-0.8C7,11.6,6.5,11.3,6,11c-0.5-0.4-0.9-0.8-1.3-1.2
					s-0.7-1-1-1.6S3.3,6.7,3.3,5.9c0-0.8,0.1-1.6,0.4-2.2s0.7-1.2,1.2-1.7S6,1.1,6.7,0.9S8.2,0.5,9,0.5c0.8,0,1.5,0.1,2.2,0.3
					s1.2,0.4,1.7,0.7L12,3.6c-0.4-0.3-0.9-0.5-1.3-0.6c-0.5-0.1-1-0.2-1.5-0.2c-1,0-1.7,0.3-2.3,0.8S6,4.8,6,5.8
					c0,0.5,0.1,1,0.3,1.4C6.4,7.6,6.7,8,7,8.3S7.6,8.9,8,9.2c0.4,0.3,0.8,0.6,1.3,0.9c0.4,0.3,0.9,0.6,1.4,1s0.9,0.8,1.3,1.2
					c0.4,0.5,0.7,1,0.9,1.6c0.2,0.6,0.4,1.3,0.4,2.2c0,0.8-0.1,1.5-0.4,2.2s-0.6,1.3-1.1,1.8S10.7,21,10,21.3
					c-0.8,0.3-1.6,0.5-2.7,0.5c-0.9,0-1.8-0.1-2.5-0.3S3.5,20.9,3,20.5l0.8-2.1c0.5,0.3,1,0.6,1.6,0.7S6.5,19.5,7.2,19.5z
					 M23.3,21.7c-2.4,0-4.2-0.9-5.5-2.7c-1.3-1.8-1.9-4.5-1.9-8.2c0-1.9,0.2-3.5,0.5-4.8c0.4-1.3,0.9-2.4,1.5-3.2
					C18.6,2,19.3,1.4,20.2,1s1.8-0.5,2.9-0.5c0.9,0,1.7,0.1,2.4,0.3s1.3,0.5,1.8,0.8l-0.8,2.2c-0.5-0.3-1-0.6-1.5-0.8
					s-1.2-0.3-1.9-0.3c-1.6,0-2.7,0.7-3.4,2s-1.1,3.3-1.1,6.1c0,2.8,0.4,4.9,1.1,6.4s2,2.2,3.6,2.2c0.8,0,1.5-0.1,2-0.3
					c0.5-0.2,1-0.4,1.5-0.8l0.7,2.1c-0.4,0.4-1,0.7-1.8,0.9S24.2,21.7,23.3,21.7z M43.8,11.1c0,1.6-0.1,3-0.4,4.3
					c-0.3,1.3-0.7,2.4-1.3,3.3c-0.6,0.9-1.3,1.6-2.3,2.2c-0.9,0.5-2,0.8-3.2,0.8s-2.3-0.3-3.2-0.8c-0.9-0.5-1.7-1.2-2.3-2.2
					c-0.6-0.9-1-2-1.3-3.3c-0.3-1.3-0.4-2.7-0.4-4.3s0.1-3,0.4-4.3s0.7-2.4,1.3-3.4s1.3-1.7,2.3-2.2s2-0.8,3.2-0.8s2.3,0.3,3.2,0.8
					c0.9,0.5,1.7,1.2,2.3,2.2c0.6,0.9,1,2,1.3,3.4C43.7,8.1,43.8,9.5,43.8,11.1z M41,11.1c0-1.2-0.1-2.4-0.2-3.4S40.4,5.9,40,5.1
					c-0.4-0.7-0.8-1.3-1.4-1.7c-0.6-0.4-1.2-0.6-2-0.6s-1.5,0.2-2,0.6c-0.6,0.4-1,1-1.4,1.7c-0.4,0.7-0.6,1.6-0.8,2.6
					s-0.2,2.1-0.2,3.4s0.1,2.4,0.2,3.4s0.4,1.9,0.8,2.6c0.4,0.7,0.8,1.3,1.4,1.7c0.6,0.4,1.2,0.6,2,0.6s1.5-0.2,2-0.6
					c0.6-0.4,1-1,1.4-1.7c0.4-0.7,0.6-1.6,0.8-2.6S41,12.4,41,11.1z M47.9,1.2c1.4-0.3,2.7-0.5,4-0.5c1,0,1.9,0.1,2.8,0.4
					s1.5,0.6,2.1,1.1c0.6,0.5,1,1.2,1.4,2s0.5,1.8,0.5,2.9c0,1.4-0.3,2.5-0.8,3.4c-0.5,0.9-1.3,1.5-2.2,2c0.2,0.4,0.5,0.9,0.9,1.6
					c0.4,0.7,0.7,1.4,1.1,2.2s0.8,1.6,1.1,2.5c0.4,0.9,0.7,1.7,0.9,2.5H57c-0.2-0.6-0.5-1.3-0.8-2c-0.3-0.7-0.7-1.5-1-2.2
					c-0.4-0.7-0.7-1.4-1.1-2.1c-0.4-0.7-0.7-1.2-0.9-1.7c-0.3,0-0.6,0.1-1,0.1c-0.3,0-0.7,0-1,0h-0.7v7.9h-2.6V1.2z M50.5,11.2h1.1
					c1.3,0,2.4-0.3,3.1-0.9c0.7-0.6,1.1-1.7,1.1-3.2c0-0.8-0.1-1.4-0.3-1.9s-0.4-0.9-0.8-1.2S54,3.4,53.5,3.3s-1-0.2-1.6-0.2
					c-0.5,0-1,0-1.4,0.1V11.2z M63,21.3V0.9h9.1v2.3h-6.5v6.3h5.9v2.2h-5.9V19h7v2.3H63z"/>
				<path id="_x30_3" class="st4" d="M0.9,87.3c0-6.7,0.3-12.2,0.9-16.8c0.6-4.5,1.5-8.2,2.8-10.9c1.3-2.7,3-4.7,4.9-5.9
					c2-1.2,4.4-1.8,7.3-1.8c2.8,0,5.2,0.6,7.2,1.8c2,1.2,3.7,3.2,5,5.9c1.3,2.7,2.2,6.4,2.8,10.9c0.6,4.5,0.9,10.1,0.9,16.8
					s-0.3,12.2-0.9,16.8c-0.6,4.5-1.5,8.2-2.8,10.9c-1.3,2.7-3,4.7-5,5.9c-2,1.2-4.4,1.8-7.2,1.8c-2.9,0-5.3-0.6-7.3-1.8
					c-2-1.2-3.6-3.2-4.9-5.9c-1.3-2.7-2.2-6.4-2.8-10.9S0.9,93.9,0.9,87.3z M24,87.3c0-5.3-0.1-9.8-0.4-13.4
					c-0.3-3.6-0.7-6.5-1.2-8.6s-1.3-3.7-2.2-4.6c-0.9-0.9-2-1.4-3.3-1.4s-2.4,0.5-3.3,1.4c-0.9,0.9-1.6,2.4-2.2,4.6s-1,5-1.2,8.6
					s-0.4,8.1-0.4,13.4s0.1,9.8,0.4,13.4s0.7,6.5,1.2,8.6s1.3,3.7,2.2,4.6c0.9,0.9,2,1.4,3.3,1.4s2.4-0.5,3.3-1.4s1.6-2.4,2.2-4.6
					s1-5,1.2-8.6C23.9,97.1,24,92.6,24,87.3z M63.1,84.7c3.3,1.2,5.8,3.2,7.6,6.2s2.7,6.8,2.7,11.5c0,6.3-1.5,11.2-4.5,14.8
					s-7.6,5.4-13.7,5.4c-2.4,0-4.8-0.4-7-1.1c-2.3-0.7-4.3-1.7-6-2.8l2.2-6.8c1.5,0.9,3.1,1.7,4.7,2.3c1.7,0.7,3.4,1,5.2,1
					c3.3,0,5.9-1,7.8-3.1c1.9-2.1,2.8-5.3,2.8-9.8s-1-7.9-3.1-10.2c-2.1-2.3-5.3-3.4-9.8-3.4h-2.5v-7.1h2.2c3.9,0,6.8-1,8.7-3.1
					s2.8-5,2.8-8.7c0-3.5-0.7-6.1-2.2-7.9c-1.5-1.7-3.5-2.6-6-2.6c-1.7,0-3.3,0.3-4.8,1c-1.5,0.7-2.9,1.5-4,2.4l-3.3-6.2
					c1.7-1.6,3.7-2.7,6-3.5c2.3-0.8,4.6-1.2,6.9-1.2c5.1,0,9,1.6,11.7,4.8c2.7,3.2,4.1,7.4,4.1,12.7c0,3.7-0.7,6.9-2.2,9.4
					C67.8,81.4,65.7,83.3,63.1,84.7z"/>
			</g>
		</g>
		<g id="LevelMeter" transform="translate(883.000000, 226.000000)">
			<g id="MeterBack">
				<circle id="Oval_3_" class="st0" cx="118.9" cy="119.1" r="118.2"/>
				<path id="Shape_18_" class="st7" d="M207.6,197.8c-21.7,24.5-53.4,39.9-88.6,39.9c-32.2,0-61.4-12.8-82.7-33.7
					C40.6,199.5,210.4,194.6,207.6,197.8z"/>
				<polyline id="Shape_19_" class="st0" points="199.7,211 166.4,174.5 183.1,158.2 215.5,190.5 				"/>
				
					<ellipse id="Oval_4_" transform="matrix(0.7071 -0.7071 0.7071 0.7071 -81.9852 205.712)" class="st0" cx="207.3" cy="201.8" rx="13" ry="13"/>
				<polyline id="Shape_20_" class="st0" points="40.3,211 73.6,174.5 57,158.2 24.6,190.5 				"/>
				
					<ellipse id="Oval_5_" transform="matrix(0.7071 -0.7071 0.7071 0.7071 -134.09 79.9185)" class="st0" cx="29.4" cy="201.8" rx="13" ry="13"/>
			</g>
			<g id="Meter_x5F_Ring" transform="translate(13.000000, 13.000000)">
				
					<linearGradient id="Shape_26_" gradientUnits="userSpaceOnUse" x1="-624.3069" y1="571.7996" x2="-623.2693" y2="571.7996" gradientTransform="matrix(212 0 0 -169.7 132349 97087.5)">
					<stop  offset="8.004897e-02" style="stop-color:#39B54A"/>
					<stop  offset="0.3967" style="stop-color:#F48270"/>
					<stop  offset="0.7246" style="stop-color:#F5841F"/>
					<stop  offset="0.9481" style="stop-color:#ED174B"/>
				</linearGradient>
				<path id="Shape_21_" class="st8" d="M21.3,169.8C7.9,152.1,0,130,0,106.1c0-58.5,47.4-106,106-106c58.5,0,106,47.4,106,106
					c0,23-7.3,44.2-19.7,61.6"/>
			</g>
			<g id="Ellipse_x5F_Meter" transform="translate(12.000000, 13.000000)">
				
					<radialGradient id="Oval_10_" cx="-622.7877" cy="571.5896" r="0.51" gradientTransform="matrix(212 0 0 -212 132137.9062 121283.1016)" gradientUnits="userSpaceOnUse">
					<stop  offset="0" style="stop-color:#70627F"/>
					<stop  offset="1" style="stop-color:#5A4E66"/>
				</radialGradient>
				<circle id="Oval_6_" class="st9" cx="106.9" cy="106.1" r="106"/>
			</g>
			<g id="Level_Txt" transform="translate(88.000000, 54.000000)">
				<path id="LEVEL" class="st4" d="M9.5,19v2.3H0.5V0.9h2.6V19H9.5z M12.7,21.2V0.9h9.1v2.3h-6.5v6.3h5.9v2.2h-5.9V19h7v2.3H12.7z
					 M29.5,21.2c-0.4-1.5-0.9-2.9-1.3-4.4s-0.9-3.1-1.3-4.7c-0.4-1.6-0.9-3.4-1.3-5.2c-0.4-1.8-0.9-3.8-1.3-6H27
					c0.3,1.5,0.5,3,0.9,4.5c0.3,1.5,0.6,3,1,4.5s0.7,2.9,1.1,4.3s0.7,2.7,1.1,3.9c0.4-1.2,0.7-2.5,1.1-3.9s0.7-2.8,1.1-4.3
					c0.4-1.5,0.7-3,1-4.5c0.3-1.5,0.6-3,0.9-4.5h2.7c-0.4,2.2-0.9,4.1-1.3,6s-0.9,3.6-1.3,5.2s-0.9,3.2-1.3,4.7
					c-0.4,1.5-0.9,3-1.3,4.4H29.5z M40.7,21.2V0.9h9.1v2.3h-6.5v6.3h5.9v2.2h-5.9V19h7v2.3H40.7z M63.1,19v2.3h-9.1V0.9h2.6V19H63.1
					z"/>
			</g>
			<g id="Level_No." transform="translate(80.000000, 104.000000)">
				<path id="_x30_9" class="st4" d="M0.8,36.3c0-6.7,0.3-12.2,0.9-16.8s1.5-8.2,2.8-10.9s3-4.7,4.9-5.9s4.4-1.8,7.3-1.8
					c2.8,0,5.2,0.6,7.2,1.8s3.7,3.2,5,5.9c1.3,2.7,2.2,6.4,2.8,10.9c0.6,4.5,0.9,10.1,0.9,16.8S32.4,48.5,31.8,53
					c-0.6,4.5-1.5,8.2-2.8,10.9c-1.3,2.7-3,4.7-5,5.9c-2,1.2-4.4,1.8-7.2,1.8c-2.9,0-5.3-0.6-7.3-1.8c-2-1.2-3.6-3.2-4.9-5.9
					S2.3,57.6,1.7,53S0.8,42.9,0.8,36.3z M23.9,36.3c0-5.3-0.1-9.8-0.4-13.4c-0.3-3.6-0.7-6.5-1.2-8.6s-1.3-3.7-2.2-4.6
					c-0.9-0.9-2-1.4-3.3-1.4s-2.4,0.5-3.3,1.4s-1.6,2.4-2.2,4.6s-1,5-1.2,8.6c-0.3,3.6-0.4,8.1-0.4,13.4s0.1,9.8,0.4,13.4
					c0.3,3.6,0.7,6.5,1.2,8.6s1.3,3.7,2.2,4.6s2,1.4,3.3,1.4s2.4-0.5,3.3-1.4c0.9-0.9,1.6-2.4,2.2-4.6s1-5,1.2-8.6
					C23.7,46.1,23.9,41.6,23.9,36.3z M46.3,63.3c2.5-0.3,4.8-0.8,6.9-1.5s4-1.9,5.6-3.5c1.6-1.6,3-3.6,4.2-6.2
					c1.1-2.6,2-5.8,2.5-9.7c-2.5,1-4.9,1.6-7.1,1.6c-4.7,0-8.4-1.8-11-5.5s-4-8.8-4-15.2c0-6.9,1.2-12.4,3.7-16.3
					c2.4-4,6.3-6,11.6-6c2.7,0,5,0.5,7,1.6c2,1,3.7,2.8,5,5.1s2.3,5.5,3,9.4s1,8.6,1,14.2c0,5-0.5,9.7-1.4,14.4
					c-0.9,4.6-2.5,8.8-4.6,12.4c-2.2,3.6-5,6.6-8.5,8.8c-3.5,2.2-7.9,3.5-13,3.7L46.3,63.3z M60.4,37c2,0,3.9-0.6,5.8-1.8
					c0-0.8,0-1.6,0-2.4c0-0.8,0-1.7,0-2.6c0-3-0.1-5.9-0.2-8.6c-0.1-2.7-0.5-5.1-1-7.1s-1.3-3.7-2.3-4.9s-2.4-1.8-4.1-1.8
					c-2.5,0-4.3,1.4-5.3,4.1s-1.5,6.3-1.5,10.8c0,4.9,0.7,8.5,2.1,10.8C55.4,35.9,57.5,37,60.4,37z"/>
			</g>
		</g>
		<g id="Lifeline" transform="translate(22.000000, 18.000000)">
			<g id="Panel_x5F_Bar" transform="translate(0.000000, 8.000000)">
				<path id="Shape_22_" class="st1" d="M216.5,0H13.7C6.7,0,0.9,5.8,0.9,12.8l0,0c0,7,5.8,12.8,12.8,12.8h202.7V0H216.5z"/>
			</g>
			<g id="Layer_29" transform="translate(101.000000, 1.000000)">
				<circle id="Oval_7_" class="st1" cx="21.5" cy="21.4" r="20.7"/>
			</g>
			<circle id="Oval_8_" class="st1" cx="172.8" cy="20.8" r="20.7"/>
			<circle id="Oval_9_" class="st1" cx="223.1" cy="21.4" r="20.7"/>
			<path id="Shape_23_" class="st5" d="M122.5,32.8c-0.2,0-0.4-0.1-0.6-0.2l-8.5-8.2c-0.1-0.1-0.2-0.2-0.4-0.4s-0.4-0.5-0.8-0.9
				c-0.3-0.4-0.7-0.9-0.9-1.3c-0.3-0.5-0.5-1-0.7-1.7c-0.2-0.6-0.3-1.3-0.3-1.9c0-2,0.6-3.6,1.7-4.7s2.8-1.7,4.8-1.7
				c0.6,0,1.1,0.1,1.7,0.3c0.6,0.2,1.1,0.5,1.6,0.8c0.5,0.3,0.9,0.6,1.3,0.9s0.7,0.6,1,0.9c0.3-0.3,0.7-0.6,1-0.9
				c0.4-0.3,0.8-0.6,1.3-0.9c0.5-0.3,1.1-0.6,1.6-0.8c0.6-0.2,1.2-0.3,1.7-0.3c2,0,3.6,0.6,4.8,1.7s1.7,2.7,1.7,4.7s-1,4.1-3.1,6.1
				l-8.5,8.2C123,32.7,122.8,32.8,122.5,32.8z"/>
			<path id="Shape_24_" class="st5" d="M172.5,32.8c-0.2,0-0.4-0.1-0.6-0.2l-8.5-8.2c-0.1-0.1-0.2-0.2-0.4-0.4s-0.4-0.5-0.8-0.9
				c-0.3-0.4-0.7-0.9-0.9-1.3c-0.3-0.5-0.5-1-0.7-1.7c-0.2-0.6-0.3-1.3-0.3-1.9c0-2,0.6-3.6,1.7-4.7s2.8-1.7,4.8-1.7
				c0.6,0,1.1,0.1,1.7,0.3c0.6,0.2,1.1,0.5,1.6,0.8c0.5,0.3,0.9,0.6,1.3,0.9c0.4,0.3,0.7,0.6,1,0.9c0.3-0.3,0.7-0.6,1-0.9
				c0.4-0.3,0.8-0.6,1.3-0.9c0.5-0.3,1.1-0.6,1.6-0.8c0.6-0.2,1.2-0.3,1.7-0.3c2,0,3.6,0.6,4.8,1.7s1.7,2.7,1.7,4.7s-1,4.1-3.1,6.1
				l-8.5,8.2C173,32.7,172.8,32.8,172.5,32.8z"/>
			<path id="Shape_25_" class="st0" d="M222.5,32.8c-0.2,0-0.4-0.1-0.6-0.2l-8.5-8.2c-0.1-0.1-0.2-0.2-0.4-0.4s-0.4-0.5-0.8-0.9
				c-0.3-0.4-0.7-0.9-0.9-1.3c-0.3-0.5-0.5-1-0.7-1.7c-0.2-0.6-0.3-1.3-0.3-1.9c0-2,0.6-3.6,1.7-4.7s2.8-1.7,4.8-1.7
				c0.6,0,1.1,0.1,1.7,0.3c0.6,0.2,1.1,0.5,1.6,0.8c0.5,0.3,0.9,0.6,1.3,0.9c0.4,0.3,0.7,0.6,1,0.9c0.3-0.3,0.7-0.6,1-0.9
				c0.4-0.3,0.8-0.6,1.3-0.9c0.5-0.3,1.1-0.6,1.6-0.8c0.6-0.2,1.2-0.3,1.7-0.3c2,0,3.6,0.6,4.8,1.7s1.7,2.7,1.7,4.7s-1,4.1-3.1,6.1
				l-8.5,8.2C223,32.7,222.8,32.8,222.5,32.8z"/>
		</g>
		<g id="LifeLIne_x5F_Txt" transform="translate(32.000000, 26.000000)">
			<text transform="matrix(1 0 0 1 0.865 19.1826)" class="st4 st10 st11">lifeline</text>
		</g>
	</g>
</g>
</svg>
