<?xml version="1.0" encoding="utf-8"?>
<!-- Generator: Adobe Illustrator 21.0.0, SVG Export Plug-In . SVG Version: 6.00 Build 0)  -->
<svg version="1.1" xmlns="http://www.w3.org/2000/svg" xmlns:xlink="http://www.w3.org/1999/xlink" x="0px" y="0px"
	 viewBox="0 0 710 508" style="enable-background:new 0 0 710 508;" xml:space="preserve">
<style type="text/css">
	.st0{fill:#1F3A37;}
	.st1{fill:#39817A;}
	.st2{fill:#00A79D;}
	.st3{fill:#FFFFFF;}
	.st4{fill:#388079;}
	.st5{fill:#3BB54A;}
	.st6{fill:#F1F2F2;}
	.st7{fill:none;stroke:url(#SVGID_1_);stroke-width:8;stroke-miterlimit:10;}
	.st8{fill:#164F48;}
	.st9{fill:#B0DFDE;}
	.st10{fill:url(#SVGID_2_);}
	.st11{fill:#AFDFDE;}
	.st12{fill:#375651;}
	.st13{fill:#39B54A;}
</style>
<g id="Layer_37">
</g>
<g id="Background_x5F_Panel_x5F_L">
	<rect class="st0" width="520" height="508"/>
</g>
<g id="Bottom_x5F_Panel_x5F_L">
	<rect x="520" y="100" transform="matrix(-1 -1.224647e-16 1.224647e-16 -1 1230.0873 608)" class="st1" width="190" height="408"/>
</g>
<g id="Top_x5F_Panel_x5F_L">
	<rect x="520" transform="matrix(-1 -1.224647e-16 1.224647e-16 -1 1230.0873 100)" class="st2" width="190" height="100"/>
</g>
<g id="Test_name">
	<g>
		<circle class="st1" cx="581.4" cy="51.3" r="23.8"/>
		<g>
			<g>
				<path class="st3" d="M614.7,48.1c0.7,0,1.2-0.2,1.6-0.6s0.6-0.9,0.6-1.5c0-0.3-0.1-0.6-0.2-0.9c-0.1-0.3-0.3-0.5-0.4-0.7
					s-0.4-0.4-0.6-0.6c-0.2-0.2-0.5-0.4-0.7-0.5c-0.3-0.2-0.6-0.4-0.9-0.6s-0.6-0.5-0.9-0.8c-0.3-0.3-0.5-0.7-0.6-1.1
					c-0.2-0.4-0.2-0.9-0.2-1.4c0-0.5,0.1-1,0.3-1.4s0.4-0.8,0.8-1.1c0.3-0.3,0.7-0.5,1.2-0.7c0.5-0.2,0.9-0.2,1.5-0.2
					c0.5,0,1,0.1,1.4,0.2c0.4,0.1,0.8,0.3,1.1,0.5l-0.5,1.3c-0.3-0.2-0.6-0.3-0.9-0.4c-0.3-0.1-0.6-0.1-1-0.1
					c-0.6,0-1.1,0.2-1.5,0.5c-0.4,0.3-0.6,0.8-0.6,1.5c0,0.4,0.1,0.7,0.2,0.9s0.3,0.5,0.5,0.7c0.2,0.2,0.4,0.4,0.7,0.6
					c0.3,0.2,0.5,0.4,0.8,0.6c0.3,0.2,0.6,0.4,0.9,0.6c0.3,0.2,0.6,0.5,0.8,0.8c0.2,0.3,0.4,0.6,0.6,1c0.2,0.4,0.2,0.9,0.2,1.4
					c0,0.5-0.1,1-0.2,1.4c-0.2,0.4-0.4,0.8-0.7,1.2c-0.3,0.3-0.7,0.6-1.2,0.8c-0.5,0.2-1.1,0.3-1.7,0.3c-0.6,0-1.1-0.1-1.6-0.2
					c-0.5-0.1-0.9-0.3-1.2-0.6l0.5-1.4c0.3,0.2,0.7,0.4,1,0.5C613.9,48,614.3,48.1,614.7,48.1z"/>
				<path class="st3" d="M620.7,36.3c0.9-0.2,1.8-0.3,2.6-0.3c0.7,0,1.3,0.1,1.8,0.2c0.5,0.2,1,0.4,1.4,0.7c0.4,0.3,0.7,0.8,0.9,1.3
					c0.2,0.5,0.3,1.2,0.3,1.9c0,0.8-0.1,1.4-0.3,1.9c-0.2,0.5-0.5,1-0.9,1.3s-0.9,0.6-1.4,0.7c-0.6,0.2-1.2,0.2-1.8,0.2h-0.8v4.9
					h-1.7V36.3z M622.4,42.9h0.7c0.4,0,0.8,0,1.2-0.1c0.3-0.1,0.6-0.2,0.9-0.5c0.2-0.2,0.4-0.5,0.6-0.8c0.1-0.3,0.2-0.8,0.2-1.3
					c0-0.5-0.1-0.9-0.2-1.3c-0.1-0.3-0.3-0.6-0.5-0.8s-0.5-0.4-0.8-0.4c-0.3-0.1-0.7-0.1-1-0.1c-0.3,0-0.6,0-0.9,0.1V42.9z"/>
				<path class="st3" d="M633.3,36.1c0.3,0.9,0.6,1.9,0.9,2.9c0.3,1,0.6,2,0.9,3c0.3,1.1,0.6,2.2,0.9,3.4c0.3,1.2,0.6,2.5,0.9,3.9
					h-1.7c-0.1-0.6-0.2-1.1-0.3-1.7c-0.1-0.6-0.2-1.1-0.3-1.7h-4.2c-0.1,0.6-0.2,1.1-0.3,1.7s-0.2,1.1-0.3,1.7H628
					c0.3-1.4,0.6-2.7,0.9-3.9c0.3-1.2,0.6-2.3,0.9-3.4c0.3-1.1,0.6-2.1,0.9-3s0.6-1.9,0.9-2.9H633.3z M632.4,38.1
					c-0.3,1.1-0.6,2.1-0.9,3.2c-0.3,1.1-0.6,2.2-0.8,3.3h3.4c-0.3-1.1-0.5-2.2-0.8-3.3C633,40.2,632.7,39.1,632.4,38.1z"/>
				<path class="st3" d="M644.4,36.1v1.5h-2.9v11.7h-1.7V37.6h-2.9v-1.5H644.4z"/>
				<path class="st3" d="M646.2,36.1h1.7v13.2h-1.7V36.1z"/>
				<path class="st3" d="M655.2,36.1c0.3,0.9,0.6,1.9,0.9,2.9c0.3,1,0.6,2,0.9,3c0.3,1.1,0.6,2.2,0.9,3.4c0.3,1.2,0.6,2.5,0.9,3.9
					H657c-0.1-0.6-0.2-1.1-0.3-1.7c-0.1-0.6-0.2-1.1-0.3-1.7h-4.2c-0.1,0.6-0.2,1.1-0.3,1.7s-0.2,1.1-0.3,1.7h-1.7
					c0.3-1.4,0.6-2.7,0.9-3.9c0.3-1.2,0.6-2.3,0.9-3.4c0.3-1.1,0.6-2.1,0.9-3s0.6-1.9,0.9-2.9H655.2z M654.3,38.1
					c-0.3,1.1-0.6,2.1-0.9,3.2c-0.3,1.1-0.6,2.2-0.8,3.3h3.4c-0.3-1.1-0.5-2.2-0.8-3.3C654.9,40.2,654.6,39.1,654.3,38.1z"/>
				<path class="st3" d="M666.6,47.8v1.5h-5.9V36.1h1.7v11.7H666.6z"/>
				<path class="st3" d="M614.7,63.6c0.7,0,1.2-0.2,1.6-0.6s0.6-0.9,0.6-1.5c0-0.3-0.1-0.6-0.2-0.9c-0.1-0.3-0.3-0.5-0.4-0.7
					s-0.4-0.4-0.6-0.6c-0.2-0.2-0.5-0.4-0.7-0.5c-0.3-0.2-0.6-0.4-0.9-0.6s-0.6-0.5-0.9-0.8c-0.3-0.3-0.5-0.7-0.6-1.1
					c-0.2-0.4-0.2-0.9-0.2-1.4c0-0.5,0.1-1,0.3-1.4s0.4-0.8,0.8-1.1c0.3-0.3,0.7-0.5,1.2-0.7c0.5-0.2,0.9-0.2,1.5-0.2
					c0.5,0,1,0.1,1.4,0.2c0.4,0.1,0.8,0.3,1.1,0.5l-0.5,1.3c-0.3-0.2-0.6-0.3-0.9-0.4c-0.3-0.1-0.6-0.1-1-0.1
					c-0.6,0-1.1,0.2-1.5,0.5c-0.4,0.3-0.6,0.8-0.6,1.5c0,0.4,0.1,0.7,0.2,0.9s0.3,0.5,0.5,0.7c0.2,0.2,0.4,0.4,0.7,0.6
					c0.3,0.2,0.5,0.4,0.8,0.6c0.3,0.2,0.6,0.4,0.9,0.6c0.3,0.2,0.6,0.5,0.8,0.8c0.2,0.3,0.4,0.6,0.6,1c0.2,0.4,0.2,0.9,0.2,1.4
					c0,0.5-0.1,1-0.2,1.4c-0.2,0.4-0.4,0.8-0.7,1.2c-0.3,0.3-0.7,0.6-1.2,0.8c-0.5,0.2-1.1,0.3-1.7,0.3c-0.6,0-1.1-0.1-1.6-0.2
					c-0.5-0.1-0.9-0.3-1.2-0.6l0.5-1.4c0.3,0.2,0.7,0.4,1,0.5C613.9,63.5,614.3,63.6,614.7,63.6z"/>
				<path class="st3" d="M620.7,64.7V51.6h5.9V53h-4.2v4.1h3.8v1.4h-3.8v4.7h4.5v1.5H620.7z"/>
				<path class="st3" d="M633.6,51.6c0.3,0.9,0.6,1.9,0.9,2.9c0.3,1,0.6,2,0.9,3c0.3,1.1,0.6,2.2,0.9,3.4c0.3,1.2,0.6,2.5,0.9,3.9
					h-1.7c-0.1-0.6-0.2-1.1-0.3-1.7c-0.1-0.6-0.2-1.1-0.3-1.7h-4.2c-0.1,0.6-0.2,1.1-0.3,1.7s-0.2,1.1-0.3,1.7h-1.7
					c0.3-1.4,0.6-2.7,0.9-3.9c0.3-1.2,0.6-2.3,0.9-3.4c0.3-1.1,0.6-2.1,0.9-3s0.6-1.9,0.9-2.9H633.6z M632.7,53.5
					c-0.3,1.1-0.6,2.1-0.9,3.2c-0.3,1.1-0.6,2.2-0.8,3.3h3.4c-0.3-1.1-0.5-2.2-0.8-3.3C633.3,55.6,633,54.6,632.7,53.5z"/>
				<path class="st3" d="M639.1,51.8c0.9-0.2,1.7-0.3,2.6-0.3c0.7,0,1.3,0.1,1.8,0.2c0.5,0.2,1,0.4,1.4,0.7c0.4,0.3,0.7,0.8,0.9,1.3
					c0.2,0.5,0.3,1.1,0.3,1.9c0,0.9-0.2,1.6-0.5,2.2s-0.8,1-1.4,1.3c0.2,0.3,0.3,0.6,0.6,1s0.5,0.9,0.7,1.4c0.2,0.5,0.5,1.1,0.7,1.6
					c0.2,0.6,0.4,1.1,0.6,1.6H645c-0.1-0.4-0.3-0.8-0.5-1.3s-0.4-1-0.7-1.4c-0.2-0.5-0.5-0.9-0.7-1.4c-0.2-0.4-0.4-0.8-0.6-1.1
					c-0.2,0-0.4,0-0.6,0.1c-0.2,0-0.4,0-0.6,0h-0.5v5.1h-1.7V51.8z M640.8,58.2h0.7c0.9,0,1.5-0.2,2-0.6c0.5-0.4,0.7-1.1,0.7-2.1
					c0-0.5-0.1-0.9-0.2-1.2c-0.1-0.3-0.3-0.6-0.5-0.8s-0.5-0.3-0.8-0.4c-0.3-0.1-0.7-0.1-1-0.1c-0.3,0-0.6,0-0.9,0.1V58.2z"/>
				<path class="st3" d="M652.9,65c-1.5,0-2.7-0.6-3.6-1.7c-0.8-1.2-1.2-2.9-1.2-5.3c0-1.2,0.1-2.3,0.4-3.1s0.6-1.5,1-2.1
					c0.4-0.5,0.9-0.9,1.5-1.1c0.6-0.2,1.2-0.4,1.9-0.4c0.6,0,1.1,0.1,1.6,0.2c0.5,0.1,0.9,0.3,1.2,0.5l-0.5,1.4
					c-0.3-0.2-0.6-0.4-1-0.5c-0.3-0.1-0.8-0.2-1.2-0.2c-1,0-1.7,0.4-2.2,1.3c-0.5,0.8-0.7,2.2-0.7,3.9c0,1.8,0.2,3.2,0.7,4.1
					c0.5,1,1.3,1.4,2.4,1.4c0.5,0,0.9-0.1,1.3-0.2c0.3-0.1,0.6-0.3,0.9-0.5l0.5,1.3c-0.3,0.2-0.7,0.4-1.1,0.6S653.5,65,652.9,65z"/>
				<path class="st3" d="M663.6,51.6h1.7v13.2h-1.7v-6.1h-4.3v6.1h-1.7V51.6h1.7v5.6h4.3V51.6z"/>
			</g>
		</g>
		<g>
			<g>
				<path class="st3" d="M576.4,56.6c0.8,0,1.4-0.2,1.8-0.7s0.6-1,0.6-1.8c0-0.4-0.1-0.7-0.2-1.1c-0.1-0.3-0.3-0.6-0.5-0.8
					c-0.2-0.2-0.5-0.5-0.7-0.7c-0.3-0.2-0.6-0.4-0.9-0.6c-0.3-0.2-0.7-0.5-1.1-0.7c-0.4-0.3-0.7-0.6-1-0.9c-0.3-0.4-0.5-0.8-0.7-1.2
					s-0.3-1-0.3-1.6c0-0.6,0.1-1.2,0.3-1.7c0.2-0.5,0.5-0.9,0.9-1.3s0.8-0.6,1.3-0.8c0.5-0.2,1.1-0.3,1.7-0.3c0.6,0,1.1,0.1,1.6,0.2
					c0.5,0.1,0.9,0.3,1.3,0.5l-0.6,1.6c-0.3-0.2-0.6-0.4-1-0.5c-0.4-0.1-0.7-0.2-1.1-0.2c-0.7,0-1.3,0.2-1.7,0.6s-0.6,1-0.6,1.7
					c0,0.4,0.1,0.8,0.2,1.1c0.1,0.3,0.3,0.6,0.5,0.8c0.2,0.2,0.5,0.5,0.8,0.7c0.3,0.2,0.6,0.4,1,0.6c0.3,0.2,0.7,0.5,1,0.7
					c0.4,0.3,0.7,0.6,1,0.9c0.3,0.3,0.5,0.7,0.7,1.2c0.2,0.5,0.3,1,0.3,1.6c0,0.6-0.1,1.1-0.3,1.6c-0.2,0.5-0.5,1-0.8,1.4
					c-0.4,0.4-0.8,0.7-1.4,0.9c-0.6,0.2-1.2,0.3-2,0.3c-0.7,0-1.3-0.1-1.8-0.2s-1-0.4-1.4-0.6l0.6-1.6c0.4,0.2,0.8,0.4,1.2,0.6
					C575.4,56.5,575.9,56.6,576.4,56.6z"/>
				<path class="st3" d="M585.2,56.6c0.8,0,1.4-0.2,1.8-0.7s0.6-1,0.6-1.8c0-0.4-0.1-0.7-0.2-1.1c-0.1-0.3-0.3-0.6-0.5-0.8
					c-0.2-0.2-0.5-0.5-0.7-0.7c-0.3-0.2-0.6-0.4-0.9-0.6c-0.3-0.2-0.7-0.5-1.1-0.7c-0.4-0.3-0.7-0.6-1-0.9c-0.3-0.4-0.5-0.8-0.7-1.2
					s-0.3-1-0.3-1.6c0-0.6,0.1-1.2,0.3-1.7c0.2-0.5,0.5-0.9,0.9-1.3s0.8-0.6,1.3-0.8c0.5-0.2,1.1-0.3,1.7-0.3c0.6,0,1.1,0.1,1.6,0.2
					c0.5,0.1,0.9,0.3,1.3,0.5l-0.6,1.6c-0.3-0.2-0.6-0.4-1-0.5c-0.4-0.1-0.7-0.2-1.1-0.2c-0.7,0-1.3,0.2-1.7,0.6s-0.6,1-0.6,1.7
					c0,0.4,0.1,0.8,0.2,1.1c0.1,0.3,0.3,0.6,0.5,0.8c0.2,0.2,0.5,0.5,0.8,0.7c0.3,0.2,0.6,0.4,1,0.6c0.3,0.2,0.7,0.5,1,0.7
					c0.4,0.3,0.7,0.6,1,0.9c0.3,0.3,0.5,0.7,0.7,1.2c0.2,0.5,0.3,1,0.3,1.6c0,0.6-0.1,1.1-0.3,1.6c-0.2,0.5-0.5,1-0.8,1.4
					c-0.4,0.4-0.8,0.7-1.4,0.9c-0.6,0.2-1.2,0.3-2,0.3c-0.7,0-1.3-0.1-1.8-0.2s-1-0.4-1.4-0.6l0.6-1.6c0.4,0.2,0.8,0.4,1.2,0.6
					C584.2,56.5,584.7,56.6,585.2,56.6z"/>
			</g>
		</g>
	</g>
</g>
<g id="Quit_Icon">
	<g>
		<g>
			<g>
				<path class="st4" d="M477.9,21c0,0.3-0.1,0.5-0.3,0.7l-1.3,1.3c-0.2,0.2-0.4,0.3-0.7,0.3s-0.5-0.1-0.7-0.3l-2.9-2.9l-2.9,2.9
					c-0.2,0.2-0.4,0.3-0.7,0.3s-0.5-0.1-0.7-0.3l-1.3-1.3c-0.2-0.2-0.3-0.4-0.3-0.7c0-0.3,0.1-0.5,0.3-0.7l2.9-2.9l-2.9-2.9
					c-0.2-0.2-0.3-0.4-0.3-0.7c0-0.3,0.1-0.5,0.3-0.7l1.3-1.3c0.2-0.2,0.4-0.3,0.7-0.3s0.5,0.1,0.7,0.3l2.9,2.9l2.9-2.9
					c0.2-0.2,0.4-0.3,0.7-0.3s0.5,0.1,0.7,0.3l1.3,1.3c0.2,0.2,0.3,0.4,0.3,0.7c0,0.3-0.1,0.5-0.3,0.7l-2.9,2.9l2.9,2.9
					C477.8,20.5,477.9,20.7,477.9,21z"/>
			</g>
		</g>
	</g>
</g>
<g id="Audio_Controls">
	<g id="Layer_23">
		<rect x="495.1" y="31.8" class="st4" width="4" height="80"/>
	</g>
	<g id="Layer_19">
		<rect x="495.1" y="75.7" class="st5" width="4" height="36.2"/>
	</g>
	<g id="Layer_18">
		<g>
			<g>
				<g>
					<path class="st4" d="M499.9,11.9v10.7c0,0.2-0.1,0.3-0.2,0.4s-0.3,0.2-0.4,0.2c-0.2,0-0.3-0.1-0.4-0.2l-3.3-3.3h-2.6
						c-0.2,0-0.3-0.1-0.4-0.2c-0.1-0.1-0.2-0.3-0.2-0.4v-3.8c0-0.2,0.1-0.3,0.2-0.4c0.1-0.1,0.3-0.2,0.4-0.2h2.6l3.3-3.3
						c0.1-0.1,0.3-0.2,0.4-0.2c0.2,0,0.3,0.1,0.4,0.2C499.8,11.6,499.9,11.7,499.9,11.9z M503.2,15.8c0.3,0.4,0.4,0.9,0.4,1.4
						c0,0.5-0.1,1-0.4,1.4c-0.3,0.4-0.6,0.7-1.1,0.9c-0.1,0-0.1,0-0.2,0c-0.2,0-0.3-0.1-0.4-0.2c-0.1-0.1-0.2-0.3-0.2-0.4
						c0-0.1,0-0.3,0.1-0.3c0.1-0.1,0.2-0.2,0.3-0.2c0.1-0.1,0.2-0.1,0.3-0.2c0.1-0.1,0.2-0.2,0.3-0.3c0.1-0.2,0.1-0.3,0.1-0.6
						c0-0.2,0-0.4-0.1-0.6c-0.1-0.2-0.2-0.3-0.3-0.3c-0.1-0.1-0.2-0.2-0.3-0.2c-0.1-0.1-0.2-0.2-0.3-0.2c-0.1-0.1-0.1-0.2-0.1-0.3
						c0-0.2,0.1-0.3,0.2-0.4c0.1-0.1,0.3-0.2,0.4-0.2c0.1,0,0.2,0,0.2,0C502.6,15.1,503,15.4,503.2,15.8z"/>
				</g>
			</g>
		</g>
	</g>
	<g id="Layer_21">
		<circle class="st6" cx="497.1" cy="74.7" r="4.2"/>
	</g>
</g>
<g id="Score">
	<g id="ScoreNum">
	</g>
</g>
<g id="LevelMeter">
	<g id="MeterBack">
	</g>
	<g id="Meter_x5F_Ring">
	</g>
	<g id="Ellipse_x5F_Meter">
	</g>
	<g id="Level_Txt">
	</g>
	<g id="Level_No.">
		<circle class="st0" cx="614.5" cy="204.2" r="72.5"/>
		<linearGradient id="SVGID_1_" gradientUnits="userSpaceOnUse" x1="545.5224" y1="195.3222" x2="683.5224" y2="195.3222">
			<stop  offset="0" style="stop-color:#ED174B"/>
			<stop  offset="0.3806" style="stop-color:#F5841F"/>
			<stop  offset="0.6931" style="stop-color:#F48270"/>
			<stop  offset="1" style="stop-color:#36AD47"/>
		</linearGradient>
		<path class="st7" d="M570.8,252.3c-13.1-11.9-21.3-29.1-21.3-48.1c0-35.9,29.1-65,65-65s65,29.1,65,65c0,19.2-8.3,36.5-21.6,48.4"
			/>
		<path class="st8" d="M668.9,252.4c-13.3,15-32.7,24.4-54.4,24.4c-19.7,0-37.7-7.9-50.8-20.7C566.5,253.5,670.6,250.4,668.9,252.4z
			"/>
		<polyline class="st0" points="664.1,260.5 643.6,238.2 653.9,228.2 673.7,247.9 		"/>
		<ellipse transform="matrix(0.7071 -0.7071 0.7071 0.7071 16.5273 547.2944)" class="st0" cx="668.9" cy="253.7" rx="8" ry="8"/>
		<polyline class="st0" points="566.3,260.5 586.8,238.2 576.5,228.2 556.6,247.9 		"/>
		<ellipse transform="matrix(0.7071 -0.7071 0.7071 0.7071 -16.6311 471.1804)" class="st0" cx="560.4" cy="255.7" rx="8" ry="8"/>
		<g>
			<path class="st9" d="M677.8,266.6c0.3-0.2,0.7-0.4,1-0.7s0.7-0.6,1-0.9c0.3-0.3,0.6-0.6,0.9-1c0.3-0.3,0.5-0.7,0.7-1h1.7v17.8
				h-2.2v-14.3c-0.3,0.3-0.6,0.6-1,0.9s-0.8,0.5-1.2,0.8L677.8,266.6z"/>
			<path class="st9" d="M688.4,272c0-1.7,0.1-3.2,0.2-4.4c0.2-1.2,0.4-2.1,0.7-2.9c0.3-0.7,0.8-1.2,1.3-1.6s1.2-0.5,1.9-0.5
				c0.7,0,1.4,0.2,1.9,0.5c0.5,0.3,1,0.8,1.3,1.6s0.6,1.7,0.7,2.9c0.2,1.2,0.2,2.7,0.2,4.4s-0.1,3.2-0.2,4.4
				c-0.2,1.2-0.4,2.1-0.7,2.9s-0.8,1.2-1.3,1.6c-0.5,0.3-1.2,0.5-1.9,0.5c-0.8,0-1.4-0.2-1.9-0.5c-0.5-0.3-1-0.8-1.3-1.6
				c-0.3-0.7-0.6-1.7-0.7-2.9C688.4,275.2,688.4,273.7,688.4,272z M694.4,272c0-1.4,0-2.6-0.1-3.5c-0.1-0.9-0.2-1.7-0.3-2.3
				c-0.1-0.6-0.3-1-0.6-1.2c-0.2-0.2-0.5-0.4-0.9-0.4s-0.6,0.1-0.9,0.4c-0.2,0.2-0.4,0.6-0.6,1.2c-0.1,0.6-0.3,1.3-0.3,2.3
				c-0.1,0.9-0.1,2.1-0.1,3.5c0,1.4,0,2.6,0.1,3.5c0.1,0.9,0.2,1.7,0.3,2.3c0.1,0.6,0.3,1,0.6,1.2c0.2,0.2,0.5,0.4,0.9,0.4
				s0.6-0.1,0.9-0.4c0.2-0.2,0.4-0.6,0.6-1.2c0.1-0.6,0.3-1.3,0.3-2.3S694.4,273.4,694.4,272z"/>
			<path class="st9" d="M680.5,294.7c-0.2-0.6-0.3-1.1-0.5-1.7c-0.2-0.5-0.3-1-0.5-1.5c-0.2-0.5-0.3-0.9-0.5-1.3
				c-0.1-0.4-0.3-0.7-0.4-1c0,0.5-0.1,1-0.1,1.5c0,0.6,0,1.1-0.1,1.7c0,0.6,0,1.2,0,1.8c0,0.6,0,1.1,0,1.7h-1c0-0.7,0-1.5,0.1-2.2
				s0.1-1.5,0.1-2.2c0-0.7,0.1-1.4,0.1-2.1c0-0.7,0.1-1.3,0.2-1.9h1.1c0.1,0.3,0.3,0.8,0.5,1.2c0.2,0.5,0.4,1,0.6,1.5
				c0.2,0.5,0.4,1,0.6,1.6c0.2,0.5,0.3,1,0.5,1.4c0.1-0.4,0.3-0.9,0.4-1.4c0.2-0.5,0.3-1,0.5-1.6s0.4-1,0.6-1.5
				c0.2-0.5,0.3-0.9,0.5-1.2h1.1c0.1,0.6,0.1,1.2,0.2,1.9c0,0.7,0.1,1.4,0.1,2.1c0,0.7,0.1,1.4,0.1,2.2s0,1.5,0.1,2.2h-1
				c0-0.5,0-1.1,0-1.7c0-0.6,0-1.2,0-1.8c0-0.6,0-1.2-0.1-1.7c0-0.6-0.1-1.1-0.1-1.5c-0.1,0.2-0.2,0.5-0.3,0.8
				c-0.1,0.3-0.2,0.6-0.3,1c-0.1,0.4-0.2,0.7-0.4,1.1c-0.1,0.4-0.2,0.7-0.4,1.1c-0.1,0.3-0.2,0.7-0.3,1c-0.1,0.3-0.2,0.5-0.2,0.7
				H680.5z"/>
			<path class="st9" d="M689,287.5c0.2,0.6,0.4,1.2,0.6,1.8s0.4,1.3,0.6,1.9s0.4,1.4,0.5,2.2c0.2,0.8,0.4,1.6,0.5,2.5h-1.1
				c-0.1-0.4-0.1-0.7-0.2-1.1c-0.1-0.4-0.1-0.7-0.2-1.1h-2.6c-0.1,0.4-0.2,0.7-0.2,1.1c-0.1,0.4-0.1,0.7-0.2,1.1h-1.1
				c0.2-0.9,0.4-1.7,0.5-2.5s0.4-1.5,0.6-2.2c0.2-0.7,0.4-1.3,0.6-1.9s0.4-1.2,0.6-1.8H689z M688.4,288.7c-0.2,0.7-0.4,1.3-0.6,2
				c-0.2,0.7-0.4,1.4-0.5,2.1h2.2c-0.2-0.7-0.3-1.4-0.5-2.1C688.8,290,688.6,289.4,688.4,288.7z"/>
			<path class="st9" d="M694.6,290.4l1.4-3h1.1l-2,4.1c0.2,0.3,0.4,0.7,0.6,1.1s0.4,0.7,0.6,1.1c0.2,0.4,0.4,0.7,0.5,1.1
				c0.2,0.4,0.3,0.7,0.4,1h-1.1c-0.1-0.2-0.2-0.5-0.3-0.8c-0.1-0.3-0.2-0.6-0.4-0.9s-0.3-0.6-0.4-0.9c-0.1-0.3-0.3-0.6-0.4-0.9
				c-0.1,0.3-0.3,0.6-0.4,0.9c-0.2,0.3-0.3,0.6-0.4,0.9s-0.3,0.6-0.4,0.9c-0.1,0.3-0.2,0.5-0.3,0.8H692c0.1-0.3,0.3-0.7,0.4-1
				c0.2-0.4,0.3-0.7,0.5-1.1c0.2-0.4,0.4-0.8,0.5-1.2c0.2-0.4,0.4-0.8,0.5-1.1l-1.9-4h1.1L694.6,290.4z"/>
		</g>
		<radialGradient id="SVGID_2_" cx="614.5224" cy="204.135" r="65" gradientUnits="userSpaceOnUse">
			<stop  offset="0.4798" style="stop-color:#39817A"/>
			<stop  offset="1" style="stop-color:#18625B"/>
		</radialGradient>
		<circle class="st10" cx="614.5" cy="204.1" r="65"/>
		<g>
			<path class="st11" d="M595.4,164.8v1.4h-2.8v11.1H591v-11.1h-2.8v-1.4H595.4z"/>
			<path class="st11" d="M605,171c0,1-0.1,1.9-0.3,2.7c-0.2,0.8-0.4,1.5-0.8,2.1c-0.4,0.6-0.8,1-1.4,1.3c-0.6,0.3-1.2,0.5-2,0.5
				s-1.4-0.2-2-0.5c-0.6-0.3-1-0.8-1.4-1.3c-0.4-0.6-0.6-1.3-0.8-2.1c-0.2-0.8-0.3-1.7-0.3-2.7s0.1-1.9,0.3-2.7
				c0.2-0.8,0.5-1.5,0.8-2.1c0.4-0.6,0.8-1,1.4-1.3c0.6-0.3,1.2-0.5,2-0.5s1.4,0.2,2,0.5c0.6,0.3,1,0.8,1.4,1.3
				c0.4,0.6,0.6,1.3,0.8,2.1C604.9,169.2,605,170,605,171z M603.2,171c0-0.8,0-1.4-0.1-2.1s-0.3-1.2-0.5-1.6
				c-0.2-0.4-0.5-0.8-0.8-1.1s-0.8-0.4-1.3-0.4s-0.9,0.1-1.3,0.4s-0.6,0.6-0.8,1.1c-0.2,0.5-0.4,1-0.5,1.6c-0.1,0.6-0.2,1.3-0.2,2.1
				s0.1,1.4,0.2,2.1c0.1,0.6,0.3,1.2,0.5,1.6c0.2,0.4,0.5,0.8,0.8,1c0.3,0.2,0.8,0.4,1.3,0.4s0.9-0.1,1.3-0.4c0.3-0.2,0.6-0.6,0.8-1
				c0.2-0.4,0.4-1,0.5-1.6C603.2,172.5,603.2,171.8,603.2,171z"/>
			<path class="st11" d="M614.6,164.8c-0.3,0.4-0.6,0.9-0.9,1.3c-0.3,0.5-0.7,1-1,1.5s-0.7,1-1.1,1.5s-0.7,1-1,1.4
				c0.4,0.4,0.8,0.8,1.2,1.4c0.4,0.5,0.8,1.1,1.2,1.7c0.4,0.6,0.8,1.2,1.2,1.8c0.4,0.6,0.6,1.2,0.9,1.7h-1.8
				c-0.3-0.6-0.5-1.1-0.9-1.7s-0.7-1.1-1-1.7c-0.4-0.5-0.7-1-1.1-1.5c-0.4-0.5-0.7-0.8-1.1-1.2v6h-1.6v-12.5h1.6v5.5
				c0.3-0.4,0.6-0.8,1-1.3c0.3-0.5,0.7-1,1-1.5c0.3-0.5,0.7-1,1-1.4c0.3-0.5,0.6-0.9,0.8-1.2H614.6z"/>
			<path class="st11" d="M616.7,177.2v-12.5h5.6v1.4h-4v3.9h3.6v1.3h-3.6v4.5h4.3v1.4H616.7z"/>
			<path class="st11" d="M631.1,177.2c-0.3-0.7-0.6-1.5-1-2.3c-0.4-0.8-0.8-1.6-1.2-2.5s-0.8-1.7-1.2-2.5c-0.4-0.8-0.8-1.6-1.2-2.3
				v9.6H625v-12.5h1.3c0.5,0.7,0.9,1.5,1.3,2.3c0.4,0.8,0.8,1.6,1.2,2.3c0.4,0.8,0.7,1.5,1.1,2.2c0.3,0.7,0.7,1.4,0.9,2.1v-8.9h1.5
				v12.5H631.1z"/>
			<path class="st11" d="M637,176.1c0.6,0,1.1-0.2,1.5-0.5c0.4-0.4,0.5-0.8,0.5-1.5c0-0.3-0.1-0.6-0.2-0.9c-0.1-0.3-0.2-0.5-0.4-0.7
				c-0.2-0.2-0.4-0.4-0.6-0.6c-0.2-0.2-0.5-0.3-0.7-0.5c-0.3-0.2-0.6-0.4-0.9-0.6s-0.6-0.5-0.8-0.8c-0.2-0.3-0.4-0.6-0.6-1
				c-0.2-0.4-0.2-0.8-0.2-1.4c0-0.5,0.1-1,0.3-1.4c0.2-0.4,0.4-0.8,0.7-1c0.3-0.3,0.7-0.5,1.1-0.7s0.9-0.2,1.4-0.2
				c0.5,0,0.9,0.1,1.3,0.2c0.4,0.1,0.8,0.3,1,0.4l-0.5,1.3c-0.3-0.2-0.5-0.3-0.8-0.4c-0.3-0.1-0.6-0.1-0.9-0.1
				c-0.6,0-1.1,0.2-1.4,0.5c-0.4,0.3-0.5,0.8-0.5,1.4c0,0.3,0.1,0.6,0.2,0.9s0.3,0.5,0.5,0.7c0.2,0.2,0.4,0.4,0.6,0.6
				c0.2,0.2,0.5,0.3,0.8,0.5c0.3,0.2,0.6,0.4,0.8,0.6c0.3,0.2,0.5,0.5,0.8,0.7c0.2,0.3,0.4,0.6,0.6,1c0.2,0.4,0.2,0.8,0.2,1.3
				c0,0.5-0.1,0.9-0.2,1.3c-0.1,0.4-0.4,0.8-0.7,1.1c-0.3,0.3-0.7,0.6-1.2,0.8c-0.5,0.2-1,0.3-1.6,0.3c-0.6,0-1.1-0.1-1.5-0.2
				c-0.4-0.1-0.8-0.3-1.2-0.5l0.5-1.3c0.3,0.2,0.6,0.3,1,0.5C636.1,176.1,636.5,176.1,637,176.1z"/>
		</g>
		<g>
			<path class="st3" d="M596.6,217.1c0-4.1,0.1-7.5,0.4-10.3c0.3-2.8,0.7-5,1.4-6.7c0.6-1.7,1.4-2.9,2.4-3.6c1-0.7,2.1-1.1,3.5-1.1
				c1.4,0,2.5,0.4,3.5,1.1c1,0.7,1.8,2,2.4,3.6c0.6,1.7,1.1,3.9,1.4,6.7c0.3,2.8,0.4,6.2,0.4,10.3c0,4.1-0.1,7.5-0.4,10.3
				c-0.3,2.8-0.7,5-1.4,6.7c-0.6,1.7-1.4,2.9-2.4,3.6s-2.1,1.1-3.5,1.1c-1.4,0-2.6-0.4-3.5-1.1c-1-0.7-1.8-2-2.4-3.6
				c-0.6-1.7-1.1-3.9-1.4-6.7C596.7,224.6,596.6,221.2,596.6,217.1z M607.8,217.1c0-3.3-0.1-6-0.2-8.2c-0.1-2.2-0.3-4-0.6-5.3
				c-0.3-1.3-0.6-2.3-1.1-2.8c-0.4-0.6-1-0.8-1.6-0.8c-0.6,0-1.2,0.3-1.6,0.8c-0.4,0.6-0.8,1.5-1.1,2.8c-0.3,1.3-0.5,3.1-0.6,5.3
				c-0.1,2.2-0.2,4.9-0.2,8.2c0,3.3,0.1,6,0.2,8.2c0.1,2.2,0.3,4,0.6,5.3c0.3,1.3,0.6,2.3,1.1,2.8c0.4,0.6,1,0.8,1.6,0.8
				c0.6,0,1.2-0.3,1.6-0.8c0.4-0.6,0.8-1.5,1.1-2.8c0.3-1.3,0.5-3.1,0.6-5.3C607.7,223.1,607.8,220.4,607.8,217.1z"/>
			<path class="st3" d="M618.6,233.7c1.2-0.2,2.3-0.5,3.3-0.9c1-0.5,1.9-1.2,2.7-2.1c0.8-1,1.5-2.2,2-3.8c0.6-1.6,1-3.6,1.2-6
				c-1.2,0.6-2.4,1-3.5,1c-2.3,0-4.1-1.1-5.3-3.4c-1.3-2.3-1.9-5.4-1.9-9.3c0-4.2,0.6-7.6,1.8-10c1.2-2.4,3.1-3.7,5.6-3.7
				c1.3,0,2.4,0.3,3.4,1c1,0.6,1.8,1.7,2.4,3.1c0.6,1.5,1.1,3.4,1.5,5.8c0.3,2.4,0.5,5.3,0.5,8.7c0,3-0.2,6-0.7,8.8
				c-0.5,2.8-1.2,5.4-2.3,7.6c-1,2.2-2.4,4-4.1,5.4c-1.7,1.4-3.8,2.1-6.3,2.2L618.6,233.7z M625.5,217.6c0.9,0,1.9-0.4,2.8-1.1
				c0-0.5,0-1,0-1.5c0-0.5,0-1,0-1.6c0-1.8,0-3.6-0.1-5.2c-0.1-1.7-0.2-3.1-0.5-4.4c-0.3-1.3-0.6-2.3-1.1-3c-0.5-0.7-1.1-1.1-2-1.1
				c-1.2,0-2.1,0.8-2.6,2.5c-0.5,1.7-0.7,3.9-0.7,6.6c0,3,0.3,5.2,1,6.6C623,216.9,624.1,217.6,625.5,217.6z"/>
		</g>
	</g>
	<path class="st12" d="M351.3,118.2h-27.4c-11.7,0-21.3-9.5-21.3-21.3V69.5c0-11.7,9.5-21.3,21.3-21.3h27.4
		c11.7,0,21.3,9.5,21.3,21.3v27.4C372.5,108.7,363,118.2,351.3,118.2z"/>
	<path class="st12" d="M351.3,278.2h-27.4c-11.7,0-21.3-9.5-21.3-21.3v-27.4c0-11.7,9.5-21.3,21.3-21.3h27.4
		c11.7,0,21.3,9.5,21.3,21.3v27.4C372.5,268.6,363,278.2,351.3,278.2z"/>
	<path class="st12" d="M271.6,358.6h-27.4c-11.7,0-21.3-9.5-21.3-21.3v-27.4c0-11.7,9.5-21.3,21.3-21.3h27.4
		c11.7,0,21.3,9.5,21.3,21.3v27.4C292.9,349.1,283.3,358.6,271.6,358.6z"/>
	<path class="st12" d="M193.5,198.6h-27.4c-11.7,0-21.3-9.5-21.3-21.3v-27.4c0-11.7,9.5-21.3,21.3-21.3h27.4
		c11.7,0,21.3,9.5,21.3,21.3v27.4C214.8,189.1,205.3,198.6,193.5,198.6z"/>
	<path class="st12" d="M351,440.4h-27.4c-11.7,0-21.3-9.5-21.3-21.3v-27.4c0-11.7,9.5-21.3,21.3-21.3H351c11.7,0,21.3,9.5,21.3,21.3
		v27.4C372.2,430.9,362.7,440.4,351,440.4z"/>
	<circle class="st13" cx="179.8" cy="163.6" r="20.4"/>
</g>
<g id="LevelMeter_copy">
	<g id="MeterBack_copy">
	</g>
	<g id="Meter_x5F_Ring_copy">
	</g>
	<g id="Ellipse_x5F_Meter_copy">
	</g>
	<g id="Level_Txt_copy">
	</g>
	<g id="Level_No._copy">
	</g>
</g>
<g id="Lifeline">
	<g id="Panel_x5F_Bar">
		<path class="st4" d="M146.3,15.4H21.9c-4.3,0-7.9,3.5-7.9,7.9v0c0,4.3,3.5,7.9,7.9,7.9h124.3V15.4z"/>
	</g>
	<g id="Layer_29">
		<circle class="st4" cx="88.6" cy="24.2" r="12.7"/>
	</g>
	<circle class="st4" cx="119.5" cy="23.3" r="12.7"/>
	<circle class="st4" cx="150.4" cy="23.7" r="12.7"/>
	<g>
		<path class="st0" d="M88.6,30.7c-0.1,0-0.3-0.1-0.4-0.2l-5.2-5c-0.1,0-0.1-0.1-0.2-0.2s-0.3-0.3-0.5-0.5c-0.2-0.3-0.4-0.5-0.6-0.8
			c-0.2-0.3-0.3-0.6-0.4-1c-0.1-0.4-0.2-0.8-0.2-1.2c0-1.2,0.4-2.2,1.1-2.9s1.7-1,2.9-1c0.3,0,0.7,0.1,1.1,0.2
			c0.4,0.1,0.7,0.3,1,0.5s0.6,0.4,0.8,0.6s0.4,0.4,0.6,0.6c0.2-0.2,0.4-0.4,0.6-0.6s0.5-0.4,0.8-0.6s0.6-0.4,1-0.5
			c0.4-0.1,0.7-0.2,1.1-0.2c1.2,0,2.2,0.3,2.9,1c0.7,0.7,1.1,1.7,1.1,2.9c0,1.2-0.6,2.5-1.9,3.8l-5.2,5
			C88.9,30.6,88.8,30.7,88.6,30.7z"/>
	</g>
	<g>
		<path class="st5" d="M119.1,30.2l-5.2-5c-0.1-0.1-1.9-1.7-1.9-3.8c0-2.5,1.5-3.9,4-3.9c1.5,0,2.8,1.2,3.5,1.8
			c0.7-0.7,2-1.8,3.5-1.8c2.5,0,4,1.5,4,3.9c0,2-1.8,3.7-1.9,3.8l-5.2,5c-0.1,0.1-0.2,0.2-0.4,0.2S119.2,30.3,119.1,30.2z"/>
	</g>
</g>
<g id="HeartGreen">
	<g>
		<path class="st5" d="M150,31.1l-5.2-5c-0.1-0.1-1.9-1.7-1.9-3.8c0-2.5,1.5-3.9,4-3.9c1.5,0,2.8,1.2,3.5,1.8c0.7-0.7,2-1.8,3.5-1.8
			c2.5,0,4,1.5,4,3.9c0,2-1.8,3.7-1.9,3.8l-5.2,5c-0.1,0.1-0.2,0.2-0.4,0.2S150.1,31.2,150,31.1z"/>
	</g>
</g>
<g id="LifeLIne_x5F_Txt">
	<g>
		<path class="st3" d="M24.9,26.3v0.9h-3.7v-8.3h1.1v7.4H24.9z"/>
		<path class="st3" d="M26.2,18.9h1.1v8.3h-1.1V18.9z"/>
		<path class="st3" d="M29.3,27.2v-8.3H33v0.9h-2.7v2.6h2.4v0.9h-2.4v3.9H29.3z"/>
		<path class="st3" d="M34.4,27.2v-8.3h3.7v0.9h-2.7v2.6h2.4v0.9h-2.4v3h2.8v0.9H34.4z"/>
		<path class="st3" d="M43.6,26.3v0.9h-3.7v-8.3h1.1v7.4H43.6z"/>
		<path class="st3" d="M44.9,18.9h1.1v8.3h-1.1V18.9z"/>
		<path class="st3" d="M52,27.2c-0.2-0.5-0.4-1-0.7-1.5c-0.2-0.5-0.5-1.1-0.8-1.7c-0.3-0.6-0.5-1.1-0.8-1.7
			c-0.3-0.5-0.6-1.1-0.8-1.5v6.4h-1v-8.3h0.9c0.3,0.5,0.6,1,0.9,1.5s0.6,1,0.8,1.5c0.3,0.5,0.5,1,0.7,1.5s0.4,1,0.6,1.4v-6h1v8.3H52
			z"/>
		<path class="st3" d="M54.9,27.2v-8.3h3.7v0.9H56v2.6h2.4v0.9H56v3h2.8v0.9H54.9z"/>
	</g>
</g>
<g id="Layer_30">
</g>
</svg>
